%TF.GenerationSoftware,KiCad,Pcbnew,(6.0.6-0)*%
%TF.CreationDate,2022-07-13T00:54:31+01:00*%
%TF.ProjectId,pedal-pi-Robin,70656461-6c2d-4706-992d-526f62696e2e,rev?*%
%TF.SameCoordinates,Original*%
%TF.FileFunction,Soldermask,Top*%
%TF.FilePolarity,Negative*%
%FSLAX46Y46*%
G04 Gerber Fmt 4.6, Leading zero omitted, Abs format (unit mm)*
G04 Created by KiCad (PCBNEW (6.0.6-0)) date 2022-07-13 00:54:31*
%MOMM*%
%LPD*%
G01*
G04 APERTURE LIST*
G04 Aperture macros list*
%AMRoundRect*
0 Rectangle with rounded corners*
0 $1 Rounding radius*
0 $2 $3 $4 $5 $6 $7 $8 $9 X,Y pos of 4 corners*
0 Add a 4 corners polygon primitive as box body*
4,1,4,$2,$3,$4,$5,$6,$7,$8,$9,$2,$3,0*
0 Add four circle primitives for the rounded corners*
1,1,$1+$1,$2,$3*
1,1,$1+$1,$4,$5*
1,1,$1+$1,$6,$7*
1,1,$1+$1,$8,$9*
0 Add four rect primitives between the rounded corners*
20,1,$1+$1,$2,$3,$4,$5,0*
20,1,$1+$1,$4,$5,$6,$7,0*
20,1,$1+$1,$6,$7,$8,$9,0*
20,1,$1+$1,$8,$9,$2,$3,0*%
%AMHorizOval*
0 Thick line with rounded ends*
0 $1 width*
0 $2 $3 position (X,Y) of the first rounded end (center of the circle)*
0 $4 $5 position (X,Y) of the second rounded end (center of the circle)*
0 Add line between two ends*
20,1,$1,$2,$3,$4,$5,0*
0 Add two circle primitives to create the rounded ends*
1,1,$1,$2,$3*
1,1,$1,$4,$5*%
G04 Aperture macros list end*
%ADD10C,2.100000*%
%ADD11RoundRect,0.250000X0.800000X-0.800000X0.800000X0.800000X-0.800000X0.800000X-0.800000X-0.800000X0*%
%ADD12RoundRect,0.250000X0.800000X0.800000X-0.800000X0.800000X-0.800000X-0.800000X0.800000X-0.800000X0*%
%ADD13RoundRect,0.250000X-0.800000X0.800000X-0.800000X-0.800000X0.800000X-0.800000X0.800000X0.800000X0*%
%ADD14C,2.000000*%
%ADD15O,2.000000X2.000000*%
%ADD16O,2.200000X2.200000*%
%ADD17C,2.200000*%
%ADD18RoundRect,0.250000X-0.900000X-0.900000X0.900000X-0.900000X0.900000X0.900000X-0.900000X0.900000X0*%
%ADD19C,2.300000*%
%ADD20C,2.999360*%
%ADD21RoundRect,0.250000X-1.200000X-0.800000X1.200000X-0.800000X1.200000X0.800000X-1.200000X0.800000X0*%
%ADD22O,2.900000X2.100000*%
%ADD23RoundRect,0.250000X1.200000X0.800000X-1.200000X0.800000X-1.200000X-0.800000X1.200000X-0.800000X0*%
%ADD24C,3.500000*%
%ADD25O,2.100000X2.100000*%
%ADD26HorizOval,2.100000X0.000000X0.000000X0.000000X0.000000X0*%
%ADD27O,4.500000X3.000000*%
%ADD28C,4.000000*%
%ADD29C,2.120000*%
%ADD30C,4.500000*%
G04 APERTURE END LIST*
D10*
%TO.C,C1*%
X157480000Y-119380000D03*
X162480000Y-119380000D03*
%TD*%
%TO.C,C2*%
X157480000Y-114300000D03*
X162480000Y-114300000D03*
%TD*%
D11*
%TO.C,C3*%
X162560000Y-109220000D03*
D10*
X162560000Y-106720000D03*
%TD*%
%TO.C,C4*%
X154305000Y-76835000D03*
X154305000Y-71835000D03*
%TD*%
%TO.C,C5*%
X157480000Y-106680000D03*
X157480000Y-111680000D03*
%TD*%
%TO.C,C6*%
X131445000Y-104775000D03*
X136445000Y-104775000D03*
%TD*%
%TO.C,C7*%
X136525000Y-118110000D03*
X131525000Y-118110000D03*
%TD*%
%TO.C,C8*%
X136525000Y-112395000D03*
X131525000Y-112395000D03*
%TD*%
D12*
%TO.C,C9*%
X139065000Y-122555000D03*
D10*
X136565000Y-122555000D03*
%TD*%
%TO.C,C10*%
X149047200Y-109131100D03*
X144047200Y-109131100D03*
%TD*%
D11*
%TO.C,C11*%
X137160000Y-60960000D03*
D10*
X137160000Y-57460000D03*
%TD*%
D11*
%TO.C,C12*%
X168910000Y-99060000D03*
D10*
X168910000Y-95560000D03*
%TD*%
D11*
%TO.C,C13*%
X115570000Y-60960000D03*
D10*
X115570000Y-57460000D03*
%TD*%
D13*
%TO.C,C14*%
X137795000Y-83820000D03*
D10*
X137795000Y-87320000D03*
%TD*%
%TO.C,C15*%
X143510000Y-82550000D03*
X148510000Y-82550000D03*
%TD*%
D11*
%TO.C,C16*%
X178435000Y-115570000D03*
D10*
X178435000Y-113070000D03*
%TD*%
D14*
%TO.C,CONN1*%
X144780000Y-67945000D03*
D15*
X142240000Y-67945000D03*
X139700000Y-67945000D03*
X137160000Y-67945000D03*
D16*
X134620000Y-67945000D03*
X132080000Y-67945000D03*
X129540000Y-67945000D03*
X127000000Y-67945000D03*
X124460000Y-67945000D03*
X121920000Y-67945000D03*
%TD*%
D14*
%TO.C,CONN2*%
X147320000Y-67945000D03*
D15*
X149860000Y-67945000D03*
D16*
X152400000Y-67945000D03*
X154940000Y-67945000D03*
X157480000Y-67945000D03*
X160020000Y-67945000D03*
X162560000Y-67945000D03*
X165100000Y-67945000D03*
X167640000Y-67945000D03*
X170180000Y-67945000D03*
%TD*%
D17*
%TO.C,CONN3*%
X121920000Y-65405000D03*
D16*
X124460000Y-65405000D03*
X127000000Y-65405000D03*
X129540000Y-65405000D03*
X132080000Y-65405000D03*
X134620000Y-65405000D03*
D15*
X137160000Y-65405000D03*
X139700000Y-65405000D03*
D16*
X142240000Y-65405000D03*
X144780000Y-65405000D03*
%TD*%
D17*
%TO.C,CONN4*%
X147320000Y-65405000D03*
D16*
X149860000Y-65405000D03*
X152400000Y-65405000D03*
X154940000Y-65405000D03*
X157480000Y-65405000D03*
X160020000Y-65405000D03*
X162560000Y-65405000D03*
X165100000Y-65405000D03*
X167640000Y-65405000D03*
X170180000Y-65405000D03*
%TD*%
D18*
%TO.C,D3*%
X145135600Y-103797100D03*
D19*
X147675600Y-103797100D03*
%TD*%
D20*
%TO.C,GND*%
X119380000Y-118110000D03*
%TD*%
%TO.C,+1V6*%
X177165000Y-118745000D03*
%TD*%
%TO.C,+5v*%
X178308000Y-92964000D03*
%TD*%
%TO.C,+3v3*%
X141224000Y-93484700D03*
%TD*%
D21*
%TO.C,U1*%
X142468600Y-112331500D03*
D22*
X142468600Y-114871500D03*
X142468600Y-117411500D03*
X142468600Y-119951500D03*
X150088600Y-119951500D03*
X150088600Y-117411500D03*
X150088600Y-114871500D03*
X150088600Y-112331500D03*
%TD*%
D23*
%TO.C,U2*%
X149860000Y-79375000D03*
D22*
X149860000Y-76835000D03*
X149860000Y-74295000D03*
X149860000Y-71755000D03*
X142240000Y-71755000D03*
X142240000Y-74295000D03*
X142240000Y-76835000D03*
X142240000Y-79375000D03*
%TD*%
D24*
%TO.C,J1*%
X164147000Y-123766500D03*
X170497000Y-123766500D03*
X176847000Y-123766500D03*
X164147000Y-140266500D03*
X170497000Y-140266500D03*
X176847000Y-140266500D03*
%TD*%
%TO.C,J2*%
X129286500Y-140266500D03*
X122936500Y-140266500D03*
X116586500Y-140266500D03*
X129286500Y-123766500D03*
X122936500Y-123766500D03*
X116586500Y-123766500D03*
%TD*%
D10*
%TO.C,R0*%
X166370000Y-119380000D03*
D25*
X173990000Y-119380000D03*
%TD*%
D10*
%TO.C,R1*%
X166370000Y-116840000D03*
D25*
X173990000Y-116840000D03*
%TD*%
D10*
%TO.C,R2*%
X163830000Y-116840000D03*
D25*
X156210000Y-116840000D03*
%TD*%
D10*
%TO.C,R3*%
X166370000Y-110490000D03*
D25*
X166370000Y-102870000D03*
%TD*%
D10*
%TO.C,R4*%
X153670000Y-116205000D03*
D25*
X153670000Y-108585000D03*
%TD*%
D10*
%TO.C,R6*%
X128270000Y-94615000D03*
D25*
X128270000Y-102235000D03*
%TD*%
D10*
%TO.C,R7*%
X131445000Y-94615000D03*
D25*
X131445000Y-102235000D03*
%TD*%
D10*
%TO.C,R9*%
X128270000Y-104775000D03*
D25*
X128270000Y-112395000D03*
%TD*%
D10*
%TO.C,R10*%
X130175000Y-115570000D03*
D25*
X137795000Y-115570000D03*
%TD*%
D10*
%TO.C,R11*%
X173990000Y-103505000D03*
D25*
X173990000Y-111125000D03*
%TD*%
D10*
%TO.C,R12*%
X173990000Y-113665000D03*
D25*
X166370000Y-113665000D03*
%TD*%
D10*
%TO.C,R13*%
X154940000Y-60960000D03*
D25*
X162560000Y-60960000D03*
%TD*%
D10*
%TO.C,R14*%
X124460000Y-71120000D03*
D26*
X129848154Y-76508154D03*
%TD*%
D10*
%TO.C,R15*%
X161290000Y-88265000D03*
D25*
X153670000Y-88265000D03*
%TD*%
D27*
%TO.C,SW2*%
X171450000Y-77645000D03*
X171450000Y-80645000D03*
%TD*%
%TO.C,SW3*%
X121920000Y-77645000D03*
X121920000Y-80645000D03*
%TD*%
D28*
%TO.C,SW4*%
X146177000Y-88138000D03*
X146177000Y-93218000D03*
X146177000Y-98298000D03*
%TD*%
D29*
%TO.C,RV1*%
X179705000Y-109855000D03*
X177205000Y-107355000D03*
X179705000Y-104855000D03*
%TD*%
D30*
%TO.C,SW1*%
X140970000Y-129540000D03*
X140970000Y-134620000D03*
X140970000Y-139700000D03*
X146050000Y-129540000D03*
X146050000Y-134620000D03*
X146050000Y-139700000D03*
X151130000Y-129540000D03*
X151130000Y-134620000D03*
X151130000Y-139700000D03*
%TD*%
G36*
X120618882Y-79035137D02*
G01*
X120652747Y-79050857D01*
X120889300Y-79116459D01*
X121133473Y-79142553D01*
X121170024Y-79143000D01*
X121171744Y-79144021D01*
X121171720Y-79146021D01*
X121170164Y-79146993D01*
X120925341Y-79167121D01*
X120687247Y-79226926D01*
X120607729Y-79261502D01*
X120605741Y-79261276D01*
X120604944Y-79259442D01*
X120605676Y-79258111D01*
X120659047Y-79215102D01*
X120680919Y-79149387D01*
X120663791Y-79082281D01*
X120616677Y-79038415D01*
X120616091Y-79036503D01*
X120617454Y-79035039D01*
X120618882Y-79035137D01*
G37*
G36*
X170148882Y-79035137D02*
G01*
X170182747Y-79050857D01*
X170419300Y-79116459D01*
X170663473Y-79142553D01*
X170700024Y-79143000D01*
X170701744Y-79144021D01*
X170701720Y-79146021D01*
X170700164Y-79146993D01*
X170455341Y-79167121D01*
X170217247Y-79226926D01*
X170137729Y-79261502D01*
X170135741Y-79261276D01*
X170134944Y-79259442D01*
X170135676Y-79258111D01*
X170189047Y-79215102D01*
X170210919Y-79149387D01*
X170193791Y-79082281D01*
X170146677Y-79038415D01*
X170146091Y-79036503D01*
X170147454Y-79035039D01*
X170148882Y-79035137D01*
G37*
G36*
X123234259Y-79028724D02*
G01*
X123235056Y-79030558D01*
X123234324Y-79031889D01*
X123180953Y-79074898D01*
X123159081Y-79140613D01*
X123176209Y-79207719D01*
X123223323Y-79251585D01*
X123223909Y-79253497D01*
X123222546Y-79254961D01*
X123221118Y-79254863D01*
X123187253Y-79239143D01*
X122950700Y-79173541D01*
X122706527Y-79147447D01*
X122669976Y-79147000D01*
X122668256Y-79145979D01*
X122668280Y-79143979D01*
X122669836Y-79143007D01*
X122914659Y-79122879D01*
X123152753Y-79063074D01*
X123232271Y-79028498D01*
X123234259Y-79028724D01*
G37*
G36*
X172764259Y-79028724D02*
G01*
X172765056Y-79030558D01*
X172764324Y-79031889D01*
X172710953Y-79074898D01*
X172689081Y-79140613D01*
X172706209Y-79207719D01*
X172753323Y-79251585D01*
X172753909Y-79253497D01*
X172752546Y-79254961D01*
X172751118Y-79254863D01*
X172717253Y-79239143D01*
X172480700Y-79173541D01*
X172236527Y-79147447D01*
X172199976Y-79147000D01*
X172198256Y-79145979D01*
X172198280Y-79143979D01*
X172199836Y-79143007D01*
X172444659Y-79122879D01*
X172682753Y-79063074D01*
X172762271Y-79028498D01*
X172764259Y-79028724D01*
G37*
M02*
