M48
; DRILL file {KiCad (6.0.6-0)} date Wednesday, July 13, 2022 at 12:54:34 AM
; FORMAT={-:-/ absolute / metric / decimal}
; #@! TF.CreationDate,2022-07-13T00:54:34+01:00
; #@! TF.GenerationSoftware,Kicad,Pcbnew,(6.0.6-0)
; #@! TF.FileFunction,MixedPlating,1,2
FMAT,2
METRIC
; #@! TA.AperFunction,Plated,PTH,ComponentDrill
T1C0.800
; #@! TA.AperFunction,Plated,PTH,ComponentDrill
T2C0.900
; #@! TA.AperFunction,Plated,PTH,ComponentDrill
T3C1.000
; #@! TA.AperFunction,Plated,PTH,ComponentDrill
T4C1.001
; #@! TA.AperFunction,Plated,PTH,ComponentDrill
T5C1.500
; #@! TA.AperFunction,Plated,PTH,ComponentDrill
T6C2.000
%
G90
G05
T1
X115.57Y-57.46
X115.57Y-60.96
X124.46Y-71.12
X128.27Y-94.615
X128.27Y-102.235
X128.27Y-104.775
X128.27Y-112.395
X129.848Y-76.508
X130.175Y-115.57
X131.445Y-94.615
X131.445Y-102.235
X131.445Y-104.775
X131.525Y-112.395
X131.525Y-118.11
X136.445Y-104.775
X136.525Y-112.395
X136.525Y-118.11
X136.565Y-122.555
X137.16Y-57.46
X137.16Y-60.96
X137.795Y-83.82
X137.795Y-87.32
X137.795Y-115.57
X139.065Y-122.555
X142.24Y-71.755
X142.24Y-74.295
X142.24Y-76.835
X142.24Y-79.375
X142.469Y-112.331
X142.469Y-114.871
X142.469Y-117.411
X142.469Y-119.951
X143.51Y-82.55
X144.047Y-109.131
X148.51Y-82.55
X149.047Y-109.131
X149.86Y-71.755
X149.86Y-74.295
X149.86Y-76.835
X149.86Y-79.375
X150.089Y-112.331
X150.089Y-114.871
X150.089Y-117.411
X150.089Y-119.951
X153.67Y-88.265
X153.67Y-108.585
X153.67Y-116.205
X154.305Y-71.835
X154.305Y-76.835
X154.94Y-60.96
X156.21Y-116.84
X157.48Y-106.68
X157.48Y-111.68
X157.48Y-114.3
X157.48Y-119.38
X161.29Y-88.265
X162.48Y-114.3
X162.48Y-119.38
X162.56Y-60.96
X162.56Y-106.72
X162.56Y-109.22
X163.83Y-116.84
X166.37Y-102.87
X166.37Y-110.49
X166.37Y-113.665
X166.37Y-116.84
X166.37Y-119.38
X168.91Y-95.56
X168.91Y-99.06
X173.99Y-103.505
X173.99Y-111.125
X173.99Y-113.665
X173.99Y-116.84
X173.99Y-119.38
X178.435Y-113.07
X178.435Y-115.57
T2
X145.136Y-103.797
X147.676Y-103.797
X177.205Y-107.355
X179.705Y-104.855
X179.705Y-109.855
T3
X121.92Y-65.405
X121.92Y-67.945
X124.46Y-65.405
X124.46Y-67.945
X127.0Y-65.405
X127.0Y-67.945
X129.54Y-65.405
X129.54Y-67.945
X132.08Y-65.405
X132.08Y-67.945
X134.62Y-65.405
X134.62Y-67.945
X137.16Y-65.405
X137.16Y-67.945
X139.7Y-65.405
X139.7Y-67.945
X142.24Y-65.405
X142.24Y-67.945
X144.78Y-65.405
X144.78Y-67.945
X147.32Y-65.405
X147.32Y-67.945
X149.86Y-65.405
X149.86Y-67.945
X152.4Y-65.405
X152.4Y-67.945
X154.94Y-65.405
X154.94Y-67.945
X157.48Y-65.405
X157.48Y-67.945
X160.02Y-65.405
X160.02Y-67.945
X162.56Y-65.405
X162.56Y-67.945
X165.1Y-65.405
X165.1Y-67.945
X167.64Y-65.405
X167.64Y-67.945
X170.18Y-65.405
X170.18Y-67.945
T4
X119.38Y-118.11
X141.224Y-93.485
X177.165Y-118.745
X178.308Y-92.964
T5
X116.587Y-123.766
X116.587Y-140.267
X122.936Y-123.766
X122.936Y-140.267
X129.286Y-123.766
X129.286Y-140.267
X164.147Y-123.766
X164.147Y-140.267
X170.497Y-123.766
X170.497Y-140.267
X176.847Y-123.766
X176.847Y-140.267
T6
X121.92Y-77.645
X121.92Y-80.645
X140.97Y-129.54
X140.97Y-134.62
X140.97Y-139.7
X146.05Y-129.54
X146.05Y-134.62
X146.05Y-139.7
X146.177Y-88.138
X146.177Y-93.218
X146.177Y-98.298
X151.13Y-129.54
X151.13Y-134.62
X151.13Y-139.7
X171.45Y-77.645
X171.45Y-80.645
T0
M30
