%TF.GenerationSoftware,KiCad,Pcbnew,(6.0.6-0)*%
%TF.CreationDate,2022-07-13T00:54:31+01:00*%
%TF.ProjectId,pedal-pi-Robin,70656461-6c2d-4706-992d-526f62696e2e,rev?*%
%TF.SameCoordinates,Original*%
%TF.FileFunction,Legend,Top*%
%TF.FilePolarity,Positive*%
%FSLAX46Y46*%
G04 Gerber Fmt 4.6, Leading zero omitted, Abs format (unit mm)*
G04 Created by KiCad (PCBNEW (6.0.6-0)) date 2022-07-13 00:54:31*
%MOMM*%
%LPD*%
G01*
G04 APERTURE LIST*
G04 Aperture macros list*
%AMRoundRect*
0 Rectangle with rounded corners*
0 $1 Rounding radius*
0 $2 $3 $4 $5 $6 $7 $8 $9 X,Y pos of 4 corners*
0 Add a 4 corners polygon primitive as box body*
4,1,4,$2,$3,$4,$5,$6,$7,$8,$9,$2,$3,0*
0 Add four circle primitives for the rounded corners*
1,1,$1+$1,$2,$3*
1,1,$1+$1,$4,$5*
1,1,$1+$1,$6,$7*
1,1,$1+$1,$8,$9*
0 Add four rect primitives between the rounded corners*
20,1,$1+$1,$2,$3,$4,$5,0*
20,1,$1+$1,$4,$5,$6,$7,0*
20,1,$1+$1,$6,$7,$8,$9,0*
20,1,$1+$1,$8,$9,$2,$3,0*%
%AMHorizOval*
0 Thick line with rounded ends*
0 $1 width*
0 $2 $3 position (X,Y) of the first rounded end (center of the circle)*
0 $4 $5 position (X,Y) of the second rounded end (center of the circle)*
0 Add line between two ends*
20,1,$1,$2,$3,$4,$5,0*
0 Add two circle primitives to create the rounded ends*
1,1,$1,$2,$3*
1,1,$1,$4,$5*%
G04 Aperture macros list end*
%ADD10C,0.150000*%
%ADD11C,0.300000*%
%ADD12C,0.120000*%
%ADD13C,2.100000*%
%ADD14RoundRect,0.250000X0.800000X-0.800000X0.800000X0.800000X-0.800000X0.800000X-0.800000X-0.800000X0*%
%ADD15RoundRect,0.250000X0.800000X0.800000X-0.800000X0.800000X-0.800000X-0.800000X0.800000X-0.800000X0*%
%ADD16RoundRect,0.250000X-0.800000X0.800000X-0.800000X-0.800000X0.800000X-0.800000X0.800000X0.800000X0*%
%ADD17C,2.000000*%
%ADD18O,2.000000X2.000000*%
%ADD19O,2.200000X2.200000*%
%ADD20C,2.200000*%
%ADD21RoundRect,0.250000X-0.900000X-0.900000X0.900000X-0.900000X0.900000X0.900000X-0.900000X0.900000X0*%
%ADD22C,2.300000*%
%ADD23C,2.999360*%
%ADD24RoundRect,0.250000X-1.200000X-0.800000X1.200000X-0.800000X1.200000X0.800000X-1.200000X0.800000X0*%
%ADD25O,2.900000X2.100000*%
%ADD26RoundRect,0.250000X1.200000X0.800000X-1.200000X0.800000X-1.200000X-0.800000X1.200000X-0.800000X0*%
%ADD27C,3.500000*%
%ADD28O,2.100000X2.100000*%
%ADD29HorizOval,2.100000X0.000000X0.000000X0.000000X0.000000X0*%
%ADD30O,4.500000X3.000000*%
%ADD31C,4.000000*%
%ADD32C,2.120000*%
%ADD33C,4.500000*%
G04 APERTURE END LIST*
D10*
%TO.C,C1*%
X159853333Y-119610142D02*
X159805714Y-119657761D01*
X159662857Y-119705380D01*
X159567619Y-119705380D01*
X159424761Y-119657761D01*
X159329523Y-119562523D01*
X159281904Y-119467285D01*
X159234285Y-119276809D01*
X159234285Y-119133952D01*
X159281904Y-118943476D01*
X159329523Y-118848238D01*
X159424761Y-118753000D01*
X159567619Y-118705380D01*
X159662857Y-118705380D01*
X159805714Y-118753000D01*
X159853333Y-118800619D01*
X160805714Y-119705380D02*
X160234285Y-119705380D01*
X160520000Y-119705380D02*
X160520000Y-118705380D01*
X160424761Y-118848238D01*
X160329523Y-118943476D01*
X160234285Y-118991095D01*
%TO.C,C2*%
X159813333Y-112347142D02*
X159765714Y-112394761D01*
X159622857Y-112442380D01*
X159527619Y-112442380D01*
X159384761Y-112394761D01*
X159289523Y-112299523D01*
X159241904Y-112204285D01*
X159194285Y-112013809D01*
X159194285Y-111870952D01*
X159241904Y-111680476D01*
X159289523Y-111585238D01*
X159384761Y-111490000D01*
X159527619Y-111442380D01*
X159622857Y-111442380D01*
X159765714Y-111490000D01*
X159813333Y-111537619D01*
X160194285Y-111537619D02*
X160241904Y-111490000D01*
X160337142Y-111442380D01*
X160575238Y-111442380D01*
X160670476Y-111490000D01*
X160718095Y-111537619D01*
X160765714Y-111632857D01*
X160765714Y-111728095D01*
X160718095Y-111870952D01*
X160146666Y-112442380D01*
X160765714Y-112442380D01*
%TO.C,C3*%
X160742333Y-104624142D02*
X160694714Y-104671761D01*
X160551857Y-104719380D01*
X160456619Y-104719380D01*
X160313761Y-104671761D01*
X160218523Y-104576523D01*
X160170904Y-104481285D01*
X160123285Y-104290809D01*
X160123285Y-104147952D01*
X160170904Y-103957476D01*
X160218523Y-103862238D01*
X160313761Y-103767000D01*
X160456619Y-103719380D01*
X160551857Y-103719380D01*
X160694714Y-103767000D01*
X160742333Y-103814619D01*
X161075666Y-103719380D02*
X161694714Y-103719380D01*
X161361380Y-104100333D01*
X161504238Y-104100333D01*
X161599476Y-104147952D01*
X161647095Y-104195571D01*
X161694714Y-104290809D01*
X161694714Y-104528904D01*
X161647095Y-104624142D01*
X161599476Y-104671761D01*
X161504238Y-104719380D01*
X161218523Y-104719380D01*
X161123285Y-104671761D01*
X161075666Y-104624142D01*
%TO.C,C4*%
X156948142Y-74334666D02*
X156995761Y-74382285D01*
X157043380Y-74525142D01*
X157043380Y-74620380D01*
X156995761Y-74763238D01*
X156900523Y-74858476D01*
X156805285Y-74906095D01*
X156614809Y-74953714D01*
X156471952Y-74953714D01*
X156281476Y-74906095D01*
X156186238Y-74858476D01*
X156091000Y-74763238D01*
X156043380Y-74620380D01*
X156043380Y-74525142D01*
X156091000Y-74382285D01*
X156138619Y-74334666D01*
X156376714Y-73477523D02*
X157043380Y-73477523D01*
X155995761Y-73715619D02*
X156710047Y-73953714D01*
X156710047Y-73334666D01*
%TO.C,C5*%
X157837142Y-104433666D02*
X157884761Y-104481285D01*
X157932380Y-104624142D01*
X157932380Y-104719380D01*
X157884761Y-104862238D01*
X157789523Y-104957476D01*
X157694285Y-105005095D01*
X157503809Y-105052714D01*
X157360952Y-105052714D01*
X157170476Y-105005095D01*
X157075238Y-104957476D01*
X156980000Y-104862238D01*
X156932380Y-104719380D01*
X156932380Y-104624142D01*
X156980000Y-104481285D01*
X157027619Y-104433666D01*
X156932380Y-103528904D02*
X156932380Y-104005095D01*
X157408571Y-104052714D01*
X157360952Y-104005095D01*
X157313333Y-103909857D01*
X157313333Y-103671761D01*
X157360952Y-103576523D01*
X157408571Y-103528904D01*
X157503809Y-103481285D01*
X157741904Y-103481285D01*
X157837142Y-103528904D01*
X157884761Y-103576523D01*
X157932380Y-103671761D01*
X157932380Y-103909857D01*
X157884761Y-104005095D01*
X157837142Y-104052714D01*
%TO.C,C6*%
X133778333Y-102822142D02*
X133730714Y-102869761D01*
X133587857Y-102917380D01*
X133492619Y-102917380D01*
X133349761Y-102869761D01*
X133254523Y-102774523D01*
X133206904Y-102679285D01*
X133159285Y-102488809D01*
X133159285Y-102345952D01*
X133206904Y-102155476D01*
X133254523Y-102060238D01*
X133349761Y-101965000D01*
X133492619Y-101917380D01*
X133587857Y-101917380D01*
X133730714Y-101965000D01*
X133778333Y-102012619D01*
X134635476Y-101917380D02*
X134445000Y-101917380D01*
X134349761Y-101965000D01*
X134302142Y-102012619D01*
X134206904Y-102155476D01*
X134159285Y-102345952D01*
X134159285Y-102726904D01*
X134206904Y-102822142D01*
X134254523Y-102869761D01*
X134349761Y-102917380D01*
X134540238Y-102917380D01*
X134635476Y-102869761D01*
X134683095Y-102822142D01*
X134730714Y-102726904D01*
X134730714Y-102488809D01*
X134683095Y-102393571D01*
X134635476Y-102345952D01*
X134540238Y-102298333D01*
X134349761Y-102298333D01*
X134254523Y-102345952D01*
X134206904Y-102393571D01*
X134159285Y-102488809D01*
%TO.C,C7*%
X128865333Y-118721142D02*
X128817714Y-118768761D01*
X128674857Y-118816380D01*
X128579619Y-118816380D01*
X128436761Y-118768761D01*
X128341523Y-118673523D01*
X128293904Y-118578285D01*
X128246285Y-118387809D01*
X128246285Y-118244952D01*
X128293904Y-118054476D01*
X128341523Y-117959238D01*
X128436761Y-117864000D01*
X128579619Y-117816380D01*
X128674857Y-117816380D01*
X128817714Y-117864000D01*
X128865333Y-117911619D01*
X129198666Y-117816380D02*
X129865333Y-117816380D01*
X129436761Y-118816380D01*
%TO.C,C8*%
X132421333Y-110847142D02*
X132373714Y-110894761D01*
X132230857Y-110942380D01*
X132135619Y-110942380D01*
X131992761Y-110894761D01*
X131897523Y-110799523D01*
X131849904Y-110704285D01*
X131802285Y-110513809D01*
X131802285Y-110370952D01*
X131849904Y-110180476D01*
X131897523Y-110085238D01*
X131992761Y-109990000D01*
X132135619Y-109942380D01*
X132230857Y-109942380D01*
X132373714Y-109990000D01*
X132421333Y-110037619D01*
X132992761Y-110370952D02*
X132897523Y-110323333D01*
X132849904Y-110275714D01*
X132802285Y-110180476D01*
X132802285Y-110132857D01*
X132849904Y-110037619D01*
X132897523Y-109990000D01*
X132992761Y-109942380D01*
X133183238Y-109942380D01*
X133278476Y-109990000D01*
X133326095Y-110037619D01*
X133373714Y-110132857D01*
X133373714Y-110180476D01*
X133326095Y-110275714D01*
X133278476Y-110323333D01*
X133183238Y-110370952D01*
X132992761Y-110370952D01*
X132897523Y-110418571D01*
X132849904Y-110466190D01*
X132802285Y-110561428D01*
X132802285Y-110751904D01*
X132849904Y-110847142D01*
X132897523Y-110894761D01*
X132992761Y-110942380D01*
X133183238Y-110942380D01*
X133278476Y-110894761D01*
X133326095Y-110847142D01*
X133373714Y-110751904D01*
X133373714Y-110561428D01*
X133326095Y-110466190D01*
X133278476Y-110418571D01*
X133183238Y-110370952D01*
%TO.C,C9*%
X137648333Y-126722142D02*
X137600714Y-126769761D01*
X137457857Y-126817380D01*
X137362619Y-126817380D01*
X137219761Y-126769761D01*
X137124523Y-126674523D01*
X137076904Y-126579285D01*
X137029285Y-126388809D01*
X137029285Y-126245952D01*
X137076904Y-126055476D01*
X137124523Y-125960238D01*
X137219761Y-125865000D01*
X137362619Y-125817380D01*
X137457857Y-125817380D01*
X137600714Y-125865000D01*
X137648333Y-125912619D01*
X138124523Y-126817380D02*
X138315000Y-126817380D01*
X138410238Y-126769761D01*
X138457857Y-126722142D01*
X138553095Y-126579285D01*
X138600714Y-126388809D01*
X138600714Y-126007857D01*
X138553095Y-125912619D01*
X138505476Y-125865000D01*
X138410238Y-125817380D01*
X138219761Y-125817380D01*
X138124523Y-125865000D01*
X138076904Y-125912619D01*
X138029285Y-126007857D01*
X138029285Y-126245952D01*
X138076904Y-126341190D01*
X138124523Y-126388809D01*
X138219761Y-126436428D01*
X138410238Y-126436428D01*
X138505476Y-126388809D01*
X138553095Y-126341190D01*
X138600714Y-126245952D01*
%TO.C,C10*%
X145915142Y-107291142D02*
X145867523Y-107338761D01*
X145724666Y-107386380D01*
X145629428Y-107386380D01*
X145486571Y-107338761D01*
X145391333Y-107243523D01*
X145343714Y-107148285D01*
X145296095Y-106957809D01*
X145296095Y-106814952D01*
X145343714Y-106624476D01*
X145391333Y-106529238D01*
X145486571Y-106434000D01*
X145629428Y-106386380D01*
X145724666Y-106386380D01*
X145867523Y-106434000D01*
X145915142Y-106481619D01*
X146867523Y-107386380D02*
X146296095Y-107386380D01*
X146581809Y-107386380D02*
X146581809Y-106386380D01*
X146486571Y-106529238D01*
X146391333Y-106624476D01*
X146296095Y-106672095D01*
X147486571Y-106386380D02*
X147581809Y-106386380D01*
X147677047Y-106434000D01*
X147724666Y-106481619D01*
X147772285Y-106576857D01*
X147819904Y-106767333D01*
X147819904Y-107005428D01*
X147772285Y-107195904D01*
X147724666Y-107291142D01*
X147677047Y-107338761D01*
X147581809Y-107386380D01*
X147486571Y-107386380D01*
X147391333Y-107338761D01*
X147343714Y-107291142D01*
X147296095Y-107195904D01*
X147248476Y-107005428D01*
X147248476Y-106767333D01*
X147296095Y-106576857D01*
X147343714Y-106481619D01*
X147391333Y-106434000D01*
X147486571Y-106386380D01*
%TO.C,C11*%
X142486142Y-58777142D02*
X142438523Y-58824761D01*
X142295666Y-58872380D01*
X142200428Y-58872380D01*
X142057571Y-58824761D01*
X141962333Y-58729523D01*
X141914714Y-58634285D01*
X141867095Y-58443809D01*
X141867095Y-58300952D01*
X141914714Y-58110476D01*
X141962333Y-58015238D01*
X142057571Y-57920000D01*
X142200428Y-57872380D01*
X142295666Y-57872380D01*
X142438523Y-57920000D01*
X142486142Y-57967619D01*
X143438523Y-58872380D02*
X142867095Y-58872380D01*
X143152809Y-58872380D02*
X143152809Y-57872380D01*
X143057571Y-58015238D01*
X142962333Y-58110476D01*
X142867095Y-58158095D01*
X144390904Y-58872380D02*
X143819476Y-58872380D01*
X144105190Y-58872380D02*
X144105190Y-57872380D01*
X144009952Y-58015238D01*
X143914714Y-58110476D01*
X143819476Y-58158095D01*
%TO.C,C12*%
X162298142Y-97639142D02*
X162250523Y-97686761D01*
X162107666Y-97734380D01*
X162012428Y-97734380D01*
X161869571Y-97686761D01*
X161774333Y-97591523D01*
X161726714Y-97496285D01*
X161679095Y-97305809D01*
X161679095Y-97162952D01*
X161726714Y-96972476D01*
X161774333Y-96877238D01*
X161869571Y-96782000D01*
X162012428Y-96734380D01*
X162107666Y-96734380D01*
X162250523Y-96782000D01*
X162298142Y-96829619D01*
X163250523Y-97734380D02*
X162679095Y-97734380D01*
X162964809Y-97734380D02*
X162964809Y-96734380D01*
X162869571Y-96877238D01*
X162774333Y-96972476D01*
X162679095Y-97020095D01*
X163631476Y-96829619D02*
X163679095Y-96782000D01*
X163774333Y-96734380D01*
X164012428Y-96734380D01*
X164107666Y-96782000D01*
X164155285Y-96829619D01*
X164202904Y-96924857D01*
X164202904Y-97020095D01*
X164155285Y-97162952D01*
X163583857Y-97734380D01*
X164202904Y-97734380D01*
%TO.C,C13*%
X121023142Y-58777142D02*
X120975523Y-58824761D01*
X120832666Y-58872380D01*
X120737428Y-58872380D01*
X120594571Y-58824761D01*
X120499333Y-58729523D01*
X120451714Y-58634285D01*
X120404095Y-58443809D01*
X120404095Y-58300952D01*
X120451714Y-58110476D01*
X120499333Y-58015238D01*
X120594571Y-57920000D01*
X120737428Y-57872380D01*
X120832666Y-57872380D01*
X120975523Y-57920000D01*
X121023142Y-57967619D01*
X121975523Y-58872380D02*
X121404095Y-58872380D01*
X121689809Y-58872380D02*
X121689809Y-57872380D01*
X121594571Y-58015238D01*
X121499333Y-58110476D01*
X121404095Y-58158095D01*
X122308857Y-57872380D02*
X122927904Y-57872380D01*
X122594571Y-58253333D01*
X122737428Y-58253333D01*
X122832666Y-58300952D01*
X122880285Y-58348571D01*
X122927904Y-58443809D01*
X122927904Y-58681904D01*
X122880285Y-58777142D01*
X122832666Y-58824761D01*
X122737428Y-58872380D01*
X122451714Y-58872380D01*
X122356476Y-58824761D01*
X122308857Y-58777142D01*
%TO.C,C14*%
X131310142Y-86717142D02*
X131262523Y-86764761D01*
X131119666Y-86812380D01*
X131024428Y-86812380D01*
X130881571Y-86764761D01*
X130786333Y-86669523D01*
X130738714Y-86574285D01*
X130691095Y-86383809D01*
X130691095Y-86240952D01*
X130738714Y-86050476D01*
X130786333Y-85955238D01*
X130881571Y-85860000D01*
X131024428Y-85812380D01*
X131119666Y-85812380D01*
X131262523Y-85860000D01*
X131310142Y-85907619D01*
X132262523Y-86812380D02*
X131691095Y-86812380D01*
X131976809Y-86812380D02*
X131976809Y-85812380D01*
X131881571Y-85955238D01*
X131786333Y-86050476D01*
X131691095Y-86098095D01*
X133119666Y-86145714D02*
X133119666Y-86812380D01*
X132881571Y-85764761D02*
X132643476Y-86479047D01*
X133262523Y-86479047D01*
%TO.C,C15*%
X145153142Y-84812142D02*
X145105523Y-84859761D01*
X144962666Y-84907380D01*
X144867428Y-84907380D01*
X144724571Y-84859761D01*
X144629333Y-84764523D01*
X144581714Y-84669285D01*
X144534095Y-84478809D01*
X144534095Y-84335952D01*
X144581714Y-84145476D01*
X144629333Y-84050238D01*
X144724571Y-83955000D01*
X144867428Y-83907380D01*
X144962666Y-83907380D01*
X145105523Y-83955000D01*
X145153142Y-84002619D01*
X146105523Y-84907380D02*
X145534095Y-84907380D01*
X145819809Y-84907380D02*
X145819809Y-83907380D01*
X145724571Y-84050238D01*
X145629333Y-84145476D01*
X145534095Y-84193095D01*
X147010285Y-83907380D02*
X146534095Y-83907380D01*
X146486476Y-84383571D01*
X146534095Y-84335952D01*
X146629333Y-84288333D01*
X146867428Y-84288333D01*
X146962666Y-84335952D01*
X147010285Y-84383571D01*
X147057904Y-84478809D01*
X147057904Y-84716904D01*
X147010285Y-84812142D01*
X146962666Y-84859761D01*
X146867428Y-84907380D01*
X146629333Y-84907380D01*
X146534095Y-84859761D01*
X146486476Y-84812142D01*
%TO.C,C16*%
X179443142Y-118340142D02*
X179395523Y-118387761D01*
X179252666Y-118435380D01*
X179157428Y-118435380D01*
X179014571Y-118387761D01*
X178919333Y-118292523D01*
X178871714Y-118197285D01*
X178824095Y-118006809D01*
X178824095Y-117863952D01*
X178871714Y-117673476D01*
X178919333Y-117578238D01*
X179014571Y-117483000D01*
X179157428Y-117435380D01*
X179252666Y-117435380D01*
X179395523Y-117483000D01*
X179443142Y-117530619D01*
X180395523Y-118435380D02*
X179824095Y-118435380D01*
X180109809Y-118435380D02*
X180109809Y-117435380D01*
X180014571Y-117578238D01*
X179919333Y-117673476D01*
X179824095Y-117721095D01*
X181252666Y-117435380D02*
X181062190Y-117435380D01*
X180966952Y-117483000D01*
X180919333Y-117530619D01*
X180824095Y-117673476D01*
X180776476Y-117863952D01*
X180776476Y-118244904D01*
X180824095Y-118340142D01*
X180871714Y-118387761D01*
X180966952Y-118435380D01*
X181157428Y-118435380D01*
X181252666Y-118387761D01*
X181300285Y-118340142D01*
X181347904Y-118244904D01*
X181347904Y-118006809D01*
X181300285Y-117911571D01*
X181252666Y-117863952D01*
X181157428Y-117816333D01*
X180966952Y-117816333D01*
X180871714Y-117863952D01*
X180824095Y-117911571D01*
X180776476Y-118006809D01*
%TO.C,CONN1*%
X140501904Y-63857142D02*
X140454285Y-63904761D01*
X140311428Y-63952380D01*
X140216190Y-63952380D01*
X140073333Y-63904761D01*
X139978095Y-63809523D01*
X139930476Y-63714285D01*
X139882857Y-63523809D01*
X139882857Y-63380952D01*
X139930476Y-63190476D01*
X139978095Y-63095238D01*
X140073333Y-63000000D01*
X140216190Y-62952380D01*
X140311428Y-62952380D01*
X140454285Y-63000000D01*
X140501904Y-63047619D01*
X141120952Y-62952380D02*
X141311428Y-62952380D01*
X141406666Y-63000000D01*
X141501904Y-63095238D01*
X141549523Y-63285714D01*
X141549523Y-63619047D01*
X141501904Y-63809523D01*
X141406666Y-63904761D01*
X141311428Y-63952380D01*
X141120952Y-63952380D01*
X141025714Y-63904761D01*
X140930476Y-63809523D01*
X140882857Y-63619047D01*
X140882857Y-63285714D01*
X140930476Y-63095238D01*
X141025714Y-63000000D01*
X141120952Y-62952380D01*
X141978095Y-63952380D02*
X141978095Y-62952380D01*
X142549523Y-63952380D01*
X142549523Y-62952380D01*
X143025714Y-63952380D02*
X143025714Y-62952380D01*
X143597142Y-63952380D01*
X143597142Y-62952380D01*
X144597142Y-63952380D02*
X144025714Y-63952380D01*
X144311428Y-63952380D02*
X144311428Y-62952380D01*
X144216190Y-63095238D01*
X144120952Y-63190476D01*
X144025714Y-63238095D01*
%TO.C,CONN3*%
X120181904Y-63857142D02*
X120134285Y-63904761D01*
X119991428Y-63952380D01*
X119896190Y-63952380D01*
X119753333Y-63904761D01*
X119658095Y-63809523D01*
X119610476Y-63714285D01*
X119562857Y-63523809D01*
X119562857Y-63380952D01*
X119610476Y-63190476D01*
X119658095Y-63095238D01*
X119753333Y-63000000D01*
X119896190Y-62952380D01*
X119991428Y-62952380D01*
X120134285Y-63000000D01*
X120181904Y-63047619D01*
X120800952Y-62952380D02*
X120991428Y-62952380D01*
X121086666Y-63000000D01*
X121181904Y-63095238D01*
X121229523Y-63285714D01*
X121229523Y-63619047D01*
X121181904Y-63809523D01*
X121086666Y-63904761D01*
X120991428Y-63952380D01*
X120800952Y-63952380D01*
X120705714Y-63904761D01*
X120610476Y-63809523D01*
X120562857Y-63619047D01*
X120562857Y-63285714D01*
X120610476Y-63095238D01*
X120705714Y-63000000D01*
X120800952Y-62952380D01*
X121658095Y-63952380D02*
X121658095Y-62952380D01*
X122229523Y-63952380D01*
X122229523Y-62952380D01*
X122705714Y-63952380D02*
X122705714Y-62952380D01*
X123277142Y-63952380D01*
X123277142Y-62952380D01*
X123658095Y-62952380D02*
X124277142Y-62952380D01*
X123943809Y-63333333D01*
X124086666Y-63333333D01*
X124181904Y-63380952D01*
X124229523Y-63428571D01*
X124277142Y-63523809D01*
X124277142Y-63761904D01*
X124229523Y-63857142D01*
X124181904Y-63904761D01*
X124086666Y-63952380D01*
X123800952Y-63952380D01*
X123705714Y-63904761D01*
X123658095Y-63857142D01*
%TO.C,D3*%
X149248904Y-104338380D02*
X149248904Y-103338380D01*
X149487000Y-103338380D01*
X149629857Y-103386000D01*
X149725095Y-103481238D01*
X149772714Y-103576476D01*
X149820333Y-103766952D01*
X149820333Y-103909809D01*
X149772714Y-104100285D01*
X149725095Y-104195523D01*
X149629857Y-104290761D01*
X149487000Y-104338380D01*
X149248904Y-104338380D01*
X150153666Y-103338380D02*
X150772714Y-103338380D01*
X150439380Y-103719333D01*
X150582238Y-103719333D01*
X150677476Y-103766952D01*
X150725095Y-103814571D01*
X150772714Y-103909809D01*
X150772714Y-104147904D01*
X150725095Y-104243142D01*
X150677476Y-104290761D01*
X150582238Y-104338380D01*
X150296523Y-104338380D01*
X150201285Y-104290761D01*
X150153666Y-104243142D01*
%TO.C,GND*%
X118745095Y-115197000D02*
X118649857Y-115149380D01*
X118507000Y-115149380D01*
X118364142Y-115197000D01*
X118268904Y-115292238D01*
X118221285Y-115387476D01*
X118173666Y-115577952D01*
X118173666Y-115720809D01*
X118221285Y-115911285D01*
X118268904Y-116006523D01*
X118364142Y-116101761D01*
X118507000Y-116149380D01*
X118602238Y-116149380D01*
X118745095Y-116101761D01*
X118792714Y-116054142D01*
X118792714Y-115720809D01*
X118602238Y-115720809D01*
X119221285Y-116149380D02*
X119221285Y-115149380D01*
X119792714Y-116149380D01*
X119792714Y-115149380D01*
X120268904Y-116149380D02*
X120268904Y-115149380D01*
X120507000Y-115149380D01*
X120649857Y-115197000D01*
X120745095Y-115292238D01*
X120792714Y-115387476D01*
X120840333Y-115577952D01*
X120840333Y-115720809D01*
X120792714Y-115911285D01*
X120745095Y-116006523D01*
X120649857Y-116101761D01*
X120507000Y-116149380D01*
X120268904Y-116149380D01*
%TO.C,+1V6*%
X175403095Y-120975428D02*
X176165000Y-120975428D01*
X175784047Y-121356380D02*
X175784047Y-120594476D01*
X177165000Y-121356380D02*
X176593571Y-121356380D01*
X176879285Y-121356380D02*
X176879285Y-120356380D01*
X176784047Y-120499238D01*
X176688809Y-120594476D01*
X176593571Y-120642095D01*
X177450714Y-120356380D02*
X177784047Y-121356380D01*
X178117380Y-120356380D01*
X178879285Y-120356380D02*
X178688809Y-120356380D01*
X178593571Y-120404000D01*
X178545952Y-120451619D01*
X178450714Y-120594476D01*
X178403095Y-120784952D01*
X178403095Y-121165904D01*
X178450714Y-121261142D01*
X178498333Y-121308761D01*
X178593571Y-121356380D01*
X178784047Y-121356380D01*
X178879285Y-121308761D01*
X178926904Y-121261142D01*
X178974523Y-121165904D01*
X178974523Y-120927809D01*
X178926904Y-120832571D01*
X178879285Y-120784952D01*
X178784047Y-120737333D01*
X178593571Y-120737333D01*
X178498333Y-120784952D01*
X178450714Y-120832571D01*
X178403095Y-120927809D01*
%TO.C,+5v*%
X176942904Y-90622428D02*
X177704809Y-90622428D01*
X177323857Y-91003380D02*
X177323857Y-90241476D01*
X178657190Y-90003380D02*
X178181000Y-90003380D01*
X178133380Y-90479571D01*
X178181000Y-90431952D01*
X178276238Y-90384333D01*
X178514333Y-90384333D01*
X178609571Y-90431952D01*
X178657190Y-90479571D01*
X178704809Y-90574809D01*
X178704809Y-90812904D01*
X178657190Y-90908142D01*
X178609571Y-90955761D01*
X178514333Y-91003380D01*
X178276238Y-91003380D01*
X178181000Y-90955761D01*
X178133380Y-90908142D01*
X179038142Y-90336714D02*
X179276238Y-91003380D01*
X179514333Y-90336714D01*
%TO.C,+3v3*%
X139509714Y-95956428D02*
X140271619Y-95956428D01*
X139890666Y-96337380D02*
X139890666Y-95575476D01*
X140652571Y-95337380D02*
X141271619Y-95337380D01*
X140938285Y-95718333D01*
X141081142Y-95718333D01*
X141176380Y-95765952D01*
X141224000Y-95813571D01*
X141271619Y-95908809D01*
X141271619Y-96146904D01*
X141224000Y-96242142D01*
X141176380Y-96289761D01*
X141081142Y-96337380D01*
X140795428Y-96337380D01*
X140700190Y-96289761D01*
X140652571Y-96242142D01*
X141604952Y-95670714D02*
X141843047Y-96337380D01*
X142081142Y-95670714D01*
X142366857Y-95337380D02*
X142985904Y-95337380D01*
X142652571Y-95718333D01*
X142795428Y-95718333D01*
X142890666Y-95765952D01*
X142938285Y-95813571D01*
X142985904Y-95908809D01*
X142985904Y-96146904D01*
X142938285Y-96242142D01*
X142890666Y-96289761D01*
X142795428Y-96337380D01*
X142509714Y-96337380D01*
X142414476Y-96289761D01*
X142366857Y-96242142D01*
%TO.C,U1*%
X140716095Y-109307380D02*
X140716095Y-110116904D01*
X140763714Y-110212142D01*
X140811333Y-110259761D01*
X140906571Y-110307380D01*
X141097047Y-110307380D01*
X141192285Y-110259761D01*
X141239904Y-110212142D01*
X141287523Y-110116904D01*
X141287523Y-109307380D01*
X142287523Y-110307380D02*
X141716095Y-110307380D01*
X142001809Y-110307380D02*
X142001809Y-109307380D01*
X141906571Y-109450238D01*
X141811333Y-109545476D01*
X141716095Y-109593095D01*
%TO.C,U2*%
X151892095Y-80097380D02*
X151892095Y-80906904D01*
X151939714Y-81002142D01*
X151987333Y-81049761D01*
X152082571Y-81097380D01*
X152273047Y-81097380D01*
X152368285Y-81049761D01*
X152415904Y-81002142D01*
X152463523Y-80906904D01*
X152463523Y-80097380D01*
X152892095Y-80192619D02*
X152939714Y-80145000D01*
X153034952Y-80097380D01*
X153273047Y-80097380D01*
X153368285Y-80145000D01*
X153415904Y-80192619D01*
X153463523Y-80287857D01*
X153463523Y-80383095D01*
X153415904Y-80525952D01*
X152844476Y-81097380D01*
X153463523Y-81097380D01*
%TO.C,J1*%
X157908666Y-122642380D02*
X157908666Y-123356666D01*
X157861047Y-123499523D01*
X157765809Y-123594761D01*
X157622952Y-123642380D01*
X157527714Y-123642380D01*
X158908666Y-123642380D02*
X158337238Y-123642380D01*
X158622952Y-123642380D02*
X158622952Y-122642380D01*
X158527714Y-122785238D01*
X158432476Y-122880476D01*
X158337238Y-122928095D01*
%TO.C,J2*%
X114601666Y-120483380D02*
X114601666Y-121197666D01*
X114554047Y-121340523D01*
X114458809Y-121435761D01*
X114315952Y-121483380D01*
X114220714Y-121483380D01*
X115030238Y-120578619D02*
X115077857Y-120531000D01*
X115173095Y-120483380D01*
X115411190Y-120483380D01*
X115506428Y-120531000D01*
X115554047Y-120578619D01*
X115601666Y-120673857D01*
X115601666Y-120769095D01*
X115554047Y-120911952D01*
X114982619Y-121483380D01*
X115601666Y-121483380D01*
%TO.C,R0*%
X170140333Y-119832380D02*
X169807000Y-119356190D01*
X169568904Y-119832380D02*
X169568904Y-118832380D01*
X169949857Y-118832380D01*
X170045095Y-118880000D01*
X170092714Y-118927619D01*
X170140333Y-119022857D01*
X170140333Y-119165714D01*
X170092714Y-119260952D01*
X170045095Y-119308571D01*
X169949857Y-119356190D01*
X169568904Y-119356190D01*
X170759380Y-118832380D02*
X170854619Y-118832380D01*
X170949857Y-118880000D01*
X170997476Y-118927619D01*
X171045095Y-119022857D01*
X171092714Y-119213333D01*
X171092714Y-119451428D01*
X171045095Y-119641904D01*
X170997476Y-119737142D01*
X170949857Y-119784761D01*
X170854619Y-119832380D01*
X170759380Y-119832380D01*
X170664142Y-119784761D01*
X170616523Y-119737142D01*
X170568904Y-119641904D01*
X170521285Y-119451428D01*
X170521285Y-119213333D01*
X170568904Y-119022857D01*
X170616523Y-118927619D01*
X170664142Y-118880000D01*
X170759380Y-118832380D01*
%TO.C,R1*%
X170013333Y-117038380D02*
X169680000Y-116562190D01*
X169441904Y-117038380D02*
X169441904Y-116038380D01*
X169822857Y-116038380D01*
X169918095Y-116086000D01*
X169965714Y-116133619D01*
X170013333Y-116228857D01*
X170013333Y-116371714D01*
X169965714Y-116466952D01*
X169918095Y-116514571D01*
X169822857Y-116562190D01*
X169441904Y-116562190D01*
X170965714Y-117038380D02*
X170394285Y-117038380D01*
X170680000Y-117038380D02*
X170680000Y-116038380D01*
X170584761Y-116181238D01*
X170489523Y-116276476D01*
X170394285Y-116324095D01*
%TO.C,R2*%
X159853333Y-117292380D02*
X159520000Y-116816190D01*
X159281904Y-117292380D02*
X159281904Y-116292380D01*
X159662857Y-116292380D01*
X159758095Y-116340000D01*
X159805714Y-116387619D01*
X159853333Y-116482857D01*
X159853333Y-116625714D01*
X159805714Y-116720952D01*
X159758095Y-116768571D01*
X159662857Y-116816190D01*
X159281904Y-116816190D01*
X160234285Y-116387619D02*
X160281904Y-116340000D01*
X160377142Y-116292380D01*
X160615238Y-116292380D01*
X160710476Y-116340000D01*
X160758095Y-116387619D01*
X160805714Y-116482857D01*
X160805714Y-116578095D01*
X160758095Y-116720952D01*
X160186666Y-117292380D01*
X160805714Y-117292380D01*
%TO.C,R3*%
X164512380Y-106846666D02*
X164036190Y-107180000D01*
X164512380Y-107418095D02*
X163512380Y-107418095D01*
X163512380Y-107037142D01*
X163560000Y-106941904D01*
X163607619Y-106894285D01*
X163702857Y-106846666D01*
X163845714Y-106846666D01*
X163940952Y-106894285D01*
X163988571Y-106941904D01*
X164036190Y-107037142D01*
X164036190Y-107418095D01*
X163512380Y-106513333D02*
X163512380Y-105894285D01*
X163893333Y-106227619D01*
X163893333Y-106084761D01*
X163940952Y-105989523D01*
X163988571Y-105941904D01*
X164083809Y-105894285D01*
X164321904Y-105894285D01*
X164417142Y-105941904D01*
X164464761Y-105989523D01*
X164512380Y-106084761D01*
X164512380Y-106370476D01*
X164464761Y-106465714D01*
X164417142Y-106513333D01*
%TO.C,R4*%
X153995380Y-106338666D02*
X153519190Y-106672000D01*
X153995380Y-106910095D02*
X152995380Y-106910095D01*
X152995380Y-106529142D01*
X153043000Y-106433904D01*
X153090619Y-106386285D01*
X153185857Y-106338666D01*
X153328714Y-106338666D01*
X153423952Y-106386285D01*
X153471571Y-106433904D01*
X153519190Y-106529142D01*
X153519190Y-106910095D01*
X153328714Y-105481523D02*
X153995380Y-105481523D01*
X152947761Y-105719619D02*
X153662047Y-105957714D01*
X153662047Y-105338666D01*
%TO.C,R6*%
X126436380Y-98464666D02*
X125960190Y-98798000D01*
X126436380Y-99036095D02*
X125436380Y-99036095D01*
X125436380Y-98655142D01*
X125484000Y-98559904D01*
X125531619Y-98512285D01*
X125626857Y-98464666D01*
X125769714Y-98464666D01*
X125864952Y-98512285D01*
X125912571Y-98559904D01*
X125960190Y-98655142D01*
X125960190Y-99036095D01*
X125436380Y-97607523D02*
X125436380Y-97798000D01*
X125484000Y-97893238D01*
X125531619Y-97940857D01*
X125674476Y-98036095D01*
X125864952Y-98083714D01*
X126245904Y-98083714D01*
X126341142Y-98036095D01*
X126388761Y-97988476D01*
X126436380Y-97893238D01*
X126436380Y-97702761D01*
X126388761Y-97607523D01*
X126341142Y-97559904D01*
X126245904Y-97512285D01*
X126007809Y-97512285D01*
X125912571Y-97559904D01*
X125864952Y-97607523D01*
X125817333Y-97702761D01*
X125817333Y-97893238D01*
X125864952Y-97988476D01*
X125912571Y-98036095D01*
X126007809Y-98083714D01*
%TO.C,R7*%
X134207380Y-98591666D02*
X133731190Y-98925000D01*
X134207380Y-99163095D02*
X133207380Y-99163095D01*
X133207380Y-98782142D01*
X133255000Y-98686904D01*
X133302619Y-98639285D01*
X133397857Y-98591666D01*
X133540714Y-98591666D01*
X133635952Y-98639285D01*
X133683571Y-98686904D01*
X133731190Y-98782142D01*
X133731190Y-99163095D01*
X133207380Y-98258333D02*
X133207380Y-97591666D01*
X134207380Y-98020238D01*
%TO.C,R9*%
X131032380Y-108751666D02*
X130556190Y-109085000D01*
X131032380Y-109323095D02*
X130032380Y-109323095D01*
X130032380Y-108942142D01*
X130080000Y-108846904D01*
X130127619Y-108799285D01*
X130222857Y-108751666D01*
X130365714Y-108751666D01*
X130460952Y-108799285D01*
X130508571Y-108846904D01*
X130556190Y-108942142D01*
X130556190Y-109323095D01*
X131032380Y-108275476D02*
X131032380Y-108085000D01*
X130984761Y-107989761D01*
X130937142Y-107942142D01*
X130794285Y-107846904D01*
X130603809Y-107799285D01*
X130222857Y-107799285D01*
X130127619Y-107846904D01*
X130080000Y-107894523D01*
X130032380Y-107989761D01*
X130032380Y-108180238D01*
X130080000Y-108275476D01*
X130127619Y-108323095D01*
X130222857Y-108370714D01*
X130460952Y-108370714D01*
X130556190Y-108323095D01*
X130603809Y-108275476D01*
X130651428Y-108180238D01*
X130651428Y-107989761D01*
X130603809Y-107894523D01*
X130556190Y-107846904D01*
X130460952Y-107799285D01*
%TO.C,R10*%
X126738142Y-116022380D02*
X126404809Y-115546190D01*
X126166714Y-116022380D02*
X126166714Y-115022380D01*
X126547666Y-115022380D01*
X126642904Y-115070000D01*
X126690523Y-115117619D01*
X126738142Y-115212857D01*
X126738142Y-115355714D01*
X126690523Y-115450952D01*
X126642904Y-115498571D01*
X126547666Y-115546190D01*
X126166714Y-115546190D01*
X127690523Y-116022380D02*
X127119095Y-116022380D01*
X127404809Y-116022380D02*
X127404809Y-115022380D01*
X127309571Y-115165238D01*
X127214333Y-115260476D01*
X127119095Y-115308095D01*
X128309571Y-115022380D02*
X128404809Y-115022380D01*
X128500047Y-115070000D01*
X128547666Y-115117619D01*
X128595285Y-115212857D01*
X128642904Y-115403333D01*
X128642904Y-115641428D01*
X128595285Y-115831904D01*
X128547666Y-115927142D01*
X128500047Y-115974761D01*
X128404809Y-116022380D01*
X128309571Y-116022380D01*
X128214333Y-115974761D01*
X128166714Y-115927142D01*
X128119095Y-115831904D01*
X128071476Y-115641428D01*
X128071476Y-115403333D01*
X128119095Y-115212857D01*
X128166714Y-115117619D01*
X128214333Y-115070000D01*
X128309571Y-115022380D01*
%TO.C,R11*%
X172156380Y-107957857D02*
X171680190Y-108291190D01*
X172156380Y-108529285D02*
X171156380Y-108529285D01*
X171156380Y-108148333D01*
X171204000Y-108053095D01*
X171251619Y-108005476D01*
X171346857Y-107957857D01*
X171489714Y-107957857D01*
X171584952Y-108005476D01*
X171632571Y-108053095D01*
X171680190Y-108148333D01*
X171680190Y-108529285D01*
X172156380Y-107005476D02*
X172156380Y-107576904D01*
X172156380Y-107291190D02*
X171156380Y-107291190D01*
X171299238Y-107386428D01*
X171394476Y-107481666D01*
X171442095Y-107576904D01*
X172156380Y-106053095D02*
X172156380Y-106624523D01*
X172156380Y-106338809D02*
X171156380Y-106338809D01*
X171299238Y-106434047D01*
X171394476Y-106529285D01*
X171442095Y-106624523D01*
%TO.C,R12*%
X169664142Y-111958380D02*
X169330809Y-111482190D01*
X169092714Y-111958380D02*
X169092714Y-110958380D01*
X169473666Y-110958380D01*
X169568904Y-111006000D01*
X169616523Y-111053619D01*
X169664142Y-111148857D01*
X169664142Y-111291714D01*
X169616523Y-111386952D01*
X169568904Y-111434571D01*
X169473666Y-111482190D01*
X169092714Y-111482190D01*
X170616523Y-111958380D02*
X170045095Y-111958380D01*
X170330809Y-111958380D02*
X170330809Y-110958380D01*
X170235571Y-111101238D01*
X170140333Y-111196476D01*
X170045095Y-111244095D01*
X170997476Y-111053619D02*
X171045095Y-111006000D01*
X171140333Y-110958380D01*
X171378428Y-110958380D01*
X171473666Y-111006000D01*
X171521285Y-111053619D01*
X171568904Y-111148857D01*
X171568904Y-111244095D01*
X171521285Y-111386952D01*
X170949857Y-111958380D01*
X171568904Y-111958380D01*
%TO.C,R13*%
X158107142Y-59102380D02*
X157773809Y-58626190D01*
X157535714Y-59102380D02*
X157535714Y-58102380D01*
X157916666Y-58102380D01*
X158011904Y-58150000D01*
X158059523Y-58197619D01*
X158107142Y-58292857D01*
X158107142Y-58435714D01*
X158059523Y-58530952D01*
X158011904Y-58578571D01*
X157916666Y-58626190D01*
X157535714Y-58626190D01*
X159059523Y-59102380D02*
X158488095Y-59102380D01*
X158773809Y-59102380D02*
X158773809Y-58102380D01*
X158678571Y-58245238D01*
X158583333Y-58340476D01*
X158488095Y-58388095D01*
X159392857Y-58102380D02*
X160011904Y-58102380D01*
X159678571Y-58483333D01*
X159821428Y-58483333D01*
X159916666Y-58530952D01*
X159964285Y-58578571D01*
X160011904Y-58673809D01*
X160011904Y-58911904D01*
X159964285Y-59007142D01*
X159916666Y-59054761D01*
X159821428Y-59102380D01*
X159535714Y-59102380D01*
X159440476Y-59054761D01*
X159392857Y-59007142D01*
%TO.C,R14*%
X129561944Y-72315347D02*
X129460929Y-72887766D01*
X129966005Y-72719408D02*
X129258898Y-73426514D01*
X128989524Y-73157140D01*
X128955852Y-73056125D01*
X128955852Y-72988782D01*
X128989524Y-72887766D01*
X129090539Y-72786751D01*
X129191555Y-72753079D01*
X129258898Y-72753079D01*
X129359913Y-72786751D01*
X129629287Y-73056125D01*
X128888509Y-71641911D02*
X129292570Y-72045972D01*
X129090539Y-71843942D02*
X128383432Y-72551049D01*
X128551791Y-72517377D01*
X128686478Y-72517377D01*
X128787494Y-72551049D01*
X127811013Y-71507224D02*
X128282417Y-71035820D01*
X127709997Y-71944957D02*
X128383432Y-71608240D01*
X127945700Y-71170507D01*
%TO.C,R15*%
X156837142Y-91027380D02*
X156503809Y-90551190D01*
X156265714Y-91027380D02*
X156265714Y-90027380D01*
X156646666Y-90027380D01*
X156741904Y-90075000D01*
X156789523Y-90122619D01*
X156837142Y-90217857D01*
X156837142Y-90360714D01*
X156789523Y-90455952D01*
X156741904Y-90503571D01*
X156646666Y-90551190D01*
X156265714Y-90551190D01*
X157789523Y-91027380D02*
X157218095Y-91027380D01*
X157503809Y-91027380D02*
X157503809Y-90027380D01*
X157408571Y-90170238D01*
X157313333Y-90265476D01*
X157218095Y-90313095D01*
X158694285Y-90027380D02*
X158218095Y-90027380D01*
X158170476Y-90503571D01*
X158218095Y-90455952D01*
X158313333Y-90408333D01*
X158551428Y-90408333D01*
X158646666Y-90455952D01*
X158694285Y-90503571D01*
X158741904Y-90598809D01*
X158741904Y-90836904D01*
X158694285Y-90932142D01*
X158646666Y-90979761D01*
X158551428Y-91027380D01*
X158313333Y-91027380D01*
X158218095Y-90979761D01*
X158170476Y-90932142D01*
%TO.C,SW2*%
X169735666Y-75461761D02*
X169878523Y-75509380D01*
X170116619Y-75509380D01*
X170211857Y-75461761D01*
X170259476Y-75414142D01*
X170307095Y-75318904D01*
X170307095Y-75223666D01*
X170259476Y-75128428D01*
X170211857Y-75080809D01*
X170116619Y-75033190D01*
X169926142Y-74985571D01*
X169830904Y-74937952D01*
X169783285Y-74890333D01*
X169735666Y-74795095D01*
X169735666Y-74699857D01*
X169783285Y-74604619D01*
X169830904Y-74557000D01*
X169926142Y-74509380D01*
X170164238Y-74509380D01*
X170307095Y-74557000D01*
X170640428Y-74509380D02*
X170878523Y-75509380D01*
X171069000Y-74795095D01*
X171259476Y-75509380D01*
X171497571Y-74509380D01*
X171830904Y-74604619D02*
X171878523Y-74557000D01*
X171973761Y-74509380D01*
X172211857Y-74509380D01*
X172307095Y-74557000D01*
X172354714Y-74604619D01*
X172402333Y-74699857D01*
X172402333Y-74795095D01*
X172354714Y-74937952D01*
X171783285Y-75509380D01*
X172402333Y-75509380D01*
%TO.C,SW3*%
X120713666Y-75080761D02*
X120856523Y-75128380D01*
X121094619Y-75128380D01*
X121189857Y-75080761D01*
X121237476Y-75033142D01*
X121285095Y-74937904D01*
X121285095Y-74842666D01*
X121237476Y-74747428D01*
X121189857Y-74699809D01*
X121094619Y-74652190D01*
X120904142Y-74604571D01*
X120808904Y-74556952D01*
X120761285Y-74509333D01*
X120713666Y-74414095D01*
X120713666Y-74318857D01*
X120761285Y-74223619D01*
X120808904Y-74176000D01*
X120904142Y-74128380D01*
X121142238Y-74128380D01*
X121285095Y-74176000D01*
X121618428Y-74128380D02*
X121856523Y-75128380D01*
X122047000Y-74414095D01*
X122237476Y-75128380D01*
X122475571Y-74128380D01*
X122761285Y-74128380D02*
X123380333Y-74128380D01*
X123047000Y-74509333D01*
X123189857Y-74509333D01*
X123285095Y-74556952D01*
X123332714Y-74604571D01*
X123380333Y-74699809D01*
X123380333Y-74937904D01*
X123332714Y-75033142D01*
X123285095Y-75080761D01*
X123189857Y-75128380D01*
X122904142Y-75128380D01*
X122808904Y-75080761D01*
X122761285Y-75033142D01*
%TO.C,SW4*%
X144970666Y-101496761D02*
X145113523Y-101544380D01*
X145351619Y-101544380D01*
X145446857Y-101496761D01*
X145494476Y-101449142D01*
X145542095Y-101353904D01*
X145542095Y-101258666D01*
X145494476Y-101163428D01*
X145446857Y-101115809D01*
X145351619Y-101068190D01*
X145161142Y-101020571D01*
X145065904Y-100972952D01*
X145018285Y-100925333D01*
X144970666Y-100830095D01*
X144970666Y-100734857D01*
X145018285Y-100639619D01*
X145065904Y-100592000D01*
X145161142Y-100544380D01*
X145399238Y-100544380D01*
X145542095Y-100592000D01*
X145875428Y-100544380D02*
X146113523Y-101544380D01*
X146304000Y-100830095D01*
X146494476Y-101544380D01*
X146732571Y-100544380D01*
X147542095Y-100877714D02*
X147542095Y-101544380D01*
X147304000Y-100496761D02*
X147065904Y-101211047D01*
X147684952Y-101211047D01*
%TO.C,RV1*%
X178855761Y-103576380D02*
X178522428Y-103100190D01*
X178284333Y-103576380D02*
X178284333Y-102576380D01*
X178665285Y-102576380D01*
X178760523Y-102624000D01*
X178808142Y-102671619D01*
X178855761Y-102766857D01*
X178855761Y-102909714D01*
X178808142Y-103004952D01*
X178760523Y-103052571D01*
X178665285Y-103100190D01*
X178284333Y-103100190D01*
X179141476Y-102576380D02*
X179474809Y-103576380D01*
X179808142Y-102576380D01*
X180665285Y-103576380D02*
X180093857Y-103576380D01*
X180379571Y-103576380D02*
X180379571Y-102576380D01*
X180284333Y-102719238D01*
X180189095Y-102814476D01*
X180093857Y-102862095D01*
D11*
%TO.C,G\u002A\u002A\u002A*%
X116078000Y-100402571D02*
X116005428Y-100547714D01*
X116005428Y-100765428D01*
X116078000Y-100983142D01*
X116223142Y-101128285D01*
X116368285Y-101200857D01*
X116658571Y-101273428D01*
X116876285Y-101273428D01*
X117166571Y-101200857D01*
X117311714Y-101128285D01*
X117456857Y-100983142D01*
X117529428Y-100765428D01*
X117529428Y-100620285D01*
X117456857Y-100402571D01*
X117384285Y-100330000D01*
X116876285Y-100330000D01*
X116876285Y-100620285D01*
X116005428Y-99459142D02*
X116368285Y-99459142D01*
X116223142Y-99822000D02*
X116368285Y-99459142D01*
X116223142Y-99096285D01*
X116658571Y-99676857D02*
X116368285Y-99459142D01*
X116658571Y-99241428D01*
X116005428Y-98298000D02*
X116368285Y-98298000D01*
X116223142Y-98660857D02*
X116368285Y-98298000D01*
X116223142Y-97935142D01*
X116658571Y-98515714D02*
X116368285Y-98298000D01*
X116658571Y-98080285D01*
X116005428Y-97136857D02*
X116368285Y-97136857D01*
X116223142Y-97499714D02*
X116368285Y-97136857D01*
X116223142Y-96774000D01*
X116658571Y-97354571D02*
X116368285Y-97136857D01*
X116658571Y-96919142D01*
D12*
%TO.C,C1*%
X156420000Y-118320000D02*
X163540000Y-118320000D01*
X156420000Y-120440000D02*
X163540000Y-120440000D01*
X163540000Y-118320000D02*
X163540000Y-120440000D01*
X156420000Y-118320000D02*
X156420000Y-120440000D01*
%TO.C,C2*%
X156420000Y-113240000D02*
X163540000Y-113240000D01*
X156420000Y-115360000D02*
X163540000Y-115360000D01*
X163540000Y-113240000D02*
X163540000Y-115360000D01*
X156420000Y-113240000D02*
X156420000Y-115360000D01*
%TO.C,C3*%
X160029000Y-107650000D02*
X161580000Y-107650000D01*
X160420000Y-106569000D02*
X161580000Y-106569000D01*
X161853000Y-105489000D02*
X163267000Y-105489000D01*
X160663000Y-106249000D02*
X161580000Y-106249000D01*
X160164000Y-107089000D02*
X161580000Y-107089000D01*
X160595000Y-106329000D02*
X161580000Y-106329000D01*
X160447000Y-106529000D02*
X161580000Y-106529000D01*
X160025000Y-107690000D02*
X161580000Y-107690000D01*
X163540000Y-106209000D02*
X164421000Y-106209000D01*
X160395000Y-106609000D02*
X161580000Y-106609000D01*
X161170000Y-105809000D02*
X161580000Y-105809000D01*
X160047000Y-107530000D02*
X161580000Y-107530000D01*
X163540000Y-106569000D02*
X164700000Y-106569000D01*
X160014000Y-107810000D02*
X165106000Y-107810000D01*
X161299000Y-105729000D02*
X163821000Y-105729000D01*
X160699000Y-106209000D02*
X161580000Y-106209000D01*
X160284000Y-106809000D02*
X161580000Y-106809000D01*
X161626000Y-105569000D02*
X163494000Y-105569000D01*
X163540000Y-106129000D02*
X164343000Y-106129000D01*
X160304000Y-106769000D02*
X161580000Y-106769000D01*
X163540000Y-107290000D02*
X165020000Y-107290000D01*
X163540000Y-106489000D02*
X164646000Y-106489000D01*
X162206000Y-105409000D02*
X162914000Y-105409000D01*
X163540000Y-105969000D02*
X164166000Y-105969000D01*
X163540000Y-105849000D02*
X164008000Y-105849000D01*
X160112000Y-107249000D02*
X161580000Y-107249000D01*
X163540000Y-107410000D02*
X165049000Y-107410000D01*
X163540000Y-106809000D02*
X164836000Y-106809000D01*
X160371000Y-106649000D02*
X161580000Y-106649000D01*
X160326000Y-106729000D02*
X161580000Y-106729000D01*
X160348000Y-106689000D02*
X161580000Y-106689000D01*
X163540000Y-106089000D02*
X164302000Y-106089000D01*
X163540000Y-107490000D02*
X165066000Y-107490000D01*
X163540000Y-106249000D02*
X164457000Y-106249000D01*
X161056000Y-105889000D02*
X161580000Y-105889000D01*
X163540000Y-106929000D02*
X164893000Y-106929000D01*
X160777000Y-106129000D02*
X161580000Y-106129000D01*
X163540000Y-106529000D02*
X164673000Y-106529000D01*
X161371000Y-105689000D02*
X163749000Y-105689000D01*
X160010000Y-107970000D02*
X165110000Y-107970000D01*
X163540000Y-107049000D02*
X164942000Y-107049000D01*
X163540000Y-106329000D02*
X164525000Y-106329000D01*
X163540000Y-107209000D02*
X164996000Y-107209000D01*
X160245000Y-106889000D02*
X161580000Y-106889000D01*
X163540000Y-106889000D02*
X164875000Y-106889000D01*
X163540000Y-107249000D02*
X165008000Y-107249000D01*
X161448000Y-105649000D02*
X163672000Y-105649000D01*
X163540000Y-106169000D02*
X164383000Y-106169000D01*
X163540000Y-106969000D02*
X164910000Y-106969000D01*
X160054000Y-107490000D02*
X161580000Y-107490000D01*
X163540000Y-107570000D02*
X165079000Y-107570000D01*
X160264000Y-106849000D02*
X161580000Y-106849000D01*
X160954000Y-105969000D02*
X161580000Y-105969000D01*
X163540000Y-106649000D02*
X164749000Y-106649000D01*
X163540000Y-106729000D02*
X164794000Y-106729000D01*
X163540000Y-105769000D02*
X163887000Y-105769000D01*
X163540000Y-107089000D02*
X164956000Y-107089000D01*
X160041000Y-107570000D02*
X161580000Y-107570000D01*
X160178000Y-107049000D02*
X161580000Y-107049000D01*
X160017000Y-107770000D02*
X165103000Y-107770000D01*
X161233000Y-105769000D02*
X161580000Y-105769000D01*
X160012000Y-107850000D02*
X165108000Y-107850000D01*
X163540000Y-107370000D02*
X165040000Y-107370000D01*
X161731000Y-105529000D02*
X163389000Y-105529000D01*
X160906000Y-106009000D02*
X161580000Y-106009000D01*
X163540000Y-107610000D02*
X165085000Y-107610000D01*
X163540000Y-106049000D02*
X164259000Y-106049000D01*
X160150000Y-107129000D02*
X161580000Y-107129000D01*
X160194000Y-107009000D02*
X161580000Y-107009000D01*
X163540000Y-106849000D02*
X164856000Y-106849000D01*
X163540000Y-106289000D02*
X164492000Y-106289000D01*
X163540000Y-107690000D02*
X165095000Y-107690000D01*
X163540000Y-107330000D02*
X165030000Y-107330000D01*
X163540000Y-105809000D02*
X163950000Y-105809000D01*
X160010000Y-107930000D02*
X165110000Y-107930000D01*
X160080000Y-107370000D02*
X161580000Y-107370000D01*
X163540000Y-106689000D02*
X164772000Y-106689000D01*
X160563000Y-106369000D02*
X161580000Y-106369000D01*
X160090000Y-107330000D02*
X161580000Y-107330000D01*
X160062000Y-107450000D02*
X161580000Y-107450000D01*
X163540000Y-106609000D02*
X164725000Y-106609000D01*
X163540000Y-106409000D02*
X164588000Y-106409000D01*
X161532000Y-105609000D02*
X163588000Y-105609000D01*
X160502000Y-106449000D02*
X161580000Y-106449000D01*
X163540000Y-106009000D02*
X164214000Y-106009000D01*
X160737000Y-106169000D02*
X161580000Y-106169000D01*
X160021000Y-107730000D02*
X165099000Y-107730000D01*
X161910000Y-110820000D02*
X163210000Y-110820000D01*
X162560000Y-111420000D02*
X162560000Y-110220000D01*
X160474000Y-106489000D02*
X161580000Y-106489000D01*
X160011000Y-107890000D02*
X165109000Y-107890000D01*
X163540000Y-107129000D02*
X164970000Y-107129000D01*
X163540000Y-106369000D02*
X164557000Y-106369000D01*
X163540000Y-107169000D02*
X164984000Y-107169000D01*
X160861000Y-106049000D02*
X161580000Y-106049000D01*
X160210000Y-106969000D02*
X161580000Y-106969000D01*
X163540000Y-105929000D02*
X164116000Y-105929000D01*
X160532000Y-106409000D02*
X161580000Y-106409000D01*
X160100000Y-107290000D02*
X161580000Y-107290000D01*
X163540000Y-107530000D02*
X165073000Y-107530000D01*
X163540000Y-107650000D02*
X165091000Y-107650000D01*
X160071000Y-107410000D02*
X161580000Y-107410000D01*
X161112000Y-105849000D02*
X161580000Y-105849000D01*
X163540000Y-106769000D02*
X164816000Y-106769000D01*
X160818000Y-106089000D02*
X161580000Y-106089000D01*
X163540000Y-105889000D02*
X164064000Y-105889000D01*
X161004000Y-105929000D02*
X161580000Y-105929000D01*
X163540000Y-107009000D02*
X164926000Y-107009000D01*
X160035000Y-107610000D02*
X161580000Y-107610000D01*
X160227000Y-106929000D02*
X161580000Y-106929000D01*
X163540000Y-106449000D02*
X164618000Y-106449000D01*
X160628000Y-106289000D02*
X161580000Y-106289000D01*
X162001000Y-105449000D02*
X163119000Y-105449000D01*
X160136000Y-107169000D02*
X161580000Y-107169000D01*
X163540000Y-107450000D02*
X165058000Y-107450000D01*
X160124000Y-107209000D02*
X161580000Y-107209000D01*
X163740000Y-110275580D02*
G75*
G03*
X163739722Y-105664278I-1180000J2305580D01*
G01*
X163739722Y-105664278D02*
G75*
G03*
X161380000Y-105664420I-1179722J-2305722D01*
G01*
X161380278Y-105664278D02*
G75*
G03*
X161380000Y-110275580I1179722J-2305722D01*
G01*
%TO.C,C4*%
X153245000Y-77895000D02*
X153245000Y-70775000D01*
X153245000Y-70775000D02*
X155365000Y-70775000D01*
X153245000Y-77895000D02*
X155365000Y-77895000D01*
X155365000Y-77895000D02*
X155365000Y-70775000D01*
%TO.C,C5*%
X156420000Y-105620000D02*
X156420000Y-112740000D01*
X158540000Y-112740000D02*
X156420000Y-112740000D01*
X158540000Y-105620000D02*
X158540000Y-112740000D01*
X158540000Y-105620000D02*
X156420000Y-105620000D01*
%TO.C,C6*%
X130385000Y-103715000D02*
X137505000Y-103715000D01*
X137505000Y-103715000D02*
X137505000Y-105835000D01*
X130385000Y-105835000D02*
X137505000Y-105835000D01*
X130385000Y-103715000D02*
X130385000Y-105835000D01*
%TO.C,C7*%
X137585000Y-119170000D02*
X130465000Y-119170000D01*
X137585000Y-117050000D02*
X130465000Y-117050000D01*
X137585000Y-119170000D02*
X137585000Y-117050000D01*
X130465000Y-119170000D02*
X130465000Y-117050000D01*
%TO.C,C8*%
X137585000Y-111335000D02*
X130465000Y-111335000D01*
X137585000Y-113455000D02*
X130465000Y-113455000D01*
X137585000Y-113455000D02*
X137585000Y-111335000D01*
X130465000Y-113455000D02*
X130465000Y-111335000D01*
%TO.C,C9*%
X137735000Y-125104000D02*
X137735000Y-120006000D01*
X137135000Y-121575000D02*
X137135000Y-120095000D01*
X135254000Y-122909000D02*
X135254000Y-122201000D01*
X135774000Y-121575000D02*
X135774000Y-120999000D01*
X135814000Y-121575000D02*
X135814000Y-120949000D01*
X136534000Y-124767000D02*
X136534000Y-123535000D01*
X136334000Y-124641000D02*
X136334000Y-123535000D01*
X137054000Y-121575000D02*
X137054000Y-120119000D01*
X136174000Y-121575000D02*
X136174000Y-120590000D01*
X136094000Y-121575000D02*
X136094000Y-120658000D01*
X137255000Y-121575000D02*
X137255000Y-120066000D01*
X136814000Y-121575000D02*
X136814000Y-120205000D01*
X137135000Y-125015000D02*
X137135000Y-123535000D01*
X136934000Y-121575000D02*
X136934000Y-120159000D01*
X136614000Y-124811000D02*
X136614000Y-123535000D01*
X137215000Y-121575000D02*
X137215000Y-120075000D01*
X137255000Y-125044000D02*
X137255000Y-123535000D01*
X135294000Y-123114000D02*
X135294000Y-121996000D01*
X135774000Y-124111000D02*
X135774000Y-123535000D01*
X136414000Y-121575000D02*
X136414000Y-120415000D01*
X135374000Y-123384000D02*
X135374000Y-121726000D01*
X137815000Y-125105000D02*
X137815000Y-120005000D01*
X137495000Y-121575000D02*
X137495000Y-120024000D01*
X135814000Y-124161000D02*
X135814000Y-123535000D01*
X136054000Y-121575000D02*
X136054000Y-120694000D01*
X136654000Y-124831000D02*
X136654000Y-123535000D01*
X136374000Y-121575000D02*
X136374000Y-120442000D01*
X135614000Y-121575000D02*
X135614000Y-121228000D01*
X135534000Y-123744000D02*
X135534000Y-121366000D01*
X136134000Y-121575000D02*
X136134000Y-120623000D01*
X135654000Y-121575000D02*
X135654000Y-121165000D01*
X136014000Y-121575000D02*
X136014000Y-120732000D01*
X137335000Y-121575000D02*
X137335000Y-120049000D01*
X137375000Y-125068000D02*
X137375000Y-123535000D01*
X135934000Y-121575000D02*
X135934000Y-120813000D01*
X136294000Y-124613000D02*
X136294000Y-123535000D01*
X137014000Y-124979000D02*
X137014000Y-123535000D01*
X135894000Y-124254000D02*
X135894000Y-123535000D01*
X135454000Y-123583000D02*
X135454000Y-121527000D01*
X136774000Y-124888000D02*
X136774000Y-123535000D01*
X136174000Y-124520000D02*
X136174000Y-123535000D01*
X140665000Y-123205000D02*
X140665000Y-121905000D01*
X136214000Y-124552000D02*
X136214000Y-123535000D01*
X136614000Y-121575000D02*
X136614000Y-120299000D01*
X136774000Y-121575000D02*
X136774000Y-120222000D01*
X135894000Y-121575000D02*
X135894000Y-120856000D01*
X137615000Y-125098000D02*
X137615000Y-120012000D01*
X136694000Y-121575000D02*
X136694000Y-120259000D01*
X136134000Y-124487000D02*
X136134000Y-123535000D01*
X136414000Y-124695000D02*
X136414000Y-123535000D01*
X136214000Y-121575000D02*
X136214000Y-120558000D01*
X137495000Y-125086000D02*
X137495000Y-123535000D01*
X135734000Y-121575000D02*
X135734000Y-121051000D01*
X136494000Y-121575000D02*
X136494000Y-120366000D01*
X136254000Y-124583000D02*
X136254000Y-123535000D01*
X135974000Y-124338000D02*
X135974000Y-123535000D01*
X136494000Y-124744000D02*
X136494000Y-123535000D01*
X137455000Y-125080000D02*
X137455000Y-123535000D01*
X137175000Y-121575000D02*
X137175000Y-120085000D01*
X136694000Y-124851000D02*
X136694000Y-123535000D01*
X136454000Y-121575000D02*
X136454000Y-120390000D01*
X136454000Y-124720000D02*
X136454000Y-123535000D01*
X137415000Y-121575000D02*
X137415000Y-120036000D01*
X136574000Y-121575000D02*
X136574000Y-120321000D01*
X137535000Y-125090000D02*
X137535000Y-123535000D01*
X137335000Y-125061000D02*
X137335000Y-123535000D01*
X137695000Y-125103000D02*
X137695000Y-120007000D01*
X137094000Y-125003000D02*
X137094000Y-123535000D01*
X136934000Y-124951000D02*
X136934000Y-123535000D01*
X137415000Y-125074000D02*
X137415000Y-123535000D01*
X136974000Y-121575000D02*
X136974000Y-120145000D01*
X135974000Y-121575000D02*
X135974000Y-120772000D01*
X137775000Y-125105000D02*
X137775000Y-120005000D01*
X136254000Y-121575000D02*
X136254000Y-120527000D01*
X136734000Y-124870000D02*
X136734000Y-123535000D01*
X136974000Y-124965000D02*
X136974000Y-123535000D01*
X137535000Y-121575000D02*
X137535000Y-120020000D01*
X136294000Y-121575000D02*
X136294000Y-120497000D01*
X135574000Y-123816000D02*
X135574000Y-121294000D01*
X135934000Y-124297000D02*
X135934000Y-123535000D01*
X137375000Y-121575000D02*
X137375000Y-120042000D01*
X136734000Y-121575000D02*
X136734000Y-120240000D01*
X136814000Y-124905000D02*
X136814000Y-123535000D01*
X135854000Y-124209000D02*
X135854000Y-123535000D01*
X136854000Y-121575000D02*
X136854000Y-120189000D01*
X136894000Y-124937000D02*
X136894000Y-123535000D01*
X135694000Y-121575000D02*
X135694000Y-121107000D01*
X141265000Y-122555000D02*
X140065000Y-122555000D01*
X137215000Y-125035000D02*
X137215000Y-123535000D01*
X135734000Y-124059000D02*
X135734000Y-123535000D01*
X135654000Y-123945000D02*
X135654000Y-123535000D01*
X137295000Y-121575000D02*
X137295000Y-120057000D01*
X135414000Y-123489000D02*
X135414000Y-121621000D01*
X136574000Y-124789000D02*
X136574000Y-123535000D01*
X136094000Y-124452000D02*
X136094000Y-123535000D01*
X135494000Y-123667000D02*
X135494000Y-121443000D01*
X137295000Y-125053000D02*
X137295000Y-123535000D01*
X136534000Y-121575000D02*
X136534000Y-120343000D01*
X135334000Y-123262000D02*
X135334000Y-121848000D01*
X137054000Y-124991000D02*
X137054000Y-123535000D01*
X137575000Y-125094000D02*
X137575000Y-120016000D01*
X135854000Y-121575000D02*
X135854000Y-120901000D01*
X136854000Y-124921000D02*
X136854000Y-123535000D01*
X136054000Y-124416000D02*
X136054000Y-123535000D01*
X137455000Y-121575000D02*
X137455000Y-120030000D01*
X136374000Y-124668000D02*
X136374000Y-123535000D01*
X136654000Y-121575000D02*
X136654000Y-120279000D01*
X137094000Y-121575000D02*
X137094000Y-120107000D01*
X137655000Y-125101000D02*
X137655000Y-120009000D01*
X136014000Y-124378000D02*
X136014000Y-123535000D01*
X137014000Y-121575000D02*
X137014000Y-120131000D01*
X136894000Y-121575000D02*
X136894000Y-120173000D01*
X137175000Y-125025000D02*
X137175000Y-123535000D01*
X136334000Y-121575000D02*
X136334000Y-120469000D01*
X135694000Y-124003000D02*
X135694000Y-123535000D01*
X135614000Y-123882000D02*
X135614000Y-123535000D01*
X135509278Y-123734722D02*
G75*
G03*
X140120580Y-123735000I2305722J1179722D01*
G01*
X140120580Y-121375000D02*
G75*
G03*
X135509278Y-121375278I-2305580J-1180000D01*
G01*
X135509278Y-121375278D02*
G75*
G03*
X135509420Y-123735000I2305722J-1179722D01*
G01*
%TO.C,C10*%
X150107200Y-110191100D02*
X150107200Y-108071100D01*
X142987200Y-110191100D02*
X142987200Y-108071100D01*
X150107200Y-110191100D02*
X142987200Y-110191100D01*
X150107200Y-108071100D02*
X142987200Y-108071100D01*
%TO.C,C11*%
X133402000Y-57689000D02*
X136180000Y-57689000D01*
X138140000Y-58049000D02*
X141043000Y-58049000D01*
X135791000Y-55369000D02*
X138529000Y-55369000D01*
X134295000Y-56329000D02*
X140025000Y-56329000D01*
X138140000Y-57009000D02*
X140568000Y-57009000D01*
X138140000Y-56689000D02*
X140342000Y-56689000D01*
X134603000Y-56049000D02*
X139717000Y-56049000D01*
X133678000Y-57129000D02*
X136180000Y-57129000D01*
X138140000Y-57889000D02*
X140992000Y-57889000D01*
X138140000Y-56529000D02*
X140210000Y-56529000D01*
X134420000Y-56209000D02*
X139900000Y-56209000D01*
X138140000Y-58249000D02*
X141096000Y-58249000D01*
X134703000Y-55969000D02*
X139617000Y-55969000D01*
X138140000Y-58009000D02*
X141030000Y-58009000D01*
X133110000Y-59170000D02*
X141210000Y-59170000D01*
X135117000Y-55689000D02*
X139203000Y-55689000D01*
X138140000Y-57809000D02*
X140963000Y-57809000D01*
X138140000Y-58209000D02*
X141086000Y-58209000D01*
X135906000Y-55329000D02*
X138414000Y-55329000D01*
X133166000Y-58530000D02*
X141154000Y-58530000D01*
X133113000Y-59050000D02*
X141207000Y-59050000D01*
X133470000Y-57529000D02*
X136180000Y-57529000D01*
X138140000Y-58289000D02*
X141106000Y-58289000D01*
X133255000Y-58129000D02*
X136180000Y-58129000D01*
X135258000Y-55609000D02*
X139062000Y-55609000D01*
X134811000Y-55889000D02*
X139509000Y-55889000D01*
X133804000Y-56929000D02*
X136180000Y-56929000D01*
X134463000Y-56169000D02*
X139857000Y-56169000D01*
X133453000Y-57569000D02*
X136180000Y-57569000D01*
X138140000Y-57329000D02*
X140753000Y-57329000D01*
X133125000Y-58850000D02*
X141195000Y-58850000D01*
X138140000Y-58369000D02*
X141123000Y-58369000D01*
X138140000Y-57929000D02*
X141005000Y-57929000D01*
X135415000Y-55529000D02*
X138905000Y-55529000D01*
X134555000Y-56089000D02*
X139765000Y-56089000D01*
X133655000Y-57169000D02*
X136180000Y-57169000D01*
X138140000Y-57449000D02*
X140812000Y-57449000D01*
X138140000Y-56729000D02*
X140373000Y-56729000D01*
X136510000Y-62560000D02*
X137810000Y-62560000D01*
X138140000Y-57089000D02*
X140618000Y-57089000D01*
X133917000Y-56769000D02*
X136180000Y-56769000D01*
X133947000Y-56729000D02*
X136180000Y-56729000D01*
X138140000Y-57369000D02*
X140773000Y-57369000D01*
X133189000Y-58409000D02*
X136180000Y-58409000D01*
X133777000Y-56969000D02*
X136180000Y-56969000D01*
X133224000Y-58249000D02*
X136180000Y-58249000D01*
X138140000Y-57569000D02*
X140867000Y-57569000D01*
X138140000Y-56649000D02*
X140310000Y-56649000D01*
X138140000Y-57649000D02*
X140901000Y-57649000D01*
X134377000Y-56249000D02*
X139943000Y-56249000D01*
X138140000Y-57209000D02*
X140688000Y-57209000D01*
X134218000Y-56409000D02*
X140102000Y-56409000D01*
X138140000Y-56969000D02*
X140543000Y-56969000D01*
X138140000Y-56769000D02*
X140403000Y-56769000D01*
X133831000Y-56889000D02*
X136180000Y-56889000D01*
X133315000Y-57929000D02*
X136180000Y-57929000D01*
X133435000Y-57609000D02*
X136180000Y-57609000D01*
X138140000Y-58409000D02*
X141131000Y-58409000D01*
X135051000Y-55729000D02*
X139269000Y-55729000D01*
X133119000Y-58930000D02*
X141201000Y-58930000D01*
X133277000Y-58049000D02*
X136180000Y-58049000D01*
X133508000Y-57449000D02*
X136180000Y-57449000D01*
X133419000Y-57649000D02*
X136180000Y-57649000D01*
X138140000Y-57969000D02*
X141018000Y-57969000D01*
X133588000Y-57289000D02*
X136180000Y-57289000D01*
X138140000Y-57529000D02*
X140850000Y-57529000D01*
X133859000Y-56849000D02*
X136180000Y-56849000D01*
X133357000Y-57809000D02*
X136180000Y-57809000D01*
X136914000Y-55129000D02*
X137406000Y-55129000D01*
X134181000Y-56449000D02*
X140139000Y-56449000D01*
X133752000Y-57009000D02*
X136180000Y-57009000D01*
X135687000Y-55409000D02*
X138633000Y-55409000D01*
X133342000Y-57849000D02*
X136180000Y-57849000D01*
X136033000Y-55289000D02*
X138287000Y-55289000D01*
X134508000Y-56129000D02*
X139812000Y-56129000D01*
X135186000Y-55649000D02*
X139134000Y-55649000D01*
X138140000Y-57849000D02*
X140978000Y-57849000D01*
X138140000Y-57289000D02*
X140732000Y-57289000D01*
X134987000Y-55769000D02*
X139333000Y-55769000D01*
X138140000Y-58129000D02*
X141065000Y-58129000D01*
X138140000Y-57169000D02*
X140665000Y-57169000D01*
X133387000Y-57729000D02*
X136180000Y-57729000D01*
X135590000Y-55449000D02*
X138730000Y-55449000D01*
X134110000Y-56529000D02*
X136180000Y-56529000D01*
X138140000Y-56849000D02*
X140461000Y-56849000D01*
X133726000Y-57049000D02*
X136180000Y-57049000D01*
X133117000Y-58970000D02*
X141203000Y-58970000D01*
X133702000Y-57089000D02*
X136180000Y-57089000D01*
X138140000Y-57609000D02*
X140885000Y-57609000D01*
X138140000Y-56809000D02*
X140432000Y-56809000D01*
X133888000Y-56809000D02*
X136180000Y-56809000D01*
X138140000Y-57249000D02*
X140710000Y-57249000D01*
X138140000Y-57129000D02*
X140642000Y-57129000D01*
X134145000Y-56489000D02*
X136180000Y-56489000D01*
X133129000Y-58810000D02*
X141191000Y-58810000D01*
X138140000Y-58169000D02*
X141076000Y-58169000D01*
X134042000Y-56609000D02*
X136180000Y-56609000D01*
X134926000Y-55809000D02*
X139394000Y-55809000D01*
X133110000Y-59130000D02*
X141210000Y-59130000D01*
X133234000Y-58209000D02*
X136180000Y-58209000D01*
X138140000Y-56489000D02*
X140175000Y-56489000D01*
X138140000Y-58329000D02*
X141115000Y-58329000D01*
X133122000Y-58890000D02*
X141198000Y-58890000D01*
X138140000Y-56929000D02*
X140516000Y-56929000D01*
X134256000Y-56369000D02*
X140064000Y-56369000D01*
X134010000Y-56649000D02*
X136180000Y-56649000D01*
X134867000Y-55849000D02*
X139453000Y-55849000D01*
X136346000Y-55209000D02*
X137974000Y-55209000D01*
X138140000Y-57769000D02*
X140949000Y-57769000D01*
X133527000Y-57409000D02*
X136180000Y-57409000D01*
X138140000Y-57689000D02*
X140918000Y-57689000D01*
X138140000Y-57729000D02*
X140933000Y-57729000D01*
X138140000Y-57489000D02*
X140831000Y-57489000D01*
X133143000Y-58690000D02*
X141177000Y-58690000D01*
X133173000Y-58489000D02*
X141147000Y-58489000D01*
X133244000Y-58169000D02*
X136180000Y-58169000D01*
X133489000Y-57489000D02*
X136180000Y-57489000D01*
X137160000Y-63160000D02*
X137160000Y-61960000D01*
X133290000Y-58009000D02*
X136180000Y-58009000D01*
X133138000Y-58730000D02*
X141182000Y-58730000D01*
X138140000Y-57049000D02*
X140594000Y-57049000D01*
X135500000Y-55489000D02*
X138820000Y-55489000D01*
X134076000Y-56569000D02*
X136180000Y-56569000D01*
X133371000Y-57769000D02*
X136180000Y-57769000D01*
X133567000Y-57329000D02*
X136180000Y-57329000D01*
X133205000Y-58329000D02*
X136180000Y-58329000D01*
X136562000Y-55169000D02*
X137758000Y-55169000D01*
X135334000Y-55569000D02*
X138986000Y-55569000D01*
X133266000Y-58089000D02*
X136180000Y-58089000D01*
X133114000Y-59010000D02*
X141206000Y-59010000D01*
X133610000Y-57249000D02*
X136180000Y-57249000D01*
X133181000Y-58449000D02*
X141139000Y-58449000D01*
X133214000Y-58289000D02*
X136180000Y-58289000D01*
X134652000Y-56009000D02*
X139668000Y-56009000D01*
X134756000Y-55929000D02*
X139564000Y-55929000D01*
X138140000Y-58089000D02*
X141054000Y-58089000D01*
X134336000Y-56289000D02*
X139984000Y-56289000D01*
X133978000Y-56689000D02*
X136180000Y-56689000D01*
X133197000Y-58369000D02*
X136180000Y-58369000D01*
X138140000Y-56569000D02*
X140244000Y-56569000D01*
X133148000Y-58650000D02*
X141172000Y-58650000D01*
X133547000Y-57369000D02*
X136180000Y-57369000D01*
X133328000Y-57889000D02*
X136180000Y-57889000D01*
X133133000Y-58770000D02*
X141187000Y-58770000D01*
X138140000Y-57409000D02*
X140793000Y-57409000D01*
X133160000Y-58570000D02*
X141160000Y-58570000D01*
X133110000Y-59210000D02*
X141210000Y-59210000D01*
X138140000Y-56609000D02*
X140278000Y-56609000D01*
X133111000Y-59090000D02*
X141209000Y-59090000D01*
X136177000Y-55249000D02*
X138143000Y-55249000D01*
X138140000Y-56889000D02*
X140489000Y-56889000D01*
X133154000Y-58610000D02*
X141166000Y-58610000D01*
X133302000Y-57969000D02*
X136180000Y-57969000D01*
X133632000Y-57209000D02*
X136180000Y-57209000D01*
X141250000Y-59210000D02*
G75*
G03*
X141250000Y-59210000I-4090000J0D01*
G01*
%TO.C,C12*%
X169890000Y-94589000D02*
X171925000Y-94589000D01*
X165860000Y-94629000D02*
X167930000Y-94629000D01*
X169890000Y-96349000D02*
X172846000Y-96349000D01*
X165502000Y-95109000D02*
X167930000Y-95109000D01*
X169890000Y-94869000D02*
X172153000Y-94869000D01*
X169890000Y-95589000D02*
X172581000Y-95589000D01*
X165027000Y-96149000D02*
X167930000Y-96149000D01*
X166006000Y-94469000D02*
X171814000Y-94469000D01*
X164931000Y-96549000D02*
X172889000Y-96549000D01*
X165052000Y-96069000D02*
X167930000Y-96069000D01*
X166402000Y-94109000D02*
X171418000Y-94109000D01*
X165065000Y-96029000D02*
X167930000Y-96029000D01*
X164893000Y-96790000D02*
X172927000Y-96790000D01*
X169890000Y-95309000D02*
X172438000Y-95309000D01*
X166213000Y-94269000D02*
X171607000Y-94269000D01*
X164867000Y-97070000D02*
X172953000Y-97070000D01*
X169890000Y-96149000D02*
X172793000Y-96149000D01*
X169890000Y-96069000D02*
X172768000Y-96069000D01*
X169890000Y-95069000D02*
X172293000Y-95069000D01*
X167340000Y-93549000D02*
X170480000Y-93549000D01*
X167250000Y-93589000D02*
X170570000Y-93589000D01*
X165169000Y-95749000D02*
X167930000Y-95749000D01*
X164888000Y-96830000D02*
X172932000Y-96830000D01*
X164947000Y-96469000D02*
X167930000Y-96469000D01*
X165452000Y-95189000D02*
X167930000Y-95189000D01*
X164974000Y-96349000D02*
X167930000Y-96349000D01*
X169890000Y-95789000D02*
X172668000Y-95789000D01*
X165121000Y-95869000D02*
X167930000Y-95869000D01*
X166867000Y-93789000D02*
X170953000Y-93789000D01*
X169890000Y-95709000D02*
X172635000Y-95709000D01*
X164994000Y-96269000D02*
X167930000Y-96269000D01*
X165382000Y-95309000D02*
X167930000Y-95309000D01*
X165792000Y-94709000D02*
X167930000Y-94709000D01*
X165005000Y-96229000D02*
X167930000Y-96229000D01*
X164872000Y-96990000D02*
X172948000Y-96990000D01*
X164864000Y-97110000D02*
X172956000Y-97110000D01*
X164860000Y-97270000D02*
X172960000Y-97270000D01*
X169890000Y-95389000D02*
X172482000Y-95389000D01*
X167008000Y-93709000D02*
X170812000Y-93709000D01*
X165258000Y-95549000D02*
X167930000Y-95549000D01*
X168096000Y-93309000D02*
X169724000Y-93309000D01*
X165092000Y-95949000D02*
X167930000Y-95949000D01*
X169890000Y-95949000D02*
X172728000Y-95949000D01*
X166353000Y-94149000D02*
X171467000Y-94149000D01*
X165185000Y-95709000D02*
X167930000Y-95709000D01*
X169890000Y-96109000D02*
X172780000Y-96109000D01*
X169890000Y-96509000D02*
X172881000Y-96509000D01*
X169890000Y-95269000D02*
X172415000Y-95269000D01*
X169890000Y-95109000D02*
X172318000Y-95109000D01*
X168910000Y-101260000D02*
X168910000Y-100060000D01*
X169890000Y-94629000D02*
X171960000Y-94629000D01*
X167656000Y-93429000D02*
X170164000Y-93429000D01*
X164860000Y-97310000D02*
X172960000Y-97310000D01*
X169890000Y-95349000D02*
X172460000Y-95349000D01*
X166676000Y-93909000D02*
X171144000Y-93909000D01*
X169890000Y-95909000D02*
X172713000Y-95909000D01*
X169890000Y-96029000D02*
X172755000Y-96029000D01*
X169890000Y-95189000D02*
X172368000Y-95189000D01*
X165338000Y-95389000D02*
X167930000Y-95389000D01*
X166258000Y-94229000D02*
X171562000Y-94229000D01*
X169890000Y-96229000D02*
X172815000Y-96229000D01*
X169890000Y-96469000D02*
X172873000Y-96469000D01*
X165667000Y-94869000D02*
X167930000Y-94869000D01*
X164964000Y-96389000D02*
X167930000Y-96389000D01*
X169890000Y-94709000D02*
X172028000Y-94709000D01*
X169890000Y-96189000D02*
X172804000Y-96189000D01*
X164875000Y-96950000D02*
X172945000Y-96950000D01*
X169890000Y-96309000D02*
X172836000Y-96309000D01*
X166086000Y-94389000D02*
X171734000Y-94389000D01*
X165107000Y-95909000D02*
X167930000Y-95909000D01*
X169890000Y-95749000D02*
X172651000Y-95749000D01*
X166305000Y-94189000D02*
X171515000Y-94189000D01*
X164883000Y-96870000D02*
X172937000Y-96870000D01*
X165895000Y-94589000D02*
X167930000Y-94589000D01*
X165638000Y-94909000D02*
X167930000Y-94909000D01*
X165360000Y-95349000D02*
X167930000Y-95349000D01*
X165297000Y-95469000D02*
X167930000Y-95469000D01*
X169890000Y-94909000D02*
X172182000Y-94909000D01*
X165317000Y-95429000D02*
X167930000Y-95429000D01*
X164939000Y-96509000D02*
X167930000Y-96509000D01*
X165078000Y-95989000D02*
X167930000Y-95989000D01*
X166506000Y-94029000D02*
X171314000Y-94029000D01*
X164916000Y-96630000D02*
X172904000Y-96630000D01*
X166453000Y-94069000D02*
X171367000Y-94069000D01*
X164904000Y-96710000D02*
X172916000Y-96710000D01*
X169890000Y-95149000D02*
X172344000Y-95149000D01*
X167783000Y-93389000D02*
X170037000Y-93389000D01*
X169890000Y-94669000D02*
X171994000Y-94669000D01*
X169890000Y-96269000D02*
X172826000Y-96269000D01*
X169890000Y-95429000D02*
X172503000Y-95429000D01*
X164923000Y-96589000D02*
X172897000Y-96589000D01*
X164910000Y-96670000D02*
X172910000Y-96670000D01*
X169890000Y-94829000D02*
X172123000Y-94829000D01*
X166617000Y-93949000D02*
X171203000Y-93949000D01*
X166045000Y-94429000D02*
X171775000Y-94429000D01*
X164955000Y-96429000D02*
X167930000Y-96429000D01*
X167165000Y-93629000D02*
X170655000Y-93629000D01*
X165826000Y-94669000D02*
X167930000Y-94669000D01*
X165554000Y-95029000D02*
X167930000Y-95029000D01*
X169890000Y-96389000D02*
X172856000Y-96389000D01*
X166801000Y-93829000D02*
X171019000Y-93829000D01*
X164898000Y-96750000D02*
X172922000Y-96750000D01*
X169890000Y-95469000D02*
X172523000Y-95469000D01*
X166737000Y-93869000D02*
X171083000Y-93869000D01*
X169890000Y-95989000D02*
X172742000Y-95989000D01*
X167927000Y-93349000D02*
X169893000Y-93349000D01*
X165728000Y-94789000D02*
X167930000Y-94789000D01*
X169890000Y-95549000D02*
X172562000Y-95549000D01*
X169890000Y-94989000D02*
X172239000Y-94989000D01*
X166127000Y-94349000D02*
X171693000Y-94349000D01*
X169890000Y-95829000D02*
X172683000Y-95829000D01*
X164879000Y-96910000D02*
X172941000Y-96910000D01*
X168260000Y-100660000D02*
X169560000Y-100660000D01*
X169890000Y-94949000D02*
X172211000Y-94949000D01*
X167437000Y-93509000D02*
X170383000Y-93509000D01*
X165968000Y-94509000D02*
X171852000Y-94509000D01*
X169890000Y-95029000D02*
X172266000Y-95029000D01*
X165760000Y-94749000D02*
X167930000Y-94749000D01*
X168664000Y-93229000D02*
X169156000Y-93229000D01*
X166170000Y-94309000D02*
X171650000Y-94309000D01*
X164869000Y-97030000D02*
X172951000Y-97030000D01*
X169890000Y-95669000D02*
X172617000Y-95669000D01*
X165016000Y-96189000D02*
X167930000Y-96189000D01*
X165609000Y-94949000D02*
X167930000Y-94949000D01*
X165137000Y-95829000D02*
X167930000Y-95829000D01*
X165277000Y-95509000D02*
X167930000Y-95509000D01*
X169890000Y-95629000D02*
X172600000Y-95629000D01*
X165405000Y-95269000D02*
X167930000Y-95269000D01*
X165428000Y-95229000D02*
X167930000Y-95229000D01*
X165527000Y-95069000D02*
X167930000Y-95069000D01*
X165931000Y-94549000D02*
X171889000Y-94549000D01*
X169890000Y-95869000D02*
X172699000Y-95869000D01*
X164984000Y-96309000D02*
X167930000Y-96309000D01*
X164860000Y-97230000D02*
X172960000Y-97230000D01*
X166936000Y-93749000D02*
X170884000Y-93749000D01*
X168312000Y-93269000D02*
X169508000Y-93269000D01*
X165239000Y-95589000D02*
X167930000Y-95589000D01*
X169890000Y-94789000D02*
X172092000Y-94789000D01*
X165040000Y-96109000D02*
X167930000Y-96109000D01*
X165203000Y-95669000D02*
X167930000Y-95669000D01*
X164863000Y-97150000D02*
X172957000Y-97150000D01*
X167541000Y-93469000D02*
X170279000Y-93469000D01*
X169890000Y-94749000D02*
X172060000Y-94749000D01*
X169890000Y-95229000D02*
X172392000Y-95229000D01*
X166561000Y-93989000D02*
X171259000Y-93989000D01*
X165220000Y-95629000D02*
X167930000Y-95629000D01*
X165476000Y-95149000D02*
X167930000Y-95149000D01*
X169890000Y-95509000D02*
X172543000Y-95509000D01*
X165581000Y-94989000D02*
X167930000Y-94989000D01*
X165152000Y-95789000D02*
X167930000Y-95789000D01*
X164861000Y-97190000D02*
X172959000Y-97190000D01*
X169890000Y-96429000D02*
X172865000Y-96429000D01*
X165697000Y-94829000D02*
X167930000Y-94829000D01*
X167084000Y-93669000D02*
X170736000Y-93669000D01*
X173000000Y-97310000D02*
G75*
G03*
X173000000Y-97310000I-4090000J0D01*
G01*
%TO.C,C13*%
X114972000Y-55169000D02*
X116168000Y-55169000D01*
X116550000Y-57609000D02*
X119295000Y-57609000D01*
X111553000Y-58690000D02*
X119587000Y-58690000D01*
X113336000Y-55809000D02*
X117804000Y-55809000D01*
X112388000Y-56689000D02*
X114590000Y-56689000D01*
X111937000Y-57409000D02*
X114590000Y-57409000D01*
X112065000Y-57169000D02*
X114590000Y-57169000D01*
X111599000Y-58409000D02*
X114590000Y-58409000D01*
X116550000Y-56729000D02*
X118783000Y-56729000D01*
X112555000Y-56489000D02*
X114590000Y-56489000D01*
X111863000Y-57569000D02*
X114590000Y-57569000D01*
X112241000Y-56889000D02*
X114590000Y-56889000D01*
X111918000Y-57449000D02*
X114590000Y-57449000D01*
X116550000Y-57409000D02*
X119203000Y-57409000D01*
X113113000Y-55969000D02*
X118027000Y-55969000D01*
X115570000Y-63160000D02*
X115570000Y-61960000D01*
X112162000Y-57009000D02*
X114590000Y-57009000D01*
X111845000Y-57609000D02*
X114590000Y-57609000D01*
X111725000Y-57929000D02*
X114590000Y-57929000D01*
X111797000Y-57729000D02*
X114590000Y-57729000D01*
X112298000Y-56809000D02*
X114590000Y-56809000D01*
X112746000Y-56289000D02*
X118394000Y-56289000D01*
X116550000Y-57529000D02*
X119260000Y-57529000D01*
X116550000Y-57129000D02*
X119052000Y-57129000D01*
X112112000Y-57089000D02*
X114590000Y-57089000D01*
X111676000Y-58089000D02*
X114590000Y-58089000D01*
X111654000Y-58169000D02*
X114590000Y-58169000D01*
X111520000Y-59130000D02*
X119620000Y-59130000D01*
X116550000Y-58249000D02*
X119506000Y-58249000D01*
X116550000Y-58329000D02*
X119525000Y-58329000D01*
X114920000Y-62560000D02*
X116220000Y-62560000D01*
X116550000Y-56569000D02*
X118654000Y-56569000D01*
X111687000Y-58049000D02*
X114590000Y-58049000D01*
X112520000Y-56529000D02*
X114590000Y-56529000D01*
X112787000Y-56249000D02*
X118353000Y-56249000D01*
X111607000Y-58369000D02*
X114590000Y-58369000D01*
X111524000Y-59010000D02*
X119616000Y-59010000D01*
X116550000Y-56489000D02*
X118585000Y-56489000D01*
X114097000Y-55409000D02*
X117043000Y-55409000D01*
X111781000Y-57769000D02*
X114590000Y-57769000D01*
X111535000Y-58850000D02*
X119605000Y-58850000D01*
X116550000Y-56889000D02*
X118899000Y-56889000D01*
X113527000Y-55689000D02*
X117613000Y-55689000D01*
X112666000Y-56369000D02*
X118474000Y-56369000D01*
X111812000Y-57689000D02*
X114590000Y-57689000D01*
X114201000Y-55369000D02*
X116939000Y-55369000D01*
X111583000Y-58489000D02*
X119557000Y-58489000D01*
X116550000Y-56849000D02*
X118871000Y-56849000D01*
X116550000Y-57929000D02*
X119415000Y-57929000D01*
X111576000Y-58530000D02*
X119564000Y-58530000D01*
X111899000Y-57489000D02*
X114590000Y-57489000D01*
X111752000Y-57849000D02*
X114590000Y-57849000D01*
X116550000Y-57769000D02*
X119359000Y-57769000D01*
X114587000Y-55249000D02*
X116553000Y-55249000D01*
X116550000Y-57729000D02*
X119343000Y-57729000D01*
X116550000Y-58009000D02*
X119440000Y-58009000D01*
X116550000Y-58169000D02*
X119486000Y-58169000D01*
X112187000Y-56969000D02*
X114590000Y-56969000D01*
X111521000Y-59090000D02*
X119619000Y-59090000D01*
X113013000Y-56049000D02*
X118127000Y-56049000D01*
X113277000Y-55849000D02*
X117863000Y-55849000D01*
X112705000Y-56329000D02*
X118435000Y-56329000D01*
X116550000Y-57489000D02*
X119241000Y-57489000D01*
X116550000Y-56929000D02*
X118926000Y-56929000D01*
X111700000Y-58009000D02*
X114590000Y-58009000D01*
X116550000Y-57049000D02*
X119004000Y-57049000D01*
X112357000Y-56729000D02*
X114590000Y-56729000D01*
X113910000Y-55489000D02*
X117230000Y-55489000D01*
X111558000Y-58650000D02*
X119582000Y-58650000D01*
X116550000Y-57689000D02*
X119328000Y-57689000D01*
X116550000Y-56969000D02*
X118953000Y-56969000D01*
X114756000Y-55209000D02*
X116384000Y-55209000D01*
X112020000Y-57249000D02*
X114590000Y-57249000D01*
X114316000Y-55329000D02*
X116824000Y-55329000D01*
X116550000Y-57249000D02*
X119120000Y-57249000D01*
X116550000Y-57569000D02*
X119277000Y-57569000D01*
X115324000Y-55129000D02*
X115816000Y-55129000D01*
X116550000Y-56529000D02*
X118620000Y-56529000D01*
X111543000Y-58770000D02*
X119597000Y-58770000D01*
X116550000Y-57809000D02*
X119373000Y-57809000D01*
X112327000Y-56769000D02*
X114590000Y-56769000D01*
X116550000Y-56689000D02*
X118752000Y-56689000D01*
X112042000Y-57209000D02*
X114590000Y-57209000D01*
X113668000Y-55609000D02*
X117472000Y-55609000D01*
X116550000Y-57209000D02*
X119098000Y-57209000D01*
X113062000Y-56009000D02*
X118078000Y-56009000D01*
X113397000Y-55769000D02*
X117743000Y-55769000D01*
X113825000Y-55529000D02*
X117315000Y-55529000D01*
X111591000Y-58449000D02*
X119549000Y-58449000D01*
X111977000Y-57329000D02*
X114590000Y-57329000D01*
X112420000Y-56649000D02*
X114590000Y-56649000D01*
X116550000Y-56809000D02*
X118842000Y-56809000D01*
X116550000Y-58129000D02*
X119475000Y-58129000D01*
X116550000Y-56769000D02*
X118813000Y-56769000D01*
X112136000Y-57049000D02*
X114590000Y-57049000D01*
X111712000Y-57969000D02*
X114590000Y-57969000D01*
X112830000Y-56209000D02*
X118310000Y-56209000D01*
X111520000Y-59210000D02*
X119620000Y-59210000D01*
X111665000Y-58129000D02*
X114590000Y-58129000D01*
X112452000Y-56609000D02*
X114590000Y-56609000D01*
X116550000Y-57289000D02*
X119142000Y-57289000D01*
X112965000Y-56089000D02*
X118175000Y-56089000D01*
X111644000Y-58209000D02*
X114590000Y-58209000D01*
X112214000Y-56929000D02*
X114590000Y-56929000D01*
X116550000Y-58409000D02*
X119541000Y-58409000D01*
X116550000Y-58049000D02*
X119453000Y-58049000D01*
X111520000Y-59170000D02*
X119620000Y-59170000D01*
X111880000Y-57529000D02*
X114590000Y-57529000D01*
X116550000Y-57089000D02*
X119028000Y-57089000D01*
X116550000Y-57849000D02*
X119388000Y-57849000D01*
X112918000Y-56129000D02*
X118222000Y-56129000D01*
X116550000Y-57369000D02*
X119183000Y-57369000D01*
X116550000Y-58209000D02*
X119496000Y-58209000D01*
X112873000Y-56169000D02*
X118267000Y-56169000D01*
X111548000Y-58730000D02*
X119592000Y-58730000D01*
X114443000Y-55289000D02*
X116697000Y-55289000D01*
X111564000Y-58610000D02*
X119576000Y-58610000D01*
X116550000Y-57169000D02*
X119075000Y-57169000D01*
X113166000Y-55929000D02*
X117974000Y-55929000D01*
X116550000Y-58289000D02*
X119516000Y-58289000D01*
X116550000Y-56649000D02*
X118720000Y-56649000D01*
X116550000Y-58369000D02*
X119533000Y-58369000D01*
X113461000Y-55729000D02*
X117679000Y-55729000D01*
X111539000Y-58810000D02*
X119601000Y-58810000D01*
X111738000Y-57889000D02*
X114590000Y-57889000D01*
X111570000Y-58570000D02*
X119570000Y-58570000D01*
X112486000Y-56569000D02*
X114590000Y-56569000D01*
X114000000Y-55449000D02*
X117140000Y-55449000D01*
X113744000Y-55569000D02*
X117396000Y-55569000D01*
X116550000Y-57889000D02*
X119402000Y-57889000D01*
X111957000Y-57369000D02*
X114590000Y-57369000D01*
X111527000Y-58970000D02*
X119613000Y-58970000D01*
X112269000Y-56849000D02*
X114590000Y-56849000D01*
X111615000Y-58329000D02*
X114590000Y-58329000D01*
X116550000Y-57969000D02*
X119428000Y-57969000D01*
X111532000Y-58890000D02*
X119608000Y-58890000D01*
X111767000Y-57809000D02*
X114590000Y-57809000D01*
X116550000Y-57009000D02*
X118978000Y-57009000D01*
X112591000Y-56449000D02*
X118549000Y-56449000D01*
X111998000Y-57289000D02*
X114590000Y-57289000D01*
X112628000Y-56409000D02*
X118512000Y-56409000D01*
X116550000Y-57449000D02*
X119222000Y-57449000D01*
X116550000Y-57329000D02*
X119163000Y-57329000D01*
X112088000Y-57129000D02*
X114590000Y-57129000D01*
X113221000Y-55889000D02*
X117919000Y-55889000D01*
X113596000Y-55649000D02*
X117544000Y-55649000D01*
X111634000Y-58249000D02*
X114590000Y-58249000D01*
X116550000Y-56609000D02*
X118688000Y-56609000D01*
X111529000Y-58930000D02*
X119611000Y-58930000D01*
X116550000Y-57649000D02*
X119311000Y-57649000D01*
X111829000Y-57649000D02*
X114590000Y-57649000D01*
X116550000Y-58089000D02*
X119464000Y-58089000D01*
X111624000Y-58289000D02*
X114590000Y-58289000D01*
X111523000Y-59050000D02*
X119617000Y-59050000D01*
X119660000Y-59210000D02*
G75*
G03*
X119660000Y-59210000I-4090000J0D01*
G01*
%TO.C,C14*%
X140774000Y-88331000D02*
X134816000Y-88331000D01*
X141568000Y-87051000D02*
X138775000Y-87051000D01*
X139540000Y-89251000D02*
X136050000Y-89251000D01*
X141345000Y-87531000D02*
X138775000Y-87531000D01*
X141689000Y-86691000D02*
X138775000Y-86691000D01*
X139164000Y-89411000D02*
X136426000Y-89411000D01*
X138393000Y-89611000D02*
X137197000Y-89611000D01*
X141833000Y-85890000D02*
X133757000Y-85890000D01*
X136815000Y-88091000D02*
X134613000Y-88091000D01*
X141277000Y-87651000D02*
X138775000Y-87651000D01*
X140619000Y-88491000D02*
X134971000Y-88491000D01*
X141741000Y-86491000D02*
X138775000Y-86491000D01*
X136815000Y-87811000D02*
X134412000Y-87811000D01*
X140578000Y-88531000D02*
X135012000Y-88531000D01*
X136815000Y-87331000D02*
X134143000Y-87331000D01*
X136815000Y-87411000D02*
X134182000Y-87411000D01*
X136815000Y-87051000D02*
X134022000Y-87051000D01*
X136815000Y-86531000D02*
X133859000Y-86531000D01*
X141665000Y-86771000D02*
X138775000Y-86771000D01*
X140845000Y-88251000D02*
X138775000Y-88251000D01*
X141151000Y-87851000D02*
X138775000Y-87851000D01*
X136815000Y-86651000D02*
X133890000Y-86651000D01*
X136815000Y-86931000D02*
X133977000Y-86931000D01*
X140029000Y-88971000D02*
X135561000Y-88971000D01*
X141789000Y-86250000D02*
X133801000Y-86250000D01*
X141485000Y-87251000D02*
X138775000Y-87251000D01*
X141203000Y-87771000D02*
X138775000Y-87771000D01*
X141584000Y-87011000D02*
X138775000Y-87011000D01*
X141096000Y-87931000D02*
X138775000Y-87931000D01*
X141613000Y-86931000D02*
X138775000Y-86931000D01*
X141817000Y-86050000D02*
X133773000Y-86050000D01*
X141367000Y-87491000D02*
X138775000Y-87491000D01*
X136815000Y-86891000D02*
X133963000Y-86891000D01*
X139697000Y-89171000D02*
X135893000Y-89171000D01*
X141841000Y-85770000D02*
X133749000Y-85770000D01*
X141711000Y-86611000D02*
X138775000Y-86611000D01*
X141536000Y-87131000D02*
X138775000Y-87131000D01*
X141836000Y-85850000D02*
X133754000Y-85850000D01*
X139968000Y-89011000D02*
X135622000Y-89011000D01*
X141842000Y-85730000D02*
X133748000Y-85730000D01*
X140199000Y-88851000D02*
X135391000Y-88851000D01*
X140303000Y-88771000D02*
X135287000Y-88771000D01*
X141447000Y-87331000D02*
X138775000Y-87331000D01*
X140737000Y-88371000D02*
X134853000Y-88371000D01*
X136815000Y-87491000D02*
X134223000Y-87491000D01*
X136815000Y-88251000D02*
X134745000Y-88251000D01*
X140535000Y-88571000D02*
X135055000Y-88571000D01*
X140945000Y-88131000D02*
X138775000Y-88131000D01*
X136815000Y-87691000D02*
X134337000Y-87691000D01*
X136815000Y-86411000D02*
X133832000Y-86411000D01*
X141323000Y-87571000D02*
X138775000Y-87571000D01*
X141627000Y-86891000D02*
X138775000Y-86891000D01*
X141807000Y-86130000D02*
X133783000Y-86130000D01*
X140088000Y-88931000D02*
X135502000Y-88931000D01*
X139838000Y-89091000D02*
X135752000Y-89091000D01*
X138041000Y-89651000D02*
X137549000Y-89651000D01*
X141598000Y-86971000D02*
X138775000Y-86971000D01*
X136815000Y-88131000D02*
X134645000Y-88131000D01*
X141466000Y-87291000D02*
X138775000Y-87291000D01*
X139904000Y-89051000D02*
X135686000Y-89051000D01*
X141428000Y-87371000D02*
X138775000Y-87371000D01*
X141553000Y-87091000D02*
X138775000Y-87091000D01*
X138609000Y-89571000D02*
X136981000Y-89571000D01*
X136815000Y-87251000D02*
X134105000Y-87251000D01*
X140879000Y-88211000D02*
X138775000Y-88211000D01*
X141700000Y-86651000D02*
X138775000Y-86651000D01*
X140913000Y-88171000D02*
X138775000Y-88171000D01*
X136815000Y-86771000D02*
X133925000Y-86771000D01*
X141678000Y-86731000D02*
X138775000Y-86731000D01*
X141801000Y-86170000D02*
X133789000Y-86170000D01*
X136815000Y-87451000D02*
X134202000Y-87451000D01*
X141408000Y-87411000D02*
X138775000Y-87411000D01*
X136815000Y-86571000D02*
X133869000Y-86571000D01*
X141640000Y-86851000D02*
X138775000Y-86851000D01*
X141845000Y-85610000D02*
X133745000Y-85610000D01*
X136815000Y-86611000D02*
X133879000Y-86611000D01*
X139621000Y-89211000D02*
X135969000Y-89211000D01*
X136815000Y-88011000D02*
X134552000Y-88011000D01*
X136815000Y-87571000D02*
X134267000Y-87571000D01*
X141782000Y-86291000D02*
X133808000Y-86291000D01*
X141838000Y-85810000D02*
X133752000Y-85810000D01*
X141822000Y-86010000D02*
X133768000Y-86010000D01*
X140660000Y-88451000D02*
X134930000Y-88451000D01*
X136815000Y-87371000D02*
X134162000Y-87371000D01*
X136815000Y-86811000D02*
X133937000Y-86811000D01*
X141845000Y-85570000D02*
X133745000Y-85570000D01*
X141844000Y-85690000D02*
X133746000Y-85690000D01*
X136815000Y-87731000D02*
X134361000Y-87731000D01*
X141826000Y-85970000D02*
X133764000Y-85970000D01*
X136815000Y-86491000D02*
X133849000Y-86491000D01*
X136815000Y-87291000D02*
X134124000Y-87291000D01*
X139365000Y-89331000D02*
X136225000Y-89331000D01*
X141758000Y-86411000D02*
X138775000Y-86411000D01*
X136815000Y-88211000D02*
X134711000Y-88211000D01*
X141008000Y-88051000D02*
X138775000Y-88051000D01*
X136815000Y-88051000D02*
X134582000Y-88051000D01*
X141520000Y-87171000D02*
X138775000Y-87171000D01*
X140977000Y-88091000D02*
X138775000Y-88091000D01*
X136815000Y-86731000D02*
X133912000Y-86731000D01*
X136815000Y-88171000D02*
X134677000Y-88171000D01*
X141178000Y-87811000D02*
X138775000Y-87811000D01*
X140352000Y-88731000D02*
X135238000Y-88731000D01*
X136815000Y-86371000D02*
X133824000Y-86371000D01*
X141388000Y-87451000D02*
X138775000Y-87451000D01*
X136815000Y-86451000D02*
X133840000Y-86451000D01*
X141774000Y-86331000D02*
X133816000Y-86331000D01*
X141229000Y-87731000D02*
X138775000Y-87731000D01*
X141300000Y-87611000D02*
X138775000Y-87611000D01*
X140492000Y-88611000D02*
X135098000Y-88611000D01*
X139455000Y-89291000D02*
X136135000Y-89291000D01*
X138922000Y-89491000D02*
X136668000Y-89491000D01*
X141721000Y-86571000D02*
X138775000Y-86571000D01*
X138445000Y-82220000D02*
X137145000Y-82220000D01*
X140400000Y-88691000D02*
X135190000Y-88691000D01*
X136815000Y-87851000D02*
X134439000Y-87851000D01*
X136815000Y-87931000D02*
X134494000Y-87931000D01*
X141812000Y-86090000D02*
X133778000Y-86090000D01*
X136815000Y-87531000D02*
X134245000Y-87531000D01*
X136815000Y-87131000D02*
X134054000Y-87131000D01*
X136815000Y-86971000D02*
X133992000Y-86971000D01*
X138778000Y-89531000D02*
X136812000Y-89531000D01*
X141038000Y-88011000D02*
X138775000Y-88011000D01*
X139268000Y-89371000D02*
X136322000Y-89371000D01*
X136815000Y-87771000D02*
X134387000Y-87771000D01*
X139769000Y-89131000D02*
X135821000Y-89131000D01*
X139049000Y-89451000D02*
X136541000Y-89451000D01*
X140252000Y-88811000D02*
X135338000Y-88811000D01*
X137795000Y-81620000D02*
X137795000Y-82820000D01*
X141124000Y-87891000D02*
X138775000Y-87891000D01*
X141653000Y-86811000D02*
X138775000Y-86811000D01*
X136815000Y-87891000D02*
X134466000Y-87891000D01*
X141067000Y-87971000D02*
X138775000Y-87971000D01*
X136815000Y-86851000D02*
X133950000Y-86851000D01*
X141253000Y-87691000D02*
X138775000Y-87691000D01*
X140699000Y-88411000D02*
X134891000Y-88411000D01*
X136815000Y-88291000D02*
X134780000Y-88291000D01*
X141795000Y-86210000D02*
X133795000Y-86210000D01*
X136815000Y-87171000D02*
X134070000Y-87171000D01*
X141750000Y-86451000D02*
X138775000Y-86451000D01*
X136815000Y-87651000D02*
X134313000Y-87651000D01*
X141766000Y-86371000D02*
X138775000Y-86371000D01*
X140144000Y-88891000D02*
X135446000Y-88891000D01*
X141845000Y-85650000D02*
X133745000Y-85650000D01*
X141502000Y-87211000D02*
X138775000Y-87211000D01*
X136815000Y-87611000D02*
X134290000Y-87611000D01*
X140810000Y-88291000D02*
X138775000Y-88291000D01*
X136815000Y-87091000D02*
X134037000Y-87091000D01*
X136815000Y-86691000D02*
X133901000Y-86691000D01*
X136815000Y-87971000D02*
X134523000Y-87971000D01*
X141830000Y-85930000D02*
X133760000Y-85930000D01*
X136815000Y-87011000D02*
X134006000Y-87011000D01*
X136815000Y-87211000D02*
X134088000Y-87211000D01*
X141731000Y-86531000D02*
X138775000Y-86531000D01*
X140447000Y-88651000D02*
X135143000Y-88651000D01*
X141885000Y-85570000D02*
G75*
G03*
X141885000Y-85570000I-4090000J0D01*
G01*
%TO.C,C15*%
X142450000Y-81490000D02*
X149570000Y-81490000D01*
X142450000Y-81490000D02*
X142450000Y-83610000D01*
X142450000Y-83610000D02*
X149570000Y-83610000D01*
X149570000Y-81490000D02*
X149570000Y-83610000D01*
%TO.C,C16*%
X178435000Y-117770000D02*
X178435000Y-116570000D01*
X177785000Y-117170000D02*
X179085000Y-117170000D01*
X179615000Y-116625580D02*
G75*
G03*
X179614722Y-112014278I-1180000J2305580D01*
G01*
X179614722Y-112014278D02*
G75*
G03*
X177255000Y-112014420I-1179722J-2305722D01*
G01*
X177255278Y-112014278D02*
G75*
G03*
X177255000Y-116625580I1179722J-2305722D01*
G01*
%TO.C,CONN1*%
X144780000Y-66615000D02*
X146110000Y-66615000D01*
X146110000Y-66615000D02*
X146110000Y-67945000D01*
X143510000Y-66615000D02*
X143510000Y-69275000D01*
X143510000Y-66615000D02*
X120590000Y-66615000D01*
X143510000Y-69275000D02*
X120590000Y-69275000D01*
X120590000Y-66615000D02*
X120590000Y-69275000D01*
%TO.C,CONN2*%
X145990000Y-69275000D02*
X145990000Y-67945000D01*
X148590000Y-69275000D02*
X171510000Y-69275000D01*
X147320000Y-69275000D02*
X145990000Y-69275000D01*
X171510000Y-69275000D02*
X171510000Y-66615000D01*
X148590000Y-69275000D02*
X148590000Y-66615000D01*
X148590000Y-66615000D02*
X171510000Y-66615000D01*
%TO.C,CONN3*%
X121920000Y-66735000D02*
X120590000Y-66735000D01*
X146110000Y-66735000D02*
X146110000Y-64075000D01*
X123190000Y-64075000D02*
X146110000Y-64075000D01*
X123190000Y-66735000D02*
X123190000Y-64075000D01*
X120590000Y-66735000D02*
X120590000Y-65405000D01*
X123190000Y-66735000D02*
X146110000Y-66735000D01*
%TO.C,CONN4*%
X171510000Y-66735000D02*
X171510000Y-64075000D01*
X147320000Y-66735000D02*
X145990000Y-66735000D01*
X148590000Y-66735000D02*
X171510000Y-66735000D01*
X148590000Y-66735000D02*
X148590000Y-64075000D01*
X148590000Y-64075000D02*
X171510000Y-64075000D01*
X145990000Y-66735000D02*
X145990000Y-65405000D01*
%TO.C,D3*%
X144845600Y-104877100D02*
X144845600Y-105033100D01*
X144845600Y-102561100D02*
X144845600Y-102717100D01*
X147446730Y-102717263D02*
G75*
G03*
X145364639Y-102717100I-1041130J-1079837D01*
G01*
X148077935Y-102718492D02*
G75*
G03*
X144845600Y-102561584I-1672335J-1078608D01*
G01*
X145364639Y-104877100D02*
G75*
G03*
X147446730Y-104876937I1040961J1080000D01*
G01*
X144845600Y-105032616D02*
G75*
G03*
X148077935Y-104875708I1560000J1235516D01*
G01*
%TO.C,U1*%
X151478600Y-110941500D02*
X141078600Y-110941500D01*
X148648600Y-110941500D02*
X147278600Y-110941500D01*
X141078600Y-121341500D02*
X151478600Y-121341500D01*
X143908600Y-110941500D02*
X143908600Y-121341500D01*
X145278600Y-110941500D02*
X143908600Y-110941500D01*
X143908600Y-121341500D02*
X148648600Y-121341500D01*
X151478600Y-121341500D02*
X151478600Y-110941500D01*
X141078600Y-110941500D02*
X141078600Y-121341500D01*
X148648600Y-121341500D02*
X148648600Y-110941500D01*
X145278600Y-110941500D02*
G75*
G03*
X147278600Y-110941500I1000000J0D01*
G01*
%TO.C,U2*%
X147050000Y-80765000D02*
X148420000Y-80765000D01*
X140850000Y-70365000D02*
X140850000Y-80765000D01*
X151250000Y-80765000D02*
X151250000Y-70365000D01*
X140850000Y-80765000D02*
X151250000Y-80765000D01*
X151250000Y-70365000D02*
X140850000Y-70365000D01*
X148420000Y-70365000D02*
X143680000Y-70365000D01*
X148420000Y-80765000D02*
X148420000Y-70365000D01*
X143680000Y-70365000D02*
X143680000Y-80765000D01*
X143680000Y-80765000D02*
X145050000Y-80765000D01*
X147050000Y-80765000D02*
G75*
G03*
X145050000Y-80765000I-1000000J0D01*
G01*
%TO.C,J1*%
X161417000Y-122276500D02*
X161417000Y-141816500D01*
X161417000Y-122276500D02*
X179367000Y-122276500D01*
X179367000Y-122276500D02*
X179367000Y-141816500D01*
X161417000Y-141816500D02*
X179367000Y-141816500D01*
%TO.C,J2*%
X114066500Y-141756500D02*
X114066500Y-122216500D01*
X132016500Y-141756500D02*
X114066500Y-141756500D01*
X132016500Y-122216500D02*
X114066500Y-122216500D01*
X132016500Y-141756500D02*
X132016500Y-122216500D01*
%TO.C,R0*%
X166970000Y-120360000D02*
X166970000Y-120690000D01*
X166970000Y-118400000D02*
X166970000Y-118070000D01*
X166970000Y-120690000D02*
X173390000Y-120690000D01*
X173390000Y-120690000D02*
X173390000Y-120360000D01*
X173390000Y-118070000D02*
X173390000Y-118400000D01*
X166970000Y-118070000D02*
X173390000Y-118070000D01*
%TO.C,R1*%
X166970000Y-118150000D02*
X173390000Y-118150000D01*
X173390000Y-115530000D02*
X173390000Y-115860000D01*
X166970000Y-117820000D02*
X166970000Y-118150000D01*
X173390000Y-118150000D02*
X173390000Y-117820000D01*
X166970000Y-115530000D02*
X173390000Y-115530000D01*
X166970000Y-115860000D02*
X166970000Y-115530000D01*
%TO.C,R2*%
X156810000Y-115530000D02*
X156810000Y-115860000D01*
X163230000Y-115860000D02*
X163230000Y-115530000D01*
X163230000Y-118150000D02*
X156810000Y-118150000D01*
X163230000Y-117820000D02*
X163230000Y-118150000D01*
X163230000Y-115530000D02*
X156810000Y-115530000D01*
X156810000Y-118150000D02*
X156810000Y-117820000D01*
%TO.C,R3*%
X165390000Y-109890000D02*
X165060000Y-109890000D01*
X165060000Y-103470000D02*
X165390000Y-103470000D01*
X167350000Y-109890000D02*
X167680000Y-109890000D01*
X167680000Y-103470000D02*
X167350000Y-103470000D01*
X165060000Y-109890000D02*
X165060000Y-103470000D01*
X167680000Y-109890000D02*
X167680000Y-103470000D01*
%TO.C,R4*%
X152360000Y-109185000D02*
X152690000Y-109185000D01*
X152690000Y-115605000D02*
X152360000Y-115605000D01*
X152360000Y-115605000D02*
X152360000Y-109185000D01*
X154980000Y-109185000D02*
X154650000Y-109185000D01*
X154650000Y-115605000D02*
X154980000Y-115605000D01*
X154980000Y-115605000D02*
X154980000Y-109185000D01*
%TO.C,R6*%
X129250000Y-95215000D02*
X129580000Y-95215000D01*
X126960000Y-101635000D02*
X127290000Y-101635000D01*
X129580000Y-101635000D02*
X129250000Y-101635000D01*
X129580000Y-95215000D02*
X129580000Y-101635000D01*
X126960000Y-95215000D02*
X126960000Y-101635000D01*
X127290000Y-95215000D02*
X126960000Y-95215000D01*
%TO.C,R7*%
X130135000Y-101635000D02*
X130465000Y-101635000D01*
X130465000Y-95215000D02*
X130135000Y-95215000D01*
X132755000Y-101635000D02*
X132425000Y-101635000D01*
X130135000Y-95215000D02*
X130135000Y-101635000D01*
X132425000Y-95215000D02*
X132755000Y-95215000D01*
X132755000Y-95215000D02*
X132755000Y-101635000D01*
%TO.C,R9*%
X129250000Y-105375000D02*
X129580000Y-105375000D01*
X127290000Y-105375000D02*
X126960000Y-105375000D01*
X129580000Y-105375000D02*
X129580000Y-111795000D01*
X126960000Y-105375000D02*
X126960000Y-111795000D01*
X126960000Y-111795000D02*
X127290000Y-111795000D01*
X129580000Y-111795000D02*
X129250000Y-111795000D01*
%TO.C,R10*%
X130775000Y-116550000D02*
X130775000Y-116880000D01*
X137195000Y-116880000D02*
X137195000Y-116550000D01*
X130775000Y-116880000D02*
X137195000Y-116880000D01*
X130775000Y-114260000D02*
X137195000Y-114260000D01*
X137195000Y-114260000D02*
X137195000Y-114590000D01*
X130775000Y-114590000D02*
X130775000Y-114260000D01*
%TO.C,R11*%
X172680000Y-110525000D02*
X173010000Y-110525000D01*
X174970000Y-104105000D02*
X175300000Y-104105000D01*
X172680000Y-104105000D02*
X172680000Y-110525000D01*
X175300000Y-110525000D02*
X174970000Y-110525000D01*
X175300000Y-104105000D02*
X175300000Y-110525000D01*
X173010000Y-104105000D02*
X172680000Y-104105000D01*
%TO.C,R12*%
X166970000Y-112355000D02*
X166970000Y-112685000D01*
X173390000Y-112355000D02*
X166970000Y-112355000D01*
X166970000Y-114975000D02*
X166970000Y-114645000D01*
X173390000Y-112685000D02*
X173390000Y-112355000D01*
X173390000Y-114975000D02*
X166970000Y-114975000D01*
X173390000Y-114645000D02*
X173390000Y-114975000D01*
%TO.C,R13*%
X161960000Y-62270000D02*
X161960000Y-61940000D01*
X155540000Y-62270000D02*
X161960000Y-62270000D01*
X155540000Y-61940000D02*
X155540000Y-62270000D01*
X155540000Y-59650000D02*
X161960000Y-59650000D01*
X155540000Y-59980000D02*
X155540000Y-59650000D01*
X161960000Y-59650000D02*
X161960000Y-59980000D01*
%TO.C,R14*%
X125810574Y-70617954D02*
X130350199Y-75157580D01*
X124191299Y-72237229D02*
X123957954Y-72470574D01*
X123957954Y-72470574D02*
X128497580Y-77010199D01*
X128497580Y-77010199D02*
X128730925Y-76776854D01*
X125577229Y-70851299D02*
X125810574Y-70617954D01*
X130350199Y-75157580D02*
X130116854Y-75390925D01*
%TO.C,R15*%
X154270000Y-86955000D02*
X154270000Y-87285000D01*
X160690000Y-86955000D02*
X154270000Y-86955000D01*
X160690000Y-89575000D02*
X154270000Y-89575000D01*
X154270000Y-89575000D02*
X154270000Y-89245000D01*
X160690000Y-89245000D02*
X160690000Y-89575000D01*
X160690000Y-87285000D02*
X160690000Y-86955000D01*
%TO.C,RV1*%
X179766000Y-108850000D02*
X179766000Y-105859000D01*
X176145000Y-110565000D02*
X176145000Y-104145000D01*
X178832000Y-104145000D02*
X176145000Y-104145000D01*
X179766000Y-106295000D02*
X176145000Y-106295000D01*
X179766000Y-108415000D02*
X179766000Y-106295000D01*
X179766000Y-108415000D02*
X176145000Y-108415000D01*
X176145000Y-108415000D02*
X176145000Y-106295000D01*
X178832000Y-110565000D02*
X176145000Y-110565000D01*
%TO.C,G\u002A\u002A\u002A*%
G36*
X114792927Y-109760317D02*
G01*
X114925722Y-109775062D01*
X115048611Y-109802543D01*
X115171697Y-109845036D01*
X115305083Y-109904819D01*
X115309074Y-109906768D01*
X115452599Y-109988665D01*
X115569244Y-110081993D01*
X115662320Y-110190307D01*
X115735140Y-110317165D01*
X115769574Y-110401122D01*
X115777649Y-110425299D01*
X115784282Y-110451023D01*
X115789650Y-110481633D01*
X115793934Y-110520464D01*
X115797312Y-110570852D01*
X115799962Y-110636134D01*
X115802064Y-110719645D01*
X115803795Y-110824723D01*
X115805336Y-110954704D01*
X115806689Y-111093804D01*
X115812261Y-111699168D01*
X115850207Y-111716457D01*
X115884372Y-111725219D01*
X115913460Y-111710650D01*
X115919333Y-111705529D01*
X115942453Y-111677438D01*
X115959459Y-111638083D01*
X115971111Y-111583081D01*
X115978169Y-111508052D01*
X115981392Y-111408613D01*
X115981804Y-111345247D01*
X115982379Y-111265651D01*
X115983898Y-111197730D01*
X115986152Y-111147328D01*
X115988932Y-111120287D01*
X115989967Y-111117444D01*
X116005560Y-111120203D01*
X116048656Y-111129863D01*
X116116488Y-111145743D01*
X116206292Y-111167157D01*
X116315302Y-111193424D01*
X116440753Y-111223860D01*
X116579879Y-111257781D01*
X116729914Y-111294505D01*
X116888094Y-111333348D01*
X117051652Y-111373627D01*
X117217823Y-111414659D01*
X117383842Y-111455760D01*
X117546944Y-111496247D01*
X117704362Y-111535438D01*
X117853331Y-111572648D01*
X117991086Y-111607195D01*
X118114861Y-111638395D01*
X118221892Y-111665565D01*
X118309411Y-111688022D01*
X118374654Y-111705082D01*
X118414856Y-111716063D01*
X118423599Y-111718695D01*
X118450810Y-111740259D01*
X118485764Y-111787830D01*
X118526441Y-111857779D01*
X118570820Y-111946475D01*
X118616882Y-112050289D01*
X118640802Y-112108973D01*
X118669766Y-112183933D01*
X118692042Y-112247456D01*
X118709956Y-112308204D01*
X118725835Y-112374839D01*
X118742007Y-112456025D01*
X118758367Y-112546600D01*
X118764933Y-112602777D01*
X118769399Y-112679754D01*
X118771807Y-112770033D01*
X118772196Y-112866118D01*
X118770610Y-112960510D01*
X118767090Y-113045712D01*
X118761677Y-113114227D01*
X118754987Y-113156375D01*
X118709994Y-113303424D01*
X118654648Y-113424036D01*
X118586392Y-113521988D01*
X118502665Y-113601058D01*
X118415798Y-113657129D01*
X118379663Y-113672575D01*
X118335815Y-113681460D01*
X118275550Y-113685030D01*
X118220773Y-113685057D01*
X118191972Y-113684188D01*
X118161186Y-113681962D01*
X118126131Y-113677866D01*
X118084523Y-113671384D01*
X118034076Y-113662002D01*
X117972505Y-113649205D01*
X117897525Y-113632477D01*
X117806852Y-113611305D01*
X117698201Y-113585174D01*
X117569286Y-113553568D01*
X117417823Y-113515974D01*
X117241526Y-113471875D01*
X117038111Y-113420758D01*
X116957014Y-113400340D01*
X116775295Y-113354608D01*
X116602388Y-113311168D01*
X116440676Y-113270612D01*
X116292539Y-113233535D01*
X116160362Y-113200530D01*
X116046525Y-113172192D01*
X115953411Y-113149115D01*
X115883403Y-113131893D01*
X115838883Y-113121120D01*
X115822232Y-113117389D01*
X115822230Y-113117389D01*
X115819020Y-113132306D01*
X115815843Y-113174346D01*
X115812853Y-113239430D01*
X115810207Y-113323477D01*
X115808061Y-113422407D01*
X115806628Y-113526226D01*
X115802469Y-113935081D01*
X115693255Y-113973924D01*
X115645560Y-113989698D01*
X115601442Y-114000616D01*
X115553295Y-114007579D01*
X115493511Y-114011488D01*
X115414482Y-114013243D01*
X115357813Y-114013625D01*
X115257378Y-114013085D01*
X115179030Y-114010011D01*
X115113697Y-114003528D01*
X115052305Y-113992760D01*
X114991167Y-113978228D01*
X114852596Y-113933629D01*
X114711156Y-113872153D01*
X114573303Y-113797727D01*
X114445489Y-113714275D01*
X114334169Y-113625724D01*
X114245798Y-113535999D01*
X114228399Y-113514305D01*
X114172063Y-113440525D01*
X114172063Y-109841677D01*
X114207168Y-109819670D01*
X114268105Y-109792726D01*
X114353799Y-109773344D01*
X114466029Y-109761263D01*
X114606574Y-109756221D01*
X114640122Y-109756032D01*
X114792927Y-109760317D01*
G37*
G36*
X117015087Y-106095779D02*
G01*
X116858990Y-106001875D01*
X116818165Y-105972829D01*
X116651967Y-105830975D01*
X116508337Y-105668109D01*
X116387863Y-105485365D01*
X116291131Y-105283879D01*
X116218728Y-105064784D01*
X116171241Y-104829215D01*
X116155897Y-104692312D01*
X116151790Y-104608481D01*
X116151380Y-104510868D01*
X116154256Y-104407437D01*
X116160008Y-104306156D01*
X116163567Y-104266666D01*
X117136524Y-104266666D01*
X117140918Y-104372137D01*
X117155080Y-104450849D01*
X117180739Y-104506190D01*
X117219625Y-104541552D01*
X117273467Y-104560325D01*
X117287431Y-104562557D01*
X117334698Y-104563721D01*
X117365444Y-104549300D01*
X117373031Y-104541733D01*
X117398466Y-104492472D01*
X117407630Y-104426391D01*
X117400763Y-104353150D01*
X117378106Y-104282406D01*
X117365985Y-104259164D01*
X117336479Y-104224680D01*
X117292336Y-104189830D01*
X117242526Y-104159892D01*
X117196016Y-104140146D01*
X117161774Y-104135871D01*
X117158260Y-104136887D01*
X117146303Y-104151048D01*
X117139361Y-104185397D01*
X117136638Y-104244686D01*
X117136524Y-104266666D01*
X116163567Y-104266666D01*
X116168225Y-104214988D01*
X116178496Y-104141902D01*
X116186002Y-104108140D01*
X116195401Y-104066752D01*
X116192102Y-104043057D01*
X116175458Y-104026230D01*
X116126806Y-104007176D01*
X116078596Y-104016441D01*
X116052203Y-104036913D01*
X116030034Y-104078153D01*
X116011808Y-104145428D01*
X115997800Y-104233781D01*
X115988289Y-104338259D01*
X115983550Y-104453907D01*
X115983861Y-104575772D01*
X115989499Y-104698898D01*
X116000740Y-104818332D01*
X116006225Y-104859558D01*
X116021345Y-104946124D01*
X116042524Y-105043332D01*
X116067571Y-105143021D01*
X116094294Y-105237035D01*
X116120503Y-105317216D01*
X116144007Y-105375404D01*
X116145671Y-105378796D01*
X116170460Y-105432347D01*
X116178039Y-105465858D01*
X116166965Y-105486218D01*
X116135797Y-105500312D01*
X116119201Y-105505229D01*
X116060817Y-105515456D01*
X115980062Y-105521294D01*
X115885445Y-105522863D01*
X115785472Y-105520283D01*
X115688650Y-105513674D01*
X115603485Y-105503157D01*
X115572816Y-105497514D01*
X115451084Y-105468600D01*
X115336528Y-105434874D01*
X115236678Y-105398829D01*
X115159064Y-105362960D01*
X115148590Y-105357040D01*
X115119772Y-105339336D01*
X115098266Y-105321719D01*
X115080819Y-105298437D01*
X115064177Y-105263736D01*
X115045084Y-105211860D01*
X115020286Y-105137055D01*
X115015012Y-105120853D01*
X114921927Y-104801397D01*
X114854144Y-104491218D01*
X114810298Y-104183385D01*
X114795462Y-104005823D01*
X114790054Y-103911803D01*
X114786982Y-103831639D01*
X114786464Y-103757796D01*
X114788721Y-103682734D01*
X114793972Y-103598917D01*
X114802438Y-103498807D01*
X114813657Y-103381744D01*
X114828519Y-103275465D01*
X114852043Y-103159243D01*
X114881658Y-103043032D01*
X114914795Y-102936789D01*
X114948883Y-102850467D01*
X114953158Y-102841418D01*
X115043618Y-102686389D01*
X115152406Y-102556405D01*
X115278813Y-102451788D01*
X115422127Y-102372862D01*
X115581639Y-102319948D01*
X115756638Y-102293371D01*
X115946413Y-102293451D01*
X116114508Y-102313972D01*
X116167347Y-102324325D01*
X116245471Y-102341273D01*
X116343945Y-102363641D01*
X116457832Y-102390252D01*
X116582197Y-102419930D01*
X116712104Y-102451498D01*
X116842618Y-102483779D01*
X116968804Y-102515597D01*
X117072874Y-102542418D01*
X117119990Y-102550606D01*
X117186691Y-102557051D01*
X117261369Y-102560751D01*
X117291302Y-102561241D01*
X117395163Y-102556799D01*
X117475706Y-102540809D01*
X117539345Y-102511186D01*
X117592496Y-102465845D01*
X117595747Y-102462297D01*
X117613377Y-102446219D01*
X117634191Y-102437769D01*
X117663553Y-102437495D01*
X117706826Y-102445945D01*
X117769374Y-102463667D01*
X117846326Y-102487917D01*
X118040722Y-102564879D01*
X118215620Y-102663778D01*
X118369500Y-102782981D01*
X118500840Y-102920856D01*
X118608120Y-103075770D01*
X118689817Y-103246091D01*
X118744411Y-103430186D01*
X118749920Y-103457577D01*
X118768524Y-103580841D01*
X118773158Y-103689166D01*
X118763851Y-103795504D01*
X118750765Y-103867666D01*
X118708863Y-104008023D01*
X118647417Y-104126444D01*
X118567600Y-104221577D01*
X118470583Y-104292075D01*
X118357541Y-104336586D01*
X118339415Y-104340908D01*
X118302187Y-104360317D01*
X118290227Y-104393035D01*
X118303893Y-104433577D01*
X118331220Y-104465857D01*
X118387959Y-104503887D01*
X118449030Y-104513869D01*
X118519945Y-104496473D01*
X118534026Y-104490554D01*
X118577874Y-104472079D01*
X118609596Y-104460401D01*
X118618476Y-104458280D01*
X118631022Y-104471821D01*
X118650180Y-104507398D01*
X118672707Y-104557444D01*
X118695355Y-104614387D01*
X118714878Y-104670660D01*
X118725528Y-104707911D01*
X118750883Y-104842093D01*
X118766684Y-104995335D01*
X118772592Y-105156887D01*
X118768271Y-105315997D01*
X118753384Y-105461915D01*
X118749881Y-105484019D01*
X118708749Y-105656017D01*
X118646180Y-105816125D01*
X118564808Y-105958475D01*
X118498271Y-106044186D01*
X118442106Y-106097090D01*
X118367685Y-106152926D01*
X118286166Y-106204211D01*
X118208708Y-106243463D01*
X118189665Y-106251130D01*
X118046959Y-106289592D01*
X117887826Y-106306200D01*
X117717104Y-106301935D01*
X117539631Y-106277778D01*
X117360246Y-106234712D01*
X117334698Y-106225881D01*
X117183785Y-106173719D01*
X117015087Y-106095779D01*
G37*
G36*
X116122311Y-92050143D02*
G01*
X115889712Y-91909072D01*
X115675332Y-91744399D01*
X115496658Y-91575156D01*
X115305512Y-91355365D01*
X115142954Y-91124265D01*
X115009295Y-90882479D01*
X114904847Y-90630627D01*
X114829921Y-90369330D01*
X114794666Y-90177352D01*
X114786973Y-90097877D01*
X116184547Y-90097877D01*
X116194614Y-90172729D01*
X116215436Y-90228336D01*
X116248515Y-90274926D01*
X116293725Y-90316497D01*
X116341240Y-90345344D01*
X116375790Y-90354103D01*
X116400694Y-90339837D01*
X116421316Y-90302110D01*
X116436317Y-90248522D01*
X116444362Y-90186675D01*
X116444113Y-90124172D01*
X116434234Y-90068615D01*
X116428701Y-90053264D01*
X116387309Y-89987525D01*
X116329778Y-89948331D01*
X116299111Y-89939347D01*
X116261647Y-89937510D01*
X116233391Y-89954884D01*
X116218225Y-89972469D01*
X116192456Y-90027610D01*
X116184547Y-90097877D01*
X114786973Y-90097877D01*
X114772574Y-89949112D01*
X114770873Y-89724242D01*
X114788886Y-89506716D01*
X114825933Y-89300510D01*
X114881336Y-89109599D01*
X114954415Y-88937958D01*
X115027505Y-88813718D01*
X115081068Y-88744582D01*
X115150434Y-88668264D01*
X115225766Y-88594745D01*
X115297228Y-88534007D01*
X115318808Y-88518102D01*
X115473107Y-88428823D01*
X115642199Y-88365563D01*
X115823374Y-88328504D01*
X116013923Y-88317831D01*
X116211137Y-88333728D01*
X116412307Y-88376378D01*
X116580793Y-88432403D01*
X116722663Y-88495397D01*
X116848500Y-88569716D01*
X116967645Y-88661593D01*
X117074029Y-88761571D01*
X117146733Y-88837625D01*
X117202621Y-88903533D01*
X117249011Y-88968930D01*
X117293221Y-89043449D01*
X117306104Y-89067072D01*
X117406226Y-89278641D01*
X117480002Y-89494002D01*
X117528676Y-89718302D01*
X117553495Y-89956685D01*
X117557453Y-90105202D01*
X117550650Y-90304978D01*
X117529334Y-90480341D01*
X117492768Y-90634876D01*
X117440215Y-90772169D01*
X117407220Y-90836349D01*
X117380382Y-90894887D01*
X117377114Y-90935550D01*
X117397799Y-90961349D01*
X117424519Y-90971635D01*
X117474675Y-90969790D01*
X117522181Y-90937990D01*
X117567613Y-90875749D01*
X117590621Y-90831167D01*
X117655741Y-90658676D01*
X117699824Y-90467819D01*
X117723145Y-90263018D01*
X117725980Y-90048700D01*
X117708603Y-89829289D01*
X117671289Y-89609210D01*
X117614315Y-89392887D01*
X117537954Y-89184745D01*
X117480527Y-89060818D01*
X117456389Y-89010858D01*
X117439246Y-88971288D01*
X117432874Y-88950975D01*
X117447336Y-88935289D01*
X117486221Y-88919710D01*
X117542779Y-88905727D01*
X117610261Y-88894830D01*
X117681915Y-88888508D01*
X117720442Y-88887521D01*
X117828157Y-88892974D01*
X117946429Y-88907858D01*
X118061279Y-88929965D01*
X118156868Y-88956451D01*
X118235572Y-88984254D01*
X118291306Y-89007781D01*
X118331030Y-89031596D01*
X118361701Y-89060259D01*
X118390276Y-89098333D01*
X118403115Y-89117899D01*
X118521642Y-89322389D01*
X118618843Y-89535513D01*
X118696319Y-89761955D01*
X118755670Y-90006399D01*
X118798495Y-90273530D01*
X118798802Y-90275986D01*
X118809625Y-90392269D01*
X118816250Y-90527601D01*
X118818695Y-90672578D01*
X118816981Y-90817797D01*
X118811125Y-90953851D01*
X118801146Y-91071339D01*
X118797152Y-91102997D01*
X118762806Y-91283688D01*
X118711713Y-91460421D01*
X118646464Y-91626657D01*
X118569653Y-91775856D01*
X118483872Y-91901481D01*
X118477443Y-91909412D01*
X118342110Y-92050001D01*
X118186216Y-92167867D01*
X118011659Y-92261948D01*
X117820340Y-92331181D01*
X117657758Y-92367750D01*
X117571725Y-92377011D01*
X117463658Y-92380634D01*
X117342147Y-92378975D01*
X117215781Y-92372390D01*
X117093150Y-92361234D01*
X116982841Y-92345864D01*
X116941412Y-92338063D01*
X116646962Y-92264005D01*
X116375790Y-92168756D01*
X116374328Y-92168242D01*
X116122311Y-92050143D01*
G37*
G36*
X115893769Y-92405442D02*
G01*
X115993909Y-92417849D01*
X116107972Y-92438225D01*
X116240205Y-92467179D01*
X116394853Y-92505321D01*
X116512358Y-92536118D01*
X116687597Y-92582423D01*
X116835926Y-92620501D01*
X116960383Y-92650892D01*
X117064007Y-92674135D01*
X117149836Y-92690769D01*
X117220906Y-92701335D01*
X117280257Y-92706372D01*
X117330925Y-92706420D01*
X117375949Y-92702018D01*
X117410180Y-92695603D01*
X117492194Y-92666746D01*
X117566009Y-92622984D01*
X117606602Y-92593704D01*
X117637772Y-92574307D01*
X117649518Y-92569582D01*
X117683571Y-92575424D01*
X117739291Y-92591275D01*
X117809761Y-92614625D01*
X117888067Y-92642960D01*
X117967292Y-92673770D01*
X118040521Y-92704542D01*
X118100839Y-92732765D01*
X118105839Y-92735322D01*
X118254006Y-92827860D01*
X118392030Y-92945100D01*
X118514416Y-93081080D01*
X118615669Y-93229837D01*
X118679202Y-93357481D01*
X118729364Y-93508599D01*
X118760184Y-93669459D01*
X118771641Y-93833410D01*
X118763717Y-93993802D01*
X118736393Y-94143983D01*
X118689650Y-94277302D01*
X118681874Y-94293599D01*
X118606348Y-94413571D01*
X118510591Y-94510291D01*
X118395907Y-94583087D01*
X118263602Y-94631289D01*
X118114978Y-94654224D01*
X117982075Y-94653722D01*
X117906144Y-94644997D01*
X117808972Y-94628525D01*
X117699004Y-94606178D01*
X117584684Y-94579827D01*
X117474456Y-94551342D01*
X117376766Y-94522595D01*
X117348961Y-94513452D01*
X117285441Y-94491348D01*
X117201828Y-94461534D01*
X117107222Y-94427326D01*
X117010723Y-94392042D01*
X116921428Y-94358997D01*
X116848436Y-94331508D01*
X116824398Y-94322249D01*
X116757745Y-94299197D01*
X116676886Y-94275347D01*
X116598307Y-94255529D01*
X116591514Y-94254021D01*
X116524178Y-94240280D01*
X116478310Y-94234220D01*
X116445229Y-94235471D01*
X116416254Y-94243665D01*
X116409694Y-94246311D01*
X116364728Y-94277124D01*
X116344586Y-94323457D01*
X116347660Y-94388020D01*
X116356022Y-94422987D01*
X116369827Y-94444562D01*
X116396588Y-94457996D01*
X116443819Y-94468538D01*
X116469227Y-94472968D01*
X116607820Y-94496826D01*
X116720261Y-94516924D01*
X116811227Y-94534320D01*
X116885396Y-94550073D01*
X116947446Y-94565242D01*
X117002053Y-94580885D01*
X117053895Y-94598060D01*
X117105233Y-94616908D01*
X117220231Y-94658217D01*
X117349984Y-94700926D01*
X117485109Y-94742236D01*
X117616221Y-94779346D01*
X117733938Y-94809456D01*
X117799520Y-94824091D01*
X117904285Y-94839922D01*
X118021248Y-94848398D01*
X118139054Y-94849329D01*
X118246348Y-94842528D01*
X118311437Y-94832587D01*
X118363596Y-94823585D01*
X118404759Y-94819875D01*
X118422080Y-94821324D01*
X118442047Y-94839161D01*
X118473121Y-94878893D01*
X118511518Y-94934998D01*
X118553450Y-95001950D01*
X118594190Y-95072513D01*
X118648195Y-95189298D01*
X118694055Y-95325931D01*
X118730658Y-95475140D01*
X118756890Y-95629649D01*
X118771638Y-95782183D01*
X118773790Y-95925470D01*
X118762233Y-96052233D01*
X118751900Y-96103427D01*
X118708302Y-96229824D01*
X118644261Y-96346964D01*
X118564233Y-96448610D01*
X118472673Y-96528528D01*
X118428576Y-96555915D01*
X118385018Y-96577822D01*
X118346326Y-96591064D01*
X118302104Y-96597685D01*
X118241952Y-96599726D01*
X118205649Y-96599686D01*
X118173238Y-96598958D01*
X118139610Y-96596791D01*
X118102059Y-96592596D01*
X118057878Y-96585788D01*
X118004363Y-96575779D01*
X117938807Y-96561982D01*
X117858505Y-96543810D01*
X117760751Y-96520677D01*
X117642839Y-96491994D01*
X117502064Y-96457176D01*
X117335720Y-96415635D01*
X117198064Y-96381099D01*
X116331374Y-96163388D01*
X116247067Y-96192045D01*
X116108310Y-96224314D01*
X115954005Y-96233836D01*
X115788757Y-96221686D01*
X115617176Y-96188936D01*
X115443868Y-96136660D01*
X115273441Y-96065932D01*
X115110502Y-95977826D01*
X114995067Y-95900312D01*
X114874152Y-95811215D01*
X114874152Y-95446942D01*
X114875000Y-95308011D01*
X114878107Y-95196058D01*
X114884318Y-95106888D01*
X114894479Y-95036306D01*
X114909433Y-94980118D01*
X114930027Y-94934130D01*
X114957105Y-94894146D01*
X114991512Y-94855973D01*
X114993631Y-94853845D01*
X115047743Y-94799734D01*
X115145150Y-94900556D01*
X115193668Y-94947284D01*
X115239231Y-94985128D01*
X115274340Y-95008067D01*
X115283457Y-95011643D01*
X115339425Y-95015048D01*
X115380038Y-94995653D01*
X115398667Y-94962669D01*
X115400014Y-94941179D01*
X115390713Y-94916977D01*
X115367259Y-94884697D01*
X115326147Y-94838972D01*
X115299996Y-94811590D01*
X115160140Y-94646666D01*
X115038671Y-94462764D01*
X114938738Y-94266026D01*
X114863492Y-94062594D01*
X114818344Y-93872290D01*
X114804991Y-93762165D01*
X114798397Y-93635152D01*
X114798299Y-93500236D01*
X114804431Y-93366407D01*
X114816529Y-93242650D01*
X114834329Y-93137955D01*
X114840732Y-93111642D01*
X114899993Y-92940808D01*
X114980899Y-92792414D01*
X115065945Y-92684730D01*
X115164176Y-92591057D01*
X115266339Y-92519638D01*
X115379150Y-92467228D01*
X115509323Y-92430582D01*
X115634439Y-92409928D01*
X115718280Y-92402092D01*
X115803308Y-92400393D01*
X115893769Y-92405442D01*
G37*
G36*
X115359068Y-84068285D02*
G01*
X115422419Y-84079946D01*
X115499311Y-84101511D01*
X115593595Y-84133666D01*
X115709123Y-84177097D01*
X115834220Y-84226302D01*
X116113708Y-84339688D01*
X116395003Y-84457897D01*
X116675295Y-84579566D01*
X116951772Y-84703336D01*
X117221624Y-84827846D01*
X117482039Y-84951733D01*
X117730208Y-85073637D01*
X117963318Y-85192197D01*
X118178558Y-85306052D01*
X118373119Y-85413840D01*
X118544189Y-85514201D01*
X118688956Y-85605773D01*
X118704434Y-85616111D01*
X118960553Y-85802673D01*
X119188683Y-85998956D01*
X119388473Y-86204431D01*
X119559572Y-86418569D01*
X119701628Y-86640840D01*
X119814288Y-86870717D01*
X119897203Y-87107668D01*
X119950019Y-87351166D01*
X119968432Y-87518284D01*
X119973215Y-87586586D01*
X119977853Y-87649852D01*
X119981466Y-87696119D01*
X119981944Y-87701769D01*
X119982818Y-87742443D01*
X119981035Y-87803178D01*
X119976980Y-87872977D01*
X119975153Y-87896793D01*
X119949027Y-88080113D01*
X119902747Y-88241120D01*
X119836705Y-88379245D01*
X119751292Y-88493914D01*
X119646899Y-88584556D01*
X119523919Y-88650600D01*
X119440064Y-88678531D01*
X119358953Y-88694754D01*
X119278006Y-88698321D01*
X119188148Y-88688852D01*
X119080304Y-88665965D01*
X119068189Y-88662926D01*
X118909532Y-88610515D01*
X118746185Y-88534182D01*
X118586381Y-88438406D01*
X118438349Y-88327669D01*
X118414008Y-88306859D01*
X118386257Y-88268336D01*
X118368545Y-88209029D01*
X118360916Y-88127526D01*
X118363412Y-88022416D01*
X118376076Y-87892288D01*
X118398950Y-87735732D01*
X118432078Y-87551336D01*
X118437707Y-87522346D01*
X118463908Y-87387739D01*
X118484333Y-87280067D01*
X118499413Y-87195688D01*
X118509582Y-87130956D01*
X118515270Y-87082228D01*
X118516909Y-87045859D01*
X118514932Y-87018206D01*
X118509770Y-86995624D01*
X118502467Y-86975925D01*
X118464860Y-86922088D01*
X118428177Y-86899128D01*
X118376980Y-86877602D01*
X118294782Y-87276920D01*
X118265997Y-87414063D01*
X118241050Y-87524574D01*
X118218297Y-87612540D01*
X118196094Y-87682050D01*
X118172798Y-87737189D01*
X118146766Y-87782045D01*
X118116353Y-87820706D01*
X118079917Y-87857258D01*
X118051175Y-87882725D01*
X117954166Y-87950391D01*
X117830447Y-88010991D01*
X117683992Y-88063137D01*
X117518771Y-88105440D01*
X117338760Y-88136511D01*
X117316903Y-88139350D01*
X117238743Y-88145942D01*
X117136938Y-88149779D01*
X117018913Y-88150996D01*
X116892092Y-88149729D01*
X116763902Y-88146113D01*
X116641765Y-88140284D01*
X116533108Y-88132376D01*
X116453162Y-88123619D01*
X116390350Y-88116473D01*
X116342417Y-88116399D01*
X116295379Y-88124798D01*
X116235249Y-88143069D01*
X116225072Y-88146468D01*
X116074356Y-88184126D01*
X115917959Y-88196903D01*
X115752030Y-88184711D01*
X115572720Y-88147464D01*
X115512733Y-88130493D01*
X115401538Y-88090301D01*
X115278645Y-88034401D01*
X115155048Y-87968505D01*
X115041741Y-87898324D01*
X114978794Y-87853097D01*
X114873855Y-87771977D01*
X114878797Y-87202506D01*
X114880189Y-87052922D01*
X114881641Y-86931071D01*
X114883351Y-86833479D01*
X114885517Y-86756674D01*
X114888338Y-86697185D01*
X114892012Y-86651539D01*
X114896738Y-86616265D01*
X114902714Y-86587890D01*
X114910138Y-86562942D01*
X114916338Y-86545567D01*
X114964925Y-86435860D01*
X115021979Y-86350777D01*
X115093271Y-86283851D01*
X115184575Y-86228620D01*
X115210453Y-86216226D01*
X115246647Y-86201214D01*
X115282867Y-86191094D01*
X115326423Y-86184942D01*
X115384625Y-86181834D01*
X115464783Y-86180846D01*
X115490429Y-86180822D01*
X115693255Y-86180913D01*
X116044299Y-86300846D01*
X116252740Y-86370587D01*
X116443139Y-86430925D01*
X116626021Y-86485013D01*
X116811911Y-86536004D01*
X116940773Y-86569343D01*
X117016643Y-86587631D01*
X117067517Y-86596140D01*
X117098372Y-86593775D01*
X117114181Y-86579446D01*
X117119921Y-86552059D01*
X117120596Y-86529848D01*
X117107459Y-86481018D01*
X117066675Y-86438905D01*
X116997102Y-86402660D01*
X116913536Y-86375577D01*
X116607521Y-86289541D01*
X116295842Y-86194275D01*
X115986249Y-86092397D01*
X115686489Y-85986523D01*
X115404310Y-85879270D01*
X115212021Y-85800829D01*
X115138167Y-85769218D01*
X115087148Y-85745200D01*
X115052918Y-85724555D01*
X115029429Y-85703068D01*
X115010636Y-85676518D01*
X114995444Y-85649763D01*
X114925564Y-85493816D01*
X114874128Y-85316987D01*
X114842131Y-85124263D01*
X114830566Y-84920630D01*
X114832121Y-84831007D01*
X114847525Y-84647774D01*
X114878493Y-84490824D01*
X114925497Y-84359130D01*
X114989008Y-84251664D01*
X115069496Y-84167399D01*
X115164029Y-84106959D01*
X115211737Y-84085864D01*
X115257579Y-84071929D01*
X115305405Y-84065841D01*
X115359068Y-84068285D01*
G37*
G36*
X115585681Y-96297871D02*
G01*
X115727585Y-96333189D01*
X115892643Y-96387440D01*
X116079636Y-96460078D01*
X116287340Y-96550557D01*
X116514534Y-96658329D01*
X116759998Y-96782848D01*
X117022509Y-96923568D01*
X117180148Y-97011296D01*
X117426781Y-97152594D01*
X117646143Y-97283357D01*
X117839854Y-97404846D01*
X118009531Y-97518322D01*
X118156793Y-97625047D01*
X118283259Y-97726280D01*
X118390546Y-97823283D01*
X118480274Y-97917316D01*
X118554060Y-98009641D01*
X118613523Y-98101519D01*
X118638188Y-98147285D01*
X118688722Y-98272046D01*
X118728027Y-98421103D01*
X118755602Y-98589450D01*
X118770947Y-98772084D01*
X118773563Y-98963998D01*
X118762949Y-99160187D01*
X118750647Y-99273095D01*
X118734837Y-99387490D01*
X118720213Y-99474731D01*
X118705604Y-99538782D01*
X118689839Y-99583603D01*
X118671746Y-99613157D01*
X118650155Y-99631406D01*
X118643729Y-99634834D01*
X118609281Y-99646894D01*
X118550737Y-99662591D01*
X118474796Y-99680527D01*
X118388159Y-99699301D01*
X118297524Y-99717515D01*
X118209590Y-99733769D01*
X118131057Y-99746664D01*
X118070217Y-99754636D01*
X117966466Y-99765389D01*
X117980231Y-99814445D01*
X118002383Y-99860392D01*
X118034145Y-99898605D01*
X118076604Y-99921438D01*
X118139803Y-99932321D01*
X118226528Y-99931447D01*
X118337324Y-99919325D01*
X118422670Y-99907218D01*
X118547950Y-100003859D01*
X118604233Y-100048604D01*
X118645243Y-100086901D01*
X118674583Y-100125545D01*
X118695855Y-100171331D01*
X118712663Y-100231052D01*
X118728608Y-100311504D01*
X118737257Y-100360894D01*
X118744155Y-100414824D01*
X118750683Y-100491144D01*
X118756640Y-100583929D01*
X118761826Y-100687252D01*
X118766043Y-100795188D01*
X118769090Y-100901809D01*
X118770768Y-101001190D01*
X118770877Y-101087404D01*
X118769218Y-101154526D01*
X118765590Y-101196630D01*
X118765444Y-101197469D01*
X118760060Y-101229365D01*
X118751265Y-101283218D01*
X118740499Y-101350160D01*
X118733885Y-101391702D01*
X118718591Y-101473047D01*
X118698918Y-101556800D01*
X118678268Y-101629007D01*
X118670632Y-101651168D01*
X118649414Y-101705848D01*
X118630553Y-101740076D01*
X118605770Y-101762737D01*
X118566785Y-101782714D01*
X118535597Y-101796068D01*
X118317578Y-101877738D01*
X118090084Y-101942048D01*
X117846755Y-101990525D01*
X117585551Y-102024269D01*
X117506954Y-102030028D01*
X117403628Y-102034524D01*
X117282024Y-102037743D01*
X117148590Y-102039666D01*
X117009779Y-102040280D01*
X116872039Y-102039566D01*
X116741821Y-102037510D01*
X116625575Y-102034094D01*
X116529751Y-102029303D01*
X116498480Y-102026989D01*
X116423528Y-102021306D01*
X116369730Y-102019787D01*
X116327199Y-102023410D01*
X116286049Y-102033153D01*
X116236392Y-102049991D01*
X116225445Y-102053976D01*
X116122989Y-102080624D01*
X116001092Y-102094965D01*
X115869017Y-102096930D01*
X115736026Y-102086451D01*
X115611383Y-102063460D01*
X115592911Y-102058636D01*
X115411269Y-101998920D01*
X115237414Y-101922322D01*
X115078934Y-101832652D01*
X114943419Y-101733718D01*
X114940460Y-101731217D01*
X114858550Y-101661737D01*
X114859075Y-101261882D01*
X114860282Y-101073073D01*
X114863633Y-100912271D01*
X114869533Y-100776327D01*
X114878385Y-100662095D01*
X114890592Y-100566425D01*
X114906557Y-100486169D01*
X114926683Y-100418180D01*
X114951373Y-100359308D01*
X114981031Y-100306407D01*
X114981527Y-100305623D01*
X115038276Y-100234713D01*
X115107174Y-100185187D01*
X115193400Y-100154455D01*
X115302133Y-100139928D01*
X115314315Y-100139274D01*
X115355887Y-100137537D01*
X115394011Y-100136995D01*
X115431775Y-100138290D01*
X115472267Y-100142065D01*
X115518575Y-100148962D01*
X115573788Y-100159625D01*
X115640993Y-100174696D01*
X115723279Y-100194818D01*
X115823733Y-100220634D01*
X115945444Y-100252786D01*
X116091499Y-100291917D01*
X116240368Y-100332029D01*
X116415709Y-100379165D01*
X116563599Y-100418498D01*
X116686644Y-100450615D01*
X116787449Y-100476099D01*
X116868620Y-100495537D01*
X116932761Y-100509514D01*
X116982477Y-100518614D01*
X117020374Y-100523422D01*
X117049058Y-100524525D01*
X117071133Y-100522506D01*
X117080072Y-100520619D01*
X117115665Y-100500284D01*
X117138779Y-100465780D01*
X117148499Y-100425588D01*
X117143908Y-100388188D01*
X117124089Y-100362061D01*
X117097972Y-100354963D01*
X117062918Y-100350416D01*
X116999325Y-100336996D01*
X116908473Y-100315035D01*
X116791640Y-100284864D01*
X116650103Y-100246815D01*
X116485140Y-100201218D01*
X116298029Y-100148406D01*
X116262727Y-100138340D01*
X116128687Y-100100630D01*
X115977012Y-100058898D01*
X115819045Y-100016205D01*
X115666129Y-99975612D01*
X115529607Y-99940180D01*
X115506031Y-99934176D01*
X115401494Y-99907601D01*
X115306180Y-99883274D01*
X115224528Y-99862335D01*
X115160975Y-99845925D01*
X115119960Y-99835185D01*
X115106739Y-99831561D01*
X115087247Y-99813116D01*
X115060473Y-99770720D01*
X115029023Y-99710017D01*
X114995504Y-99636651D01*
X114962522Y-99556267D01*
X114932683Y-99474509D01*
X114912575Y-99411044D01*
X114884274Y-99288194D01*
X114865695Y-99152685D01*
X114856906Y-99012145D01*
X114857976Y-98874200D01*
X114868973Y-98746479D01*
X114889965Y-98636610D01*
X114905177Y-98588199D01*
X114964579Y-98466226D01*
X115042621Y-98364613D01*
X115136344Y-98286158D01*
X115242786Y-98233658D01*
X115295902Y-98218844D01*
X115331099Y-98212802D01*
X115364952Y-98211807D01*
X115404723Y-98216927D01*
X115457677Y-98229228D01*
X115531077Y-98249773D01*
X115555602Y-98256949D01*
X115744474Y-98315264D01*
X115948241Y-98383124D01*
X116159780Y-98457857D01*
X116371968Y-98536791D01*
X116577683Y-98617253D01*
X116769801Y-98696570D01*
X116941202Y-98772070D01*
X116994467Y-98796856D01*
X117065809Y-98830230D01*
X117127012Y-98858155D01*
X117172589Y-98878181D01*
X117197053Y-98887857D01*
X117199374Y-98888378D01*
X117213531Y-98875022D01*
X117220481Y-98842912D01*
X117218645Y-98803986D01*
X117213213Y-98783720D01*
X117195900Y-98751208D01*
X117166862Y-98719872D01*
X117121160Y-98685670D01*
X117053859Y-98644565D01*
X117019087Y-98624896D01*
X116936267Y-98582573D01*
X116827269Y-98532851D01*
X116695858Y-98477114D01*
X116545800Y-98416744D01*
X116380859Y-98353123D01*
X116204800Y-98287636D01*
X116021389Y-98221664D01*
X115834391Y-98156591D01*
X115647569Y-98093801D01*
X115464691Y-98034674D01*
X115289519Y-97980596D01*
X115167406Y-97944738D01*
X115120779Y-97928944D01*
X115084683Y-97908576D01*
X115054816Y-97878349D01*
X115026878Y-97832980D01*
X114996569Y-97767186D01*
X114970149Y-97702406D01*
X114921627Y-97556859D01*
X114886221Y-97400939D01*
X114864103Y-97240433D01*
X114855442Y-97081128D01*
X114860410Y-96928811D01*
X114879176Y-96789270D01*
X114911913Y-96668290D01*
X114937860Y-96607942D01*
X115009736Y-96499984D01*
X115102835Y-96411647D01*
X115212460Y-96345179D01*
X115333913Y-96302828D01*
X115462496Y-96286844D01*
X115585681Y-96297871D01*
G37*
G36*
X115928958Y-106220815D02*
G01*
X115993939Y-106224571D01*
X116061293Y-106231902D01*
X116135293Y-106243613D01*
X116220213Y-106260513D01*
X116320327Y-106283409D01*
X116439908Y-106313108D01*
X116583232Y-106350418D01*
X116656767Y-106369948D01*
X116833027Y-106415776D01*
X116982745Y-106451717D01*
X117108924Y-106477926D01*
X117214568Y-106494557D01*
X117302678Y-106501762D01*
X117376257Y-106499697D01*
X117438310Y-106488515D01*
X117491837Y-106468370D01*
X117539843Y-106439416D01*
X117568635Y-106416693D01*
X117632148Y-106362328D01*
X117754839Y-106394434D01*
X117958816Y-106461752D01*
X118142875Y-106551299D01*
X118305840Y-106662101D01*
X118446536Y-106793183D01*
X118563785Y-106943570D01*
X118656412Y-107112290D01*
X118675532Y-107157093D01*
X118733695Y-107335334D01*
X118767010Y-107517439D01*
X118774813Y-107697110D01*
X118756441Y-107868047D01*
X118752473Y-107887544D01*
X118712060Y-108019046D01*
X118651305Y-108139579D01*
X118573893Y-108243977D01*
X118483507Y-108327073D01*
X118405496Y-108374192D01*
X118312634Y-108411665D01*
X118215301Y-108437149D01*
X118110867Y-108450301D01*
X117996702Y-108450775D01*
X117870176Y-108438228D01*
X117728661Y-108412313D01*
X117569525Y-108372688D01*
X117390139Y-108319007D01*
X117187873Y-108250925D01*
X117029650Y-108193921D01*
X116862947Y-108134389D01*
X116723298Y-108088586D01*
X116609858Y-108056271D01*
X116521780Y-108037201D01*
X116459660Y-108031130D01*
X116399803Y-108043316D01*
X116360678Y-108077889D01*
X116344847Y-108131865D01*
X116346197Y-108163199D01*
X116357123Y-108207312D01*
X116374017Y-108238653D01*
X116378304Y-108242635D01*
X116401163Y-108250889D01*
X116449228Y-108262615D01*
X116516854Y-108276622D01*
X116598394Y-108291721D01*
X116664075Y-108302849D01*
X116797222Y-108326480D01*
X116907356Y-108350688D01*
X117002636Y-108377472D01*
X117081830Y-108405203D01*
X117331474Y-108494956D01*
X117557916Y-108564208D01*
X117761431Y-108613016D01*
X117942290Y-108641439D01*
X118100767Y-108649532D01*
X118208604Y-108641826D01*
X118273914Y-108632495D01*
X118333166Y-108623310D01*
X118374564Y-108616107D01*
X118377511Y-108615517D01*
X118403323Y-108612441D01*
X118424187Y-108618978D01*
X118446676Y-108640034D01*
X118477363Y-108680514D01*
X118491601Y-108700670D01*
X118590928Y-108866869D01*
X118670379Y-109051035D01*
X118728465Y-109246713D01*
X118763699Y-109447443D01*
X118774595Y-109646770D01*
X118759664Y-109838235D01*
X118757192Y-109853726D01*
X118721936Y-109986814D01*
X118663861Y-110110541D01*
X118586666Y-110219441D01*
X118494046Y-110308048D01*
X118415798Y-110358361D01*
X118378064Y-110375720D01*
X118340255Y-110386462D01*
X118293410Y-110391981D01*
X118228563Y-110393671D01*
X118189570Y-110393541D01*
X118166421Y-110393167D01*
X118143002Y-110392177D01*
X118117671Y-110390185D01*
X118088785Y-110386809D01*
X118054700Y-110381662D01*
X118013775Y-110374359D01*
X117964366Y-110364518D01*
X117904832Y-110351752D01*
X117833528Y-110335676D01*
X117748812Y-110315907D01*
X117649042Y-110292059D01*
X117532574Y-110263749D01*
X117397766Y-110230590D01*
X117242976Y-110192198D01*
X117066560Y-110148190D01*
X116866876Y-110098179D01*
X116642281Y-110041781D01*
X116391132Y-109978612D01*
X116111786Y-109908287D01*
X116036498Y-109889327D01*
X115792132Y-109827785D01*
X115555503Y-109768185D01*
X115328440Y-109710989D01*
X115112775Y-109656659D01*
X114910337Y-109605655D01*
X114722957Y-109558439D01*
X114552463Y-109515472D01*
X114400687Y-109477216D01*
X114269459Y-109444131D01*
X114160607Y-109416678D01*
X114075964Y-109395320D01*
X114017358Y-109380516D01*
X113986619Y-109372729D01*
X113983056Y-109371817D01*
X113949461Y-109359681D01*
X113925141Y-109338965D01*
X113902675Y-109301624D01*
X113886846Y-109267554D01*
X113815529Y-109079878D01*
X113761192Y-108879691D01*
X113725114Y-108674906D01*
X113708576Y-108473438D01*
X113712855Y-108283198D01*
X113718684Y-108227140D01*
X113749635Y-108058968D01*
X113796798Y-107917156D01*
X113860110Y-107801813D01*
X113939504Y-107713044D01*
X114034915Y-107650956D01*
X114082786Y-107631840D01*
X114138919Y-107617960D01*
X114201915Y-107612704D01*
X114276853Y-107616451D01*
X114368810Y-107629576D01*
X114482863Y-107652458D01*
X114542610Y-107666006D01*
X114733734Y-107710496D01*
X114733965Y-107773300D01*
X114743051Y-107866975D01*
X114767811Y-107978342D01*
X114805408Y-108099973D01*
X114853002Y-108224442D01*
X114907754Y-108344322D01*
X114966827Y-108452185D01*
X115027083Y-108540227D01*
X115089418Y-108606649D01*
X115147309Y-108642747D01*
X115200416Y-108648353D01*
X115225979Y-108639187D01*
X115252281Y-108619850D01*
X115260782Y-108595828D01*
X115250456Y-108562137D01*
X115220276Y-108513794D01*
X115192289Y-108475786D01*
X115112334Y-108353962D01*
X115038404Y-108209560D01*
X114974088Y-108051112D01*
X114922972Y-107887147D01*
X114896932Y-107773475D01*
X114883882Y-107678188D01*
X114876039Y-107561795D01*
X114873392Y-107433957D01*
X114875930Y-107304332D01*
X114883644Y-107182580D01*
X114896522Y-107078361D01*
X114897681Y-107071609D01*
X114935856Y-106914753D01*
X114992626Y-106765260D01*
X115064885Y-106629078D01*
X115149530Y-106512157D01*
X115232994Y-106428927D01*
X115349654Y-106344595D01*
X115470883Y-106283616D01*
X115602754Y-106243971D01*
X115751339Y-106223642D01*
X115862075Y-106219825D01*
X115928958Y-106220815D01*
G37*
G36*
X123603594Y-96245970D02*
G01*
X123517013Y-96153680D01*
X123469053Y-96083864D01*
X123448466Y-96013159D01*
X123444578Y-95930431D01*
X123613334Y-95930431D01*
X123638558Y-96021303D01*
X123703528Y-96108823D01*
X123792190Y-96182012D01*
X123888492Y-96229890D01*
X123976380Y-96241479D01*
X124031022Y-96216089D01*
X124041400Y-96173925D01*
X124049262Y-96081461D01*
X124053317Y-95956117D01*
X124053600Y-95911289D01*
X124053600Y-95629066D01*
X123945146Y-95629066D01*
X123841554Y-95655730D01*
X123738624Y-95723575D01*
X123656414Y-95814382D01*
X123614985Y-95909931D01*
X123613334Y-95930431D01*
X123444578Y-95930431D01*
X123444003Y-95918203D01*
X123444000Y-95914497D01*
X123447959Y-95818916D01*
X123467407Y-95748878D01*
X123513697Y-95681325D01*
X123598184Y-95593200D01*
X123606030Y-95585460D01*
X123695009Y-95500597D01*
X123762084Y-95452864D01*
X123833323Y-95431577D01*
X123934795Y-95426055D01*
X123995497Y-95425866D01*
X124222934Y-95425866D01*
X124222934Y-96238666D01*
X124317890Y-96238666D01*
X124425322Y-96205362D01*
X124521090Y-96126988D01*
X124606550Y-96011801D01*
X124628142Y-95902270D01*
X124585510Y-95789440D01*
X124503737Y-95689567D01*
X124432477Y-95613172D01*
X124403681Y-95566280D01*
X124410888Y-95531551D01*
X124434729Y-95504357D01*
X124468778Y-95477477D01*
X124504589Y-95477378D01*
X124557196Y-95510333D01*
X124641635Y-95582611D01*
X124658480Y-95597684D01*
X124749175Y-95682882D01*
X124799729Y-95747725D01*
X124822251Y-95814963D01*
X124828850Y-95907344D01*
X124829088Y-95918206D01*
X124827430Y-96013556D01*
X124810428Y-96082486D01*
X124767083Y-96147902D01*
X124686392Y-96232711D01*
X124670504Y-96248406D01*
X124508474Y-96408000D01*
X123763187Y-96408000D01*
X123603594Y-96245970D01*
G37*
G36*
X124832534Y-104095733D02*
G01*
X124493867Y-104095733D01*
X124493867Y-103757066D01*
X124832534Y-103757066D01*
X124832534Y-104095733D01*
G37*
G36*
X124669417Y-91588123D02*
G01*
X124757312Y-91678684D01*
X124806271Y-91746792D01*
X124827574Y-91815450D01*
X124832506Y-91907657D01*
X124832534Y-91920667D01*
X124828709Y-92017326D01*
X124809679Y-92087662D01*
X124764113Y-92154859D01*
X124680677Y-92242099D01*
X124670504Y-92252140D01*
X124508474Y-92411733D01*
X123763187Y-92411733D01*
X123603594Y-92249703D01*
X123517013Y-92157413D01*
X123469053Y-92087597D01*
X123448466Y-92016892D01*
X123444003Y-91921937D01*
X123444000Y-91918230D01*
X123447918Y-91822963D01*
X123467206Y-91753087D01*
X123513168Y-91685724D01*
X123597110Y-91597999D01*
X123607116Y-91588123D01*
X123694466Y-91504118D01*
X123748681Y-91461963D01*
X123784132Y-91455231D01*
X123815192Y-91477494D01*
X123826734Y-91489894D01*
X123855506Y-91528870D01*
X123854143Y-91565298D01*
X123815785Y-91616162D01*
X123748285Y-91684103D01*
X123648815Y-91803351D01*
X123613106Y-91910850D01*
X123640717Y-92016443D01*
X123728480Y-92127253D01*
X123787743Y-92183474D01*
X123840073Y-92217571D01*
X123904664Y-92235072D01*
X124000706Y-92241505D01*
X124128237Y-92242400D01*
X124268478Y-92241151D01*
X124359873Y-92233827D01*
X124421304Y-92215058D01*
X124471654Y-92179478D01*
X124521090Y-92130721D01*
X124606630Y-92015268D01*
X124628086Y-91905432D01*
X124585128Y-91792395D01*
X124504770Y-91694358D01*
X124433594Y-91618905D01*
X124404278Y-91572638D01*
X124410940Y-91536697D01*
X124443254Y-91497127D01*
X124506301Y-91427460D01*
X124669417Y-91588123D01*
G37*
G36*
X124832534Y-106170890D02*
G01*
X124822436Y-106211311D01*
X124785407Y-106252644D01*
X124711340Y-106302327D01*
X124590132Y-106367799D01*
X124510800Y-106407734D01*
X124378901Y-106475594D01*
X124273182Y-106534434D01*
X124206247Y-106576959D01*
X124189067Y-106594001D01*
X124217516Y-106618975D01*
X124294461Y-106665887D01*
X124407299Y-106727441D01*
X124510800Y-106780267D01*
X124663699Y-106859446D01*
X124762486Y-106919423D01*
X124815857Y-106966354D01*
X124832508Y-107006394D01*
X124832534Y-107008044D01*
X124829961Y-107030880D01*
X124816493Y-107047929D01*
X124783509Y-107060037D01*
X124722385Y-107068048D01*
X124624499Y-107072804D01*
X124481228Y-107075151D01*
X124283948Y-107075932D01*
X124138267Y-107076000D01*
X123444000Y-107076000D01*
X123444000Y-106906666D01*
X123909667Y-106905001D01*
X124375334Y-106903335D01*
X124146734Y-106786001D01*
X124004836Y-106704638D01*
X123927793Y-106635198D01*
X123915307Y-106571077D01*
X123967083Y-106505667D01*
X124082825Y-106432362D01*
X124129800Y-106407932D01*
X124341467Y-106301133D01*
X123892734Y-106299100D01*
X123444000Y-106297066D01*
X123444000Y-106093866D01*
X124832534Y-106093866D01*
X124832534Y-106170890D01*
G37*
G36*
X121309245Y-103151144D02*
G01*
X121203902Y-103104465D01*
X121080410Y-103001478D01*
X121029940Y-102951751D01*
X120836267Y-102756036D01*
X120836267Y-102477618D01*
X120836009Y-102443121D01*
X121073334Y-102443121D01*
X121075584Y-102573392D01*
X121086832Y-102658127D01*
X121113823Y-102719486D01*
X121163303Y-102779627D01*
X121181577Y-102798721D01*
X121257422Y-102866206D01*
X121322244Y-102905933D01*
X121340831Y-102910400D01*
X121409135Y-102883552D01*
X121488911Y-102816798D01*
X121561359Y-102730822D01*
X121607675Y-102646308D01*
X121615200Y-102608586D01*
X121585438Y-102521162D01*
X121497369Y-102405391D01*
X121455607Y-102361230D01*
X121355236Y-102267384D01*
X121276991Y-102217162D01*
X121202736Y-102199717D01*
X121184673Y-102199200D01*
X121073334Y-102199200D01*
X121073334Y-102443121D01*
X120836009Y-102443121D01*
X120835244Y-102340901D01*
X120829643Y-102258309D01*
X120815661Y-102216238D01*
X120789498Y-102201085D01*
X120758473Y-102199200D01*
X120685756Y-102224281D01*
X120594326Y-102290550D01*
X120555273Y-102327628D01*
X120459956Y-102448374D01*
X120425504Y-102560326D01*
X120452481Y-102673821D01*
X120541448Y-102799197D01*
X120583337Y-102843753D01*
X120736807Y-102999566D01*
X120666865Y-103062862D01*
X120630948Y-103091811D01*
X120598228Y-103098636D01*
X120555788Y-103076848D01*
X120490712Y-103019959D01*
X120394861Y-102926206D01*
X120295706Y-102825777D01*
X120235765Y-102753975D01*
X120205200Y-102692717D01*
X120194171Y-102623922D01*
X120192800Y-102554882D01*
X120195315Y-102470118D01*
X120209219Y-102405756D01*
X120244051Y-102344651D01*
X120309350Y-102269656D01*
X120405378Y-102172821D01*
X120617956Y-101962133D01*
X121852267Y-101962133D01*
X121852267Y-102080666D01*
X121847532Y-102158601D01*
X121819827Y-102191704D01*
X121748898Y-102199116D01*
X121726860Y-102199200D01*
X121601454Y-102199200D01*
X121726860Y-102327628D01*
X121804273Y-102416421D01*
X121841536Y-102494034D01*
X121852141Y-102590639D01*
X121852267Y-102608088D01*
X121848286Y-102688308D01*
X121829570Y-102752249D01*
X121785958Y-102817857D01*
X121707291Y-102903080D01*
X121656551Y-102953793D01*
X121521553Y-103075763D01*
X121410456Y-103141562D01*
X121340831Y-103148154D01*
X121309245Y-103151144D01*
G37*
G36*
X124577202Y-102216859D02*
G01*
X124634541Y-102255162D01*
X124692451Y-102303759D01*
X124795374Y-102415060D01*
X124832428Y-102520436D01*
X124803840Y-102627908D01*
X124709840Y-102745497D01*
X124705138Y-102750118D01*
X124577743Y-102874517D01*
X124104005Y-102883992D01*
X123630267Y-102893466D01*
X123619551Y-102986600D01*
X123597412Y-103056873D01*
X123542225Y-103079355D01*
X123528667Y-103079733D01*
X123466298Y-103063407D01*
X123439915Y-103002301D01*
X123437783Y-102986600D01*
X123413527Y-102914063D01*
X123349463Y-102884880D01*
X123333934Y-102882750D01*
X123263932Y-102860914D01*
X123241299Y-102805864D01*
X123240800Y-102789617D01*
X123252205Y-102730601D01*
X123299935Y-102709059D01*
X123342400Y-102707200D01*
X123444000Y-102707200D01*
X123444000Y-102504000D01*
X123445847Y-102391346D01*
X123455715Y-102330520D01*
X123480089Y-102305634D01*
X123525459Y-102300801D01*
X123526977Y-102300800D01*
X123574072Y-102306198D01*
X123600320Y-102333164D01*
X123613447Y-102397853D01*
X123620110Y-102495533D01*
X123630267Y-102690266D01*
X124066710Y-102699780D01*
X124252175Y-102702574D01*
X124382241Y-102700710D01*
X124469151Y-102693020D01*
X124525151Y-102678339D01*
X124562482Y-102655501D01*
X124566244Y-102652197D01*
X124620262Y-102578824D01*
X124615381Y-102501425D01*
X124550345Y-102408614D01*
X124537880Y-102395316D01*
X124481206Y-102330922D01*
X124468470Y-102290635D01*
X124494394Y-102252029D01*
X124502264Y-102244022D01*
X124539185Y-102215054D01*
X124577202Y-102216859D01*
G37*
G36*
X121852267Y-93597067D02*
G01*
X121615200Y-93597067D01*
X121615200Y-93224533D01*
X120110680Y-93224533D01*
X120270989Y-93387290D01*
X120431299Y-93550047D01*
X120274585Y-93697273D01*
X119996626Y-93417862D01*
X119854882Y-93268172D01*
X119762279Y-93153829D01*
X119720831Y-93077406D01*
X119718667Y-93062959D01*
X119718667Y-92987467D01*
X121615200Y-92987467D01*
X121615200Y-92614933D01*
X121852267Y-92614933D01*
X121852267Y-93597067D01*
G37*
G36*
X120864912Y-89843109D02*
G01*
X120897493Y-89872688D01*
X120903985Y-89947378D01*
X120904000Y-89956400D01*
X120898758Y-90035845D01*
X120869179Y-90068426D01*
X120794489Y-90074918D01*
X120785467Y-90074933D01*
X120706022Y-90069691D01*
X120673441Y-90040112D01*
X120666948Y-89965422D01*
X120666934Y-89956400D01*
X120672176Y-89876955D01*
X120701755Y-89844374D01*
X120776445Y-89837881D01*
X120785467Y-89837866D01*
X120864912Y-89843109D01*
G37*
G36*
X124832534Y-96949866D02*
G01*
X123829821Y-96949866D01*
X123721577Y-97061545D01*
X123656206Y-97138779D01*
X123617691Y-97203203D01*
X123613334Y-97221130D01*
X123635674Y-97269564D01*
X123693559Y-97345931D01*
X123755851Y-97414251D01*
X123898369Y-97559466D01*
X124832534Y-97559466D01*
X124832534Y-97762666D01*
X123444000Y-97762666D01*
X123444000Y-97661066D01*
X123452786Y-97588769D01*
X123491712Y-97562209D01*
X123535003Y-97559466D01*
X123626006Y-97559466D01*
X123535003Y-97464480D01*
X123472139Y-97379568D01*
X123446638Y-97280954D01*
X123444000Y-97215114D01*
X123448553Y-97127422D01*
X123469929Y-97060985D01*
X123519709Y-96994322D01*
X123609471Y-96905957D01*
X123611883Y-96903701D01*
X123779765Y-96746666D01*
X124832534Y-96746666D01*
X124832534Y-96949866D01*
G37*
G36*
X124832534Y-104850766D02*
G01*
X124822552Y-104892020D01*
X124785660Y-104933352D01*
X124711433Y-104982499D01*
X124589448Y-105047198D01*
X124524536Y-105079366D01*
X124393604Y-105145127D01*
X124287084Y-105201659D01*
X124218738Y-105241486D01*
X124201168Y-105255077D01*
X124223116Y-105279195D01*
X124294440Y-105325247D01*
X124403328Y-105386120D01*
X124509166Y-105440520D01*
X124657470Y-105516588D01*
X124753690Y-105573179D01*
X124807907Y-105617703D01*
X124830204Y-105657571D01*
X124832534Y-105678176D01*
X124832534Y-105755200D01*
X123444000Y-105755200D01*
X123444000Y-105585866D01*
X123884267Y-105585866D01*
X124048042Y-105583872D01*
X124184194Y-105578415D01*
X124280149Y-105570285D01*
X124323332Y-105560272D01*
X124324534Y-105558227D01*
X124296314Y-105530731D01*
X124222414Y-105485465D01*
X124121334Y-105433466D01*
X124003890Y-105371381D01*
X123939952Y-105320330D01*
X123918401Y-105271051D01*
X123918134Y-105264133D01*
X123934883Y-105214391D01*
X123992543Y-105164110D01*
X124102229Y-105104026D01*
X124121334Y-105094800D01*
X124224320Y-105041738D01*
X124297429Y-104996743D01*
X124324534Y-104970039D01*
X124292766Y-104959758D01*
X124205845Y-104951210D01*
X124076344Y-104945186D01*
X123916837Y-104942475D01*
X123884267Y-104942400D01*
X123444000Y-104942400D01*
X123444000Y-104773067D01*
X124832534Y-104773067D01*
X124832534Y-104850766D01*
G37*
G36*
X121344690Y-94359278D02*
G01*
X121540421Y-94459007D01*
X121681670Y-94535489D01*
X121775698Y-94593326D01*
X121829769Y-94637117D01*
X121851144Y-94671464D01*
X121852267Y-94680800D01*
X121839452Y-94713174D01*
X121796165Y-94753584D01*
X121715144Y-94806631D01*
X121589128Y-94876915D01*
X121410853Y-94969036D01*
X121344690Y-95002321D01*
X120837113Y-95256533D01*
X119718667Y-95256533D01*
X119718667Y-95053333D01*
X120801586Y-95053333D01*
X121157593Y-94876279D01*
X121296721Y-94805612D01*
X121410380Y-94745076D01*
X121486642Y-94701221D01*
X121513600Y-94680800D01*
X121485127Y-94659438D01*
X121407659Y-94615029D01*
X121293126Y-94554121D01*
X121157593Y-94485321D01*
X120801586Y-94308267D01*
X119718667Y-94308267D01*
X119718667Y-94105067D01*
X120837113Y-94105067D01*
X121344690Y-94359278D01*
G37*
G36*
X124371566Y-107448785D02*
G01*
X124545754Y-107450103D01*
X124669455Y-107453332D01*
X124751291Y-107459315D01*
X124799885Y-107468896D01*
X124823860Y-107482919D01*
X124831838Y-107502229D01*
X124832534Y-107516489D01*
X124817257Y-107556372D01*
X124765632Y-107602883D01*
X124668963Y-107662176D01*
X124518552Y-107740409D01*
X124510800Y-107744266D01*
X124378901Y-107812125D01*
X124273182Y-107870965D01*
X124206247Y-107913490D01*
X124189067Y-107930532D01*
X124217516Y-107955506D01*
X124294461Y-108002419D01*
X124407299Y-108063973D01*
X124510800Y-108116799D01*
X124658691Y-108192681D01*
X124754506Y-108249142D01*
X124808352Y-108293621D01*
X124830333Y-108333558D01*
X124832534Y-108353643D01*
X124832534Y-108430666D01*
X123444000Y-108430666D01*
X123444000Y-108227466D01*
X123892734Y-108225433D01*
X124341467Y-108223400D01*
X124129800Y-108116601D01*
X123994994Y-108039653D01*
X123924065Y-107972575D01*
X123917309Y-107908761D01*
X123975022Y-107841603D01*
X124097501Y-107764497D01*
X124146734Y-107738532D01*
X124375334Y-107621198D01*
X123444000Y-107617866D01*
X123444000Y-107448533D01*
X124138267Y-107448533D01*
X124371566Y-107448785D01*
G37*
G36*
X124832534Y-100946133D02*
G01*
X123829821Y-100946133D01*
X123721577Y-101057812D01*
X123656206Y-101135046D01*
X123617691Y-101199470D01*
X123613334Y-101217397D01*
X123635674Y-101265831D01*
X123693559Y-101342198D01*
X123755851Y-101410518D01*
X123898369Y-101555733D01*
X124832534Y-101555733D01*
X124832534Y-101758933D01*
X123037600Y-101758933D01*
X123037600Y-101555733D01*
X123626006Y-101555733D01*
X123535003Y-101460747D01*
X123465167Y-101359480D01*
X123444039Y-101237900D01*
X123444000Y-101230874D01*
X123450909Y-101149189D01*
X123479310Y-101080228D01*
X123540713Y-101003072D01*
X123606030Y-100936393D01*
X123768060Y-100776800D01*
X124832534Y-100776800D01*
X124832534Y-100946133D01*
G37*
G36*
X119916838Y-97734464D02*
G01*
X119949502Y-97763192D01*
X119955733Y-97830400D01*
X119949126Y-97898661D01*
X119915610Y-97926659D01*
X119837200Y-97932000D01*
X119757562Y-97926336D01*
X119724898Y-97897608D01*
X119718667Y-97830400D01*
X119725275Y-97762139D01*
X119758791Y-97734141D01*
X119837200Y-97728800D01*
X119916838Y-97734464D01*
G37*
G36*
X119718667Y-107094897D02*
G01*
X119912340Y-106899182D01*
X120009599Y-106802683D01*
X120079111Y-106744633D01*
X120140693Y-106715261D01*
X120214165Y-106704796D01*
X120309291Y-106703467D01*
X120411390Y-106705241D01*
X120483606Y-106717030D01*
X120545916Y-106748530D01*
X120618297Y-106809438D01*
X120708285Y-106897140D01*
X120904000Y-107090813D01*
X120904000Y-107651733D01*
X121852267Y-107651733D01*
X121852267Y-107854933D01*
X119718667Y-107854933D01*
X119718667Y-107651733D01*
X119955733Y-107651733D01*
X120666934Y-107651733D01*
X120666934Y-107407628D01*
X120665007Y-107278586D01*
X120654104Y-107194433D01*
X120626538Y-107132336D01*
X120574623Y-107069461D01*
X120541527Y-107035094D01*
X120423442Y-106938163D01*
X120314515Y-106905604D01*
X120204432Y-106937349D01*
X120084161Y-107032073D01*
X120017827Y-107100131D01*
X119979469Y-107157258D01*
X119961433Y-107225663D01*
X119956063Y-107327554D01*
X119955733Y-107404606D01*
X119955733Y-107651733D01*
X119718667Y-107651733D01*
X119718667Y-107094897D01*
G37*
G36*
X123723400Y-94106866D02*
G01*
X124002800Y-94108666D01*
X124616734Y-94420133D01*
X124823897Y-94525696D01*
X124977708Y-94605885D01*
X125085437Y-94665540D01*
X125154354Y-94709499D01*
X125191729Y-94742601D01*
X125204830Y-94769686D01*
X125200929Y-94795592D01*
X125196532Y-94806066D01*
X125162397Y-94880531D01*
X124963824Y-94780292D01*
X124765250Y-94680052D01*
X124359146Y-94883626D01*
X124191996Y-94966438D01*
X124068981Y-95023106D01*
X123974058Y-95058572D01*
X123891185Y-95077781D01*
X123804320Y-95085675D01*
X123698521Y-95087200D01*
X123444000Y-95087200D01*
X123444000Y-94884000D01*
X123723400Y-94882299D01*
X123860716Y-94879213D01*
X123964713Y-94867711D01*
X124059565Y-94841472D01*
X124169443Y-94794170D01*
X124289910Y-94734111D01*
X124577020Y-94587624D01*
X124265187Y-94431012D01*
X124117445Y-94358797D01*
X124007868Y-94312941D01*
X123915070Y-94287531D01*
X123817667Y-94276655D01*
X123698677Y-94274400D01*
X123569272Y-94273351D01*
X123493350Y-94267048D01*
X123456661Y-94250753D01*
X123444958Y-94219730D01*
X123444000Y-94189733D01*
X123446700Y-94148267D01*
X123463873Y-94123293D01*
X123509131Y-94110776D01*
X123596083Y-94106678D01*
X123723400Y-94106866D01*
G37*
G36*
X120388516Y-104511660D02*
G01*
X120291718Y-104413834D01*
X120233624Y-104343822D01*
X120204358Y-104282235D01*
X120194043Y-104209687D01*
X120192800Y-104127442D01*
X120192842Y-104126647D01*
X120425230Y-104126647D01*
X120458115Y-104247240D01*
X120555273Y-104373705D01*
X120680680Y-104502133D01*
X121358344Y-104502133D01*
X121486772Y-104376727D01*
X121576351Y-104273359D01*
X121611275Y-104181944D01*
X121590620Y-104088947D01*
X121513466Y-103980831D01*
X121455607Y-103919096D01*
X121296013Y-103757066D01*
X120686723Y-103757066D01*
X120558295Y-103882473D01*
X120458610Y-104007272D01*
X120425230Y-104126647D01*
X120192842Y-104126647D01*
X120199371Y-104002273D01*
X120222844Y-103922915D01*
X120260533Y-103875600D01*
X120310971Y-103820387D01*
X120328267Y-103785684D01*
X120296926Y-103773082D01*
X120212975Y-103763311D01*
X120091522Y-103757790D01*
X120023467Y-103757066D01*
X119718667Y-103757066D01*
X119718667Y-103553866D01*
X121852267Y-103553866D01*
X121852267Y-103655466D01*
X121843875Y-103727430D01*
X121804291Y-103753954D01*
X121750667Y-103757066D01*
X121679305Y-103765048D01*
X121649074Y-103784275D01*
X121649067Y-103784597D01*
X121671466Y-103823252D01*
X121727463Y-103886507D01*
X121750667Y-103909466D01*
X121817962Y-103987969D01*
X121847127Y-104072062D01*
X121852267Y-104162396D01*
X121848528Y-104244018D01*
X121830550Y-104308242D01*
X121788194Y-104373166D01*
X121711321Y-104456882D01*
X121656551Y-104511660D01*
X121460836Y-104705333D01*
X120584231Y-104705333D01*
X120388516Y-104511660D01*
G37*
G36*
X123611883Y-90933899D02*
G01*
X123522595Y-90847409D01*
X123472358Y-90782868D01*
X123449957Y-90716825D01*
X123444174Y-90625833D01*
X123444067Y-90599363D01*
X123618144Y-90599363D01*
X123662949Y-90706219D01*
X123721577Y-90776054D01*
X123775640Y-90829042D01*
X123824353Y-90861889D01*
X123885518Y-90879410D01*
X123976938Y-90886419D01*
X124116416Y-90887730D01*
X124134591Y-90887733D01*
X124282183Y-90886277D01*
X124379634Y-90879240D01*
X124444514Y-90862624D01*
X124494397Y-90832427D01*
X124534347Y-90796730D01*
X124613794Y-90680494D01*
X124629570Y-90553152D01*
X124581560Y-90427021D01*
X124538331Y-90373120D01*
X124490844Y-90327825D01*
X124442876Y-90299813D01*
X124377176Y-90284951D01*
X124276497Y-90279104D01*
X124142010Y-90278133D01*
X123995815Y-90279239D01*
X123899318Y-90285677D01*
X123834484Y-90302129D01*
X123783281Y-90333276D01*
X123727675Y-90383798D01*
X123725012Y-90386377D01*
X123638805Y-90495781D01*
X123618144Y-90599363D01*
X123444067Y-90599363D01*
X123444000Y-90582933D01*
X123446572Y-90477385D01*
X123461766Y-90405142D01*
X123500798Y-90342755D01*
X123574886Y-90266774D01*
X123611883Y-90231968D01*
X123779765Y-90074933D01*
X124479247Y-90074933D01*
X124655890Y-90253798D01*
X124748357Y-90351408D01*
X124801501Y-90423297D01*
X124825982Y-90489458D01*
X124832456Y-90569885D01*
X124832534Y-90585155D01*
X124828080Y-90669195D01*
X124807552Y-90735303D01*
X124760195Y-90803267D01*
X124675257Y-90892875D01*
X124653669Y-90914290D01*
X124474804Y-91090933D01*
X123779765Y-91090933D01*
X123611883Y-90933899D01*
G37*
G36*
X124201946Y-100325761D02*
G01*
X124131082Y-100261749D01*
X124056378Y-100185899D01*
X124013039Y-100126083D01*
X123992527Y-100059397D01*
X123986299Y-99962936D01*
X123985867Y-99872282D01*
X123985343Y-99821890D01*
X124155200Y-99821890D01*
X124159120Y-99938797D01*
X124177902Y-100015779D01*
X124222075Y-100080508D01*
X124273734Y-100133333D01*
X124392267Y-100248220D01*
X124510800Y-100133333D01*
X124581042Y-100051913D01*
X124623546Y-99976912D01*
X124629334Y-99950318D01*
X124606713Y-99888240D01*
X124548892Y-99804364D01*
X124503927Y-99753761D01*
X124407207Y-99668802D01*
X124321755Y-99630703D01*
X124266860Y-99625333D01*
X124155200Y-99625333D01*
X124155200Y-99821890D01*
X123985343Y-99821890D01*
X123984546Y-99745156D01*
X123977547Y-99671333D01*
X123960313Y-99636392D01*
X123928288Y-99625911D01*
X123907844Y-99625333D01*
X123826622Y-99652953D01*
X123738054Y-99722085D01*
X123661828Y-99812136D01*
X123617635Y-99902517D01*
X123613334Y-99933339D01*
X123642630Y-100020562D01*
X123726257Y-100127539D01*
X123748285Y-100149763D01*
X123823803Y-100226513D01*
X123856446Y-100274270D01*
X123853076Y-100310020D01*
X123826734Y-100343973D01*
X123794008Y-100374271D01*
X123761560Y-100377663D01*
X123715016Y-100347721D01*
X123640007Y-100278016D01*
X123607116Y-100245743D01*
X123519222Y-100155183D01*
X123470263Y-100087074D01*
X123448959Y-100018417D01*
X123444028Y-99926210D01*
X123444000Y-99913200D01*
X123447825Y-99816541D01*
X123466854Y-99746204D01*
X123512421Y-99679008D01*
X123595856Y-99591767D01*
X123606030Y-99581727D01*
X123768060Y-99422133D01*
X124832534Y-99422133D01*
X124832534Y-99523733D01*
X124823748Y-99596031D01*
X124784822Y-99622591D01*
X124741531Y-99625333D01*
X124650528Y-99625333D01*
X124741531Y-99720320D01*
X124811366Y-99821587D01*
X124832494Y-99943166D01*
X124832534Y-99950193D01*
X124825625Y-100031878D01*
X124797224Y-100100838D01*
X124735820Y-100177994D01*
X124670504Y-100244673D01*
X124539569Y-100355606D01*
X124425865Y-100405845D01*
X124392267Y-100402726D01*
X124317341Y-100395769D01*
X124201946Y-100325761D01*
G37*
G36*
X119929355Y-90336489D02*
G01*
X119828058Y-90232126D01*
X119765830Y-90157783D01*
X119733183Y-90096258D01*
X119720628Y-90030348D01*
X119719224Y-89976047D01*
X119951606Y-89976047D01*
X119985885Y-90098147D01*
X120063977Y-90200321D01*
X120172221Y-90312000D01*
X121391842Y-90312000D01*
X121503521Y-90203756D01*
X121595385Y-90076924D01*
X121620787Y-89943059D01*
X121579683Y-89808406D01*
X121506957Y-89712479D01*
X121398713Y-89600800D01*
X120212589Y-89600800D01*
X120084161Y-89726206D01*
X119984315Y-89853242D01*
X119951606Y-89976047D01*
X119719224Y-89976047D01*
X119718667Y-89954510D01*
X119721272Y-89870552D01*
X119735456Y-89806479D01*
X119770773Y-89745210D01*
X119836775Y-89669665D01*
X119931245Y-89574421D01*
X120143823Y-89363733D01*
X121450895Y-89363733D01*
X121852267Y-89746577D01*
X121852267Y-90161720D01*
X121656551Y-90355393D01*
X121460836Y-90549066D01*
X120140043Y-90549066D01*
X119929355Y-90336489D01*
G37*
G36*
X124832534Y-98179033D02*
G01*
X124822552Y-98220287D01*
X124785660Y-98261619D01*
X124711433Y-98310766D01*
X124589448Y-98375465D01*
X124524536Y-98407633D01*
X124393604Y-98473394D01*
X124287084Y-98529926D01*
X124218738Y-98569752D01*
X124201168Y-98583344D01*
X124223116Y-98607462D01*
X124294440Y-98653514D01*
X124403328Y-98714386D01*
X124509166Y-98768787D01*
X124657470Y-98844855D01*
X124753690Y-98901446D01*
X124807907Y-98945970D01*
X124830204Y-98985838D01*
X124832534Y-99006443D01*
X124832534Y-99083466D01*
X123444000Y-99083466D01*
X123444000Y-98914133D01*
X123884267Y-98914133D01*
X124048042Y-98912139D01*
X124184194Y-98906682D01*
X124280149Y-98898552D01*
X124323332Y-98888538D01*
X124324534Y-98886494D01*
X124296314Y-98858997D01*
X124222414Y-98813732D01*
X124121334Y-98761733D01*
X124003890Y-98699648D01*
X123939952Y-98648597D01*
X123918401Y-98599317D01*
X123918134Y-98592400D01*
X123934883Y-98542658D01*
X123992543Y-98492376D01*
X124102229Y-98432293D01*
X124121334Y-98423066D01*
X124224320Y-98370005D01*
X124297429Y-98325010D01*
X124324534Y-98298306D01*
X124292766Y-98288024D01*
X124205845Y-98279477D01*
X124076344Y-98273453D01*
X123916837Y-98270742D01*
X123884267Y-98270666D01*
X123444000Y-98270666D01*
X123444000Y-98101333D01*
X124832534Y-98101333D01*
X124832534Y-98179033D01*
G37*
G36*
X121852267Y-91734400D02*
G01*
X121479734Y-91734400D01*
X121479734Y-91328000D01*
X121852267Y-91328000D01*
X121852267Y-91734400D01*
G37*
G36*
X121852267Y-98169066D02*
G01*
X121733734Y-98169066D01*
X121654289Y-98163824D01*
X121621708Y-98134245D01*
X121615215Y-98059555D01*
X121615200Y-98050533D01*
X121615200Y-97932000D01*
X120429867Y-97932000D01*
X120429867Y-98050533D01*
X120424624Y-98129978D01*
X120395046Y-98162559D01*
X120320356Y-98169052D01*
X120311333Y-98169066D01*
X120192800Y-98169066D01*
X120192800Y-97728800D01*
X121615200Y-97728800D01*
X121615200Y-97610266D01*
X121620443Y-97530822D01*
X121650021Y-97498241D01*
X121724711Y-97491748D01*
X121733734Y-97491733D01*
X121852267Y-97491733D01*
X121852267Y-98169066D01*
G37*
G36*
X124832534Y-93393867D02*
G01*
X124493867Y-93393867D01*
X124493867Y-93089067D01*
X124832534Y-93089067D01*
X124832534Y-93393867D01*
G37*
G36*
X124832534Y-88957333D02*
G01*
X124294814Y-88957333D01*
X124083954Y-88958461D01*
X123931102Y-88962411D01*
X123826558Y-88970034D01*
X123760625Y-88982178D01*
X123723604Y-88999692D01*
X123714934Y-89008133D01*
X123689846Y-89062338D01*
X123714934Y-89109733D01*
X123743332Y-89129565D01*
X123796874Y-89143696D01*
X123885257Y-89152975D01*
X124018179Y-89158252D01*
X124205337Y-89160376D01*
X124294814Y-89160533D01*
X124832534Y-89160533D01*
X124832534Y-89363733D01*
X124256800Y-89363733D01*
X124067868Y-89365289D01*
X123904983Y-89369600D01*
X123779140Y-89376133D01*
X123701336Y-89384353D01*
X123681067Y-89391696D01*
X123703463Y-89432259D01*
X123757536Y-89491490D01*
X123759450Y-89493296D01*
X123794423Y-89522047D01*
X123835823Y-89542172D01*
X123895577Y-89555197D01*
X123985615Y-89562647D01*
X124117863Y-89566047D01*
X124304250Y-89566925D01*
X124335183Y-89566933D01*
X124832534Y-89566933D01*
X124832534Y-89736266D01*
X123444000Y-89736266D01*
X123444000Y-89651600D01*
X123461664Y-89583504D01*
X123494800Y-89566933D01*
X123539900Y-89550850D01*
X123545600Y-89537213D01*
X123522430Y-89493077D01*
X123494800Y-89465333D01*
X123449044Y-89405021D01*
X123462842Y-89338993D01*
X123501843Y-89288217D01*
X123539571Y-89229386D01*
X123524982Y-89176384D01*
X123518561Y-89167017D01*
X123469604Y-89087119D01*
X123462586Y-89024338D01*
X123501114Y-88956871D01*
X123564866Y-88887211D01*
X123694813Y-88754133D01*
X124832534Y-88754133D01*
X124832534Y-88957333D01*
G37*
G36*
X119718667Y-99233910D02*
G01*
X119931245Y-99023221D01*
X120034794Y-98922379D01*
X120108343Y-98860270D01*
X120169563Y-98827513D01*
X120236129Y-98814728D01*
X120325715Y-98812533D01*
X120328196Y-98812533D01*
X120422051Y-98814932D01*
X120490732Y-98828694D01*
X120553570Y-98863670D01*
X120629898Y-98929712D01*
X120708285Y-99006206D01*
X120904000Y-99199880D01*
X120904000Y-99760800D01*
X121852267Y-99760800D01*
X121852267Y-99997866D01*
X119718667Y-99997866D01*
X119718667Y-99760800D01*
X119955733Y-99760800D01*
X120666934Y-99760800D01*
X120666934Y-99516879D01*
X120664683Y-99386607D01*
X120653435Y-99301872D01*
X120626444Y-99240514D01*
X120576964Y-99180373D01*
X120558690Y-99161279D01*
X120438806Y-99070253D01*
X120318101Y-99045972D01*
X120193373Y-99088529D01*
X120084161Y-99175006D01*
X120015729Y-99245759D01*
X119977279Y-99305398D01*
X119960190Y-99377793D01*
X119955842Y-99486814D01*
X119955733Y-99530606D01*
X119955733Y-99760800D01*
X119718667Y-99760800D01*
X119718667Y-99233910D01*
G37*
G36*
X121852267Y-101318667D02*
G01*
X121733734Y-101318667D01*
X121654289Y-101313424D01*
X121621708Y-101283845D01*
X121615215Y-101209155D01*
X121615200Y-101200133D01*
X121615200Y-101081600D01*
X119955733Y-101081600D01*
X119955733Y-101200133D01*
X119950491Y-101279578D01*
X119920912Y-101312159D01*
X119846222Y-101318652D01*
X119837200Y-101318667D01*
X119718667Y-101318667D01*
X119718667Y-100878400D01*
X121615200Y-100878400D01*
X121615200Y-100759867D01*
X121620443Y-100680422D01*
X121650021Y-100647841D01*
X121724711Y-100641348D01*
X121733734Y-100641333D01*
X121852267Y-100641333D01*
X121852267Y-101318667D01*
G37*
G36*
X120399899Y-106085400D02*
G01*
X120300232Y-105980560D01*
X120239278Y-105905633D01*
X120207508Y-105842986D01*
X120195392Y-105774989D01*
X120193841Y-105718127D01*
X120429867Y-105718127D01*
X120460893Y-105848080D01*
X120542656Y-105959508D01*
X120658180Y-106035605D01*
X120775177Y-106060000D01*
X120904000Y-106060000D01*
X120904000Y-105348800D01*
X120795361Y-105348800D01*
X120680954Y-105378746D01*
X120570238Y-105456159D01*
X120481659Y-105562399D01*
X120433664Y-105678824D01*
X120429867Y-105718127D01*
X120193841Y-105718127D01*
X120193440Y-105703421D01*
X120195643Y-105619179D01*
X120209342Y-105555147D01*
X120244045Y-105494233D01*
X120309259Y-105419345D01*
X120405378Y-105322421D01*
X120617956Y-105111733D01*
X121141067Y-105111733D01*
X121141067Y-106060000D01*
X121269890Y-106060000D01*
X121405175Y-106028913D01*
X121517387Y-105945674D01*
X121592051Y-105825317D01*
X121615200Y-105701372D01*
X121607726Y-105616526D01*
X121577275Y-105545586D01*
X121511801Y-105465997D01*
X121463400Y-105417122D01*
X121381854Y-105334407D01*
X121342881Y-105282482D01*
X121339452Y-105246011D01*
X121364541Y-105209658D01*
X121367049Y-105206870D01*
X121424502Y-105159184D01*
X121460739Y-105145600D01*
X121501650Y-105168230D01*
X121574212Y-105227941D01*
X121663684Y-105312462D01*
X121675624Y-105324465D01*
X121766201Y-105418666D01*
X121818912Y-105487349D01*
X121844002Y-105552674D01*
X121851717Y-105636800D01*
X121852267Y-105706525D01*
X121850563Y-105808400D01*
X121838937Y-105880173D01*
X121807617Y-105941660D01*
X121746830Y-106012677D01*
X121656551Y-106103393D01*
X121460836Y-106297066D01*
X120605718Y-106297066D01*
X120399899Y-106085400D01*
G37*
%TD*%
%LPC*%
D13*
%TO.C,C1*%
X157480000Y-119380000D03*
X162480000Y-119380000D03*
%TD*%
%TO.C,C2*%
X157480000Y-114300000D03*
X162480000Y-114300000D03*
%TD*%
D14*
%TO.C,C3*%
X162560000Y-109220000D03*
D13*
X162560000Y-106720000D03*
%TD*%
%TO.C,C4*%
X154305000Y-76835000D03*
X154305000Y-71835000D03*
%TD*%
%TO.C,C5*%
X157480000Y-106680000D03*
X157480000Y-111680000D03*
%TD*%
%TO.C,C6*%
X131445000Y-104775000D03*
X136445000Y-104775000D03*
%TD*%
%TO.C,C7*%
X136525000Y-118110000D03*
X131525000Y-118110000D03*
%TD*%
%TO.C,C8*%
X136525000Y-112395000D03*
X131525000Y-112395000D03*
%TD*%
D15*
%TO.C,C9*%
X139065000Y-122555000D03*
D13*
X136565000Y-122555000D03*
%TD*%
%TO.C,C10*%
X149047200Y-109131100D03*
X144047200Y-109131100D03*
%TD*%
D14*
%TO.C,C11*%
X137160000Y-60960000D03*
D13*
X137160000Y-57460000D03*
%TD*%
D14*
%TO.C,C12*%
X168910000Y-99060000D03*
D13*
X168910000Y-95560000D03*
%TD*%
D14*
%TO.C,C13*%
X115570000Y-60960000D03*
D13*
X115570000Y-57460000D03*
%TD*%
D16*
%TO.C,C14*%
X137795000Y-83820000D03*
D13*
X137795000Y-87320000D03*
%TD*%
%TO.C,C15*%
X143510000Y-82550000D03*
X148510000Y-82550000D03*
%TD*%
D14*
%TO.C,C16*%
X178435000Y-115570000D03*
D13*
X178435000Y-113070000D03*
%TD*%
D17*
%TO.C,CONN1*%
X144780000Y-67945000D03*
D18*
X142240000Y-67945000D03*
X139700000Y-67945000D03*
X137160000Y-67945000D03*
D19*
X134620000Y-67945000D03*
X132080000Y-67945000D03*
X129540000Y-67945000D03*
X127000000Y-67945000D03*
X124460000Y-67945000D03*
X121920000Y-67945000D03*
%TD*%
D17*
%TO.C,CONN2*%
X147320000Y-67945000D03*
D18*
X149860000Y-67945000D03*
D19*
X152400000Y-67945000D03*
X154940000Y-67945000D03*
X157480000Y-67945000D03*
X160020000Y-67945000D03*
X162560000Y-67945000D03*
X165100000Y-67945000D03*
X167640000Y-67945000D03*
X170180000Y-67945000D03*
%TD*%
D20*
%TO.C,CONN3*%
X121920000Y-65405000D03*
D19*
X124460000Y-65405000D03*
X127000000Y-65405000D03*
X129540000Y-65405000D03*
X132080000Y-65405000D03*
X134620000Y-65405000D03*
D18*
X137160000Y-65405000D03*
X139700000Y-65405000D03*
D19*
X142240000Y-65405000D03*
X144780000Y-65405000D03*
%TD*%
D20*
%TO.C,CONN4*%
X147320000Y-65405000D03*
D19*
X149860000Y-65405000D03*
X152400000Y-65405000D03*
X154940000Y-65405000D03*
X157480000Y-65405000D03*
X160020000Y-65405000D03*
X162560000Y-65405000D03*
X165100000Y-65405000D03*
X167640000Y-65405000D03*
X170180000Y-65405000D03*
%TD*%
D21*
%TO.C,D3*%
X145135600Y-103797100D03*
D22*
X147675600Y-103797100D03*
%TD*%
D23*
%TO.C,GND*%
X119380000Y-118110000D03*
%TD*%
%TO.C,+1V6*%
X177165000Y-118745000D03*
%TD*%
%TO.C,+5v*%
X178308000Y-92964000D03*
%TD*%
%TO.C,+3v3*%
X141224000Y-93484700D03*
%TD*%
D24*
%TO.C,U1*%
X142468600Y-112331500D03*
D25*
X142468600Y-114871500D03*
X142468600Y-117411500D03*
X142468600Y-119951500D03*
X150088600Y-119951500D03*
X150088600Y-117411500D03*
X150088600Y-114871500D03*
X150088600Y-112331500D03*
%TD*%
D26*
%TO.C,U2*%
X149860000Y-79375000D03*
D25*
X149860000Y-76835000D03*
X149860000Y-74295000D03*
X149860000Y-71755000D03*
X142240000Y-71755000D03*
X142240000Y-74295000D03*
X142240000Y-76835000D03*
X142240000Y-79375000D03*
%TD*%
D27*
%TO.C,J1*%
X164147000Y-123766500D03*
X170497000Y-123766500D03*
X176847000Y-123766500D03*
X164147000Y-140266500D03*
X170497000Y-140266500D03*
X176847000Y-140266500D03*
%TD*%
%TO.C,J2*%
X129286500Y-140266500D03*
X122936500Y-140266500D03*
X116586500Y-140266500D03*
X129286500Y-123766500D03*
X122936500Y-123766500D03*
X116586500Y-123766500D03*
%TD*%
D13*
%TO.C,R0*%
X166370000Y-119380000D03*
D28*
X173990000Y-119380000D03*
%TD*%
D13*
%TO.C,R1*%
X166370000Y-116840000D03*
D28*
X173990000Y-116840000D03*
%TD*%
D13*
%TO.C,R2*%
X163830000Y-116840000D03*
D28*
X156210000Y-116840000D03*
%TD*%
D13*
%TO.C,R3*%
X166370000Y-110490000D03*
D28*
X166370000Y-102870000D03*
%TD*%
D13*
%TO.C,R4*%
X153670000Y-116205000D03*
D28*
X153670000Y-108585000D03*
%TD*%
D13*
%TO.C,R6*%
X128270000Y-94615000D03*
D28*
X128270000Y-102235000D03*
%TD*%
D13*
%TO.C,R7*%
X131445000Y-94615000D03*
D28*
X131445000Y-102235000D03*
%TD*%
D13*
%TO.C,R9*%
X128270000Y-104775000D03*
D28*
X128270000Y-112395000D03*
%TD*%
D13*
%TO.C,R10*%
X130175000Y-115570000D03*
D28*
X137795000Y-115570000D03*
%TD*%
D13*
%TO.C,R11*%
X173990000Y-103505000D03*
D28*
X173990000Y-111125000D03*
%TD*%
D13*
%TO.C,R12*%
X173990000Y-113665000D03*
D28*
X166370000Y-113665000D03*
%TD*%
D13*
%TO.C,R13*%
X154940000Y-60960000D03*
D28*
X162560000Y-60960000D03*
%TD*%
D13*
%TO.C,R14*%
X124460000Y-71120000D03*
D29*
X129848154Y-76508154D03*
%TD*%
D13*
%TO.C,R15*%
X161290000Y-88265000D03*
D28*
X153670000Y-88265000D03*
%TD*%
D30*
%TO.C,SW2*%
X171450000Y-77645000D03*
X171450000Y-80645000D03*
%TD*%
%TO.C,SW3*%
X121920000Y-77645000D03*
X121920000Y-80645000D03*
%TD*%
D31*
%TO.C,SW4*%
X146177000Y-88138000D03*
X146177000Y-93218000D03*
X146177000Y-98298000D03*
%TD*%
D32*
%TO.C,RV1*%
X179705000Y-109855000D03*
X177205000Y-107355000D03*
X179705000Y-104855000D03*
%TD*%
D33*
%TO.C,SW1*%
X140970000Y-129540000D03*
X140970000Y-134620000D03*
X140970000Y-139700000D03*
X146050000Y-129540000D03*
X146050000Y-134620000D03*
X146050000Y-139700000D03*
X151130000Y-129540000D03*
X151130000Y-134620000D03*
X151130000Y-139700000D03*
%TD*%
M02*
