%TF.GenerationSoftware,KiCad,Pcbnew,(6.0.6-0)*%
%TF.CreationDate,2022-07-13T00:54:31+01:00*%
%TF.ProjectId,pedal-pi-Robin,70656461-6c2d-4706-992d-526f62696e2e,rev?*%
%TF.SameCoordinates,Original*%
%TF.FileFunction,Copper,L1,Top*%
%TF.FilePolarity,Positive*%
%FSLAX46Y46*%
G04 Gerber Fmt 4.6, Leading zero omitted, Abs format (unit mm)*
G04 Created by KiCad (PCBNEW (6.0.6-0)) date 2022-07-13 00:54:31*
%MOMM*%
%LPD*%
G01*
G04 APERTURE LIST*
G04 Aperture macros list*
%AMHorizOval*
0 Thick line with rounded ends*
0 $1 width*
0 $2 $3 position (X,Y) of the first rounded end (center of the circle)*
0 $4 $5 position (X,Y) of the second rounded end (center of the circle)*
0 Add line between two ends*
20,1,$1,$2,$3,$4,$5,0*
0 Add two circle primitives to create the rounded ends*
1,1,$1,$2,$3*
1,1,$1,$4,$5*%
G04 Aperture macros list end*
%TA.AperFunction,ComponentPad*%
%ADD10C,1.600000*%
%TD*%
%TA.AperFunction,ComponentPad*%
%ADD11R,1.600000X1.600000*%
%TD*%
%TA.AperFunction,ComponentPad*%
%ADD12C,1.500000*%
%TD*%
%TA.AperFunction,ComponentPad*%
%ADD13O,1.500000X1.500000*%
%TD*%
%TA.AperFunction,ComponentPad*%
%ADD14O,1.700000X1.700000*%
%TD*%
%TA.AperFunction,ComponentPad*%
%ADD15C,1.700000*%
%TD*%
%TA.AperFunction,ComponentPad*%
%ADD16R,1.800000X1.800000*%
%TD*%
%TA.AperFunction,ComponentPad*%
%ADD17C,1.800000*%
%TD*%
%TA.AperFunction,ComponentPad*%
%ADD18C,2.499360*%
%TD*%
%TA.AperFunction,ComponentPad*%
%ADD19R,2.400000X1.600000*%
%TD*%
%TA.AperFunction,ComponentPad*%
%ADD20O,2.400000X1.600000*%
%TD*%
%TA.AperFunction,ComponentPad*%
%ADD21C,3.000000*%
%TD*%
%TA.AperFunction,ComponentPad*%
%ADD22O,1.600000X1.600000*%
%TD*%
%TA.AperFunction,ComponentPad*%
%ADD23HorizOval,1.600000X0.000000X0.000000X0.000000X0.000000X0*%
%TD*%
%TA.AperFunction,ComponentPad*%
%ADD24O,4.000000X2.500000*%
%TD*%
%TA.AperFunction,ComponentPad*%
%ADD25C,3.500000*%
%TD*%
%TA.AperFunction,ComponentPad*%
%ADD26C,1.620000*%
%TD*%
%TA.AperFunction,ComponentPad*%
%ADD27C,4.000000*%
%TD*%
%TA.AperFunction,Conductor*%
%ADD28C,1.000000*%
%TD*%
%TA.AperFunction,Conductor*%
%ADD29C,1.500000*%
%TD*%
%TA.AperFunction,Conductor*%
%ADD30C,2.000000*%
%TD*%
%TA.AperFunction,Conductor*%
%ADD31C,0.500000*%
%TD*%
G04 APERTURE END LIST*
D10*
%TO.P,C1,1*%
%TO.N,/FX In*%
X157480000Y-119380000D03*
%TO.P,C1,2*%
%TO.N,Net-(C1-Pad2)*%
X162480000Y-119380000D03*
%TD*%
%TO.P,C2,1*%
%TO.N,Net-(C2-Pad1)*%
X157480000Y-114300000D03*
%TO.P,C2,2*%
%TO.N,GND*%
X162480000Y-114300000D03*
%TD*%
D11*
%TO.P,C3,1*%
%TO.N,Net-(C3-Pad1)*%
X162560000Y-109220000D03*
D10*
%TO.P,C3,2*%
%TO.N,GND*%
X162560000Y-106720000D03*
%TD*%
%TO.P,C4,1*%
%TO.N,/ADC0*%
X154305000Y-76835000D03*
%TO.P,C4,2*%
%TO.N,GND*%
X154305000Y-71835000D03*
%TD*%
%TO.P,C5,1*%
%TO.N,/ADC0*%
X157480000Y-106680000D03*
%TO.P,C5,2*%
%TO.N,Net-(C5-Pad2)*%
X157480000Y-111680000D03*
%TD*%
%TO.P,C6,1*%
%TO.N,Net-(C6-Pad1)*%
X131445000Y-104775000D03*
%TO.P,C6,2*%
%TO.N,GND*%
X136445000Y-104775000D03*
%TD*%
%TO.P,C7,1*%
%TO.N,Net-(C7-Pad1)*%
X136525000Y-118110000D03*
%TO.P,C7,2*%
%TO.N,GND*%
X131525000Y-118110000D03*
%TD*%
%TO.P,C8,1*%
%TO.N,Net-(C8-Pad1)*%
X136525000Y-112395000D03*
%TO.P,C8,2*%
%TO.N,Net-(C8-Pad2)*%
X131525000Y-112395000D03*
%TD*%
D11*
%TO.P,C9,1*%
%TO.N,Net-(C8-Pad1)*%
X139065000Y-122555000D03*
D10*
%TO.P,C9,2*%
%TO.N,/FX Out*%
X136565000Y-122555000D03*
%TD*%
%TO.P,C10,1*%
%TO.N,+5VA*%
X149047200Y-109131100D03*
%TO.P,C10,2*%
%TO.N,GND*%
X144047200Y-109131100D03*
%TD*%
D11*
%TO.P,C11,1*%
%TO.N,+5V*%
X137160000Y-60960000D03*
D10*
%TO.P,C11,2*%
%TO.N,GND*%
X137160000Y-57460000D03*
%TD*%
D11*
%TO.P,C12,1*%
%TO.N,+5VA*%
X168910000Y-99060000D03*
D10*
%TO.P,C12,2*%
%TO.N,GND*%
X168910000Y-95560000D03*
%TD*%
D11*
%TO.P,C13,1*%
%TO.N,+3V3*%
X115570000Y-60960000D03*
D10*
%TO.P,C13,2*%
%TO.N,GND*%
X115570000Y-57460000D03*
%TD*%
D11*
%TO.P,C14,1*%
%TO.N,+3.3VADC*%
X137795000Y-83820000D03*
D10*
%TO.P,C14,2*%
%TO.N,GND*%
X137795000Y-87320000D03*
%TD*%
%TO.P,C15,1*%
%TO.N,+3.3VADC*%
X143510000Y-82550000D03*
%TO.P,C15,2*%
%TO.N,GND*%
X148510000Y-82550000D03*
%TD*%
D11*
%TO.P,C16,1*%
%TO.N,+1V5*%
X178435000Y-115570000D03*
D10*
%TO.P,C16,2*%
%TO.N,GND*%
X178435000Y-113070000D03*
%TD*%
D12*
%TO.P,CONN1,1*%
%TO.N,Net-(CONN1-Pad1)*%
X144780000Y-67945000D03*
D13*
%TO.P,CONN1,2*%
%TO.N,Net-(CONN1-Pad2)*%
X142240000Y-67945000D03*
%TO.P,CONN1,3*%
%TO.N,Net-(CONN1-Pad3)*%
X139700000Y-67945000D03*
%TO.P,CONN1,4*%
%TO.N,Net-(CONN1-Pad4)*%
X137160000Y-67945000D03*
D14*
%TO.P,CONN1,5*%
%TO.N,/PWM0*%
X134620000Y-67945000D03*
%TO.P,CONN1,6*%
%TO.N,/GPIO15*%
X132080000Y-67945000D03*
%TO.P,CONN1,7*%
%TO.N,/GPIO14*%
X129540000Y-67945000D03*
%TO.P,CONN1,8*%
%TO.N,Net-(CONN1-Pad8)*%
X127000000Y-67945000D03*
%TO.P,CONN1,9*%
%TO.N,Net-(CONN1-Pad9)*%
X124460000Y-67945000D03*
%TO.P,CONN1,10*%
%TO.N,+5V*%
X121920000Y-67945000D03*
%TD*%
D12*
%TO.P,CONN2,1*%
%TO.N,Net-(CONN2-Pad1)*%
X147320000Y-67945000D03*
D13*
%TO.P,CONN2,2*%
%TO.N,/SPI_CS*%
X149860000Y-67945000D03*
D14*
%TO.P,CONN2,3*%
%TO.N,Net-(CONN2-Pad3)*%
X152400000Y-67945000D03*
%TO.P,CONN2,4*%
%TO.N,Net-(CONN2-Pad4)*%
X154940000Y-67945000D03*
%TO.P,CONN2,5*%
%TO.N,Net-(CONN2-Pad5)*%
X157480000Y-67945000D03*
%TO.P,CONN2,6*%
%TO.N,/GPIO12*%
X160020000Y-67945000D03*
%TO.P,CONN2,7*%
%TO.N,Net-(CONN2-Pad7)*%
X162560000Y-67945000D03*
%TO.P,CONN2,8*%
%TO.N,/GPIO16*%
X165100000Y-67945000D03*
%TO.P,CONN2,9*%
%TO.N,/GPIO20*%
X167640000Y-67945000D03*
%TO.P,CONN2,10*%
%TO.N,Net-(CONN2-Pad10)*%
X170180000Y-67945000D03*
%TD*%
D15*
%TO.P,CONN3,1*%
%TO.N,+3V3*%
X121920000Y-65405000D03*
D14*
%TO.P,CONN3,2*%
%TO.N,Net-(CONN3-Pad2)*%
X124460000Y-65405000D03*
%TO.P,CONN3,3*%
%TO.N,Net-(CONN3-Pad3)*%
X127000000Y-65405000D03*
%TO.P,CONN3,4*%
%TO.N,Net-(CONN3-Pad4)*%
X129540000Y-65405000D03*
%TO.P,CONN3,5*%
%TO.N,GND*%
X132080000Y-65405000D03*
%TO.P,CONN3,6*%
%TO.N,Net-(CONN3-Pad6)*%
X134620000Y-65405000D03*
D13*
%TO.P,CONN3,7*%
%TO.N,Net-(CONN3-Pad7)*%
X137160000Y-65405000D03*
%TO.P,CONN3,8*%
%TO.N,Net-(CONN3-Pad8)*%
X139700000Y-65405000D03*
D14*
%TO.P,CONN3,9*%
%TO.N,Net-(CONN3-Pad9)*%
X142240000Y-65405000D03*
%TO.P,CONN3,10*%
%TO.N,/SPI_MOSI*%
X144780000Y-65405000D03*
%TD*%
D15*
%TO.P,CONN4,1*%
%TO.N,/SPI_MISO*%
X147320000Y-65405000D03*
D14*
%TO.P,CONN4,2*%
%TO.N,/SPI_CLK*%
X149860000Y-65405000D03*
%TO.P,CONN4,3*%
%TO.N,Net-(CONN4-Pad3)*%
X152400000Y-65405000D03*
%TO.P,CONN4,4*%
%TO.N,Net-(CONN4-Pad4)*%
X154940000Y-65405000D03*
%TO.P,CONN4,5*%
%TO.N,Net-(CONN4-Pad5)*%
X157480000Y-65405000D03*
%TO.P,CONN4,6*%
%TO.N,Net-(CONN4-Pad6)*%
X160020000Y-65405000D03*
%TO.P,CONN4,7*%
%TO.N,/PWM1*%
X162560000Y-65405000D03*
%TO.P,CONN4,8*%
%TO.N,Net-(CONN4-Pad8)*%
X165100000Y-65405000D03*
%TO.P,CONN4,9*%
%TO.N,Net-(CONN4-Pad9)*%
X167640000Y-65405000D03*
%TO.P,CONN4,10*%
%TO.N,Net-(CONN4-Pad10)*%
X170180000Y-65405000D03*
%TD*%
D16*
%TO.P,D3,1*%
%TO.N,GND*%
X145135600Y-103797100D03*
D17*
%TO.P,D3,2*%
%TO.N,Net-(D3-Pad2)*%
X147675600Y-103797100D03*
%TD*%
D18*
%TO.P,GND,1*%
%TO.N,GND*%
X119380000Y-118110000D03*
%TD*%
%TO.P,+1V6,1*%
%TO.N,+1V5*%
X177165000Y-118745000D03*
%TD*%
%TO.P,+5v,1*%
%TO.N,+5VA*%
X178308000Y-92964000D03*
%TD*%
%TO.P,+3v3,1*%
%TO.N,+3.3VADC*%
X141224000Y-93484700D03*
%TD*%
D19*
%TO.P,U1,1*%
%TO.N,Net-(C8-Pad1)*%
X142468600Y-112331500D03*
D20*
%TO.P,U1,2*%
X142468600Y-114871500D03*
%TO.P,U1,3*%
%TO.N,Net-(C7-Pad1)*%
X142468600Y-117411500D03*
%TO.P,U1,4*%
%TO.N,GND*%
X142468600Y-119951500D03*
%TO.P,U1,5*%
%TO.N,Net-(C2-Pad1)*%
X150088600Y-119951500D03*
%TO.P,U1,6*%
%TO.N,Net-(C5-Pad2)*%
X150088600Y-117411500D03*
%TO.P,U1,7*%
%TO.N,/ADC0*%
X150088600Y-114871500D03*
%TO.P,U1,8*%
%TO.N,+5VA*%
X150088600Y-112331500D03*
%TD*%
D19*
%TO.P,U2,1*%
%TO.N,/SPI_CS*%
X149860000Y-79375000D03*
D20*
%TO.P,U2,2*%
%TO.N,/ADC0*%
X149860000Y-76835000D03*
%TO.P,U2,3*%
%TO.N,GND*%
X149860000Y-74295000D03*
%TO.P,U2,4*%
X149860000Y-71755000D03*
%TO.P,U2,5*%
%TO.N,/SPI_MOSI*%
X142240000Y-71755000D03*
%TO.P,U2,6*%
%TO.N,/SPI_MISO*%
X142240000Y-74295000D03*
%TO.P,U2,7*%
%TO.N,/SPI_CLK*%
X142240000Y-76835000D03*
%TO.P,U2,8*%
%TO.N,+3.3VADC*%
X142240000Y-79375000D03*
%TD*%
D21*
%TO.P,J1,1*%
%TO.N,/Input Jack*%
X164147000Y-123766500D03*
%TO.P,J1,2*%
%TO.N,GND*%
X170497000Y-123766500D03*
%TO.P,J1,3*%
X176847000Y-123766500D03*
%TO.P,J1,4*%
%TO.N,N/C*%
X164147000Y-140266500D03*
%TO.P,J1,5*%
X170497000Y-140266500D03*
%TO.P,J1,6*%
X176847000Y-140266500D03*
%TD*%
%TO.P,J2,1*%
%TO.N,/Output JAck*%
X129286500Y-140266500D03*
%TO.P,J2,2*%
%TO.N,GND*%
X122936500Y-140266500D03*
%TO.P,J2,3*%
X116586500Y-140266500D03*
%TO.P,J2,4*%
%TO.N,N/C*%
X129286500Y-123766500D03*
%TO.P,J2,5*%
X122936500Y-123766500D03*
%TO.P,J2,6*%
X116586500Y-123766500D03*
%TD*%
D10*
%TO.P,R0,1*%
%TO.N,/FX In*%
X166370000Y-119380000D03*
D22*
%TO.P,R0,2*%
%TO.N,GND*%
X173990000Y-119380000D03*
%TD*%
D10*
%TO.P,R1,1*%
%TO.N,Net-(C1-Pad2)*%
X166370000Y-116840000D03*
D22*
%TO.P,R1,2*%
%TO.N,+1V5*%
X173990000Y-116840000D03*
%TD*%
D10*
%TO.P,R2,1*%
%TO.N,Net-(C1-Pad2)*%
X163830000Y-116840000D03*
D22*
%TO.P,R2,2*%
%TO.N,Net-(C2-Pad1)*%
X156210000Y-116840000D03*
%TD*%
D10*
%TO.P,R3,1*%
%TO.N,Net-(C3-Pad1)*%
X166370000Y-110490000D03*
D22*
%TO.P,R3,2*%
%TO.N,Net-(R3-Pad2)*%
X166370000Y-102870000D03*
%TD*%
D10*
%TO.P,R4,1*%
%TO.N,Net-(C5-Pad2)*%
X153670000Y-116205000D03*
D22*
%TO.P,R4,2*%
%TO.N,/ADC0*%
X153670000Y-108585000D03*
%TD*%
D10*
%TO.P,R6,1*%
%TO.N,/PWM0*%
X128270000Y-94615000D03*
D22*
%TO.P,R6,2*%
%TO.N,Net-(C6-Pad1)*%
X128270000Y-102235000D03*
%TD*%
D10*
%TO.P,R7,1*%
%TO.N,/PWM1*%
X131445000Y-94615000D03*
D22*
%TO.P,R7,2*%
%TO.N,Net-(C6-Pad1)*%
X131445000Y-102235000D03*
%TD*%
D10*
%TO.P,R9,1*%
%TO.N,Net-(C6-Pad1)*%
X128270000Y-104775000D03*
D22*
%TO.P,R9,2*%
%TO.N,Net-(C8-Pad2)*%
X128270000Y-112395000D03*
%TD*%
D10*
%TO.P,R10,1*%
%TO.N,Net-(C8-Pad2)*%
X130175000Y-115570000D03*
D22*
%TO.P,R10,2*%
%TO.N,Net-(C7-Pad1)*%
X137795000Y-115570000D03*
%TD*%
D10*
%TO.P,R11,1*%
%TO.N,+5VA*%
X173990000Y-103505000D03*
D22*
%TO.P,R11,2*%
%TO.N,+1V5*%
X173990000Y-111125000D03*
%TD*%
D10*
%TO.P,R12,1*%
%TO.N,+1V5*%
X173990000Y-113665000D03*
D22*
%TO.P,R12,2*%
%TO.N,GND*%
X166370000Y-113665000D03*
%TD*%
D10*
%TO.P,R13,1*%
%TO.N,+5V*%
X154940000Y-60960000D03*
D22*
%TO.P,R13,2*%
%TO.N,+5VA*%
X162560000Y-60960000D03*
%TD*%
D10*
%TO.P,R14,1*%
%TO.N,+3V3*%
X124460000Y-71120000D03*
D23*
%TO.P,R14,2*%
%TO.N,+3.3VADC*%
X129848154Y-76508154D03*
%TD*%
D10*
%TO.P,R15,1*%
%TO.N,/GPIO16*%
X161290000Y-88265000D03*
D22*
%TO.P,R15,2*%
%TO.N,Net-(D3-Pad2)*%
X153670000Y-88265000D03*
%TD*%
D24*
%TO.P,SW2,1*%
%TO.N,/GPIO20*%
X171450000Y-77645000D03*
%TO.P,SW2,2*%
%TO.N,GND*%
X171450000Y-80645000D03*
%TD*%
%TO.P,SW3,1*%
%TO.N,/GPIO14*%
X121920000Y-77645000D03*
%TO.P,SW3,2*%
%TO.N,GND*%
X121920000Y-80645000D03*
%TD*%
D25*
%TO.P,SW4,1*%
%TO.N,Net-(SW4-Pad1)*%
X146177000Y-88138000D03*
%TO.P,SW4,2*%
%TO.N,/GPIO12*%
X146177000Y-93218000D03*
%TO.P,SW4,3*%
%TO.N,GND*%
X146177000Y-98298000D03*
%TD*%
D26*
%TO.P,RV1,1*%
%TO.N,Net-(C5-Pad2)*%
X179705000Y-109855000D03*
%TO.P,RV1,2*%
X177205000Y-107355000D03*
%TO.P,RV1,3*%
%TO.N,Net-(R3-Pad2)*%
X179705000Y-104855000D03*
%TD*%
D27*
%TO.P,SW1,1*%
%TO.N,/FX Out*%
X140970000Y-129540000D03*
%TO.P,SW1,2*%
%TO.N,/Output JAck*%
X140970000Y-134620000D03*
%TO.P,SW1,3*%
%TO.N,/Bypass*%
X140970000Y-139700000D03*
%TO.P,SW1,4*%
%TO.N,GND*%
X146050000Y-129540000D03*
%TO.P,SW1,5*%
%TO.N,/GPIO15*%
X146050000Y-134620000D03*
%TO.P,SW1,6*%
%TO.N,Net-(SW1-Pad6)*%
X146050000Y-139700000D03*
%TO.P,SW1,7*%
%TO.N,/FX In*%
X151130000Y-129540000D03*
%TO.P,SW1,8*%
%TO.N,/Input Jack*%
X151130000Y-134620000D03*
%TO.P,SW1,9*%
%TO.N,/Bypass*%
X151130000Y-139700000D03*
%TD*%
D28*
%TO.N,/FX In*%
X164592000Y-121158000D02*
X159258000Y-121158000D01*
X159258000Y-121158000D02*
X157480000Y-119380000D01*
X151130000Y-125730000D02*
X151130000Y-129540000D01*
X157480000Y-119380000D02*
X151130000Y-125730000D01*
X166370000Y-119380000D02*
X164592000Y-121158000D01*
%TO.N,Net-(C1-Pad2)*%
X162480000Y-118190000D02*
X162480000Y-119380000D01*
X163830000Y-116840000D02*
X162480000Y-118190000D01*
X166370000Y-116840000D02*
X163830000Y-116840000D01*
%TO.N,Net-(C2-Pad1)*%
X153098500Y-119951500D02*
X156210000Y-116840000D01*
X157480000Y-115570000D02*
X157480000Y-114300000D01*
X150088600Y-119951500D02*
X153098500Y-119951500D01*
X156210000Y-116840000D02*
X157480000Y-115570000D01*
D29*
%TO.N,GND*%
X132080000Y-59690000D02*
X134310000Y-57460000D01*
X134310000Y-57460000D02*
X137160000Y-57460000D01*
X146478000Y-84582000D02*
X140533000Y-84582000D01*
X140533000Y-84582000D02*
X137795000Y-87320000D01*
X132080000Y-65405000D02*
X132080000Y-59690000D01*
X148510000Y-82550000D02*
X146478000Y-84582000D01*
D28*
%TO.N,/ADC0*%
X156210000Y-76835000D02*
X157480000Y-78105000D01*
X157480000Y-78105000D02*
X157480000Y-106680000D01*
X152463500Y-114871500D02*
X153670000Y-113665000D01*
X153670000Y-113665000D02*
X153670000Y-108585000D01*
X155575000Y-106680000D02*
X157480000Y-106680000D01*
X149860000Y-76835000D02*
X154305000Y-76835000D01*
X150088600Y-114871500D02*
X152463500Y-114871500D01*
X154305000Y-76835000D02*
X156210000Y-76835000D01*
X153670000Y-108585000D02*
X155575000Y-106680000D01*
%TO.N,Net-(C5-Pad2)*%
X152463500Y-117411500D02*
X153670000Y-116205000D01*
X156290000Y-111680000D02*
X155575000Y-112395000D01*
X155575000Y-112395000D02*
X155575000Y-114300000D01*
X155575000Y-114300000D02*
X153670000Y-116205000D01*
X164512000Y-111680000D02*
X164846000Y-112014000D01*
X164846000Y-112014000D02*
X170180000Y-112014000D01*
X170180000Y-112014000D02*
X172974000Y-109220000D01*
X174839000Y-107355000D02*
X172974000Y-109220000D01*
X177205000Y-107355000D02*
X174839000Y-107355000D01*
X157480000Y-111680000D02*
X156290000Y-111680000D01*
X164512000Y-111680000D02*
X157480000Y-111680000D01*
X150088600Y-117411500D02*
X152463500Y-117411500D01*
X179705000Y-109855000D02*
X177205000Y-107355000D01*
D30*
%TO.N,Net-(C6-Pad1)*%
X128270000Y-104775000D02*
X131445000Y-104775000D01*
X131445000Y-104775000D02*
X131445000Y-102235000D01*
X131445000Y-102235000D02*
X128270000Y-102235000D01*
X128270000Y-102235000D02*
X130810000Y-104775000D01*
X130810000Y-104775000D02*
X131445000Y-104775000D01*
X128270000Y-102235000D02*
X128270000Y-104775000D01*
D28*
%TO.N,Net-(C7-Pad1)*%
X136525000Y-116840000D02*
X136525000Y-118110000D01*
X137223500Y-117411500D02*
X136525000Y-118110000D01*
X137795000Y-115570000D02*
X136525000Y-116840000D01*
X142468600Y-117411500D02*
X137223500Y-117411500D01*
%TO.N,Net-(C8-Pad1)*%
X136588500Y-112331500D02*
X136525000Y-112395000D01*
X144081500Y-112331500D02*
X144780000Y-113030000D01*
X144780000Y-113030000D02*
X144780000Y-121285000D01*
X144780000Y-121285000D02*
X143510000Y-122555000D01*
X143510000Y-122555000D02*
X139065000Y-122555000D01*
X142468600Y-112331500D02*
X136588500Y-112331500D01*
X142468600Y-112331500D02*
X144081500Y-112331500D01*
X142468600Y-114871500D02*
X142468600Y-112331500D01*
%TO.N,Net-(C8-Pad2)*%
X130175000Y-112395000D02*
X131525000Y-112395000D01*
X128270000Y-112395000D02*
X130175000Y-112395000D01*
X130175000Y-115570000D02*
X130175000Y-112395000D01*
D30*
%TO.N,+5VA*%
X170180000Y-60960000D02*
X172720000Y-63500000D01*
X172720000Y-63500000D02*
X172720000Y-71120000D01*
X172720000Y-71120000D02*
X175260000Y-73660000D01*
X175260000Y-73660000D02*
X175260000Y-93472000D01*
X175260000Y-95250000D02*
X171450000Y-99060000D01*
X171450000Y-99060000D02*
X168910000Y-99060000D01*
X173990000Y-101600000D02*
X171450000Y-99060000D01*
D28*
X175768000Y-92964000D02*
X175260000Y-93472000D01*
D30*
X175260000Y-93472000D02*
X175260000Y-95250000D01*
D28*
X178308000Y-92964000D02*
X175768000Y-92964000D01*
D30*
X162560000Y-60960000D02*
X170180000Y-60960000D01*
X173990000Y-103505000D02*
X173990000Y-101600000D01*
D29*
%TO.N,+5V*%
X137160000Y-60960000D02*
X154940000Y-60960000D01*
%TO.N,+3V3*%
X121920000Y-62865000D02*
X120015000Y-60960000D01*
X120015000Y-60960000D02*
X115570000Y-60960000D01*
X114300000Y-60960000D02*
X113030000Y-62230000D01*
X113030000Y-62230000D02*
X113030000Y-67310000D01*
X113030000Y-67310000D02*
X116205000Y-70485000D01*
X116205000Y-70485000D02*
X123825000Y-70485000D01*
X123825000Y-70485000D02*
X124460000Y-71120000D01*
X115570000Y-60960000D02*
X114300000Y-60960000D01*
X121920000Y-65405000D02*
X121920000Y-62865000D01*
%TO.N,+3.3VADC*%
X139065000Y-82550000D02*
X137795000Y-83820000D01*
X143510000Y-82550000D02*
X139065000Y-82550000D01*
D28*
%TO.N,+1V5*%
X175768000Y-116840000D02*
X177038000Y-115570000D01*
X177038000Y-115570000D02*
X178435000Y-115570000D01*
X175641000Y-113665000D02*
X177038000Y-115062000D01*
X177038000Y-115062000D02*
X177038000Y-115570000D01*
X178435000Y-117475000D02*
X177165000Y-118745000D01*
X178435000Y-115570000D02*
X178435000Y-117475000D01*
X173990000Y-113665000D02*
X173990000Y-111125000D01*
X173990000Y-113665000D02*
X175641000Y-113665000D01*
X173990000Y-116840000D02*
X175768000Y-116840000D01*
D31*
%TO.N,/PWM0*%
X132715000Y-69850000D02*
X132080000Y-69850000D01*
X132080000Y-69850000D02*
X127000000Y-74930000D01*
X127000000Y-74930000D02*
X127000000Y-93345000D01*
X127000000Y-93345000D02*
X128270000Y-94615000D01*
X134620000Y-67945000D02*
X132715000Y-69850000D01*
%TO.N,/GPIO15*%
X125095000Y-74930000D02*
X125095000Y-119380000D01*
X125095000Y-119380000D02*
X126365000Y-120650000D01*
X126365000Y-120650000D02*
X126365000Y-133350000D01*
X126365000Y-133350000D02*
X135890000Y-142875000D01*
X135890000Y-142875000D02*
X141605000Y-142875000D01*
X141605000Y-142875000D02*
X143510000Y-140970000D01*
X143510000Y-140970000D02*
X143510000Y-137160000D01*
X143510000Y-137160000D02*
X146050000Y-134620000D01*
X132080000Y-67945000D02*
X125095000Y-74930000D01*
%TO.N,/GPIO14*%
X129540000Y-68580000D02*
X121920000Y-76200000D01*
X121920000Y-76200000D02*
X121920000Y-77645000D01*
X129540000Y-67945000D02*
X129540000Y-68580000D01*
%TO.N,/SPI_CS*%
X149860000Y-69215000D02*
X147955000Y-71120000D01*
X147955000Y-71120000D02*
X147955000Y-78740000D01*
X147955000Y-78740000D02*
X148590000Y-79375000D01*
X148590000Y-79375000D02*
X149860000Y-79375000D01*
X149860000Y-67945000D02*
X149860000Y-69215000D01*
D28*
%TO.N,/GPIO16*%
X165100000Y-84455000D02*
X161290000Y-88265000D01*
X165100000Y-67945000D02*
X165100000Y-84455000D01*
%TO.N,/GPIO20*%
X167640000Y-73835000D02*
X171450000Y-77645000D01*
X167640000Y-67945000D02*
X167640000Y-73835000D01*
D31*
%TO.N,/SPI_MOSI*%
X143510000Y-66675000D02*
X143510000Y-70485000D01*
X143510000Y-70485000D02*
X142240000Y-71755000D01*
X144780000Y-65405000D02*
X143510000Y-66675000D01*
%TO.N,/SPI_MISO*%
X146050000Y-66675000D02*
X146050000Y-70485000D01*
X146050000Y-70485000D02*
X144780000Y-71755000D01*
X144780000Y-71755000D02*
X144780000Y-73025000D01*
X144780000Y-73025000D02*
X143510000Y-74295000D01*
X143510000Y-74295000D02*
X142240000Y-74295000D01*
X147320000Y-65405000D02*
X146050000Y-66675000D01*
%TO.N,/SPI_CLK*%
X148590000Y-66675000D02*
X148590000Y-69215000D01*
X148590000Y-69215000D02*
X146685000Y-71120000D01*
X146685000Y-71120000D02*
X146685000Y-74295000D01*
X146685000Y-74295000D02*
X144145000Y-76835000D01*
X144145000Y-76835000D02*
X142240000Y-76835000D01*
X149860000Y-65405000D02*
X148590000Y-66675000D01*
%TO.N,/PWM1*%
X128270000Y-91440000D02*
X128270000Y-75565000D01*
X128270000Y-75565000D02*
X130810000Y-73025000D01*
X132715000Y-71120000D02*
X136525000Y-71120000D01*
X138430000Y-69215000D02*
X138430000Y-64135000D01*
X138430000Y-64135000D02*
X139065000Y-63500000D01*
X139065000Y-63500000D02*
X161925000Y-63500000D01*
X161925000Y-63500000D02*
X162560000Y-64135000D01*
X162560000Y-64135000D02*
X162560000Y-65405000D01*
X130810000Y-73025000D02*
X132715000Y-71120000D01*
X136525000Y-71120000D02*
X138430000Y-69215000D01*
X131445000Y-94615000D02*
X128270000Y-91440000D01*
D28*
%TO.N,Net-(D3-Pad2)*%
X153670000Y-97802700D02*
X147675600Y-103797100D01*
X153670000Y-88265000D02*
X153670000Y-97802700D01*
%TO.N,/Input Jack*%
X153293500Y-134620000D02*
X164147000Y-123766500D01*
X151130000Y-134620000D02*
X153293500Y-134620000D01*
%TO.N,Net-(R3-Pad2)*%
X168910000Y-105410000D02*
X179150000Y-105410000D01*
X179150000Y-105410000D02*
X179705000Y-104855000D01*
X166370000Y-102870000D02*
X168910000Y-105410000D01*
%TO.N,/FX Out*%
X136565000Y-126151000D02*
X139954000Y-129540000D01*
X139954000Y-129540000D02*
X140970000Y-129540000D01*
X136565000Y-122555000D02*
X136565000Y-126151000D01*
%TD*%
M02*
