%TF.GenerationSoftware,KiCad,Pcbnew,(6.0.6-0)*%
%TF.CreationDate,2022-07-13T00:54:31+01:00*%
%TF.ProjectId,pedal-pi-Robin,70656461-6c2d-4706-992d-526f62696e2e,rev?*%
%TF.SameCoordinates,Original*%
%TF.FileFunction,Legend,Bot*%
%TF.FilePolarity,Positive*%
%FSLAX46Y46*%
G04 Gerber Fmt 4.6, Leading zero omitted, Abs format (unit mm)*
G04 Created by KiCad (PCBNEW (6.0.6-0)) date 2022-07-13 00:54:31*
%MOMM*%
%LPD*%
G01*
G04 APERTURE LIST*
G04 Aperture macros list*
%AMRoundRect*
0 Rectangle with rounded corners*
0 $1 Rounding radius*
0 $2 $3 $4 $5 $6 $7 $8 $9 X,Y pos of 4 corners*
0 Add a 4 corners polygon primitive as box body*
4,1,4,$2,$3,$4,$5,$6,$7,$8,$9,$2,$3,0*
0 Add four circle primitives for the rounded corners*
1,1,$1+$1,$2,$3*
1,1,$1+$1,$4,$5*
1,1,$1+$1,$6,$7*
1,1,$1+$1,$8,$9*
0 Add four rect primitives between the rounded corners*
20,1,$1+$1,$2,$3,$4,$5,0*
20,1,$1+$1,$4,$5,$6,$7,0*
20,1,$1+$1,$6,$7,$8,$9,0*
20,1,$1+$1,$8,$9,$2,$3,0*%
%AMHorizOval*
0 Thick line with rounded ends*
0 $1 width*
0 $2 $3 position (X,Y) of the first rounded end (center of the circle)*
0 $4 $5 position (X,Y) of the second rounded end (center of the circle)*
0 Add line between two ends*
20,1,$1,$2,$3,$4,$5,0*
0 Add two circle primitives to create the rounded ends*
1,1,$1,$2,$3*
1,1,$1,$4,$5*%
G04 Aperture macros list end*
%ADD10C,0.150000*%
%ADD11C,0.300000*%
%ADD12C,0.120000*%
%ADD13C,2.100000*%
%ADD14RoundRect,0.250000X0.800000X-0.800000X0.800000X0.800000X-0.800000X0.800000X-0.800000X-0.800000X0*%
%ADD15RoundRect,0.250000X0.800000X0.800000X-0.800000X0.800000X-0.800000X-0.800000X0.800000X-0.800000X0*%
%ADD16RoundRect,0.250000X-0.800000X0.800000X-0.800000X-0.800000X0.800000X-0.800000X0.800000X0.800000X0*%
%ADD17C,2.000000*%
%ADD18O,2.000000X2.000000*%
%ADD19O,2.200000X2.200000*%
%ADD20C,2.200000*%
%ADD21RoundRect,0.250000X-0.900000X-0.900000X0.900000X-0.900000X0.900000X0.900000X-0.900000X0.900000X0*%
%ADD22C,2.300000*%
%ADD23C,2.999360*%
%ADD24RoundRect,0.250000X-1.200000X-0.800000X1.200000X-0.800000X1.200000X0.800000X-1.200000X0.800000X0*%
%ADD25O,2.900000X2.100000*%
%ADD26RoundRect,0.250000X1.200000X0.800000X-1.200000X0.800000X-1.200000X-0.800000X1.200000X-0.800000X0*%
%ADD27C,3.500000*%
%ADD28O,2.100000X2.100000*%
%ADD29HorizOval,2.100000X0.000000X0.000000X0.000000X0.000000X0*%
%ADD30O,4.500000X3.000000*%
%ADD31C,4.000000*%
%ADD32C,2.120000*%
%ADD33C,4.500000*%
G04 APERTURE END LIST*
D10*
%TO.C,SW1*%
X147637333Y-126261761D02*
X147494476Y-126309380D01*
X147256380Y-126309380D01*
X147161142Y-126261761D01*
X147113523Y-126214142D01*
X147065904Y-126118904D01*
X147065904Y-126023666D01*
X147113523Y-125928428D01*
X147161142Y-125880809D01*
X147256380Y-125833190D01*
X147446857Y-125785571D01*
X147542095Y-125737952D01*
X147589714Y-125690333D01*
X147637333Y-125595095D01*
X147637333Y-125499857D01*
X147589714Y-125404619D01*
X147542095Y-125357000D01*
X147446857Y-125309380D01*
X147208761Y-125309380D01*
X147065904Y-125357000D01*
X146732571Y-125309380D02*
X146494476Y-126309380D01*
X146304000Y-125595095D01*
X146113523Y-126309380D01*
X145875428Y-125309380D01*
X144970666Y-126309380D02*
X145542095Y-126309380D01*
X145256380Y-126309380D02*
X145256380Y-125309380D01*
X145351619Y-125452238D01*
X145446857Y-125547476D01*
X145542095Y-125595095D01*
D11*
%TO.C,G\u002A\u002A\u002A*%
X116078000Y-97717428D02*
X116005428Y-97572285D01*
X116005428Y-97354571D01*
X116078000Y-97136857D01*
X116223142Y-96991714D01*
X116368285Y-96919142D01*
X116658571Y-96846571D01*
X116876285Y-96846571D01*
X117166571Y-96919142D01*
X117311714Y-96991714D01*
X117456857Y-97136857D01*
X117529428Y-97354571D01*
X117529428Y-97499714D01*
X117456857Y-97717428D01*
X117384285Y-97790000D01*
X116876285Y-97790000D01*
X116876285Y-97499714D01*
X116005428Y-98660857D02*
X116368285Y-98660857D01*
X116223142Y-98298000D02*
X116368285Y-98660857D01*
X116223142Y-99023714D01*
X116658571Y-98443142D02*
X116368285Y-98660857D01*
X116658571Y-98878571D01*
X116005428Y-99822000D02*
X116368285Y-99822000D01*
X116223142Y-99459142D02*
X116368285Y-99822000D01*
X116223142Y-100184857D01*
X116658571Y-99604285D02*
X116368285Y-99822000D01*
X116658571Y-100039714D01*
X116005428Y-100983142D02*
X116368285Y-100983142D01*
X116223142Y-100620285D02*
X116368285Y-100983142D01*
X116223142Y-101346000D01*
X116658571Y-100765428D02*
X116368285Y-100983142D01*
X116658571Y-101200857D01*
G36*
X138617675Y-87028871D02*
G01*
X138527471Y-87011622D01*
X138418362Y-86984822D01*
X138375541Y-86973327D01*
X138052522Y-86858935D01*
X137750896Y-86702286D01*
X137475171Y-86506079D01*
X137229854Y-86273013D01*
X137034465Y-86028506D01*
X136854875Y-85738524D01*
X136703154Y-85421748D01*
X136581838Y-85086477D01*
X136493465Y-84741011D01*
X136451040Y-84462394D01*
X138552151Y-84462394D01*
X138579553Y-84577103D01*
X138634366Y-84672709D01*
X138704328Y-84729168D01*
X138782952Y-84742560D01*
X138864181Y-84710057D01*
X138894857Y-84675681D01*
X138917353Y-84599811D01*
X138914427Y-84504874D01*
X138888291Y-84402897D01*
X138841154Y-84305910D01*
X138775227Y-84225939D01*
X138748410Y-84203531D01*
X138722341Y-84196591D01*
X138690367Y-84216101D01*
X138638301Y-84266237D01*
X138634112Y-84270480D01*
X138569917Y-84362413D01*
X138552151Y-84462394D01*
X136451040Y-84462394D01*
X136440572Y-84393650D01*
X136425696Y-84052692D01*
X136451374Y-83726438D01*
X136467724Y-83627847D01*
X136556558Y-83274756D01*
X136688661Y-82941787D01*
X136862135Y-82631969D01*
X137075086Y-82348335D01*
X137325615Y-82093915D01*
X137611827Y-81871741D01*
X137722853Y-81800914D01*
X138019419Y-81644397D01*
X138347773Y-81511511D01*
X138698693Y-81405234D01*
X139062958Y-81328541D01*
X139431346Y-81284410D01*
X139687788Y-81265662D01*
X139572657Y-81151968D01*
X139508560Y-81094314D01*
X139412366Y-81032571D01*
X139291792Y-80985052D01*
X139289864Y-80984434D01*
X139241139Y-80969975D01*
X139190465Y-80958099D01*
X139131981Y-80948371D01*
X139059825Y-80940359D01*
X138968137Y-80933627D01*
X138851055Y-80927744D01*
X138702718Y-80922275D01*
X138517266Y-80916786D01*
X138288836Y-80910843D01*
X138234804Y-80909460D01*
X137965439Y-80901370D01*
X137737694Y-80891875D01*
X137545460Y-80880196D01*
X137382627Y-80865556D01*
X137243084Y-80847177D01*
X137120722Y-80824280D01*
X137009430Y-80796088D01*
X136903099Y-80761822D01*
X136795618Y-80720705D01*
X136545313Y-80596482D01*
X136310932Y-80429645D01*
X136109824Y-80228794D01*
X135943597Y-79996205D01*
X135813864Y-79734154D01*
X135722234Y-79444916D01*
X135670320Y-79130769D01*
X135664779Y-79068065D01*
X135655162Y-78741060D01*
X135681367Y-78433899D01*
X135744303Y-78134327D01*
X135746269Y-78127176D01*
X135820592Y-77917392D01*
X135924202Y-77707874D01*
X136050300Y-77508292D01*
X136192086Y-77328317D01*
X136342760Y-77177620D01*
X136495525Y-77065870D01*
X136538365Y-77032449D01*
X136569508Y-76973478D01*
X136557543Y-76915041D01*
X136502119Y-76867673D01*
X136470235Y-76857211D01*
X136385594Y-76863507D01*
X136288788Y-76908390D01*
X136187551Y-76988882D01*
X136106544Y-77067019D01*
X136025887Y-76979274D01*
X135989406Y-76937403D01*
X135941340Y-76870133D01*
X135904668Y-76796339D01*
X135877942Y-76708981D01*
X135859714Y-76601017D01*
X135848534Y-76465405D01*
X135842955Y-76295104D01*
X135841528Y-76083074D01*
X135841694Y-76021818D01*
X135843220Y-75869725D01*
X135846120Y-75736306D01*
X135850138Y-75629105D01*
X135855018Y-75555664D01*
X135860504Y-75523525D01*
X135884074Y-75502293D01*
X135947585Y-75464828D01*
X136037643Y-75421148D01*
X136142941Y-75376299D01*
X136252175Y-75335326D01*
X136354038Y-75303276D01*
X136419701Y-75287697D01*
X136505840Y-75274418D01*
X136610511Y-75266057D01*
X136743793Y-75261857D01*
X136915769Y-75261059D01*
X136955572Y-75261217D01*
X137100309Y-75262686D01*
X137209638Y-75266323D01*
X137294463Y-75273329D01*
X137365689Y-75284904D01*
X137434219Y-75302247D01*
X137510957Y-75326558D01*
X137515804Y-75328188D01*
X137630303Y-75372027D01*
X137746756Y-75424800D01*
X137840668Y-75475448D01*
X137978173Y-75560186D01*
X139199327Y-75588073D01*
X139368148Y-75592002D01*
X139652071Y-75599115D01*
X139893464Y-75606092D01*
X140096454Y-75613256D01*
X140265168Y-75620931D01*
X140403734Y-75629440D01*
X140516280Y-75639107D01*
X140606933Y-75650255D01*
X140679821Y-75663208D01*
X140739072Y-75678289D01*
X140788813Y-75695822D01*
X140833172Y-75716131D01*
X140878714Y-75740941D01*
X141047056Y-75865606D01*
X141195367Y-76029142D01*
X141318590Y-76225158D01*
X141411671Y-76447266D01*
X141428920Y-76502266D01*
X141447235Y-76573559D01*
X141459107Y-76646580D01*
X141465754Y-76733104D01*
X141468394Y-76844903D01*
X141468248Y-76993750D01*
X141466891Y-77103464D01*
X141461898Y-77244472D01*
X141452351Y-77357145D01*
X141437042Y-77453998D01*
X141414763Y-77547543D01*
X141362095Y-77710158D01*
X141273869Y-77912612D01*
X141169113Y-78095802D01*
X141055443Y-78244944D01*
X140932371Y-78380369D01*
X140824139Y-78325153D01*
X140723535Y-78278411D01*
X140510891Y-78201086D01*
X140278451Y-78140417D01*
X140216394Y-78130199D01*
X140088483Y-78117959D01*
X139929474Y-78109759D01*
X139749977Y-78105673D01*
X139560603Y-78105772D01*
X139371963Y-78110130D01*
X139194667Y-78118820D01*
X139039327Y-78131914D01*
X139023618Y-78133590D01*
X138914270Y-78142838D01*
X138809144Y-78146161D01*
X138695101Y-78143275D01*
X138559004Y-78133892D01*
X138387713Y-78117727D01*
X138341757Y-78113070D01*
X138196612Y-78099149D01*
X138091740Y-78091948D01*
X138020581Y-78092652D01*
X137976578Y-78102445D01*
X137953171Y-78122510D01*
X137943802Y-78154031D01*
X137941912Y-78198192D01*
X137943423Y-78231168D01*
X137961427Y-78296566D01*
X138002550Y-78347401D01*
X138070323Y-78384332D01*
X138168274Y-78408021D01*
X138299933Y-78419127D01*
X138468828Y-78418312D01*
X138678489Y-78406235D01*
X138932444Y-78383558D01*
X139113287Y-78368807D01*
X139322417Y-78358422D01*
X139536586Y-78353698D01*
X139746849Y-78354474D01*
X139944266Y-78360589D01*
X140119891Y-78371884D01*
X140264783Y-78388198D01*
X140369998Y-78409370D01*
X140395915Y-78417002D01*
X140643809Y-78515074D01*
X140863026Y-78648581D01*
X141050223Y-78814041D01*
X141202054Y-79007972D01*
X141315176Y-79226893D01*
X141386245Y-79467322D01*
X141388389Y-79478683D01*
X141406765Y-79646026D01*
X141408569Y-79838566D01*
X141394984Y-80038157D01*
X141367192Y-80226652D01*
X141326376Y-80385905D01*
X141226390Y-80618032D01*
X141089731Y-80823651D01*
X140919640Y-80993741D01*
X140716406Y-81128067D01*
X140480321Y-81226393D01*
X140211675Y-81288483D01*
X140146877Y-81298886D01*
X140071942Y-81312407D01*
X140029771Y-81322132D01*
X140028151Y-81326449D01*
X140136451Y-81341696D01*
X140285392Y-81380754D01*
X140453553Y-81438927D01*
X140629726Y-81511906D01*
X140802703Y-81595386D01*
X140961277Y-81685058D01*
X141086856Y-81772969D01*
X141237693Y-81897872D01*
X141393104Y-82042934D01*
X141541937Y-82197140D01*
X141673042Y-82349481D01*
X141775269Y-82488942D01*
X141803254Y-82532892D01*
X141952531Y-82799739D01*
X142086251Y-83093516D01*
X142202490Y-83406131D01*
X142299326Y-83729494D01*
X142374837Y-84055513D01*
X142427100Y-84376097D01*
X142454193Y-84683155D01*
X142454194Y-84968595D01*
X142425179Y-85224327D01*
X142410954Y-85299590D01*
X142385253Y-85423379D01*
X142358817Y-85528178D01*
X142326443Y-85633534D01*
X142282931Y-85758999D01*
X142274760Y-85781640D01*
X142245678Y-85851782D01*
X142213136Y-85896906D01*
X142163267Y-85931631D01*
X142082199Y-85970575D01*
X142068085Y-85976922D01*
X141903584Y-86041747D01*
X141739615Y-86086859D01*
X141560000Y-86115821D01*
X141348557Y-86132198D01*
X141270011Y-86135620D01*
X141156406Y-86137905D01*
X141074402Y-86134332D01*
X141012960Y-86124176D01*
X140961037Y-86106710D01*
X140950626Y-86102290D01*
X140896611Y-86074234D01*
X140877059Y-86044834D01*
X140881322Y-85999812D01*
X140889517Y-85960621D01*
X140913040Y-85829962D01*
X140934800Y-85685311D01*
X140952787Y-85542129D01*
X140964993Y-85415878D01*
X140969408Y-85322019D01*
X140968581Y-85286398D01*
X140961767Y-85180495D01*
X140949582Y-85055416D01*
X140933856Y-84931250D01*
X140918245Y-84831776D01*
X140844791Y-84491154D01*
X140744915Y-84174215D01*
X140620888Y-83886455D01*
X140474982Y-83633370D01*
X140309468Y-83420456D01*
X140288588Y-83397883D01*
X140208858Y-83319822D01*
X140146612Y-83277282D01*
X140093887Y-83266139D01*
X140042719Y-83282266D01*
X140037936Y-83284886D01*
X140019567Y-83299520D01*
X140017412Y-83320222D01*
X140035243Y-83354852D01*
X140076830Y-83411265D01*
X140145946Y-83497321D01*
X140214394Y-83586451D01*
X140380818Y-83851671D01*
X140521380Y-84151477D01*
X140633282Y-84479312D01*
X140713727Y-84828616D01*
X140722511Y-84884163D01*
X140739147Y-85049782D01*
X140746486Y-85232362D01*
X140744835Y-85418865D01*
X140734505Y-85596254D01*
X140715803Y-85751491D01*
X140689037Y-85871538D01*
X140639106Y-86014457D01*
X140553164Y-86196107D01*
X140443159Y-86358642D01*
X140298566Y-86519529D01*
X140291073Y-86527000D01*
X140082933Y-86702752D01*
X139850440Y-86840444D01*
X139590861Y-86941148D01*
X139301465Y-87005931D01*
X138979519Y-87035863D01*
X138931780Y-87037589D01*
X138804138Y-87040428D01*
X138782952Y-87039910D01*
X138704667Y-87037997D01*
X138617675Y-87028871D01*
G37*
G36*
X139252255Y-66845961D02*
G01*
X139467786Y-66858777D01*
X139732221Y-66907802D01*
X139988293Y-66990080D01*
X140228370Y-67101946D01*
X140444824Y-67239734D01*
X140630026Y-67399775D01*
X140776346Y-67578405D01*
X140794401Y-67604120D01*
X140838799Y-67656942D01*
X140897296Y-67712309D01*
X140976798Y-67775934D01*
X141084212Y-67853531D01*
X141226442Y-67950815D01*
X141231342Y-67954115D01*
X141641376Y-68240062D01*
X142008249Y-68516933D01*
X142335909Y-68788367D01*
X142628300Y-69057999D01*
X142889371Y-69329466D01*
X143123067Y-69606406D01*
X143333334Y-69892456D01*
X143480568Y-70107422D01*
X143460911Y-70302317D01*
X143444880Y-70438894D01*
X143405095Y-70673173D01*
X143348312Y-70903660D01*
X143271315Y-71140965D01*
X143170887Y-71395701D01*
X143043813Y-71678479D01*
X143033435Y-71700180D01*
X142977704Y-71809146D01*
X142912399Y-71927538D01*
X142842897Y-72046576D01*
X142774574Y-72157478D01*
X142712807Y-72251464D01*
X142662972Y-72319753D01*
X142630446Y-72353564D01*
X142622380Y-72356636D01*
X142573367Y-72366969D01*
X142493377Y-72379368D01*
X142395028Y-72391782D01*
X142182346Y-72415949D01*
X142082952Y-72322073D01*
X142070133Y-72309994D01*
X141951696Y-72202376D01*
X141859462Y-72128632D01*
X141787860Y-72086237D01*
X141731317Y-72072668D01*
X141684262Y-72085401D01*
X141641123Y-72121911D01*
X141640112Y-72123031D01*
X141625382Y-72141934D01*
X141620686Y-72161605D01*
X141630068Y-72187714D01*
X141657567Y-72225931D01*
X141707227Y-72281927D01*
X141783090Y-72361373D01*
X141889197Y-72469939D01*
X141954200Y-72536724D01*
X142057079Y-72644306D01*
X142150044Y-72743695D01*
X142224902Y-72826093D01*
X142273464Y-72882701D01*
X142364941Y-72996845D01*
X142337470Y-73151355D01*
X142306812Y-73303113D01*
X142241095Y-73555472D01*
X142158687Y-73808070D01*
X142062861Y-74053953D01*
X141956885Y-74286164D01*
X141844032Y-74497748D01*
X141727570Y-74681749D01*
X141610770Y-74831210D01*
X141496903Y-74939177D01*
X141431684Y-74984149D01*
X141269939Y-75069968D01*
X141085015Y-75141066D01*
X140894057Y-75190300D01*
X140866147Y-75195167D01*
X140720490Y-75211350D01*
X140534596Y-75220733D01*
X140314992Y-75223641D01*
X140068209Y-75220398D01*
X139800772Y-75211330D01*
X139519211Y-75196760D01*
X139230054Y-75177013D01*
X138939828Y-75152415D01*
X138655062Y-75123289D01*
X138382285Y-75089960D01*
X138128023Y-75052753D01*
X138094015Y-75047244D01*
X137741610Y-74984279D01*
X137434535Y-74917019D01*
X137169618Y-74843732D01*
X136943688Y-74762689D01*
X136753574Y-74672158D01*
X136596102Y-74570410D01*
X136468103Y-74455712D01*
X136366404Y-74326334D01*
X136287833Y-74180547D01*
X136229220Y-74016619D01*
X136200036Y-73868617D01*
X136186568Y-73695100D01*
X136189718Y-73518923D01*
X136210127Y-73362019D01*
X136234086Y-73265718D01*
X136306836Y-73059251D01*
X136406546Y-72846431D01*
X136526588Y-72638220D01*
X136660335Y-72445580D01*
X136801160Y-72279472D01*
X136942434Y-72150856D01*
X137065698Y-72056861D01*
X137705109Y-72271135D01*
X137736752Y-72281723D01*
X138137358Y-72412808D01*
X138504811Y-72527388D01*
X138837803Y-72625167D01*
X139135026Y-72705847D01*
X139395172Y-72769132D01*
X139616935Y-72814723D01*
X139799005Y-72842324D01*
X139940075Y-72851637D01*
X140038838Y-72842366D01*
X140093986Y-72814211D01*
X140120408Y-72777593D01*
X140149147Y-72718132D01*
X140152103Y-72706504D01*
X140149953Y-72687375D01*
X140130300Y-72672535D01*
X140085418Y-72659263D01*
X140007584Y-72644838D01*
X139889075Y-72626540D01*
X139829171Y-72617110D01*
X139573157Y-72568365D01*
X139282732Y-72501472D01*
X138965658Y-72418542D01*
X138629701Y-72321684D01*
X138282625Y-72213010D01*
X137932193Y-72094629D01*
X137575373Y-71969540D01*
X137467070Y-71825465D01*
X137398539Y-71728518D01*
X137324763Y-71596956D01*
X137278037Y-71463873D01*
X137253511Y-71314036D01*
X137246334Y-71132211D01*
X137248174Y-71008047D01*
X137256688Y-70889595D01*
X137274231Y-70786420D01*
X137303082Y-70680384D01*
X137306801Y-70668577D01*
X137379966Y-70475720D01*
X137475908Y-70276059D01*
X137584948Y-70088009D01*
X137697411Y-69929988D01*
X137719944Y-69903099D01*
X137795342Y-69821534D01*
X137881153Y-69737753D01*
X137968647Y-69659357D01*
X138049092Y-69593949D01*
X138113760Y-69549129D01*
X138153918Y-69532500D01*
X138159665Y-69533577D01*
X138204074Y-69548282D01*
X138284098Y-69578075D01*
X138392667Y-69620227D01*
X138522710Y-69672006D01*
X138667156Y-69730683D01*
X138683477Y-69737365D01*
X138863749Y-69810186D01*
X139071860Y-69892814D01*
X139291488Y-69978853D01*
X139506309Y-70061902D01*
X139700000Y-70135564D01*
X139753174Y-70155620D01*
X139935107Y-70224950D01*
X140120309Y-70296472D01*
X140296511Y-70365399D01*
X140451444Y-70426940D01*
X140572841Y-70476305D01*
X140618022Y-70494789D01*
X140730437Y-70538517D01*
X140824202Y-70571794D01*
X140890589Y-70591641D01*
X140920869Y-70595079D01*
X140940251Y-70565767D01*
X140944522Y-70506828D01*
X140929612Y-70441061D01*
X140897744Y-70388321D01*
X140880396Y-70372219D01*
X140848776Y-70348115D01*
X140806110Y-70321885D01*
X140748075Y-70291616D01*
X140670347Y-70255395D01*
X140568604Y-70211309D01*
X140438522Y-70157444D01*
X140275779Y-70091888D01*
X140076052Y-70012727D01*
X139835017Y-69918050D01*
X139692541Y-69861868D01*
X139499482Y-69784590D01*
X139317600Y-69710521D01*
X139153779Y-69642525D01*
X139014900Y-69583468D01*
X138907846Y-69536215D01*
X138839501Y-69503631D01*
X138780837Y-69471699D01*
X138589197Y-69341622D01*
X138442917Y-69195737D01*
X138342618Y-69034630D01*
X138335067Y-69018020D01*
X138308253Y-68953751D01*
X138292195Y-68897053D01*
X138285069Y-68833853D01*
X138285046Y-68750077D01*
X138290298Y-68631650D01*
X138291557Y-68607782D01*
X138296491Y-68529175D01*
X138303407Y-68458686D01*
X138314163Y-68390401D01*
X138330619Y-68318404D01*
X138354634Y-68236781D01*
X138388069Y-68139615D01*
X138432781Y-68020992D01*
X138490632Y-67874996D01*
X138563479Y-67695712D01*
X138653183Y-67477226D01*
X138655173Y-67472387D01*
X138730176Y-67288847D01*
X138789686Y-67144917D01*
X138838238Y-67035819D01*
X138880367Y-66956773D01*
X138920609Y-66903000D01*
X138963499Y-66869722D01*
X139013574Y-66852158D01*
X139075367Y-66845529D01*
X139153416Y-66845057D01*
X139252255Y-66845961D01*
G37*
G36*
X144033606Y-85248595D02*
G01*
X144281111Y-85308297D01*
X144517252Y-85414973D01*
X144741406Y-85568178D01*
X144952950Y-85767466D01*
X145151259Y-86012392D01*
X145335710Y-86302512D01*
X145407164Y-86434354D01*
X145549844Y-86751245D01*
X145646606Y-87061979D01*
X145698354Y-87371147D01*
X145705990Y-87683338D01*
X145670419Y-88003142D01*
X145669283Y-88009594D01*
X145606402Y-88287991D01*
X145515773Y-88562896D01*
X145394583Y-88840060D01*
X145240021Y-89125232D01*
X145049274Y-89424160D01*
X144819529Y-89742596D01*
X144795667Y-89773672D01*
X144685648Y-89909816D01*
X144550344Y-90068308D01*
X144393177Y-90245708D01*
X144217569Y-90438578D01*
X144026944Y-90643480D01*
X143824722Y-90856974D01*
X143614328Y-91075623D01*
X143399182Y-91295987D01*
X143182708Y-91514628D01*
X142968327Y-91728107D01*
X142759462Y-91932985D01*
X142559535Y-92125825D01*
X142371969Y-92303187D01*
X142200185Y-92461632D01*
X142047607Y-92597723D01*
X141917656Y-92708019D01*
X141813755Y-92789084D01*
X141739327Y-92837478D01*
X141727108Y-92843692D01*
X141581821Y-92890635D01*
X141413520Y-92904677D01*
X141233217Y-92886821D01*
X141051924Y-92838066D01*
X140880654Y-92759415D01*
X140829038Y-92727907D01*
X140648095Y-92588756D01*
X140472876Y-92412502D01*
X140309494Y-92208253D01*
X140164064Y-91985116D01*
X140042698Y-91752200D01*
X139951512Y-91518612D01*
X139896618Y-91293461D01*
X139882657Y-91202786D01*
X139874383Y-91114767D01*
X139881989Y-91049298D01*
X139910270Y-90992235D01*
X139964019Y-90929438D01*
X140048029Y-90846766D01*
X140146947Y-90752902D01*
X140376540Y-90544780D01*
X140633609Y-90322686D01*
X140908646Y-90094434D01*
X141192144Y-89867837D01*
X141474596Y-89650709D01*
X141746495Y-89450864D01*
X141749775Y-89448515D01*
X141869668Y-89361569D01*
X141976288Y-89282241D01*
X142062964Y-89215652D01*
X142123028Y-89166922D01*
X142149808Y-89141175D01*
X142159577Y-89116462D01*
X142159854Y-89053741D01*
X142139127Y-88992807D01*
X142103225Y-88956739D01*
X142102509Y-88956498D01*
X142065204Y-88965546D01*
X141994866Y-89001597D01*
X141896353Y-89061195D01*
X141774523Y-89140887D01*
X141634234Y-89237217D01*
X141480345Y-89346730D01*
X141317713Y-89465971D01*
X141151197Y-89591485D01*
X140985654Y-89719817D01*
X140825944Y-89847511D01*
X140676923Y-89971113D01*
X140674664Y-89973026D01*
X140483402Y-90118619D01*
X140296506Y-90224882D01*
X140100873Y-90297971D01*
X139883400Y-90344045D01*
X139795339Y-90354231D01*
X139618231Y-90352376D01*
X139446800Y-90315461D01*
X139264595Y-90240741D01*
X139226596Y-90221275D01*
X139145474Y-90172508D01*
X139066596Y-90112926D01*
X138986068Y-90038080D01*
X138899993Y-89943524D01*
X138804475Y-89824810D01*
X138695617Y-89677491D01*
X138569524Y-89497120D01*
X138422300Y-89279248D01*
X138385486Y-89224068D01*
X138286138Y-89074312D01*
X138197365Y-88939276D01*
X138122505Y-88824120D01*
X138064900Y-88734006D01*
X138027887Y-88674092D01*
X138014807Y-88649542D01*
X138019158Y-88633636D01*
X138040621Y-88582953D01*
X138073992Y-88514524D01*
X138099706Y-88466583D01*
X138253551Y-88237885D01*
X138445937Y-88028581D01*
X138669522Y-87844876D01*
X138916963Y-87692973D01*
X139180920Y-87579079D01*
X139214077Y-87568812D01*
X139317457Y-87543805D01*
X139440966Y-87520572D01*
X139564604Y-87503073D01*
X139691444Y-87485774D01*
X139801646Y-87461469D01*
X139908613Y-87424777D01*
X140034881Y-87369288D01*
X140366241Y-87223135D01*
X140765500Y-87072414D01*
X141140876Y-86960372D01*
X141491542Y-86887132D01*
X141816669Y-86852817D01*
X142115429Y-86857550D01*
X142386994Y-86901454D01*
X142630537Y-86984650D01*
X142660181Y-86999117D01*
X142713972Y-87031580D01*
X142775792Y-87077482D01*
X142850733Y-87141246D01*
X142943888Y-87227296D01*
X143060347Y-87340058D01*
X143205203Y-87483954D01*
X143232504Y-87511278D01*
X143360955Y-87639368D01*
X143460239Y-87736927D01*
X143534689Y-87807539D01*
X143588636Y-87854790D01*
X143626411Y-87882263D01*
X143652346Y-87893543D01*
X143670772Y-87892215D01*
X143686020Y-87881864D01*
X143694240Y-87873874D01*
X143726535Y-87808586D01*
X143712188Y-87729476D01*
X143651258Y-87636955D01*
X143634258Y-87617681D01*
X143579071Y-87557843D01*
X143498856Y-87472778D01*
X143399617Y-87368796D01*
X143287363Y-87252209D01*
X143168097Y-87129327D01*
X143054750Y-87010966D01*
X142900092Y-86841824D01*
X142766985Y-86686634D01*
X142658359Y-86549165D01*
X142577142Y-86433188D01*
X142526264Y-86342471D01*
X142508654Y-86280782D01*
X142510461Y-86260444D01*
X142536960Y-86178460D01*
X142590444Y-86074105D01*
X142664958Y-85956308D01*
X142754548Y-85833994D01*
X142853256Y-85716091D01*
X142955129Y-85611526D01*
X143030934Y-85543836D01*
X143221679Y-85403878D01*
X143415155Y-85307824D01*
X143618715Y-85252545D01*
X143839711Y-85234911D01*
X144033606Y-85248595D01*
G37*
G36*
X144170149Y-69168444D02*
G01*
X143925192Y-69207351D01*
X143696920Y-69202684D01*
X143454183Y-69153310D01*
X143218381Y-69057011D01*
X142988029Y-68913169D01*
X142761647Y-68721164D01*
X142719875Y-68679588D01*
X142682444Y-68631864D01*
X142669418Y-68587838D01*
X142672996Y-68530760D01*
X142675888Y-68500718D01*
X142663769Y-68355418D01*
X142613389Y-68201063D01*
X142528359Y-68049667D01*
X142499580Y-68012999D01*
X142435103Y-67939451D01*
X142344176Y-67840881D01*
X142231626Y-67722359D01*
X142102281Y-67588956D01*
X141960968Y-67445742D01*
X141812516Y-67297788D01*
X141731756Y-67217782D01*
X141548101Y-67033389D01*
X141395306Y-66874697D01*
X141269715Y-66736399D01*
X141167669Y-66613185D01*
X141085515Y-66499749D01*
X141019594Y-66390783D01*
X140966252Y-66280979D01*
X140943250Y-66220938D01*
X144023652Y-66220938D01*
X144040584Y-66254424D01*
X144092559Y-66295490D01*
X144165403Y-66330560D01*
X144244599Y-66351084D01*
X144297457Y-66355209D01*
X144341236Y-66345543D01*
X144387047Y-66314237D01*
X144450286Y-66254025D01*
X144511830Y-66183261D01*
X144557115Y-66093856D01*
X144555349Y-66014237D01*
X144506741Y-65943259D01*
X144469387Y-65913938D01*
X144413610Y-65895203D01*
X144351721Y-65909072D01*
X144276198Y-65957857D01*
X144179520Y-66043871D01*
X144147791Y-66074909D01*
X144083972Y-66141368D01*
X144039896Y-66193108D01*
X144023652Y-66220938D01*
X140943250Y-66220938D01*
X140921831Y-66165029D01*
X140882675Y-66037626D01*
X140845129Y-65893461D01*
X140818232Y-65743584D01*
X140808366Y-65500872D01*
X140833333Y-65242604D01*
X140891967Y-64978687D01*
X140983107Y-64719026D01*
X141045387Y-64582928D01*
X141210873Y-64291208D01*
X141417867Y-63999174D01*
X141661720Y-63711346D01*
X141937785Y-63432245D01*
X142241413Y-63166393D01*
X142567955Y-62918310D01*
X142912764Y-62692517D01*
X143271191Y-62493536D01*
X143516330Y-62369467D01*
X143647471Y-62433785D01*
X143746333Y-62492736D01*
X143881594Y-62598363D01*
X144023120Y-62731457D01*
X144162607Y-62882884D01*
X144291746Y-63043509D01*
X144402233Y-63204194D01*
X144485761Y-63355804D01*
X144525392Y-63442343D01*
X144557205Y-63525710D01*
X144563189Y-63582541D01*
X144540871Y-63622710D01*
X144487780Y-63656091D01*
X144401442Y-63692557D01*
X144217927Y-63774549D01*
X144028421Y-63882409D01*
X143843889Y-64014761D01*
X143655457Y-64178036D01*
X143454245Y-64378664D01*
X143358683Y-64482523D01*
X143249854Y-64609792D01*
X143157021Y-64728445D01*
X143084888Y-64832069D01*
X143038160Y-64914252D01*
X143021538Y-64968581D01*
X143035252Y-65012652D01*
X143070388Y-65066477D01*
X143099678Y-65098412D01*
X143123203Y-65107605D01*
X143143780Y-65083344D01*
X143179152Y-65029075D01*
X143252040Y-64928508D01*
X143342264Y-64812205D01*
X143440368Y-64691952D01*
X143536895Y-64579536D01*
X143622390Y-64486744D01*
X143775582Y-64340105D01*
X144036285Y-64137691D01*
X144313221Y-63979262D01*
X144610090Y-63862478D01*
X144651059Y-63850088D01*
X144741446Y-63827744D01*
X144833484Y-63814281D01*
X144942867Y-63807854D01*
X145085288Y-63806619D01*
X145202776Y-63808164D01*
X145309699Y-63813674D01*
X145396726Y-63825272D01*
X145479521Y-63845169D01*
X145573750Y-63875579D01*
X145744759Y-63942139D01*
X145902907Y-64022064D01*
X146059283Y-64122801D01*
X146229562Y-64253381D01*
X146423652Y-64411362D01*
X146411044Y-64254290D01*
X146410165Y-64244046D01*
X146397379Y-64155212D01*
X146373422Y-64060965D01*
X146335716Y-63955387D01*
X146281679Y-63832556D01*
X146208732Y-63686552D01*
X146114295Y-63511454D01*
X145995788Y-63301340D01*
X145908923Y-63148931D01*
X145808044Y-62969266D01*
X145726782Y-62820146D01*
X145661886Y-62695016D01*
X145610105Y-62587320D01*
X145568189Y-62490501D01*
X145532887Y-62398002D01*
X145500950Y-62303269D01*
X145483407Y-62243368D01*
X145441657Y-62038413D01*
X145419629Y-61818060D01*
X145418641Y-61601684D01*
X145440014Y-61408657D01*
X145496633Y-61190143D01*
X145609428Y-60924521D01*
X145766241Y-60673176D01*
X145964943Y-60438550D01*
X146203406Y-60223084D01*
X146479499Y-60029219D01*
X146791094Y-59859398D01*
X146909490Y-59805755D01*
X147199177Y-59701326D01*
X147478194Y-59641312D01*
X147751484Y-59624878D01*
X148023989Y-59651190D01*
X148080140Y-59660373D01*
X148173101Y-59672957D01*
X148241778Y-59678788D01*
X148274325Y-59676660D01*
X148289809Y-59647945D01*
X148296923Y-59592639D01*
X148293611Y-59563901D01*
X148255021Y-59497423D01*
X148178115Y-59444945D01*
X148069178Y-59406915D01*
X147934490Y-59383779D01*
X147780335Y-59375985D01*
X147612995Y-59383978D01*
X147438753Y-59408206D01*
X147263891Y-59449116D01*
X147094692Y-59507153D01*
X147019786Y-59536541D01*
X146963971Y-59556396D01*
X146941035Y-59561738D01*
X146926976Y-59539113D01*
X146892608Y-59478259D01*
X146846063Y-59392870D01*
X146793148Y-59293914D01*
X146739670Y-59192356D01*
X146691434Y-59099163D01*
X146654249Y-59025299D01*
X146633919Y-58981730D01*
X146616468Y-58913060D01*
X146604075Y-58809236D01*
X146599519Y-58688654D01*
X146599548Y-58671803D01*
X146602591Y-58565067D01*
X146613585Y-58484534D01*
X146636699Y-58410262D01*
X146676102Y-58322307D01*
X146728085Y-58225272D01*
X146877737Y-58017014D01*
X147067987Y-57827550D01*
X147294829Y-57659261D01*
X147554257Y-57514528D01*
X147842267Y-57395731D01*
X148154852Y-57305249D01*
X148488008Y-57245465D01*
X148525090Y-57240828D01*
X148623426Y-57230410D01*
X148686501Y-57228402D01*
X148724283Y-57234993D01*
X148746738Y-57250371D01*
X148749434Y-57254088D01*
X148772958Y-57293048D01*
X148817266Y-57370052D01*
X148880295Y-57481408D01*
X148959985Y-57623426D01*
X149054274Y-57792413D01*
X149161102Y-57984678D01*
X149278407Y-58196530D01*
X149404128Y-58424278D01*
X149536204Y-58664230D01*
X149598978Y-58778426D01*
X149761894Y-59074689D01*
X149935830Y-59390864D01*
X150115854Y-59717988D01*
X150297030Y-60047101D01*
X150474427Y-60369242D01*
X150643111Y-60675452D01*
X150798148Y-60956768D01*
X150934606Y-61204230D01*
X150992584Y-61309370D01*
X151112916Y-61527807D01*
X151226480Y-61734255D01*
X151330866Y-61924318D01*
X151423668Y-62093602D01*
X151502477Y-62237711D01*
X151564886Y-62352251D01*
X151608486Y-62432827D01*
X151630870Y-62475044D01*
X151683216Y-62599886D01*
X151725393Y-62797676D01*
X151723380Y-62999601D01*
X151679193Y-63201327D01*
X151594847Y-63398520D01*
X151472359Y-63586842D01*
X151313742Y-63761961D01*
X151121013Y-63919541D01*
X150896187Y-64055247D01*
X150652684Y-64168376D01*
X150420534Y-64248893D01*
X150196482Y-64295958D01*
X149969904Y-64312521D01*
X149914841Y-64312333D01*
X149792556Y-64307479D01*
X149681695Y-64297704D01*
X149600948Y-64284433D01*
X149476224Y-64253921D01*
X149461627Y-64066239D01*
X149445456Y-63939908D01*
X149413014Y-63779626D01*
X149369853Y-63615449D01*
X149320637Y-63464922D01*
X149270030Y-63345588D01*
X149240755Y-63289925D01*
X149161218Y-63149300D01*
X149064397Y-62988266D01*
X148958273Y-62819639D01*
X148850831Y-62656234D01*
X148750052Y-62510865D01*
X148739419Y-62495930D01*
X148575196Y-62233369D01*
X148421126Y-61924711D01*
X148392603Y-61861645D01*
X148340469Y-61748539D01*
X148296158Y-61655182D01*
X148263650Y-61589881D01*
X148246921Y-61560945D01*
X148242952Y-61557731D01*
X148202186Y-61554859D01*
X148144709Y-61573760D01*
X148088555Y-61606611D01*
X148051759Y-61645590D01*
X148030609Y-61707762D01*
X148033254Y-61797766D01*
X148068829Y-61908546D01*
X148138699Y-62046404D01*
X148160197Y-62083645D01*
X148214262Y-62173446D01*
X148261316Y-62246602D01*
X148293078Y-62290043D01*
X148301517Y-62299932D01*
X148350537Y-62362852D01*
X148418078Y-62454979D01*
X148497593Y-62566908D01*
X148582533Y-62689231D01*
X148666348Y-62812543D01*
X148742490Y-62927437D01*
X148804411Y-63024507D01*
X148919983Y-63221898D01*
X149056328Y-63498333D01*
X149150801Y-63756734D01*
X149204178Y-63999977D01*
X149217240Y-64230940D01*
X149190763Y-64452500D01*
X149167085Y-64550246D01*
X149090134Y-64758817D01*
X148978271Y-64945224D01*
X148824581Y-65122118D01*
X148707452Y-65229425D01*
X148487086Y-65388450D01*
X148252684Y-65508961D01*
X148009627Y-65589824D01*
X147763293Y-65629906D01*
X147519062Y-65628075D01*
X147282311Y-65583197D01*
X147058422Y-65494140D01*
X146986675Y-65457038D01*
X146986719Y-65717990D01*
X146985525Y-65792803D01*
X146961733Y-66036769D01*
X146904437Y-66271428D01*
X146809713Y-66514435D01*
X146714825Y-66695014D01*
X146580897Y-66897652D01*
X146423804Y-67095924D01*
X146251370Y-67281472D01*
X146071422Y-67445936D01*
X145891786Y-67580956D01*
X145720288Y-67678172D01*
X145628451Y-67719897D01*
X145551125Y-67751494D01*
X145503127Y-67761780D01*
X145476166Y-67750152D01*
X145461949Y-67716012D01*
X145452185Y-67658759D01*
X145442999Y-67608964D01*
X145403983Y-67494691D01*
X145347749Y-67416915D01*
X145278018Y-67379628D01*
X145198513Y-67386819D01*
X145189191Y-67390469D01*
X145154711Y-67417410D01*
X145158164Y-67462887D01*
X145211894Y-67670021D01*
X145232585Y-67861000D01*
X145218622Y-68042660D01*
X145170203Y-68227512D01*
X145103045Y-68390564D01*
X144972391Y-68610535D01*
X144808672Y-68802324D01*
X144616991Y-68961915D01*
X144402450Y-69085293D01*
X144297457Y-69122875D01*
X144170149Y-69168444D01*
G37*
G36*
X146580594Y-92655200D02*
G01*
X146848781Y-92698943D01*
X147126258Y-92783481D01*
X147410575Y-92908859D01*
X147699281Y-93075122D01*
X147989927Y-93282315D01*
X148074810Y-93350751D01*
X148312836Y-93569939D01*
X148503163Y-93792831D01*
X148646641Y-94020960D01*
X148744120Y-94255862D01*
X148796453Y-94499071D01*
X148804487Y-94752122D01*
X148785694Y-94926869D01*
X148731426Y-95139074D01*
X148640225Y-95337965D01*
X148508421Y-95531107D01*
X148332349Y-95726066D01*
X148302116Y-95755825D01*
X148217246Y-95834633D01*
X148134114Y-95902059D01*
X148047167Y-95960223D01*
X147950853Y-96011244D01*
X147839619Y-96057241D01*
X147707912Y-96100334D01*
X147550179Y-96142643D01*
X147360869Y-96186287D01*
X147134427Y-96233385D01*
X146865302Y-96286058D01*
X146761323Y-96306887D01*
X146590242Y-96344197D01*
X146422557Y-96384003D01*
X146273182Y-96422713D01*
X146157033Y-96456733D01*
X146006860Y-96503699D01*
X145884372Y-96537545D01*
X145790811Y-96556280D01*
X145717588Y-96561085D01*
X145656113Y-96553141D01*
X145597797Y-96533628D01*
X145556741Y-96515631D01*
X145489103Y-96478662D01*
X145436596Y-96434020D01*
X145396146Y-96374861D01*
X145364679Y-96294343D01*
X145339119Y-96185621D01*
X145316393Y-96041853D01*
X145293425Y-95856195D01*
X145284464Y-95783505D01*
X145257075Y-95591711D01*
X145223036Y-95382279D01*
X145185826Y-95175973D01*
X145148922Y-94993557D01*
X145120332Y-94861987D01*
X145091572Y-94729222D01*
X145067471Y-94617527D01*
X145049946Y-94535786D01*
X145040913Y-94492884D01*
X145040830Y-94492467D01*
X145036506Y-94444248D01*
X145033779Y-94359270D01*
X145032874Y-94249409D01*
X145034012Y-94126538D01*
X145041912Y-93948009D01*
X145063230Y-93784732D01*
X145102066Y-93638523D01*
X145162806Y-93493252D01*
X145249834Y-93332788D01*
X145303765Y-93246905D01*
X145464761Y-93046828D01*
X145649746Y-92887274D01*
X145856273Y-92768289D01*
X146081890Y-92689918D01*
X146324147Y-92652207D01*
X146580594Y-92655200D01*
G37*
G36*
X150451352Y-94744778D02*
G01*
X150649411Y-94769969D01*
X150857431Y-94815440D01*
X151091175Y-94883943D01*
X151317668Y-94964118D01*
X151630916Y-95104006D01*
X151905090Y-95264384D01*
X152138856Y-95444011D01*
X152330881Y-95641644D01*
X152479832Y-95856040D01*
X152584375Y-96085956D01*
X152643177Y-96330151D01*
X152653598Y-96432874D01*
X152645774Y-96685508D01*
X152592439Y-96936208D01*
X152495675Y-97179180D01*
X152357566Y-97408628D01*
X152180192Y-97618755D01*
X152125151Y-97671232D01*
X152033272Y-97746206D01*
X151924809Y-97819780D01*
X151793804Y-97895309D01*
X151634302Y-97976145D01*
X151440346Y-98065640D01*
X151205980Y-98167148D01*
X151062182Y-98228659D01*
X150906599Y-98297710D01*
X150773130Y-98360984D01*
X150648523Y-98425081D01*
X150519525Y-98496604D01*
X150372884Y-98582154D01*
X150290672Y-98630114D01*
X150171932Y-98694396D01*
X150079234Y-98735130D01*
X150003672Y-98755186D01*
X149936338Y-98757434D01*
X149868329Y-98744743D01*
X149834716Y-98734941D01*
X149755461Y-98702285D01*
X149690034Y-98655522D01*
X149633576Y-98587931D01*
X149581229Y-98492791D01*
X149528133Y-98363381D01*
X149469429Y-98192980D01*
X149441982Y-98110008D01*
X149401404Y-97992805D01*
X149360656Y-97884138D01*
X149315399Y-97773562D01*
X149261294Y-97650636D01*
X149194002Y-97504917D01*
X149109184Y-97325961D01*
X149032983Y-97163796D01*
X148938392Y-96951935D01*
X148866871Y-96776003D01*
X148817031Y-96632511D01*
X148787482Y-96517970D01*
X148761463Y-96283825D01*
X148774214Y-96027778D01*
X148826511Y-95775400D01*
X148915751Y-95535575D01*
X149039328Y-95317190D01*
X149194638Y-95129131D01*
X149316668Y-95020488D01*
X149511734Y-94894065D01*
X149729405Y-94805783D01*
X149974074Y-94754010D01*
X150250136Y-94737115D01*
X150451352Y-94744778D01*
G37*
G36*
X155915826Y-55984488D02*
G01*
X155925102Y-55991158D01*
X156112619Y-56153265D01*
X156268858Y-56346158D01*
X156395397Y-56572638D01*
X156493812Y-56835502D01*
X156565681Y-57137550D01*
X156570998Y-57168973D01*
X156588287Y-57370309D01*
X156582644Y-57587065D01*
X156555847Y-57803833D01*
X156509674Y-58005203D01*
X156445902Y-58175769D01*
X156393173Y-58285673D01*
X155833728Y-58389220D01*
X155737831Y-58407112D01*
X155587772Y-58435724D01*
X155458344Y-58461166D01*
X155356406Y-58482053D01*
X155288814Y-58497000D01*
X155262428Y-58504622D01*
X155262017Y-58515358D01*
X155266864Y-58556731D01*
X155278102Y-58630489D01*
X155296011Y-58738192D01*
X155320873Y-58881397D01*
X155352969Y-59061664D01*
X155392578Y-59280551D01*
X155439980Y-59539617D01*
X155495458Y-59840421D01*
X155559291Y-60184521D01*
X155631759Y-60573477D01*
X155713144Y-61008846D01*
X155747314Y-61194375D01*
X155788669Y-61434842D01*
X155818006Y-61636844D01*
X155834735Y-61805838D01*
X155838263Y-61947282D01*
X155827999Y-62066636D01*
X155803353Y-62169357D01*
X155763733Y-62260903D01*
X155708547Y-62346733D01*
X155637205Y-62432305D01*
X155549115Y-62523077D01*
X155466593Y-62598183D01*
X155272692Y-62734419D01*
X155047476Y-62842525D01*
X154784679Y-62925800D01*
X154726642Y-62939755D01*
X154482331Y-62984215D01*
X154227294Y-63010501D01*
X153975317Y-63018070D01*
X153740182Y-63006381D01*
X153535673Y-62974892D01*
X153495094Y-62965058D01*
X153389309Y-62934846D01*
X153278234Y-62898215D01*
X153174992Y-62859913D01*
X153092707Y-62824684D01*
X153044501Y-62797274D01*
X153038312Y-62791229D01*
X153025478Y-62771415D01*
X153011728Y-62738400D01*
X152996208Y-62688308D01*
X152978064Y-62617264D01*
X152956443Y-62521390D01*
X152930492Y-62396813D01*
X152899357Y-62239655D01*
X152862185Y-62046041D01*
X152818123Y-61812095D01*
X152766316Y-61533942D01*
X152747168Y-61430758D01*
X152678491Y-61060521D01*
X152618128Y-60734742D01*
X152565573Y-60450593D01*
X152520321Y-60205242D01*
X152481866Y-59995859D01*
X152449705Y-59819616D01*
X152423332Y-59673681D01*
X152402241Y-59555224D01*
X152385929Y-59461417D01*
X152373889Y-59389428D01*
X152365617Y-59336427D01*
X152360608Y-59299586D01*
X152358357Y-59276073D01*
X152358358Y-59263059D01*
X152360107Y-59257713D01*
X152365064Y-59255390D01*
X152407731Y-59243638D01*
X152486145Y-59225431D01*
X152591402Y-59202778D01*
X152714601Y-59177690D01*
X152853257Y-59148593D01*
X152996375Y-59112635D01*
X153100004Y-59077110D01*
X153169339Y-59039706D01*
X153209573Y-58998110D01*
X153225901Y-58950007D01*
X153226366Y-58945793D01*
X153222218Y-58897866D01*
X153192397Y-58884038D01*
X153184667Y-58884715D01*
X153134053Y-58892297D01*
X153044123Y-58907409D01*
X152921127Y-58928949D01*
X152771312Y-58955814D01*
X152600927Y-58986899D01*
X152416219Y-59021103D01*
X152231540Y-59055265D01*
X152048984Y-59088045D01*
X151902175Y-59112817D01*
X151784496Y-59130467D01*
X151689334Y-59141883D01*
X151610074Y-59147952D01*
X151540101Y-59149559D01*
X151472800Y-59147593D01*
X151374418Y-59139531D01*
X151229250Y-59109722D01*
X151098828Y-59053582D01*
X150962999Y-58963850D01*
X150914796Y-58921214D01*
X150824884Y-58808746D01*
X150740599Y-58663245D01*
X150666810Y-58495030D01*
X150608389Y-58314418D01*
X150570206Y-58131728D01*
X150559491Y-58040712D01*
X150549060Y-57859088D01*
X150549227Y-57667122D01*
X150559746Y-57484207D01*
X150580372Y-57329739D01*
X150580855Y-57327221D01*
X150608345Y-57198482D01*
X150638025Y-57083349D01*
X150667195Y-56990439D01*
X150693155Y-56928373D01*
X150713204Y-56905769D01*
X150713239Y-56905768D01*
X150739893Y-56901310D01*
X150811400Y-56888536D01*
X150924622Y-56868023D01*
X151076421Y-56840347D01*
X151263659Y-56806084D01*
X151483198Y-56765810D01*
X151731901Y-56720102D01*
X152006630Y-56669535D01*
X152304248Y-56614687D01*
X152621615Y-56556132D01*
X152955595Y-56494448D01*
X153303050Y-56430209D01*
X153416540Y-56409224D01*
X153823202Y-56334167D01*
X154184958Y-56267663D01*
X154504261Y-56209293D01*
X154783563Y-56158640D01*
X155025314Y-56115285D01*
X155231966Y-56078809D01*
X155405971Y-56048795D01*
X155549780Y-56024824D01*
X155665846Y-56006479D01*
X155756620Y-55993340D01*
X155824553Y-55984990D01*
X155872098Y-55981010D01*
X155901705Y-55980982D01*
X155915826Y-55984488D01*
G37*
G36*
X154744051Y-95893222D02*
G01*
X154816188Y-95897688D01*
X155173849Y-95938668D01*
X155500453Y-96008395D01*
X155794460Y-96105506D01*
X156054331Y-96228636D01*
X156278527Y-96376421D01*
X156465507Y-96547498D01*
X156613733Y-96740503D01*
X156721665Y-96954071D01*
X156787765Y-97186839D01*
X156810492Y-97437443D01*
X156788307Y-97704519D01*
X156774419Y-97782238D01*
X156721396Y-97994050D01*
X156648269Y-98178211D01*
X156549608Y-98349387D01*
X156547794Y-98352097D01*
X156488273Y-98433843D01*
X156417974Y-98515804D01*
X156331916Y-98602454D01*
X156225121Y-98698271D01*
X156092607Y-98807729D01*
X155929393Y-98935304D01*
X155730499Y-99085472D01*
X155713416Y-99098254D01*
X155569381Y-99208452D01*
X155424876Y-99322855D01*
X155289928Y-99433275D01*
X155174564Y-99531527D01*
X155088812Y-99609421D01*
X155072717Y-99624863D01*
X154949888Y-99739726D01*
X154852095Y-99823584D01*
X154772227Y-99880950D01*
X154703170Y-99916337D01*
X154637809Y-99934259D01*
X154569033Y-99939230D01*
X154532852Y-99938412D01*
X154457672Y-99928663D01*
X154389923Y-99904115D01*
X154324552Y-99860042D01*
X154256504Y-99791721D01*
X154180724Y-99694426D01*
X154092157Y-99563432D01*
X153985750Y-99394015D01*
X153956244Y-99347765D01*
X153881173Y-99237578D01*
X153788798Y-99108673D01*
X153688125Y-98973497D01*
X153588159Y-98844496D01*
X153454333Y-98674216D01*
X153311430Y-98486540D01*
X153195489Y-98325104D01*
X153103356Y-98184243D01*
X153031875Y-98058296D01*
X152977891Y-97941600D01*
X152938248Y-97828491D01*
X152909792Y-97713308D01*
X152889366Y-97590386D01*
X152879810Y-97501806D01*
X152880011Y-97240307D01*
X152921524Y-96987789D01*
X153002248Y-96751031D01*
X153120084Y-96536809D01*
X153272935Y-96351901D01*
X153360477Y-96271852D01*
X153577737Y-96119984D01*
X153824252Y-96006335D01*
X154100494Y-95930756D01*
X154406936Y-95893101D01*
X154744051Y-95893222D01*
G37*
G36*
X160415988Y-57541064D02*
G01*
X160493294Y-57547381D01*
X160560190Y-57566282D01*
X160622315Y-57602814D01*
X160685307Y-57662023D01*
X160754803Y-57748956D01*
X160836443Y-57868662D01*
X160935865Y-58026185D01*
X160965703Y-58073259D01*
X161053445Y-58204059D01*
X161157422Y-58351302D01*
X161267075Y-58500214D01*
X161371840Y-58636023D01*
X161431258Y-58711146D01*
X161527132Y-58833696D01*
X161616037Y-58948849D01*
X161690098Y-59046379D01*
X161741440Y-59116057D01*
X161858269Y-59297802D01*
X161982920Y-59560022D01*
X162059060Y-59826700D01*
X162086628Y-60097470D01*
X162065563Y-60371964D01*
X161995804Y-60649816D01*
X161943449Y-60779294D01*
X161820621Y-60983171D01*
X161658742Y-61162831D01*
X161461513Y-61315099D01*
X161232636Y-61436800D01*
X160975813Y-61524757D01*
X160750694Y-61568364D01*
X160464917Y-61590818D01*
X160161790Y-61584592D01*
X159852235Y-61550935D01*
X159547175Y-61491099D01*
X159257532Y-61406333D01*
X158994230Y-61297889D01*
X158951984Y-61277103D01*
X158832944Y-61213805D01*
X158737864Y-61152275D01*
X158649919Y-61080688D01*
X158552284Y-60987216D01*
X158505758Y-60938870D01*
X158350602Y-60742393D01*
X158240783Y-60535250D01*
X158173687Y-60312788D01*
X158168769Y-60287571D01*
X158145703Y-60111637D01*
X158147594Y-59943909D01*
X158174477Y-59759312D01*
X158179522Y-59733914D01*
X158219294Y-59561207D01*
X158266918Y-59408679D01*
X158326662Y-59270690D01*
X158402794Y-59141600D01*
X158499583Y-59015767D01*
X158621295Y-58887552D01*
X158772200Y-58751313D01*
X158956565Y-58601410D01*
X159178659Y-58432202D01*
X159223313Y-58398701D01*
X159375269Y-58282032D01*
X159527363Y-58161643D01*
X159669653Y-58045604D01*
X159792198Y-57941983D01*
X159885055Y-57858850D01*
X159944196Y-57803587D01*
X160053790Y-57704347D01*
X160139783Y-57633370D01*
X160209470Y-57586095D01*
X160270148Y-57557960D01*
X160329114Y-57544402D01*
X160393665Y-57540860D01*
X160415988Y-57541064D01*
G37*
G36*
X161105549Y-94468820D02*
G01*
X161378345Y-94501453D01*
X161628525Y-94561678D01*
X161847107Y-94649291D01*
X161961701Y-94707360D01*
X162104860Y-95485459D01*
X162131938Y-95632381D01*
X162176307Y-95872372D01*
X162225834Y-96139558D01*
X162278254Y-96421757D01*
X162331305Y-96706790D01*
X162382722Y-96982475D01*
X162430244Y-97236633D01*
X162445878Y-97320406D01*
X162483859Y-97526481D01*
X162517999Y-97715348D01*
X162547414Y-97881877D01*
X162571220Y-98020939D01*
X162588533Y-98127407D01*
X162598468Y-98196149D01*
X162600140Y-98222039D01*
X162595157Y-98224393D01*
X162552415Y-98236228D01*
X162473934Y-98254503D01*
X162368624Y-98277203D01*
X162245399Y-98302309D01*
X162106742Y-98331406D01*
X161963624Y-98367364D01*
X161859995Y-98402889D01*
X161790661Y-98440293D01*
X161750427Y-98481890D01*
X161734099Y-98529992D01*
X161733918Y-98531570D01*
X161737394Y-98581317D01*
X161766402Y-98595961D01*
X161774277Y-98595257D01*
X161824987Y-98587659D01*
X161914995Y-98572597D01*
X162038073Y-98551165D01*
X162187995Y-98524455D01*
X162358532Y-98493561D01*
X162543457Y-98459574D01*
X162721608Y-98426985D01*
X162944340Y-98388087D01*
X163128973Y-98359126D01*
X163281233Y-98339929D01*
X163406847Y-98330318D01*
X163511542Y-98330119D01*
X163601044Y-98339155D01*
X163681080Y-98357251D01*
X163757376Y-98384231D01*
X163835660Y-98419920D01*
X163955525Y-98490646D01*
X164079759Y-98600105D01*
X164183014Y-98740171D01*
X164269420Y-98916670D01*
X164343109Y-99135430D01*
X164349672Y-99159737D01*
X164381829Y-99324380D01*
X164403120Y-99516210D01*
X164412620Y-99717595D01*
X164409404Y-99910900D01*
X164392549Y-100078492D01*
X164374184Y-100178705D01*
X164348139Y-100294903D01*
X164319622Y-100402376D01*
X164291499Y-100491303D01*
X164266636Y-100551862D01*
X164247898Y-100574230D01*
X164247852Y-100574231D01*
X164220955Y-100578719D01*
X164149216Y-100591529D01*
X164035773Y-100612087D01*
X163883765Y-100639815D01*
X163696330Y-100674136D01*
X163476607Y-100714474D01*
X163227732Y-100760251D01*
X162952845Y-100810893D01*
X162655084Y-100865820D01*
X162337587Y-100924458D01*
X162003492Y-100986229D01*
X161655937Y-101050556D01*
X159083730Y-101526882D01*
X158978650Y-101445015D01*
X158966212Y-101435191D01*
X158791241Y-101264738D01*
X158643209Y-101057002D01*
X158524472Y-100816687D01*
X158437382Y-100548496D01*
X158384293Y-100257134D01*
X158375109Y-100177560D01*
X158366866Y-100103635D01*
X158362509Y-100061346D01*
X158363112Y-99976551D01*
X158375524Y-99862989D01*
X158397368Y-99733128D01*
X158426121Y-99597768D01*
X158459258Y-99467713D01*
X158494254Y-99353763D01*
X158528587Y-99266721D01*
X158559731Y-99217388D01*
X158570474Y-99211895D01*
X158624296Y-99195557D01*
X158715284Y-99173329D01*
X158836153Y-99146846D01*
X158979617Y-99117740D01*
X159138392Y-99087646D01*
X159223325Y-99071969D01*
X159372651Y-99043796D01*
X159501675Y-99018665D01*
X159603451Y-98997970D01*
X159671036Y-98983105D01*
X159697485Y-98975463D01*
X159697904Y-98968308D01*
X159692486Y-98920838D01*
X159679462Y-98834110D01*
X159659803Y-98713989D01*
X159634484Y-98566337D01*
X159604478Y-98397020D01*
X159570757Y-98211900D01*
X159560496Y-98156283D01*
X159518040Y-97926144D01*
X159469961Y-97665496D01*
X159418801Y-97388110D01*
X159367099Y-97107762D01*
X159317396Y-96838223D01*
X159272232Y-96593269D01*
X159246052Y-96450521D01*
X159202723Y-96208403D01*
X159168728Y-96006364D01*
X159143801Y-95839275D01*
X159127675Y-95702003D01*
X159120084Y-95589419D01*
X159120763Y-95496392D01*
X159129444Y-95417791D01*
X159145862Y-95348486D01*
X159169750Y-95283346D01*
X159200843Y-95217240D01*
X159273199Y-95101279D01*
X159407925Y-94952126D01*
X159578630Y-94816391D01*
X159778008Y-94699658D01*
X159998749Y-94607510D01*
X160241304Y-94538502D01*
X160528045Y-94487142D01*
X160819122Y-94463982D01*
X161105549Y-94468820D01*
G37*
G36*
X165120932Y-58745329D02*
G01*
X165241099Y-58805145D01*
X165334829Y-58902520D01*
X165341685Y-58913839D01*
X165372056Y-58976930D01*
X165411701Y-59072288D01*
X165456251Y-59189060D01*
X165501340Y-59316392D01*
X165525404Y-59384420D01*
X165585781Y-59542361D01*
X165657642Y-59718296D01*
X165733968Y-59895275D01*
X165807740Y-60056346D01*
X165862446Y-60171966D01*
X165958666Y-60380216D01*
X166035172Y-60555136D01*
X166094085Y-60703335D01*
X166137527Y-60831420D01*
X166167622Y-60946001D01*
X166186490Y-61053684D01*
X166196255Y-61161080D01*
X166199038Y-61274795D01*
X166190061Y-61437776D01*
X166140259Y-61693817D01*
X166049981Y-61937676D01*
X165922814Y-62160490D01*
X165762347Y-62353396D01*
X165689162Y-62421924D01*
X165516671Y-62550656D01*
X165329629Y-62644247D01*
X165121375Y-62704921D01*
X164885248Y-62734900D01*
X164614589Y-62736407D01*
X164566829Y-62733983D01*
X164259393Y-62697696D01*
X163953502Y-62627850D01*
X163655751Y-62527743D01*
X163372735Y-62400675D01*
X163111049Y-62249944D01*
X162877288Y-62078848D01*
X162678049Y-61890686D01*
X162519925Y-61688756D01*
X162470530Y-61611330D01*
X162416655Y-61517039D01*
X162379762Y-61431792D01*
X162352521Y-61337592D01*
X162327604Y-61216442D01*
X162311951Y-61128963D01*
X162298768Y-61033561D01*
X162295561Y-60953672D01*
X162301904Y-60870498D01*
X162317369Y-60765242D01*
X162352405Y-60606203D01*
X162439447Y-60366883D01*
X162561708Y-60141100D01*
X162713516Y-59937274D01*
X162889194Y-59763824D01*
X163083070Y-59629168D01*
X163095800Y-59622195D01*
X163176803Y-59580836D01*
X163290902Y-59525702D01*
X163428496Y-59461301D01*
X163579979Y-59392143D01*
X163735749Y-59322736D01*
X163768063Y-59308471D01*
X163925070Y-59237679D01*
X164076684Y-59167091D01*
X164213021Y-59101448D01*
X164324198Y-59045492D01*
X164400330Y-59003962D01*
X164498021Y-58946479D01*
X164636544Y-58866988D01*
X164744443Y-58808820D01*
X164828423Y-58768912D01*
X164895187Y-58744199D01*
X164951439Y-58731619D01*
X165003883Y-58728106D01*
X165120932Y-58745329D01*
G37*
G36*
X170457089Y-93583205D02*
G01*
X170278414Y-93636841D01*
X170094062Y-93665860D01*
X169886923Y-93674574D01*
X169798606Y-93672953D01*
X169570440Y-93650373D01*
X169359288Y-93598327D01*
X169155661Y-93513149D01*
X168950072Y-93391172D01*
X168733032Y-93228731D01*
X168536347Y-93068637D01*
X168548956Y-93225710D01*
X168549835Y-93235953D01*
X168562621Y-93324788D01*
X168586577Y-93419034D01*
X168624284Y-93524612D01*
X168678320Y-93647443D01*
X168751267Y-93793447D01*
X168845704Y-93968546D01*
X168964211Y-94178659D01*
X169053043Y-94334779D01*
X169174528Y-94553091D01*
X169273739Y-94739842D01*
X169352990Y-94901027D01*
X169414597Y-95042639D01*
X169460874Y-95170671D01*
X169494136Y-95291119D01*
X169516698Y-95409975D01*
X169530876Y-95533234D01*
X169538983Y-95666890D01*
X169540700Y-95816470D01*
X169519519Y-96057031D01*
X169464870Y-96282516D01*
X169373687Y-96508524D01*
X169246805Y-96731505D01*
X169064814Y-96967865D01*
X168846884Y-97185512D01*
X168599220Y-97380173D01*
X168328027Y-97547573D01*
X168039509Y-97683440D01*
X167739873Y-97783499D01*
X167435323Y-97843479D01*
X167389446Y-97849079D01*
X167275986Y-97859591D01*
X167179602Y-97860571D01*
X167078746Y-97851499D01*
X166951869Y-97831860D01*
X166879945Y-97820335D01*
X166785827Y-97807814D01*
X166717106Y-97801870D01*
X166685092Y-97803699D01*
X166670001Y-97832192D01*
X166663077Y-97887361D01*
X166666629Y-97917006D01*
X166705803Y-97983130D01*
X166783237Y-98035321D01*
X166892658Y-98073132D01*
X167027790Y-98096118D01*
X167182358Y-98103833D01*
X167350089Y-98095831D01*
X167524706Y-98071667D01*
X167699936Y-98030893D01*
X167869503Y-97973066D01*
X167941840Y-97944728D01*
X167997379Y-97924752D01*
X168020059Y-97919072D01*
X168020413Y-97919631D01*
X168035456Y-97946355D01*
X168068859Y-98006636D01*
X168116048Y-98092197D01*
X168172447Y-98194759D01*
X168202775Y-98250664D01*
X168277411Y-98398492D01*
X168327997Y-98521252D01*
X168357834Y-98629967D01*
X168370224Y-98735664D01*
X168368467Y-98849365D01*
X168349084Y-98977219D01*
X168282752Y-99162266D01*
X168175397Y-99342869D01*
X168031650Y-99515771D01*
X167856145Y-99677714D01*
X167653515Y-99825440D01*
X167428391Y-99955692D01*
X167185407Y-100065210D01*
X166929194Y-100150738D01*
X166664387Y-100209017D01*
X166395617Y-100236790D01*
X166213638Y-100244519D01*
X165473220Y-98901250D01*
X165282867Y-98555897D01*
X165032417Y-98101446D01*
X164803829Y-97686539D01*
X164596086Y-97309284D01*
X164408170Y-96967792D01*
X164239065Y-96660170D01*
X164087753Y-96384528D01*
X163953216Y-96138974D01*
X163834439Y-95921619D01*
X163730402Y-95730570D01*
X163640090Y-95563937D01*
X163562486Y-95419828D01*
X163496571Y-95296353D01*
X163441329Y-95191621D01*
X163395742Y-95103741D01*
X163358794Y-95030822D01*
X163329466Y-94970972D01*
X163306743Y-94922301D01*
X163289607Y-94882918D01*
X163277040Y-94850931D01*
X163268025Y-94824450D01*
X163261546Y-94801584D01*
X163256585Y-94780441D01*
X163239585Y-94699260D01*
X163226473Y-94615764D01*
X163225051Y-94546176D01*
X163235359Y-94471139D01*
X163257436Y-94371296D01*
X163264494Y-94343107D01*
X163346175Y-94127640D01*
X163474570Y-93918853D01*
X163647891Y-93719731D01*
X163685403Y-93683222D01*
X163773247Y-93605073D01*
X163862039Y-93539952D01*
X163966651Y-93477648D01*
X164101955Y-93407948D01*
X164208334Y-93358229D01*
X164344159Y-93300923D01*
X164472227Y-93252786D01*
X164574904Y-93220797D01*
X164697742Y-93195642D01*
X164873338Y-93175140D01*
X165054157Y-93168115D01*
X165222970Y-93175095D01*
X165362548Y-93196610D01*
X165490769Y-93227756D01*
X165490769Y-93333627D01*
X165490846Y-93346325D01*
X165514195Y-93569204D01*
X165578726Y-93815584D01*
X165683762Y-94083948D01*
X165828628Y-94372779D01*
X166012648Y-94680558D01*
X166235147Y-95005769D01*
X166248983Y-95025217D01*
X166344384Y-95175434D01*
X166443629Y-95356762D01*
X166539024Y-95555288D01*
X166567501Y-95618315D01*
X166619593Y-95731435D01*
X166663870Y-95824805D01*
X166696357Y-95890114D01*
X166713078Y-95919054D01*
X166713090Y-95919067D01*
X166749104Y-95925962D01*
X166809190Y-95909599D01*
X166823676Y-95903176D01*
X166891387Y-95854387D01*
X166926160Y-95786269D01*
X166927405Y-95696631D01*
X166894530Y-95583280D01*
X166826944Y-95444026D01*
X166724057Y-95276676D01*
X166585277Y-95079038D01*
X166557070Y-95040537D01*
X166349079Y-94747353D01*
X166174905Y-94482788D01*
X166032674Y-94242856D01*
X165920509Y-94023576D01*
X165836535Y-93820964D01*
X165778876Y-93631035D01*
X165745656Y-93449807D01*
X165735000Y-93273295D01*
X165739076Y-93201709D01*
X165762737Y-93057061D01*
X165802822Y-92901387D01*
X165853949Y-92754237D01*
X165910732Y-92635160D01*
X166010455Y-92489624D01*
X166183742Y-92304974D01*
X166393030Y-92142876D01*
X166632192Y-92007881D01*
X166895096Y-91904538D01*
X167001224Y-91876683D01*
X167228544Y-91848551D01*
X167461720Y-91857184D01*
X167686985Y-91901532D01*
X167890574Y-91980544D01*
X167983869Y-92028139D01*
X167968238Y-91910312D01*
X167966136Y-91891073D01*
X167964193Y-91776634D01*
X167973964Y-91634730D01*
X167993511Y-91481294D01*
X168012113Y-91380059D01*
X170406147Y-91380059D01*
X170407976Y-91464847D01*
X170453259Y-91536741D01*
X170490613Y-91566062D01*
X170546390Y-91584796D01*
X170608279Y-91570928D01*
X170683801Y-91522143D01*
X170780479Y-91436128D01*
X170811913Y-91405334D01*
X170876026Y-91338119D01*
X170920482Y-91285129D01*
X170937115Y-91255764D01*
X170928179Y-91232970D01*
X170884821Y-91192837D01*
X170818778Y-91155862D01*
X170745009Y-91131703D01*
X170743159Y-91131345D01*
X170651381Y-91137597D01*
X170554957Y-91185448D01*
X170463774Y-91270035D01*
X170447427Y-91291108D01*
X170406147Y-91380059D01*
X168012113Y-91380059D01*
X168020896Y-91332258D01*
X168054182Y-91203557D01*
X168101404Y-91073276D01*
X168221171Y-90828222D01*
X168376621Y-90585510D01*
X168560146Y-90354296D01*
X168764137Y-90143736D01*
X168980983Y-89962984D01*
X169203077Y-89821197D01*
X169205639Y-89819824D01*
X169293573Y-89775437D01*
X169372729Y-89740044D01*
X169426250Y-89721198D01*
X169452184Y-89716212D01*
X169479991Y-89721362D01*
X169495613Y-89753020D01*
X169507957Y-89822193D01*
X169529041Y-89914316D01*
X169573261Y-90012535D01*
X169631184Y-90079429D01*
X169697326Y-90109183D01*
X169766203Y-90095984D01*
X169782236Y-90087245D01*
X169804150Y-90069712D01*
X169809820Y-90043319D01*
X169799840Y-89995467D01*
X169774804Y-89913557D01*
X169773505Y-89909361D01*
X169743770Y-89762475D01*
X169734078Y-89596209D01*
X169744429Y-89431870D01*
X169774822Y-89290769D01*
X169873302Y-89057092D01*
X170007985Y-88843419D01*
X170171393Y-88660061D01*
X170358702Y-88509211D01*
X170565093Y-88393058D01*
X170785741Y-88313793D01*
X171015827Y-88273608D01*
X171250529Y-88274693D01*
X171485024Y-88319239D01*
X171714490Y-88409437D01*
X171793254Y-88452086D01*
X172001180Y-88590657D01*
X172197287Y-88757789D01*
X172248814Y-88809559D01*
X172280284Y-88854532D01*
X172290047Y-88902619D01*
X172285944Y-88972843D01*
X172288703Y-89094784D01*
X172334850Y-89258950D01*
X172429155Y-89430312D01*
X172461298Y-89470539D01*
X172525267Y-89542325D01*
X172615365Y-89639159D01*
X172727072Y-89756301D01*
X172855868Y-89889016D01*
X172997232Y-90032565D01*
X173146644Y-90182211D01*
X173269859Y-90305022D01*
X173419822Y-90455647D01*
X173541284Y-90579616D01*
X173638136Y-90681241D01*
X173714272Y-90764833D01*
X173773584Y-90834705D01*
X173819965Y-90895169D01*
X173857305Y-90950535D01*
X173889499Y-91005116D01*
X173963350Y-91148886D01*
X174074325Y-91435822D01*
X174136918Y-91723968D01*
X174151139Y-92014486D01*
X174116996Y-92308541D01*
X174034497Y-92607295D01*
X173903651Y-92911913D01*
X173895770Y-92927486D01*
X173788779Y-93122755D01*
X173669874Y-93308592D01*
X173532087Y-93494440D01*
X173368454Y-93689746D01*
X173172009Y-93903955D01*
X173096698Y-93980962D01*
X172851005Y-94207427D01*
X172575330Y-94430703D01*
X172282946Y-94641046D01*
X171987125Y-94828709D01*
X171701143Y-94983947D01*
X171443449Y-95110424D01*
X171312418Y-95046160D01*
X171243887Y-95006792D01*
X171120135Y-94915284D01*
X170985950Y-94796213D01*
X170850019Y-94658577D01*
X170721030Y-94511371D01*
X170607671Y-94363590D01*
X170518630Y-94224230D01*
X170509313Y-94207214D01*
X170468473Y-94124912D01*
X170430441Y-94037811D01*
X170399943Y-93958051D01*
X170381701Y-93897771D01*
X170380439Y-93869111D01*
X170382670Y-93867522D01*
X170416993Y-93850653D01*
X170482291Y-93821820D01*
X170566841Y-93786235D01*
X170614810Y-93765394D01*
X170799163Y-93668380D01*
X170991539Y-93543935D01*
X171184410Y-93398800D01*
X171370249Y-93239717D01*
X171541528Y-93073428D01*
X171690720Y-92906675D01*
X171810296Y-92746199D01*
X171892730Y-92598743D01*
X171910485Y-92557469D01*
X171927584Y-92504441D01*
X171924748Y-92467228D01*
X171903078Y-92427616D01*
X171871000Y-92386511D01*
X171846312Y-92368850D01*
X171844452Y-92369454D01*
X171819607Y-92394355D01*
X171777410Y-92448412D01*
X171725852Y-92521494D01*
X171559582Y-92744218D01*
X171361786Y-92965514D01*
X171149466Y-93165098D01*
X170931690Y-93334484D01*
X170717525Y-93465185D01*
X170647199Y-93500637D01*
X170546390Y-93544420D01*
X170457089Y-93583205D01*
G37*
G36*
X169379440Y-60948632D02*
G01*
X169455874Y-60992198D01*
X169481438Y-61012243D01*
X169529156Y-61055752D01*
X169565985Y-61103683D01*
X169594242Y-61163425D01*
X169616245Y-61242366D01*
X169634310Y-61347895D01*
X169650755Y-61487400D01*
X169667896Y-61668269D01*
X169674688Y-61731833D01*
X169694437Y-61874254D01*
X169721628Y-62039656D01*
X169753603Y-62212323D01*
X169787702Y-62376538D01*
X169807535Y-62466628D01*
X169851187Y-62671269D01*
X169884314Y-62839659D01*
X169908013Y-62979806D01*
X169923383Y-63099716D01*
X169931519Y-63207396D01*
X169933521Y-63310852D01*
X169930486Y-63418092D01*
X169923813Y-63508128D01*
X169875792Y-63766039D01*
X169788701Y-64004627D01*
X169666421Y-64220286D01*
X169512831Y-64409408D01*
X169331813Y-64568385D01*
X169127245Y-64693611D01*
X168903010Y-64781476D01*
X168662986Y-64828375D01*
X168411055Y-64830699D01*
X168374819Y-64827294D01*
X168105437Y-64778321D01*
X167824885Y-64688941D01*
X167540701Y-64562896D01*
X167260425Y-64403927D01*
X166991595Y-64215776D01*
X166741751Y-64002186D01*
X166606578Y-63867872D01*
X166457607Y-63696026D01*
X166343719Y-63528880D01*
X166259321Y-63357909D01*
X166198821Y-63174585D01*
X166164112Y-62994692D01*
X166150879Y-62780296D01*
X166166336Y-62574299D01*
X166210252Y-62392433D01*
X166306874Y-62172518D01*
X166457434Y-61937308D01*
X166644223Y-61729465D01*
X166861523Y-61556330D01*
X166865002Y-61554024D01*
X166983630Y-61483843D01*
X167113563Y-61424596D01*
X167264177Y-61373061D01*
X167444847Y-61326017D01*
X167664948Y-61280243D01*
X167882372Y-61238409D01*
X168103193Y-61194446D01*
X168288772Y-61155418D01*
X168446157Y-61119715D01*
X168582401Y-61085725D01*
X168704553Y-61051838D01*
X168819663Y-61016443D01*
X168866281Y-61001712D01*
X169039305Y-60953821D01*
X169177966Y-60929185D01*
X169289074Y-60927541D01*
X169379440Y-60948632D01*
G37*
G36*
X173629323Y-64578082D02*
G01*
X173830193Y-64613459D01*
X174021134Y-64689843D01*
X174207455Y-64809724D01*
X174394460Y-64975592D01*
X174453132Y-65036269D01*
X174651388Y-65272902D01*
X174816757Y-65522961D01*
X174945723Y-65779725D01*
X175034766Y-66036471D01*
X175080372Y-66286480D01*
X175095427Y-66448459D01*
X174866319Y-66668725D01*
X174831784Y-66701755D01*
X174544171Y-66965769D01*
X174225527Y-67240959D01*
X173887135Y-67518055D01*
X173540281Y-67787783D01*
X173196250Y-68040874D01*
X173132024Y-68086832D01*
X173026011Y-68163381D01*
X172936043Y-68229201D01*
X172870062Y-68278460D01*
X172836009Y-68305330D01*
X172805512Y-68347268D01*
X172796378Y-68420586D01*
X172828177Y-68495957D01*
X172835795Y-68506139D01*
X172859978Y-68528923D01*
X172890163Y-68526613D01*
X172944653Y-68499816D01*
X172966673Y-68487504D01*
X173058014Y-68430263D01*
X173179270Y-68347813D01*
X173324539Y-68244564D01*
X173487913Y-68124927D01*
X173663490Y-67993314D01*
X173845363Y-67854134D01*
X174027628Y-67711800D01*
X174204381Y-67570721D01*
X174369715Y-67435309D01*
X174539921Y-67319150D01*
X174739036Y-67225576D01*
X174952266Y-67159663D01*
X175165785Y-67125677D01*
X175365766Y-67127886D01*
X175509958Y-67160158D01*
X175680426Y-67231503D01*
X175846157Y-67332913D01*
X175993244Y-67457090D01*
X176032549Y-67500542D01*
X176104944Y-67590663D01*
X176196355Y-67712367D01*
X176302729Y-67860105D01*
X176420012Y-68028324D01*
X176544151Y-68211476D01*
X176954729Y-68825532D01*
X176891100Y-68953102D01*
X176887599Y-68960075D01*
X176747801Y-69186658D01*
X176568102Y-69398088D01*
X176356601Y-69587097D01*
X176121394Y-69746422D01*
X175870577Y-69868798D01*
X175785777Y-69900015D01*
X175655246Y-69937212D01*
X175510103Y-69964322D01*
X175333269Y-69985040D01*
X175173459Y-70011720D01*
X175027980Y-70064030D01*
X174784542Y-70180477D01*
X174438820Y-70324273D01*
X174097502Y-70441851D01*
X173765825Y-70532045D01*
X173449025Y-70593690D01*
X173152335Y-70625620D01*
X172880993Y-70626670D01*
X172640232Y-70595673D01*
X172588000Y-70584233D01*
X172487657Y-70558552D01*
X172399174Y-70527971D01*
X172316076Y-70488103D01*
X172231891Y-70434567D01*
X172140144Y-70362977D01*
X172034361Y-70268949D01*
X171908070Y-70148100D01*
X171754796Y-69996046D01*
X171727495Y-69968721D01*
X171599045Y-69840631D01*
X171499760Y-69743072D01*
X171425310Y-69672460D01*
X171371364Y-69625210D01*
X171333589Y-69597736D01*
X171307654Y-69586456D01*
X171289228Y-69587784D01*
X171273979Y-69598136D01*
X171247770Y-69633154D01*
X171230192Y-69694185D01*
X171230375Y-69700475D01*
X171235888Y-69728123D01*
X171251658Y-69761594D01*
X171281163Y-69804984D01*
X171327877Y-69862388D01*
X171395277Y-69937900D01*
X171486839Y-70035616D01*
X171606039Y-70159630D01*
X171756354Y-70314038D01*
X171856978Y-70418565D01*
X172009663Y-70583553D01*
X172145220Y-70738027D01*
X172259940Y-70877416D01*
X172350116Y-70997148D01*
X172412038Y-71092653D01*
X172442000Y-71159357D01*
X172445785Y-71181420D01*
X172440756Y-71241419D01*
X172413386Y-71317246D01*
X172360646Y-71416091D01*
X172279509Y-71545143D01*
X172181367Y-71681731D01*
X171999233Y-71880803D01*
X171799112Y-72038547D01*
X171583951Y-72153183D01*
X171356694Y-72222931D01*
X171120288Y-72246008D01*
X170908490Y-72229958D01*
X170666042Y-72169531D01*
X170435798Y-72063365D01*
X170215920Y-71910577D01*
X170004571Y-71710285D01*
X169982992Y-71686589D01*
X169822413Y-71486094D01*
X169671266Y-71256908D01*
X169535467Y-71010647D01*
X169420930Y-70758932D01*
X169333570Y-70513381D01*
X169279303Y-70285612D01*
X169269026Y-70209043D01*
X169257480Y-70033783D01*
X169257017Y-69841174D01*
X169267412Y-69651153D01*
X169288436Y-69483654D01*
X169336326Y-69256271D01*
X169404036Y-69022736D01*
X169491827Y-68791450D01*
X169602101Y-68558505D01*
X169737257Y-68319989D01*
X169899695Y-68071994D01*
X170091816Y-67810610D01*
X170316021Y-67531925D01*
X170574709Y-67232032D01*
X170870281Y-66907019D01*
X170911192Y-66863131D01*
X171086052Y-66678239D01*
X171280716Y-66476046D01*
X171489278Y-66262439D01*
X171705829Y-66043305D01*
X171924463Y-65824531D01*
X172139272Y-65612002D01*
X172344349Y-65411606D01*
X172533786Y-65229229D01*
X172701678Y-65070758D01*
X172842115Y-64942080D01*
X172897787Y-64892617D01*
X173033193Y-64778034D01*
X173146562Y-64693738D01*
X173245934Y-64635501D01*
X173339351Y-64599093D01*
X173434855Y-64580287D01*
X173540487Y-64574854D01*
X173629323Y-64578082D01*
G37*
G36*
X174916886Y-82264076D02*
G01*
X175219730Y-82273586D01*
X175644635Y-82296381D01*
X176055368Y-82329360D01*
X176447622Y-82371832D01*
X176817092Y-82423105D01*
X177159469Y-82482486D01*
X177470449Y-82549282D01*
X177745724Y-82622803D01*
X177980987Y-82702355D01*
X178171933Y-82787247D01*
X178205343Y-82805330D01*
X178395082Y-82937676D01*
X178547730Y-83098948D01*
X178662319Y-83285596D01*
X178737885Y-83494066D01*
X178773463Y-83720807D01*
X178768087Y-83962266D01*
X178720792Y-84214891D01*
X178630612Y-84475129D01*
X178591921Y-84561213D01*
X178470430Y-84787995D01*
X178330324Y-84997528D01*
X178179101Y-85179330D01*
X178024257Y-85322922D01*
X178024214Y-85322955D01*
X177975965Y-85361736D01*
X177938488Y-85389225D01*
X177903617Y-85404854D01*
X177863185Y-85408054D01*
X177809024Y-85398256D01*
X177732967Y-85374890D01*
X177626848Y-85337389D01*
X177482500Y-85285182D01*
X177367058Y-85244327D01*
X177105947Y-85155895D01*
X176829472Y-85066961D01*
X176546358Y-84980050D01*
X176265333Y-84897688D01*
X175995125Y-84822401D01*
X175744462Y-84756714D01*
X175522070Y-84703153D01*
X175336677Y-84664242D01*
X175198903Y-84640983D01*
X175060688Y-84626865D01*
X174958659Y-84631001D01*
X174887317Y-84654438D01*
X174841160Y-84698220D01*
X174814689Y-84763392D01*
X174811312Y-84786089D01*
X174822240Y-84807233D01*
X174861046Y-84820403D01*
X174938152Y-84831332D01*
X175095576Y-84854503D01*
X175311612Y-84896030D01*
X175558469Y-84951613D01*
X175828340Y-85019198D01*
X176113417Y-85096736D01*
X176405895Y-85182172D01*
X176697967Y-85273456D01*
X176981827Y-85368536D01*
X176997210Y-85373886D01*
X177141027Y-85424837D01*
X177247224Y-85465187D01*
X177323950Y-85498881D01*
X177379351Y-85529865D01*
X177421576Y-85562085D01*
X177458772Y-85599485D01*
X177581954Y-85770731D01*
X177668178Y-85970562D01*
X177714548Y-86192393D01*
X177719439Y-86431033D01*
X177708531Y-86537869D01*
X177650667Y-86805545D01*
X177552739Y-87071565D01*
X177419782Y-87325665D01*
X177256833Y-87557580D01*
X177068927Y-87757045D01*
X177037459Y-87785980D01*
X176984296Y-87835643D01*
X176939015Y-87874466D01*
X176896246Y-87901835D01*
X176850622Y-87917134D01*
X176796776Y-87919748D01*
X176729339Y-87909063D01*
X176642945Y-87884462D01*
X176532225Y-87845332D01*
X176391813Y-87791057D01*
X176216339Y-87721022D01*
X176000437Y-87634612D01*
X175866575Y-87581393D01*
X175669195Y-87503350D01*
X175480255Y-87429122D01*
X175307135Y-87361585D01*
X175157212Y-87303613D01*
X175037866Y-87258081D01*
X174956474Y-87227864D01*
X174952684Y-87226496D01*
X174832820Y-87181788D01*
X174686837Y-87125245D01*
X174532836Y-87063973D01*
X174388922Y-87005077D01*
X174342008Y-86985798D01*
X174229501Y-86941836D01*
X174135726Y-86908379D01*
X174069372Y-86888412D01*
X174039130Y-86884920D01*
X174019099Y-86915027D01*
X174015461Y-86974435D01*
X174031989Y-87041021D01*
X174066223Y-87095646D01*
X174087327Y-87114113D01*
X174130360Y-87143282D01*
X174192199Y-87177424D01*
X174276705Y-87218233D01*
X174387745Y-87267402D01*
X174529182Y-87326626D01*
X174704880Y-87397600D01*
X174918705Y-87482017D01*
X175174519Y-87581572D01*
X175286928Y-87625281D01*
X175538617Y-87724927D01*
X175750280Y-87811891D01*
X175926373Y-87888326D01*
X176071351Y-87956386D01*
X176189669Y-88018223D01*
X176285785Y-88075992D01*
X176364153Y-88131844D01*
X176429228Y-88187934D01*
X176436121Y-88194522D01*
X176542140Y-88311458D01*
X176612153Y-88429502D01*
X176652878Y-88563685D01*
X176671033Y-88729038D01*
X176673453Y-88822000D01*
X176669958Y-88913338D01*
X176658678Y-89006276D01*
X176637891Y-89106961D01*
X176605873Y-89221541D01*
X176560899Y-89356162D01*
X176501247Y-89516972D01*
X176425193Y-89710119D01*
X176331014Y-89941750D01*
X176285934Y-90052061D01*
X176215755Y-90224310D01*
X176159253Y-90359045D01*
X176112287Y-90460826D01*
X176070717Y-90534212D01*
X176030399Y-90583765D01*
X175987194Y-90614043D01*
X175936960Y-90629608D01*
X175875555Y-90635017D01*
X175798838Y-90634833D01*
X175702668Y-90633614D01*
X175650065Y-90632779D01*
X175362936Y-90602913D01*
X175084147Y-90532639D01*
X174820522Y-90425207D01*
X174578883Y-90283867D01*
X174366054Y-90111871D01*
X174188856Y-89912467D01*
X174148825Y-89861395D01*
X174096111Y-89803968D01*
X174031858Y-89745792D01*
X173948546Y-89680662D01*
X173838655Y-89602372D01*
X173694665Y-89504719D01*
X173411672Y-89310428D01*
X173027027Y-89026640D01*
X172682381Y-88745714D01*
X172373073Y-88463312D01*
X172094445Y-88175093D01*
X171841834Y-87876718D01*
X171610583Y-87563846D01*
X171601422Y-87550574D01*
X171543407Y-87464473D01*
X171508192Y-87403430D01*
X171490933Y-87354306D01*
X171486786Y-87303968D01*
X171490907Y-87239277D01*
X171499038Y-87160770D01*
X171548287Y-86869001D01*
X171626571Y-86559297D01*
X171729413Y-86244367D01*
X171852338Y-85936917D01*
X171990867Y-85649655D01*
X172140525Y-85395288D01*
X172193707Y-85314466D01*
X172253251Y-85227526D01*
X172300884Y-85169396D01*
X172345854Y-85133283D01*
X172397409Y-85112391D01*
X172464796Y-85099926D01*
X172557263Y-85089093D01*
X172772189Y-85064671D01*
X172947585Y-85224872D01*
X172991707Y-85264054D01*
X173071158Y-85329258D01*
X173137509Y-85377132D01*
X173179733Y-85399385D01*
X173218151Y-85403066D01*
X173281889Y-85390919D01*
X173333650Y-85363464D01*
X173355000Y-85328190D01*
X173352977Y-85322144D01*
X173325838Y-85284406D01*
X173271988Y-85222248D01*
X173197724Y-85142729D01*
X173109346Y-85052907D01*
X173102426Y-85046028D01*
X172997871Y-84939698D01*
X172893040Y-84829229D01*
X172799763Y-84727287D01*
X172729865Y-84646538D01*
X172596039Y-84483941D01*
X172646276Y-84237421D01*
X172708599Y-83975677D01*
X172794003Y-83698053D01*
X172895035Y-83432337D01*
X173008591Y-83184669D01*
X173131566Y-82961191D01*
X173260856Y-82768042D01*
X173393356Y-82611366D01*
X173525961Y-82497303D01*
X173549362Y-82481474D01*
X173658559Y-82416245D01*
X173773048Y-82363959D01*
X173899003Y-82323580D01*
X174042600Y-82294075D01*
X174210013Y-82274407D01*
X174407415Y-82263542D01*
X174640981Y-82260443D01*
X174916886Y-82264076D01*
G37*
G36*
X175919979Y-76149363D02*
G01*
X175527074Y-76196278D01*
X175272211Y-76214133D01*
X175387342Y-76327929D01*
X175451861Y-76385983D01*
X175547839Y-76447539D01*
X175668208Y-76494956D01*
X175701238Y-76505103D01*
X175752261Y-76518304D01*
X175809051Y-76529025D01*
X175877761Y-76537739D01*
X175964545Y-76544921D01*
X176075556Y-76551043D01*
X176216947Y-76556577D01*
X176394871Y-76561997D01*
X176615480Y-76567776D01*
X176791624Y-76572291D01*
X177004203Y-76578265D01*
X177178755Y-76584180D01*
X177321618Y-76590529D01*
X177439135Y-76597807D01*
X177537644Y-76606509D01*
X177623487Y-76617127D01*
X177703003Y-76630156D01*
X177782533Y-76646091D01*
X177868417Y-76665425D01*
X177922874Y-76678826D01*
X178209643Y-76776587D01*
X178466234Y-76912347D01*
X178691450Y-77084851D01*
X178884092Y-77292844D01*
X179042963Y-77535072D01*
X179166864Y-77810279D01*
X179254597Y-78117211D01*
X179275309Y-78242445D01*
X179292130Y-78430554D01*
X179298566Y-78637105D01*
X179294604Y-78845762D01*
X179280232Y-79040185D01*
X179255437Y-79204038D01*
X179193124Y-79425623D01*
X179093848Y-79661804D01*
X178967000Y-79886961D01*
X178818671Y-80091667D01*
X178654948Y-80266491D01*
X178481920Y-80402005D01*
X178445964Y-80425683D01*
X178396584Y-80464681D01*
X178378596Y-80496161D01*
X178383993Y-80530640D01*
X178408685Y-80570281D01*
X178460428Y-80612892D01*
X178494499Y-80623616D01*
X178577496Y-80615565D01*
X178672453Y-80570786D01*
X178770537Y-80492703D01*
X178849633Y-80416152D01*
X178913388Y-80475624D01*
X178939830Y-80504217D01*
X178993010Y-80576140D01*
X179041888Y-80657211D01*
X179042861Y-80659047D01*
X179063620Y-80699753D01*
X179079416Y-80738009D01*
X179091043Y-80781145D01*
X179099296Y-80836486D01*
X179104969Y-80911360D01*
X179108857Y-81013095D01*
X179111754Y-81149018D01*
X179114455Y-81326456D01*
X179115366Y-81398737D01*
X179116473Y-81555066D01*
X179116302Y-81693900D01*
X179114925Y-81807404D01*
X179112417Y-81887743D01*
X179108849Y-81927081D01*
X179091403Y-81957476D01*
X179032648Y-82003415D01*
X178930067Y-82056709D01*
X178908477Y-82066578D01*
X178775558Y-82122945D01*
X178654265Y-82163976D01*
X178532543Y-82191878D01*
X178398334Y-82208859D01*
X178239582Y-82217126D01*
X178044230Y-82218886D01*
X177997242Y-82218687D01*
X177854611Y-82217157D01*
X177746860Y-82213429D01*
X177663051Y-82206283D01*
X177592242Y-82194500D01*
X177523493Y-82176857D01*
X177445865Y-82152135D01*
X177437611Y-82149343D01*
X177322412Y-82105223D01*
X177206288Y-82053050D01*
X177113194Y-82003526D01*
X176975907Y-81920263D01*
X175745501Y-81892429D01*
X175711043Y-81891641D01*
X175466224Y-81885536D01*
X175232714Y-81878864D01*
X175015875Y-81871837D01*
X174821066Y-81864662D01*
X174653650Y-81857550D01*
X174518988Y-81850709D01*
X174422442Y-81844350D01*
X174369371Y-81838681D01*
X174363707Y-81837656D01*
X174163854Y-81777186D01*
X173985076Y-81675446D01*
X173829696Y-81536192D01*
X173700039Y-81363182D01*
X173598426Y-81160174D01*
X173527183Y-80930926D01*
X173488632Y-80679194D01*
X173485099Y-80408737D01*
X173501655Y-80220759D01*
X173556265Y-79928897D01*
X173643444Y-79663656D01*
X173761557Y-79429583D01*
X173908965Y-79231224D01*
X174027684Y-79099659D01*
X174135888Y-79154861D01*
X174231697Y-79199570D01*
X174447441Y-79278349D01*
X174686057Y-79340609D01*
X174719004Y-79346730D01*
X174841423Y-79361079D01*
X174997759Y-79370836D01*
X175177120Y-79375934D01*
X175368612Y-79376302D01*
X175561343Y-79371872D01*
X175744420Y-79362575D01*
X175906951Y-79348342D01*
X175958982Y-79342812D01*
X176061576Y-79334818D01*
X176160834Y-79332517D01*
X176269682Y-79336187D01*
X176401046Y-79346106D01*
X176567854Y-79362551D01*
X176646483Y-79370749D01*
X176785469Y-79384119D01*
X176885070Y-79390065D01*
X176951581Y-79387070D01*
X176991296Y-79373614D01*
X177010512Y-79348181D01*
X177015523Y-79309253D01*
X177012624Y-79255311D01*
X177011216Y-79241512D01*
X176992835Y-79179349D01*
X176952992Y-79130949D01*
X176887903Y-79095678D01*
X176793784Y-79072901D01*
X176666852Y-79061984D01*
X176503323Y-79062290D01*
X176299413Y-79073186D01*
X176051337Y-79094036D01*
X175933041Y-79104086D01*
X175705086Y-79117913D01*
X175475017Y-79125418D01*
X175251274Y-79126724D01*
X175042297Y-79121957D01*
X174856526Y-79111241D01*
X174702402Y-79094700D01*
X174588365Y-79072459D01*
X174382999Y-79000582D01*
X174160119Y-78878351D01*
X173963665Y-78716155D01*
X173916873Y-78668662D01*
X173810359Y-78546435D01*
X173730744Y-78425466D01*
X173668207Y-78289075D01*
X173612924Y-78120585D01*
X173574410Y-77954414D01*
X173547536Y-77685469D01*
X173560297Y-77414275D01*
X173611865Y-77152153D01*
X173701413Y-76910423D01*
X173737689Y-76842720D01*
X173846623Y-76689385D01*
X173983654Y-76543143D01*
X174135514Y-76417219D01*
X174288935Y-76324838D01*
X174315734Y-76312678D01*
X174454056Y-76261788D01*
X174611774Y-76218210D01*
X174768015Y-76187092D01*
X174901908Y-76173586D01*
X174910689Y-76173176D01*
X174923426Y-76167060D01*
X174888946Y-76154336D01*
X174808173Y-76135377D01*
X174711664Y-76111810D01*
X174488722Y-76038036D01*
X174258010Y-75938315D01*
X174036600Y-75819631D01*
X173993674Y-75792554D01*
X173860801Y-75695222D01*
X173714296Y-75572227D01*
X173564981Y-75433887D01*
X173423678Y-75290521D01*
X173301210Y-75152447D01*
X173208398Y-75029984D01*
X173188856Y-75000368D01*
X173012440Y-74693971D01*
X172856377Y-74350058D01*
X172723315Y-73975976D01*
X172615902Y-73579071D01*
X172536787Y-73166691D01*
X172516354Y-72996114D01*
X172505888Y-72667745D01*
X172530175Y-72336702D01*
X172587896Y-72016515D01*
X172677731Y-71720712D01*
X172683451Y-71705657D01*
X172714978Y-71631780D01*
X172748616Y-71584428D01*
X172798715Y-71548560D01*
X172879630Y-71509136D01*
X173030291Y-71447445D01*
X173199910Y-71397728D01*
X173384026Y-71366029D01*
X173599230Y-71348647D01*
X173686751Y-71345169D01*
X173814559Y-71344708D01*
X173908469Y-71352294D01*
X173977788Y-71368414D01*
X173992638Y-71373422D01*
X174028716Y-71386899D01*
X174052963Y-71403940D01*
X174066190Y-71432009D01*
X174069208Y-71478571D01*
X174062829Y-71551088D01*
X174047864Y-71657025D01*
X174025125Y-71803846D01*
X174008696Y-71916800D01*
X173996950Y-72028672D01*
X173993466Y-72132230D01*
X173997731Y-72246374D01*
X174009232Y-72390000D01*
X174023146Y-72518224D01*
X174080796Y-72852381D01*
X174166323Y-73171068D01*
X174276773Y-73464445D01*
X174409194Y-73722669D01*
X174446461Y-73783594D01*
X174564583Y-73959066D01*
X174671062Y-74088453D01*
X174765612Y-74171492D01*
X174847950Y-74207915D01*
X174917793Y-74197459D01*
X174948252Y-74178927D01*
X174966923Y-74160875D01*
X174956862Y-74145615D01*
X174921208Y-74103403D01*
X174868666Y-74045725D01*
X174719541Y-73862295D01*
X174566351Y-73611311D01*
X174435098Y-73321717D01*
X174327291Y-72996913D01*
X174299921Y-72879104D01*
X176042918Y-72879104D01*
X176045320Y-72973827D01*
X176070713Y-73075555D01*
X176116922Y-73172110D01*
X176181771Y-73251313D01*
X176217214Y-73278477D01*
X176246988Y-73276797D01*
X176292443Y-73244800D01*
X176294813Y-73242914D01*
X176364572Y-73157164D01*
X176395081Y-73048816D01*
X176383542Y-72927609D01*
X176372801Y-72892842D01*
X176322972Y-72798572D01*
X176256826Y-72744816D01*
X176179422Y-72734349D01*
X176095819Y-72769942D01*
X176065680Y-72803566D01*
X176042918Y-72879104D01*
X174299921Y-72879104D01*
X174244440Y-72640295D01*
X174225383Y-72505989D01*
X174213153Y-72316116D01*
X174213332Y-72115607D01*
X174225382Y-71919061D01*
X174248765Y-71741076D01*
X174282943Y-71596250D01*
X174290031Y-71574315D01*
X174360681Y-71385632D01*
X174441572Y-71228797D01*
X174541941Y-71088401D01*
X174671027Y-70949038D01*
X174719949Y-70902588D01*
X174868823Y-70781730D01*
X175031950Y-70681540D01*
X175220852Y-70595609D01*
X175447055Y-70517528D01*
X175526622Y-70494163D01*
X175605677Y-70475031D01*
X175684405Y-70462472D01*
X175775098Y-70455096D01*
X175890046Y-70451514D01*
X176041538Y-70450337D01*
X176108092Y-70450397D01*
X176281112Y-70454309D01*
X176424300Y-70466229D01*
X176551811Y-70489254D01*
X176677799Y-70526475D01*
X176816420Y-70580989D01*
X176981827Y-70655889D01*
X177164428Y-70749609D01*
X177348906Y-70867476D01*
X177521924Y-71007454D01*
X177698964Y-71180880D01*
X177803873Y-71297350D01*
X177963711Y-71505880D01*
X178102165Y-71733065D01*
X178225038Y-71988915D01*
X178338134Y-72283440D01*
X178361263Y-72351410D01*
X178440586Y-72617094D01*
X178493677Y-72863921D01*
X178523419Y-73107913D01*
X178532692Y-73365091D01*
X178531011Y-73480525D01*
X178506888Y-73786431D01*
X178451737Y-74069080D01*
X178362483Y-74341446D01*
X178236048Y-74616501D01*
X178229798Y-74628418D01*
X178123161Y-74810693D01*
X177997620Y-74993867D01*
X177864686Y-75162213D01*
X177735865Y-75300004D01*
X177610637Y-75411644D01*
X177328653Y-75618308D01*
X177012706Y-75797801D01*
X176668684Y-75947735D01*
X176302479Y-76065718D01*
X176217214Y-76084364D01*
X175919979Y-76149363D01*
G37*
D12*
%TO.C,SW1*%
X138430000Y-142240000D02*
X138430000Y-128240000D01*
X140970000Y-142240000D02*
X152970000Y-142240000D01*
D10*
X139700000Y-126970000D02*
X151700000Y-126970000D01*
D12*
X154240000Y-142240000D02*
X154240000Y-128240000D01*
%TO.C,G\u002A\u002A\u002A*%
G36*
X124832534Y-91821824D02*
G01*
X124830204Y-91842429D01*
X124807907Y-91882297D01*
X124753690Y-91926821D01*
X124657470Y-91983412D01*
X124509166Y-92059480D01*
X124403328Y-92113880D01*
X124294440Y-92174753D01*
X124223116Y-92220805D01*
X124201168Y-92244923D01*
X124218738Y-92258514D01*
X124287084Y-92298341D01*
X124393604Y-92354873D01*
X124524536Y-92420634D01*
X124589448Y-92452802D01*
X124711433Y-92517501D01*
X124785660Y-92566648D01*
X124822552Y-92607980D01*
X124832534Y-92649234D01*
X124832534Y-92726933D01*
X123444000Y-92726933D01*
X123444000Y-92557600D01*
X123884267Y-92557600D01*
X123916837Y-92557525D01*
X124076344Y-92554814D01*
X124205845Y-92548790D01*
X124292766Y-92540242D01*
X124324534Y-92529961D01*
X124297429Y-92503257D01*
X124224320Y-92458262D01*
X124121334Y-92405200D01*
X124102229Y-92395974D01*
X123992543Y-92335890D01*
X123934883Y-92285609D01*
X123918134Y-92235867D01*
X123918401Y-92228949D01*
X123939952Y-92179670D01*
X124003890Y-92128619D01*
X124121334Y-92066534D01*
X124222414Y-92014535D01*
X124296314Y-91969269D01*
X124324534Y-91941773D01*
X124323332Y-91939728D01*
X124280149Y-91929715D01*
X124184194Y-91921585D01*
X124048042Y-91916128D01*
X123884267Y-91914134D01*
X123444000Y-91914134D01*
X123444000Y-91744800D01*
X124832534Y-91744800D01*
X124832534Y-91821824D01*
G37*
G36*
X123542225Y-94420645D02*
G01*
X123597412Y-94443127D01*
X123619551Y-94513400D01*
X123630267Y-94606534D01*
X124104005Y-94616008D01*
X124577743Y-94625483D01*
X124705138Y-94749882D01*
X124709840Y-94754503D01*
X124803840Y-94872092D01*
X124832428Y-94979564D01*
X124795374Y-95084940D01*
X124692451Y-95196241D01*
X124634541Y-95244838D01*
X124577202Y-95283141D01*
X124539185Y-95284946D01*
X124502264Y-95255978D01*
X124494394Y-95247971D01*
X124468470Y-95209365D01*
X124481206Y-95169078D01*
X124537880Y-95104684D01*
X124550345Y-95091386D01*
X124615381Y-94998575D01*
X124620262Y-94921176D01*
X124566244Y-94847803D01*
X124562482Y-94844499D01*
X124525151Y-94821661D01*
X124469151Y-94806980D01*
X124382241Y-94799290D01*
X124252175Y-94797426D01*
X124066710Y-94800220D01*
X123630267Y-94809734D01*
X123620110Y-95004467D01*
X123613447Y-95102147D01*
X123600320Y-95166836D01*
X123574072Y-95193802D01*
X123526977Y-95199200D01*
X123525459Y-95199199D01*
X123480089Y-95194366D01*
X123455715Y-95169480D01*
X123445847Y-95108654D01*
X123444000Y-94996000D01*
X123444000Y-94792800D01*
X123342400Y-94792800D01*
X123299935Y-94790941D01*
X123252205Y-94769399D01*
X123240800Y-94710383D01*
X123241299Y-94694136D01*
X123263932Y-94639086D01*
X123333934Y-94617250D01*
X123349463Y-94615120D01*
X123413527Y-94585937D01*
X123437783Y-94513400D01*
X123439915Y-94497699D01*
X123466298Y-94436593D01*
X123528667Y-94420267D01*
X123542225Y-94420645D01*
G37*
G36*
X124653669Y-106585710D02*
G01*
X124675257Y-106607125D01*
X124760195Y-106696733D01*
X124807552Y-106764697D01*
X124828080Y-106830805D01*
X124832534Y-106914845D01*
X124832456Y-106930115D01*
X124825982Y-107010542D01*
X124801501Y-107076703D01*
X124748357Y-107148592D01*
X124655890Y-107246202D01*
X124479247Y-107425067D01*
X123779765Y-107425067D01*
X123611883Y-107268032D01*
X123574886Y-107233226D01*
X123500798Y-107157245D01*
X123461766Y-107094858D01*
X123446572Y-107022615D01*
X123444000Y-106917067D01*
X123444067Y-106900637D01*
X123618144Y-106900637D01*
X123638805Y-107004219D01*
X123725012Y-107113623D01*
X123727675Y-107116202D01*
X123783281Y-107166724D01*
X123834484Y-107197871D01*
X123899318Y-107214323D01*
X123995815Y-107220761D01*
X124142010Y-107221867D01*
X124276497Y-107220896D01*
X124377176Y-107215049D01*
X124442876Y-107200187D01*
X124490844Y-107172175D01*
X124538331Y-107126880D01*
X124581560Y-107072979D01*
X124629570Y-106946848D01*
X124613794Y-106819506D01*
X124534347Y-106703270D01*
X124494397Y-106667573D01*
X124444514Y-106637376D01*
X124379634Y-106620760D01*
X124282183Y-106613723D01*
X124134591Y-106612267D01*
X124116416Y-106612270D01*
X123976938Y-106613581D01*
X123885518Y-106620590D01*
X123824353Y-106638111D01*
X123775640Y-106670958D01*
X123721577Y-106723946D01*
X123662949Y-106793781D01*
X123618144Y-106900637D01*
X123444067Y-106900637D01*
X123444174Y-106874167D01*
X123449957Y-106783175D01*
X123472358Y-106717132D01*
X123522595Y-106652591D01*
X123611883Y-106566101D01*
X123779765Y-106409067D01*
X124474804Y-106409067D01*
X124653669Y-106585710D01*
G37*
G36*
X120794489Y-107425082D02*
G01*
X120869179Y-107431574D01*
X120898758Y-107464155D01*
X120904000Y-107543600D01*
X120903985Y-107552622D01*
X120897493Y-107627312D01*
X120864912Y-107656891D01*
X120785467Y-107662134D01*
X120776445Y-107662119D01*
X120701755Y-107655626D01*
X120672176Y-107623045D01*
X120666934Y-107543600D01*
X120666948Y-107534578D01*
X120673441Y-107459888D01*
X120706022Y-107430309D01*
X120785467Y-107425067D01*
X120794489Y-107425082D01*
G37*
G36*
X121656551Y-92988340D02*
G01*
X121711321Y-93043118D01*
X121788194Y-93126834D01*
X121830550Y-93191758D01*
X121848528Y-93255982D01*
X121852267Y-93337604D01*
X121847127Y-93427938D01*
X121817962Y-93512031D01*
X121750667Y-93590534D01*
X121727463Y-93613493D01*
X121671466Y-93676748D01*
X121649067Y-93715403D01*
X121649074Y-93715725D01*
X121679305Y-93734952D01*
X121750667Y-93742934D01*
X121804291Y-93746046D01*
X121843875Y-93772570D01*
X121852267Y-93844534D01*
X121852267Y-93946134D01*
X119718667Y-93946134D01*
X119718667Y-93742934D01*
X120023467Y-93742934D01*
X120091522Y-93742210D01*
X120212975Y-93736689D01*
X120296926Y-93726918D01*
X120328267Y-93714316D01*
X120310971Y-93679613D01*
X120260533Y-93624400D01*
X120222844Y-93577085D01*
X120199371Y-93497727D01*
X120192842Y-93373353D01*
X120425230Y-93373353D01*
X120458610Y-93492728D01*
X120558295Y-93617527D01*
X120686723Y-93742934D01*
X121296013Y-93742934D01*
X121455607Y-93580904D01*
X121513466Y-93519169D01*
X121590620Y-93411053D01*
X121611275Y-93318056D01*
X121576351Y-93226641D01*
X121486772Y-93123273D01*
X121358344Y-92997867D01*
X120680680Y-92997867D01*
X120555273Y-93126295D01*
X120458115Y-93252760D01*
X120425230Y-93373353D01*
X120192842Y-93373353D01*
X120192800Y-93372558D01*
X120194043Y-93290313D01*
X120204358Y-93217765D01*
X120233624Y-93156178D01*
X120291718Y-93086166D01*
X120388516Y-92988340D01*
X120584231Y-92794667D01*
X121460836Y-92794667D01*
X121656551Y-92988340D01*
G37*
G36*
X120431299Y-103949953D02*
G01*
X120270989Y-104112710D01*
X120110680Y-104275467D01*
X121615200Y-104275467D01*
X121615200Y-103902933D01*
X121852267Y-103902933D01*
X121852267Y-104885067D01*
X121615200Y-104885067D01*
X121615200Y-104512533D01*
X119718667Y-104512533D01*
X119718667Y-104437041D01*
X119720831Y-104422594D01*
X119762279Y-104346171D01*
X119854882Y-104231828D01*
X119996626Y-104082138D01*
X120274585Y-103802727D01*
X120431299Y-103949953D01*
G37*
G36*
X121656551Y-91396607D02*
G01*
X121746830Y-91487323D01*
X121807617Y-91558340D01*
X121838937Y-91619827D01*
X121850563Y-91691600D01*
X121852267Y-91793475D01*
X121851717Y-91863200D01*
X121844002Y-91947326D01*
X121818912Y-92012651D01*
X121766201Y-92081334D01*
X121675624Y-92175535D01*
X121663684Y-92187538D01*
X121574212Y-92272059D01*
X121501650Y-92331770D01*
X121460739Y-92354400D01*
X121424502Y-92340816D01*
X121367049Y-92293130D01*
X121364541Y-92290342D01*
X121339452Y-92253989D01*
X121342881Y-92217518D01*
X121381854Y-92165593D01*
X121463400Y-92082878D01*
X121511801Y-92034003D01*
X121577275Y-91954414D01*
X121607726Y-91883474D01*
X121615200Y-91798628D01*
X121592051Y-91674683D01*
X121517387Y-91554326D01*
X121405175Y-91471087D01*
X121269890Y-91440000D01*
X121141067Y-91440000D01*
X121141067Y-92388267D01*
X120617956Y-92388267D01*
X120405378Y-92177579D01*
X120309259Y-92080655D01*
X120244045Y-92005767D01*
X120209342Y-91944853D01*
X120195643Y-91880821D01*
X120193440Y-91796579D01*
X120193841Y-91781873D01*
X120429867Y-91781873D01*
X120433664Y-91821176D01*
X120481659Y-91937601D01*
X120570238Y-92043841D01*
X120680954Y-92121254D01*
X120795361Y-92151200D01*
X120904000Y-92151200D01*
X120904000Y-91440000D01*
X120775177Y-91440000D01*
X120658180Y-91464395D01*
X120542656Y-91540492D01*
X120460893Y-91651920D01*
X120429867Y-91781873D01*
X120193841Y-91781873D01*
X120195392Y-91725011D01*
X120207508Y-91657014D01*
X120239278Y-91594367D01*
X120300232Y-91519440D01*
X120399899Y-91414600D01*
X120605718Y-91202934D01*
X121460836Y-91202934D01*
X121656551Y-91396607D01*
G37*
G36*
X124832534Y-99940534D02*
G01*
X123898369Y-99940534D01*
X123755851Y-100085749D01*
X123693559Y-100154069D01*
X123635674Y-100230436D01*
X123613334Y-100278870D01*
X123617691Y-100296797D01*
X123656206Y-100361221D01*
X123721577Y-100438455D01*
X123829821Y-100550134D01*
X124832534Y-100550134D01*
X124832534Y-100753334D01*
X123779765Y-100753334D01*
X123611883Y-100596299D01*
X123609471Y-100594043D01*
X123519709Y-100505678D01*
X123469929Y-100439015D01*
X123448553Y-100372578D01*
X123444000Y-100284886D01*
X123446638Y-100219046D01*
X123472139Y-100120432D01*
X123535003Y-100035520D01*
X123626006Y-99940534D01*
X123535003Y-99940534D01*
X123491712Y-99937791D01*
X123452786Y-99911231D01*
X123444000Y-99838934D01*
X123444000Y-99737334D01*
X124832534Y-99737334D01*
X124832534Y-99940534D01*
G37*
G36*
X124670504Y-101251594D02*
G01*
X124686392Y-101267289D01*
X124767083Y-101352098D01*
X124810428Y-101417514D01*
X124827430Y-101486444D01*
X124829088Y-101581794D01*
X124828850Y-101592656D01*
X124822251Y-101685037D01*
X124799729Y-101752275D01*
X124749175Y-101817118D01*
X124658480Y-101902316D01*
X124641635Y-101917389D01*
X124557196Y-101989667D01*
X124504589Y-102022622D01*
X124468778Y-102022523D01*
X124434729Y-101995643D01*
X124410888Y-101968449D01*
X124403681Y-101933720D01*
X124432477Y-101886828D01*
X124503737Y-101810433D01*
X124585510Y-101710560D01*
X124628142Y-101597730D01*
X124606550Y-101488199D01*
X124521090Y-101373012D01*
X124425322Y-101294638D01*
X124317890Y-101261334D01*
X124222934Y-101261334D01*
X124222934Y-102074134D01*
X123995497Y-102074134D01*
X123934795Y-102073945D01*
X123833323Y-102068423D01*
X123762084Y-102047136D01*
X123695009Y-101999403D01*
X123606030Y-101914540D01*
X123598184Y-101906800D01*
X123513697Y-101818675D01*
X123467407Y-101751122D01*
X123447959Y-101681084D01*
X123444000Y-101585503D01*
X123444003Y-101581797D01*
X123444578Y-101569569D01*
X123613334Y-101569569D01*
X123614985Y-101590069D01*
X123656414Y-101685618D01*
X123738624Y-101776425D01*
X123841554Y-101844270D01*
X123945146Y-101870934D01*
X124053600Y-101870934D01*
X124053600Y-101588711D01*
X124053317Y-101543883D01*
X124049262Y-101418539D01*
X124041400Y-101326075D01*
X124031022Y-101283911D01*
X123976380Y-101258521D01*
X123888492Y-101270110D01*
X123792190Y-101317988D01*
X123703528Y-101391177D01*
X123638558Y-101478697D01*
X123613334Y-101569569D01*
X123444578Y-101569569D01*
X123448466Y-101486841D01*
X123469053Y-101416136D01*
X123517013Y-101346320D01*
X123603594Y-101254030D01*
X123763187Y-101092000D01*
X124508474Y-101092000D01*
X124670504Y-101251594D01*
G37*
G36*
X120320356Y-99330948D02*
G01*
X120395046Y-99337441D01*
X120424624Y-99370022D01*
X120429867Y-99449467D01*
X120429867Y-99568000D01*
X121615200Y-99568000D01*
X121615200Y-99449467D01*
X121615215Y-99440445D01*
X121621708Y-99365755D01*
X121654289Y-99336176D01*
X121733734Y-99330934D01*
X121852267Y-99330934D01*
X121852267Y-100008267D01*
X121733734Y-100008267D01*
X121724711Y-100008252D01*
X121650021Y-100001759D01*
X121620443Y-99969178D01*
X121615200Y-99889734D01*
X121615200Y-99771200D01*
X120192800Y-99771200D01*
X120192800Y-99330934D01*
X120311333Y-99330934D01*
X120320356Y-99330948D01*
G37*
G36*
X121852267Y-106172000D02*
G01*
X121479734Y-106172000D01*
X121479734Y-105765600D01*
X121852267Y-105765600D01*
X121852267Y-106172000D01*
G37*
G36*
X124832534Y-95944267D02*
G01*
X123898369Y-95944267D01*
X123755851Y-96089482D01*
X123693559Y-96157802D01*
X123635674Y-96234169D01*
X123613334Y-96282603D01*
X123617691Y-96300530D01*
X123656206Y-96364954D01*
X123721577Y-96442188D01*
X123829821Y-96553867D01*
X124832534Y-96553867D01*
X124832534Y-96723200D01*
X123768060Y-96723200D01*
X123606030Y-96563607D01*
X123540713Y-96496928D01*
X123479310Y-96419772D01*
X123450909Y-96350811D01*
X123444000Y-96269126D01*
X123444039Y-96262100D01*
X123465167Y-96140520D01*
X123535003Y-96039253D01*
X123626006Y-95944267D01*
X123037600Y-95944267D01*
X123037600Y-95741067D01*
X124832534Y-95741067D01*
X124832534Y-95944267D01*
G37*
G36*
X124283948Y-90424068D02*
G01*
X124481228Y-90424849D01*
X124624499Y-90427196D01*
X124722385Y-90431952D01*
X124783509Y-90439963D01*
X124816493Y-90452071D01*
X124829961Y-90469120D01*
X124832534Y-90491956D01*
X124832508Y-90493606D01*
X124815857Y-90533646D01*
X124762486Y-90580577D01*
X124663699Y-90640554D01*
X124510800Y-90719733D01*
X124407299Y-90772559D01*
X124294461Y-90834113D01*
X124217516Y-90881025D01*
X124189067Y-90905999D01*
X124206247Y-90923041D01*
X124273182Y-90965566D01*
X124378901Y-91024406D01*
X124510800Y-91092266D01*
X124590132Y-91132201D01*
X124711340Y-91197673D01*
X124785407Y-91247356D01*
X124822436Y-91288689D01*
X124832534Y-91329110D01*
X124832534Y-91406134D01*
X123444000Y-91406134D01*
X123444000Y-91202934D01*
X123892734Y-91200900D01*
X124341467Y-91198867D01*
X124129800Y-91092068D01*
X124082825Y-91067638D01*
X123967083Y-90994333D01*
X123915307Y-90928923D01*
X123927793Y-90864802D01*
X124004836Y-90795362D01*
X124146734Y-90713999D01*
X124375334Y-90596665D01*
X123909667Y-90594999D01*
X123444000Y-90593334D01*
X123444000Y-90424000D01*
X124138267Y-90424000D01*
X124283948Y-90424068D01*
G37*
G36*
X123804320Y-102414325D02*
G01*
X123891185Y-102422219D01*
X123974058Y-102441428D01*
X124068981Y-102476894D01*
X124191996Y-102533562D01*
X124359146Y-102616374D01*
X124765250Y-102819948D01*
X124963824Y-102719708D01*
X125162397Y-102619469D01*
X125196532Y-102693934D01*
X125200929Y-102704408D01*
X125204830Y-102730314D01*
X125191729Y-102757399D01*
X125154354Y-102790501D01*
X125085437Y-102834460D01*
X124977708Y-102894115D01*
X124823897Y-102974304D01*
X124616734Y-103079867D01*
X124002800Y-103391334D01*
X123723400Y-103393134D01*
X123596083Y-103393322D01*
X123509131Y-103389224D01*
X123463873Y-103376707D01*
X123446700Y-103351733D01*
X123444000Y-103310267D01*
X123444958Y-103280270D01*
X123456661Y-103249247D01*
X123493350Y-103232952D01*
X123569272Y-103226649D01*
X123698677Y-103225600D01*
X123817667Y-103223345D01*
X123915070Y-103212469D01*
X124007868Y-103187059D01*
X124117445Y-103141203D01*
X124265187Y-103068988D01*
X124577020Y-102912376D01*
X124289910Y-102765889D01*
X124169443Y-102705830D01*
X124059565Y-102658528D01*
X123964713Y-102632289D01*
X123860716Y-102620787D01*
X123723400Y-102617701D01*
X123444000Y-102616000D01*
X123444000Y-102412800D01*
X123698521Y-102412800D01*
X123804320Y-102414325D01*
G37*
G36*
X121521553Y-94424237D02*
G01*
X121656551Y-94546207D01*
X121707291Y-94596920D01*
X121785958Y-94682143D01*
X121829570Y-94747751D01*
X121848286Y-94811692D01*
X121852267Y-94891912D01*
X121852141Y-94909361D01*
X121841536Y-95005966D01*
X121804273Y-95083579D01*
X121726860Y-95172372D01*
X121601454Y-95300800D01*
X121726860Y-95300800D01*
X121748898Y-95300884D01*
X121819827Y-95308296D01*
X121847532Y-95341399D01*
X121852267Y-95419334D01*
X121852267Y-95537867D01*
X120617956Y-95537867D01*
X120405378Y-95327179D01*
X120309350Y-95230344D01*
X120244051Y-95155349D01*
X120209219Y-95094244D01*
X120195315Y-95029882D01*
X120192800Y-94945118D01*
X120194171Y-94876078D01*
X120205200Y-94807283D01*
X120235765Y-94746025D01*
X120295706Y-94674223D01*
X120394861Y-94573794D01*
X120490712Y-94480041D01*
X120555788Y-94423152D01*
X120598228Y-94401364D01*
X120630948Y-94408189D01*
X120666865Y-94437138D01*
X120736807Y-94500434D01*
X120583337Y-94656247D01*
X120541448Y-94700803D01*
X120452481Y-94826179D01*
X120425504Y-94939674D01*
X120459956Y-95051626D01*
X120555273Y-95172372D01*
X120594326Y-95209450D01*
X120685756Y-95275719D01*
X120758473Y-95300800D01*
X121073334Y-95300800D01*
X121184673Y-95300800D01*
X121202736Y-95300283D01*
X121276991Y-95282838D01*
X121355236Y-95232616D01*
X121455607Y-95138770D01*
X121497369Y-95094609D01*
X121585438Y-94978838D01*
X121615200Y-94891414D01*
X121607675Y-94853692D01*
X121561359Y-94769178D01*
X121488911Y-94683202D01*
X121409135Y-94616448D01*
X121340831Y-94589600D01*
X121322244Y-94594067D01*
X121257422Y-94633794D01*
X121181577Y-94701279D01*
X121163303Y-94720373D01*
X121113823Y-94780514D01*
X121086832Y-94841873D01*
X121075584Y-94926608D01*
X121073334Y-95056879D01*
X121073334Y-95300800D01*
X120758473Y-95300800D01*
X120789498Y-95298915D01*
X120815661Y-95283762D01*
X120829643Y-95241691D01*
X120835244Y-95159099D01*
X120836267Y-95022382D01*
X120836267Y-94743964D01*
X121029940Y-94548249D01*
X121080410Y-94498522D01*
X121203902Y-94395535D01*
X121309245Y-94348856D01*
X121340831Y-94351846D01*
X121410456Y-94358438D01*
X121521553Y-94424237D01*
G37*
G36*
X119915610Y-99573341D02*
G01*
X119949126Y-99601339D01*
X119955733Y-99669600D01*
X119949502Y-99736808D01*
X119916838Y-99765536D01*
X119837200Y-99771200D01*
X119758791Y-99765859D01*
X119725275Y-99737861D01*
X119718667Y-99669600D01*
X119724898Y-99602392D01*
X119757562Y-99573664D01*
X119837200Y-99568000D01*
X119915610Y-99573341D01*
G37*
G36*
X124832534Y-89146357D02*
G01*
X124830333Y-89166442D01*
X124808352Y-89206379D01*
X124754506Y-89250858D01*
X124658691Y-89307319D01*
X124510800Y-89383201D01*
X124407299Y-89436027D01*
X124294461Y-89497581D01*
X124217516Y-89544494D01*
X124189067Y-89569468D01*
X124206247Y-89586510D01*
X124273182Y-89629035D01*
X124378901Y-89687875D01*
X124510800Y-89755734D01*
X124518552Y-89759591D01*
X124668963Y-89837824D01*
X124765632Y-89897117D01*
X124817257Y-89943628D01*
X124832534Y-89983511D01*
X124831838Y-89997771D01*
X124823860Y-90017081D01*
X124799885Y-90031104D01*
X124751291Y-90040685D01*
X124669455Y-90046668D01*
X124545754Y-90049897D01*
X124371566Y-90051215D01*
X124138267Y-90051467D01*
X123444000Y-90051467D01*
X123444000Y-89882134D01*
X124375334Y-89878802D01*
X124146734Y-89761468D01*
X124097501Y-89735503D01*
X123975022Y-89658397D01*
X123917309Y-89591239D01*
X123924065Y-89527425D01*
X123994994Y-89460347D01*
X124129800Y-89383399D01*
X124341467Y-89276600D01*
X123892734Y-89274567D01*
X123444000Y-89272534D01*
X123444000Y-89069334D01*
X124832534Y-89069334D01*
X124832534Y-89146357D01*
G37*
G36*
X121656551Y-107144607D02*
G01*
X121852267Y-107338280D01*
X121852267Y-107753423D01*
X121450895Y-108136267D01*
X120143823Y-108136267D01*
X119931245Y-107925579D01*
X119836775Y-107830335D01*
X119770773Y-107754790D01*
X119735456Y-107693521D01*
X119721272Y-107629448D01*
X119718667Y-107545490D01*
X119719224Y-107523953D01*
X119951606Y-107523953D01*
X119984315Y-107646758D01*
X120084161Y-107773794D01*
X120212589Y-107899200D01*
X121398713Y-107899200D01*
X121506957Y-107787521D01*
X121579683Y-107691594D01*
X121620787Y-107556941D01*
X121595385Y-107423076D01*
X121503521Y-107296244D01*
X121391842Y-107188000D01*
X120172221Y-107188000D01*
X120063977Y-107299679D01*
X119985885Y-107401853D01*
X119951606Y-107523953D01*
X119719224Y-107523953D01*
X119720628Y-107469652D01*
X119733183Y-107403742D01*
X119765830Y-107342217D01*
X119828058Y-107267874D01*
X119929355Y-107163511D01*
X120140043Y-106950934D01*
X121460836Y-106950934D01*
X121656551Y-107144607D01*
G37*
G36*
X124832534Y-98493557D02*
G01*
X124830204Y-98514162D01*
X124807907Y-98554030D01*
X124753690Y-98598554D01*
X124657470Y-98655145D01*
X124509166Y-98731213D01*
X124403328Y-98785614D01*
X124294440Y-98846486D01*
X124223116Y-98892538D01*
X124201168Y-98916656D01*
X124218738Y-98930248D01*
X124287084Y-98970074D01*
X124393604Y-99026606D01*
X124524536Y-99092367D01*
X124589448Y-99124535D01*
X124711433Y-99189234D01*
X124785660Y-99238381D01*
X124822552Y-99279713D01*
X124832534Y-99320967D01*
X124832534Y-99398667D01*
X123444000Y-99398667D01*
X123444000Y-99229334D01*
X123884267Y-99229334D01*
X123916837Y-99229258D01*
X124076344Y-99226547D01*
X124205845Y-99220523D01*
X124292766Y-99211976D01*
X124324534Y-99201694D01*
X124297429Y-99174990D01*
X124224320Y-99129995D01*
X124121334Y-99076934D01*
X124102229Y-99067707D01*
X123992543Y-99007624D01*
X123934883Y-98957342D01*
X123918134Y-98907600D01*
X123918401Y-98900683D01*
X123939952Y-98851403D01*
X124003890Y-98800352D01*
X124121334Y-98738267D01*
X124222414Y-98686268D01*
X124296314Y-98641003D01*
X124324534Y-98613506D01*
X124323332Y-98611462D01*
X124280149Y-98601448D01*
X124184194Y-98593318D01*
X124048042Y-98587861D01*
X123884267Y-98585867D01*
X123444000Y-98585867D01*
X123444000Y-98416534D01*
X124832534Y-98416534D01*
X124832534Y-98493557D01*
G37*
G36*
X124670504Y-105247860D02*
G01*
X124680677Y-105257901D01*
X124764113Y-105345141D01*
X124809679Y-105412338D01*
X124828709Y-105482674D01*
X124832534Y-105579333D01*
X124832506Y-105592343D01*
X124827574Y-105684550D01*
X124806271Y-105753208D01*
X124757312Y-105821316D01*
X124669417Y-105911877D01*
X124506301Y-106072540D01*
X124443254Y-106002873D01*
X124410940Y-105963303D01*
X124404278Y-105927362D01*
X124433594Y-105881095D01*
X124504770Y-105805642D01*
X124585128Y-105707605D01*
X124628086Y-105594568D01*
X124606630Y-105484732D01*
X124521090Y-105369279D01*
X124471654Y-105320522D01*
X124421304Y-105284942D01*
X124359873Y-105266173D01*
X124268478Y-105258849D01*
X124128237Y-105257600D01*
X124000706Y-105258495D01*
X123904664Y-105264928D01*
X123840073Y-105282429D01*
X123787743Y-105316526D01*
X123728480Y-105372747D01*
X123640717Y-105483557D01*
X123613106Y-105589150D01*
X123648815Y-105696649D01*
X123748285Y-105815897D01*
X123815785Y-105883838D01*
X123854143Y-105934702D01*
X123855506Y-105971130D01*
X123826734Y-106010106D01*
X123815192Y-106022506D01*
X123784132Y-106044769D01*
X123748681Y-106038037D01*
X123694466Y-105995882D01*
X123607116Y-105911877D01*
X123597110Y-105902001D01*
X123513168Y-105814276D01*
X123467206Y-105746913D01*
X123447918Y-105677037D01*
X123444000Y-105581770D01*
X123444003Y-105578063D01*
X123448466Y-105483108D01*
X123469053Y-105412403D01*
X123517013Y-105342587D01*
X123603594Y-105250297D01*
X123763187Y-105088267D01*
X124508474Y-105088267D01*
X124670504Y-105247860D01*
G37*
G36*
X119846222Y-96181348D02*
G01*
X119920912Y-96187841D01*
X119950491Y-96220422D01*
X119955733Y-96299867D01*
X119955733Y-96418400D01*
X121615200Y-96418400D01*
X121615200Y-96299867D01*
X121615215Y-96290845D01*
X121621708Y-96216155D01*
X121654289Y-96186576D01*
X121733734Y-96181333D01*
X121852267Y-96181333D01*
X121852267Y-96858667D01*
X121733734Y-96858667D01*
X121724711Y-96858652D01*
X121650021Y-96852159D01*
X121620443Y-96819578D01*
X121615200Y-96740133D01*
X121615200Y-96621600D01*
X119718667Y-96621600D01*
X119718667Y-96181333D01*
X119837200Y-96181333D01*
X119846222Y-96181348D01*
G37*
G36*
X121852267Y-89848267D02*
G01*
X120904000Y-89848267D01*
X120904000Y-90409187D01*
X120708285Y-90602860D01*
X120618297Y-90690562D01*
X120545916Y-90751470D01*
X120483606Y-90782970D01*
X120411390Y-90794759D01*
X120309291Y-90796533D01*
X120214165Y-90795204D01*
X120140693Y-90784739D01*
X120079111Y-90755367D01*
X120009599Y-90697317D01*
X119912340Y-90600818D01*
X119718667Y-90405103D01*
X119718667Y-90095394D01*
X119955733Y-90095394D01*
X119956063Y-90172446D01*
X119961433Y-90274337D01*
X119979469Y-90342742D01*
X120017827Y-90399869D01*
X120084161Y-90467927D01*
X120204432Y-90562651D01*
X120314515Y-90594396D01*
X120423442Y-90561837D01*
X120541527Y-90464906D01*
X120574623Y-90430539D01*
X120626538Y-90367664D01*
X120654104Y-90305567D01*
X120665007Y-90221414D01*
X120666934Y-90092372D01*
X120666934Y-89848267D01*
X119955733Y-89848267D01*
X119955733Y-90095394D01*
X119718667Y-90095394D01*
X119718667Y-89645067D01*
X121852267Y-89645067D01*
X121852267Y-89848267D01*
G37*
G36*
X124832534Y-107933067D02*
G01*
X124335183Y-107933067D01*
X124304250Y-107933075D01*
X124117863Y-107933953D01*
X123985615Y-107937353D01*
X123895577Y-107944803D01*
X123835823Y-107957828D01*
X123794423Y-107977953D01*
X123759450Y-108006704D01*
X123757536Y-108008510D01*
X123703463Y-108067741D01*
X123681067Y-108108304D01*
X123701336Y-108115647D01*
X123779140Y-108123867D01*
X123904983Y-108130400D01*
X124067868Y-108134711D01*
X124256800Y-108136267D01*
X124832534Y-108136267D01*
X124832534Y-108339467D01*
X124294814Y-108339467D01*
X124205337Y-108339624D01*
X124018179Y-108341748D01*
X123885257Y-108347025D01*
X123796874Y-108356304D01*
X123743332Y-108370435D01*
X123714934Y-108390267D01*
X123689846Y-108437662D01*
X123714934Y-108491867D01*
X123723604Y-108500308D01*
X123760625Y-108517822D01*
X123826558Y-108529966D01*
X123931102Y-108537589D01*
X124083954Y-108541539D01*
X124294814Y-108542667D01*
X124832534Y-108542667D01*
X124832534Y-108745867D01*
X123694813Y-108745867D01*
X123564866Y-108612789D01*
X123501114Y-108543129D01*
X123462586Y-108475662D01*
X123469604Y-108412881D01*
X123518561Y-108332983D01*
X123524982Y-108323616D01*
X123539571Y-108270614D01*
X123501843Y-108211783D01*
X123462842Y-108161007D01*
X123449044Y-108094979D01*
X123494800Y-108034667D01*
X123522430Y-108006923D01*
X123545600Y-107962787D01*
X123539900Y-107949150D01*
X123494800Y-107933067D01*
X123461664Y-107916496D01*
X123444000Y-107848400D01*
X123444000Y-107763734D01*
X124832534Y-107763734D01*
X124832534Y-107933067D01*
G37*
G36*
X121344690Y-102497679D02*
G01*
X121410853Y-102530964D01*
X121589128Y-102623085D01*
X121715144Y-102693369D01*
X121796165Y-102746416D01*
X121839452Y-102786826D01*
X121852267Y-102819200D01*
X121851144Y-102828536D01*
X121829769Y-102862883D01*
X121775698Y-102906674D01*
X121681670Y-102964511D01*
X121540421Y-103040993D01*
X121344690Y-103140722D01*
X120837113Y-103394933D01*
X119718667Y-103394933D01*
X119718667Y-103191733D01*
X120801586Y-103191733D01*
X121157593Y-103014679D01*
X121293126Y-102945879D01*
X121407659Y-102884971D01*
X121485127Y-102840562D01*
X121513600Y-102819200D01*
X121486642Y-102798779D01*
X121410380Y-102754924D01*
X121296721Y-102694388D01*
X121157593Y-102623721D01*
X120801586Y-102446667D01*
X119718667Y-102446667D01*
X119718667Y-102243467D01*
X120837113Y-102243467D01*
X121344690Y-102497679D01*
G37*
G36*
X124832534Y-104410933D02*
G01*
X124493867Y-104410933D01*
X124493867Y-104106133D01*
X124832534Y-104106133D01*
X124832534Y-104410933D01*
G37*
G36*
X124832534Y-93742934D02*
G01*
X124493867Y-93742934D01*
X124493867Y-93404267D01*
X124832534Y-93404267D01*
X124832534Y-93742934D01*
G37*
G36*
X124539569Y-97144394D02*
G01*
X124670504Y-97255327D01*
X124735820Y-97322006D01*
X124797224Y-97399162D01*
X124825625Y-97468122D01*
X124832534Y-97549807D01*
X124832494Y-97556834D01*
X124811366Y-97678413D01*
X124741531Y-97779680D01*
X124650528Y-97874667D01*
X124741531Y-97874667D01*
X124784822Y-97877409D01*
X124823748Y-97903969D01*
X124832534Y-97976267D01*
X124832534Y-98077867D01*
X123768060Y-98077867D01*
X123606030Y-97918273D01*
X123595856Y-97908233D01*
X123512421Y-97820992D01*
X123466854Y-97753796D01*
X123447825Y-97683459D01*
X123444000Y-97586800D01*
X123444028Y-97573790D01*
X123448959Y-97481583D01*
X123470263Y-97412926D01*
X123519222Y-97344817D01*
X123607116Y-97254257D01*
X123640007Y-97221984D01*
X123715016Y-97152279D01*
X123761560Y-97122337D01*
X123794008Y-97125729D01*
X123826734Y-97156027D01*
X123853076Y-97189980D01*
X123856446Y-97225730D01*
X123823803Y-97273487D01*
X123748285Y-97350237D01*
X123726257Y-97372461D01*
X123642630Y-97479438D01*
X123613334Y-97566661D01*
X123617635Y-97597483D01*
X123661828Y-97687864D01*
X123738054Y-97777915D01*
X123826622Y-97847047D01*
X123907844Y-97874667D01*
X124155200Y-97874667D01*
X124266860Y-97874667D01*
X124321755Y-97869297D01*
X124407207Y-97831198D01*
X124503927Y-97746239D01*
X124548892Y-97695636D01*
X124606713Y-97611760D01*
X124629334Y-97549682D01*
X124623546Y-97523088D01*
X124581042Y-97448087D01*
X124510800Y-97366667D01*
X124392267Y-97251780D01*
X124273734Y-97366667D01*
X124222075Y-97419492D01*
X124177902Y-97484221D01*
X124159120Y-97561203D01*
X124155200Y-97678110D01*
X124155200Y-97874667D01*
X123907844Y-97874667D01*
X123928288Y-97874089D01*
X123960313Y-97863608D01*
X123977547Y-97828667D01*
X123984546Y-97754844D01*
X123985867Y-97627718D01*
X123986299Y-97537064D01*
X123992527Y-97440603D01*
X124013039Y-97373917D01*
X124056378Y-97314101D01*
X124131082Y-97238251D01*
X124201946Y-97174239D01*
X124317341Y-97104231D01*
X124392267Y-97097274D01*
X124425865Y-97094155D01*
X124539569Y-97144394D01*
G37*
G36*
X121852267Y-97739200D02*
G01*
X120904000Y-97739200D01*
X120904000Y-98300120D01*
X120708285Y-98493794D01*
X120629898Y-98570288D01*
X120553570Y-98636330D01*
X120490732Y-98671306D01*
X120422051Y-98685068D01*
X120328196Y-98687467D01*
X120325715Y-98687467D01*
X120236129Y-98685272D01*
X120169563Y-98672487D01*
X120108343Y-98639730D01*
X120034794Y-98577621D01*
X119931245Y-98476779D01*
X119718667Y-98266090D01*
X119718667Y-97969394D01*
X119955733Y-97969394D01*
X119955842Y-98013186D01*
X119960190Y-98122207D01*
X119977279Y-98194602D01*
X120015729Y-98254241D01*
X120084161Y-98324994D01*
X120193373Y-98411471D01*
X120318101Y-98454028D01*
X120438806Y-98429747D01*
X120558690Y-98338721D01*
X120576964Y-98319627D01*
X120626444Y-98259486D01*
X120653435Y-98198128D01*
X120664683Y-98113393D01*
X120666934Y-97983121D01*
X120666934Y-97739200D01*
X119955733Y-97739200D01*
X119955733Y-97969394D01*
X119718667Y-97969394D01*
X119718667Y-97502134D01*
X121852267Y-97502134D01*
X121852267Y-97739200D01*
G37*
G36*
X166262101Y-129509444D02*
G01*
X166385896Y-129540087D01*
X166508195Y-129589590D01*
X166620312Y-129654323D01*
X166713562Y-129730655D01*
X166759197Y-129779009D01*
X166803864Y-129835332D01*
X166842058Y-129896918D01*
X166876906Y-129969625D01*
X166911533Y-130059307D01*
X166949066Y-130171819D01*
X166970679Y-130237398D01*
X167031466Y-130403268D01*
X167099740Y-130567671D01*
X167171555Y-130721435D01*
X167242968Y-130855383D01*
X167341458Y-131012075D01*
X167494922Y-131218660D01*
X167672857Y-131423255D01*
X167872555Y-131623501D01*
X168091310Y-131817036D01*
X168326412Y-132001500D01*
X168575155Y-132174532D01*
X168834832Y-132333773D01*
X169102735Y-132476860D01*
X169154591Y-132502126D01*
X169383623Y-132603401D01*
X169611682Y-132686422D01*
X169843363Y-132752174D01*
X170083260Y-132801642D01*
X170335965Y-132835813D01*
X170606073Y-132855673D01*
X170898176Y-132862207D01*
X170955308Y-132861986D01*
X171190145Y-132854759D01*
X171412581Y-132836433D01*
X171631856Y-132805781D01*
X171857206Y-132761574D01*
X172097870Y-132702580D01*
X172263911Y-132653109D01*
X172519123Y-132553985D01*
X172760026Y-132430333D01*
X172987535Y-132281529D01*
X173202564Y-132106949D01*
X173406027Y-131905967D01*
X173598838Y-131677961D01*
X173676603Y-131574748D01*
X173819177Y-131364283D01*
X173936318Y-131158126D01*
X174029709Y-130953153D01*
X174101034Y-130746244D01*
X174105388Y-130731347D01*
X174152893Y-130576854D01*
X174198114Y-130447434D01*
X174243136Y-130339517D01*
X174290043Y-130249533D01*
X174340920Y-130173910D01*
X174397852Y-130109078D01*
X174462924Y-130051467D01*
X174538220Y-129997506D01*
X174607072Y-129956603D01*
X174748686Y-129896799D01*
X174895761Y-129864420D01*
X175045152Y-129859429D01*
X175193713Y-129881791D01*
X175338300Y-129931467D01*
X175475768Y-130008422D01*
X175560947Y-130075504D01*
X175661646Y-130184829D01*
X175741129Y-130309761D01*
X175797842Y-130446297D01*
X175830234Y-130590431D01*
X175836751Y-130738161D01*
X175815841Y-130885482D01*
X175808576Y-130914173D01*
X175767219Y-131048527D01*
X175710630Y-131199444D01*
X175641230Y-131361751D01*
X175561443Y-131530272D01*
X175473693Y-131699832D01*
X175380400Y-131865258D01*
X175283990Y-132021374D01*
X175199209Y-132146149D01*
X175065949Y-132325537D01*
X174915234Y-132512434D01*
X174751167Y-132701977D01*
X174577851Y-132889305D01*
X174399390Y-133069555D01*
X174281991Y-133181885D01*
X174141206Y-133309405D01*
X174008224Y-133420018D01*
X173877613Y-133517482D01*
X173743938Y-133605559D01*
X173601769Y-133688008D01*
X173445671Y-133768589D01*
X173270212Y-133851062D01*
X173195469Y-133884696D01*
X172993611Y-133972921D01*
X172803778Y-134051521D01*
X172616192Y-134124465D01*
X172421076Y-134195722D01*
X172246080Y-134254887D01*
X172064521Y-134308186D01*
X171892435Y-134348632D01*
X171721773Y-134377829D01*
X171544488Y-134397383D01*
X171352533Y-134408900D01*
X170933123Y-134415225D01*
X170489007Y-134398388D01*
X170057049Y-134357053D01*
X169638461Y-134291375D01*
X169234456Y-134201509D01*
X168846243Y-134087611D01*
X168679032Y-134028942D01*
X168381946Y-133907004D01*
X168096478Y-133765511D01*
X167819517Y-133602566D01*
X167547954Y-133416270D01*
X167278676Y-133204723D01*
X167008572Y-132966027D01*
X166954514Y-132915124D01*
X166737001Y-132698644D01*
X166531322Y-132475181D01*
X166340495Y-132248449D01*
X166167539Y-132022163D01*
X166015471Y-131800038D01*
X165887309Y-131585790D01*
X165839219Y-131494992D01*
X165785027Y-131386746D01*
X165728295Y-131268649D01*
X165672323Y-131147827D01*
X165620412Y-131031405D01*
X165575861Y-130926508D01*
X165541972Y-130840260D01*
X165527278Y-130800631D01*
X165501427Y-130732005D01*
X165478190Y-130671564D01*
X165461267Y-130628990D01*
X165435856Y-130561102D01*
X165397491Y-130406788D01*
X165387238Y-130257023D01*
X165404832Y-130113275D01*
X165450010Y-129977012D01*
X165522508Y-129849703D01*
X165622064Y-129732815D01*
X165667468Y-129691770D01*
X165780801Y-129612777D01*
X165906019Y-129552642D01*
X166036113Y-129514362D01*
X166164074Y-129500936D01*
X166262101Y-129509444D01*
G37*
G36*
X161654372Y-126892379D02*
G01*
X161885195Y-126932378D01*
X162109428Y-126999002D01*
X162324302Y-127091790D01*
X162527045Y-127210282D01*
X162532982Y-127214289D01*
X162635209Y-127290743D01*
X162742725Y-127383291D01*
X162847742Y-127484459D01*
X162942476Y-127586771D01*
X163019138Y-127682750D01*
X163047018Y-127722527D01*
X163166450Y-127922831D01*
X163259959Y-128134304D01*
X163327043Y-128354308D01*
X163367199Y-128580202D01*
X163379924Y-128809350D01*
X163364715Y-129039112D01*
X163321069Y-129266848D01*
X163318880Y-129275217D01*
X163289773Y-129370474D01*
X163251369Y-129475973D01*
X163207644Y-129582013D01*
X163162575Y-129678895D01*
X163120138Y-129756919D01*
X163049325Y-129865443D01*
X162899572Y-130055109D01*
X162730234Y-130224159D01*
X162543235Y-130371329D01*
X162340501Y-130495358D01*
X162123958Y-130594983D01*
X161895532Y-130668940D01*
X161657149Y-130715969D01*
X161619223Y-130720051D01*
X161529123Y-130724691D01*
X161423738Y-130725382D01*
X161311968Y-130722426D01*
X161202713Y-130716124D01*
X161104870Y-130706775D01*
X161027339Y-130694681D01*
X160892649Y-130662393D01*
X160661855Y-130585189D01*
X160446517Y-130484132D01*
X160247893Y-130360169D01*
X160067240Y-130214248D01*
X159905817Y-130047316D01*
X159764881Y-129860319D01*
X159645691Y-129654206D01*
X159642010Y-129646817D01*
X159554252Y-129437484D01*
X159493236Y-129220122D01*
X159458734Y-128997665D01*
X159450518Y-128773045D01*
X159468361Y-128549195D01*
X159512035Y-128329048D01*
X159581312Y-128115538D01*
X159675965Y-127911596D01*
X159795766Y-127720155D01*
X159917665Y-127565608D01*
X160086345Y-127392590D01*
X160271788Y-127243460D01*
X160473369Y-127118647D01*
X160690463Y-127018581D01*
X160922445Y-126943695D01*
X160950059Y-126936731D01*
X161184034Y-126894095D01*
X161419728Y-126879464D01*
X161654372Y-126892379D01*
G37*
G36*
X179299169Y-126929701D02*
G01*
X179437455Y-126941874D01*
X179556730Y-126961865D01*
X179731949Y-127008913D01*
X179947165Y-127091336D01*
X180147870Y-127198378D01*
X180336212Y-127331228D01*
X180514340Y-127491073D01*
X180550352Y-127527694D01*
X180656850Y-127645924D01*
X180746508Y-127764406D01*
X180826119Y-127892756D01*
X180902475Y-128040590D01*
X180903505Y-128042743D01*
X180984754Y-128238776D01*
X181041064Y-128436606D01*
X181073829Y-128642535D01*
X181084444Y-128862862D01*
X181083795Y-128920074D01*
X181068468Y-129131125D01*
X181031459Y-129329716D01*
X180971023Y-129523351D01*
X180885418Y-129719534D01*
X180879559Y-129731329D01*
X180796701Y-129883299D01*
X180707390Y-130017459D01*
X180604672Y-130143293D01*
X180481593Y-130270284D01*
X180375257Y-130365680D01*
X180185308Y-130505310D01*
X179981339Y-130619528D01*
X179764719Y-130707718D01*
X179536818Y-130769261D01*
X179299005Y-130803541D01*
X179176196Y-130809601D01*
X178948697Y-130799287D01*
X178721433Y-130762146D01*
X178499460Y-130699141D01*
X178287835Y-130611233D01*
X178271040Y-130602965D01*
X178156864Y-130542400D01*
X178055812Y-130479332D01*
X177960493Y-130408319D01*
X177863518Y-130323920D01*
X177757495Y-130220691D01*
X177747635Y-130210686D01*
X177673080Y-130133218D01*
X177614637Y-130068010D01*
X177567102Y-130008604D01*
X177525266Y-129948544D01*
X177483924Y-129881371D01*
X177478995Y-129872954D01*
X177381064Y-129689248D01*
X177306786Y-129512055D01*
X177254060Y-129334366D01*
X177220790Y-129149172D01*
X177204876Y-128949464D01*
X177203869Y-128919049D01*
X177205853Y-128719112D01*
X177224708Y-128535788D01*
X177261962Y-128361645D01*
X177319143Y-128189249D01*
X177397780Y-128011166D01*
X177400047Y-128006550D01*
X177484769Y-127849002D01*
X177575853Y-127710838D01*
X177680362Y-127582402D01*
X177805359Y-127454041D01*
X177888277Y-127378981D01*
X178076743Y-127236443D01*
X178279343Y-127119538D01*
X178496433Y-127028075D01*
X178728370Y-126961865D01*
X178740745Y-126959185D01*
X178862660Y-126940087D01*
X179002530Y-126928807D01*
X179151114Y-126925345D01*
X179299169Y-126929701D01*
G37*
G36*
X116941412Y-105781937D02*
G01*
X116982841Y-105774136D01*
X117093150Y-105758766D01*
X117215781Y-105747610D01*
X117342147Y-105741025D01*
X117463658Y-105739366D01*
X117571725Y-105742989D01*
X117657758Y-105752250D01*
X117820340Y-105788819D01*
X118011659Y-105858052D01*
X118186216Y-105952133D01*
X118342110Y-106069999D01*
X118477443Y-106210588D01*
X118483872Y-106218519D01*
X118569653Y-106344144D01*
X118646464Y-106493343D01*
X118711713Y-106659579D01*
X118762806Y-106836312D01*
X118797152Y-107017003D01*
X118801146Y-107048661D01*
X118811125Y-107166149D01*
X118816981Y-107302203D01*
X118818695Y-107447422D01*
X118816250Y-107592399D01*
X118809625Y-107727731D01*
X118798802Y-107844014D01*
X118798495Y-107846470D01*
X118755670Y-108113601D01*
X118696319Y-108358045D01*
X118618843Y-108584487D01*
X118521642Y-108797611D01*
X118403115Y-109002101D01*
X118390276Y-109021667D01*
X118361701Y-109059741D01*
X118331030Y-109088404D01*
X118291306Y-109112219D01*
X118235572Y-109135746D01*
X118156868Y-109163549D01*
X118061279Y-109190035D01*
X117946429Y-109212142D01*
X117828157Y-109227026D01*
X117720442Y-109232479D01*
X117681915Y-109231492D01*
X117610261Y-109225170D01*
X117542779Y-109214273D01*
X117486221Y-109200290D01*
X117447336Y-109184711D01*
X117432874Y-109169025D01*
X117439246Y-109148712D01*
X117456389Y-109109142D01*
X117480527Y-109059182D01*
X117537954Y-108935255D01*
X117614315Y-108727113D01*
X117671289Y-108510790D01*
X117708603Y-108290711D01*
X117725980Y-108071300D01*
X117723145Y-107856982D01*
X117699824Y-107652181D01*
X117655741Y-107461324D01*
X117590621Y-107288833D01*
X117567613Y-107244251D01*
X117522181Y-107182010D01*
X117474675Y-107150210D01*
X117424519Y-107148365D01*
X117397799Y-107158651D01*
X117377114Y-107184450D01*
X117380382Y-107225113D01*
X117407220Y-107283651D01*
X117440215Y-107347831D01*
X117492768Y-107485124D01*
X117529334Y-107639659D01*
X117550650Y-107815022D01*
X117557453Y-108014798D01*
X117553495Y-108163315D01*
X117528676Y-108401698D01*
X117480002Y-108625998D01*
X117406226Y-108841359D01*
X117306104Y-109052928D01*
X117293221Y-109076551D01*
X117249011Y-109151070D01*
X117202621Y-109216467D01*
X117146733Y-109282375D01*
X117074029Y-109358429D01*
X116967645Y-109458407D01*
X116848500Y-109550284D01*
X116722663Y-109624603D01*
X116580793Y-109687597D01*
X116412307Y-109743622D01*
X116211137Y-109786272D01*
X116013923Y-109802169D01*
X115823374Y-109791496D01*
X115642199Y-109754437D01*
X115473107Y-109691177D01*
X115318808Y-109601898D01*
X115297228Y-109585993D01*
X115225766Y-109525255D01*
X115150434Y-109451736D01*
X115081068Y-109375418D01*
X115027505Y-109306282D01*
X114954415Y-109182042D01*
X114881336Y-109010401D01*
X114825933Y-108819490D01*
X114788886Y-108613284D01*
X114770873Y-108395758D01*
X114772574Y-108170888D01*
X114786973Y-108022123D01*
X116184547Y-108022123D01*
X116192456Y-108092390D01*
X116218225Y-108147531D01*
X116233391Y-108165116D01*
X116261647Y-108182490D01*
X116299111Y-108180653D01*
X116329778Y-108171669D01*
X116387309Y-108132475D01*
X116428701Y-108066736D01*
X116434234Y-108051385D01*
X116444113Y-107995828D01*
X116444362Y-107933325D01*
X116436317Y-107871478D01*
X116421316Y-107817890D01*
X116400694Y-107780163D01*
X116375790Y-107765897D01*
X116341240Y-107774656D01*
X116293725Y-107803503D01*
X116248515Y-107845074D01*
X116215436Y-107891664D01*
X116194614Y-107947271D01*
X116184547Y-108022123D01*
X114786973Y-108022123D01*
X114794666Y-107942648D01*
X114829921Y-107750670D01*
X114904847Y-107489373D01*
X115009295Y-107237521D01*
X115142954Y-106995735D01*
X115305512Y-106764635D01*
X115496658Y-106544844D01*
X115675332Y-106375601D01*
X115889712Y-106210928D01*
X116122311Y-106069857D01*
X116374328Y-105951758D01*
X116375790Y-105951244D01*
X116646962Y-105855995D01*
X116941412Y-105781937D01*
G37*
G36*
X118293410Y-87728019D02*
G01*
X118340255Y-87733538D01*
X118378064Y-87744280D01*
X118415798Y-87761639D01*
X118494046Y-87811952D01*
X118586666Y-87900559D01*
X118663861Y-88009459D01*
X118721936Y-88133186D01*
X118757192Y-88266274D01*
X118759664Y-88281765D01*
X118774595Y-88473230D01*
X118763699Y-88672557D01*
X118728465Y-88873287D01*
X118670379Y-89068965D01*
X118590928Y-89253131D01*
X118491601Y-89419330D01*
X118477363Y-89439486D01*
X118446676Y-89479966D01*
X118424187Y-89501022D01*
X118403323Y-89507559D01*
X118377511Y-89504483D01*
X118374564Y-89503893D01*
X118333166Y-89496690D01*
X118273914Y-89487505D01*
X118208604Y-89478174D01*
X118100767Y-89470468D01*
X117942290Y-89478561D01*
X117761431Y-89506984D01*
X117557916Y-89555792D01*
X117331474Y-89625044D01*
X117081830Y-89714797D01*
X117002636Y-89742528D01*
X116907356Y-89769312D01*
X116797222Y-89793520D01*
X116664075Y-89817151D01*
X116598394Y-89828279D01*
X116516854Y-89843378D01*
X116449228Y-89857385D01*
X116401163Y-89869111D01*
X116378304Y-89877365D01*
X116374017Y-89881347D01*
X116357123Y-89912688D01*
X116346197Y-89956801D01*
X116344847Y-89988135D01*
X116360678Y-90042111D01*
X116399803Y-90076684D01*
X116459660Y-90088870D01*
X116521780Y-90082799D01*
X116609858Y-90063729D01*
X116723298Y-90031414D01*
X116862947Y-89985611D01*
X117029650Y-89926079D01*
X117187873Y-89869075D01*
X117390139Y-89800993D01*
X117569525Y-89747312D01*
X117728661Y-89707687D01*
X117870176Y-89681772D01*
X117996702Y-89669225D01*
X118110867Y-89669699D01*
X118215301Y-89682851D01*
X118312634Y-89708335D01*
X118405496Y-89745808D01*
X118483507Y-89792927D01*
X118573893Y-89876023D01*
X118651305Y-89980421D01*
X118712060Y-90100954D01*
X118752473Y-90232456D01*
X118756441Y-90251953D01*
X118774813Y-90422890D01*
X118767010Y-90602561D01*
X118733695Y-90784666D01*
X118675532Y-90962907D01*
X118656412Y-91007710D01*
X118563785Y-91176430D01*
X118446536Y-91326817D01*
X118305840Y-91457899D01*
X118142875Y-91568701D01*
X117958816Y-91658248D01*
X117754839Y-91725566D01*
X117632148Y-91757672D01*
X117568635Y-91703307D01*
X117539843Y-91680584D01*
X117491837Y-91651630D01*
X117438310Y-91631485D01*
X117376257Y-91620303D01*
X117302678Y-91618238D01*
X117214568Y-91625443D01*
X117108924Y-91642074D01*
X116982745Y-91668283D01*
X116833027Y-91704224D01*
X116656767Y-91750052D01*
X116583232Y-91769582D01*
X116439908Y-91806892D01*
X116320327Y-91836591D01*
X116220213Y-91859487D01*
X116135293Y-91876387D01*
X116061293Y-91888098D01*
X115993939Y-91895429D01*
X115928958Y-91899185D01*
X115862075Y-91900175D01*
X115751339Y-91896358D01*
X115602754Y-91876029D01*
X115470883Y-91836384D01*
X115349654Y-91775405D01*
X115232994Y-91691073D01*
X115149530Y-91607843D01*
X115064885Y-91490922D01*
X114992626Y-91354740D01*
X114935856Y-91205247D01*
X114897681Y-91048391D01*
X114896522Y-91041639D01*
X114883644Y-90937420D01*
X114875930Y-90815668D01*
X114873392Y-90686043D01*
X114876039Y-90558205D01*
X114883882Y-90441812D01*
X114896932Y-90346525D01*
X114922972Y-90232853D01*
X114974088Y-90068888D01*
X115038404Y-89910440D01*
X115112334Y-89766038D01*
X115192289Y-89644214D01*
X115220276Y-89606206D01*
X115250456Y-89557863D01*
X115260782Y-89524172D01*
X115252281Y-89500150D01*
X115225979Y-89480813D01*
X115200416Y-89471647D01*
X115147309Y-89477253D01*
X115089418Y-89513351D01*
X115027083Y-89579773D01*
X114966827Y-89667815D01*
X114907754Y-89775678D01*
X114853002Y-89895558D01*
X114805408Y-90020027D01*
X114767811Y-90141658D01*
X114743051Y-90253025D01*
X114733965Y-90346700D01*
X114733734Y-90409504D01*
X114542610Y-90453994D01*
X114482863Y-90467542D01*
X114368810Y-90490424D01*
X114276853Y-90503549D01*
X114201915Y-90507296D01*
X114138919Y-90502040D01*
X114082786Y-90488160D01*
X114034915Y-90469044D01*
X113939504Y-90406956D01*
X113860110Y-90318187D01*
X113796798Y-90202844D01*
X113749635Y-90061032D01*
X113718684Y-89892860D01*
X113712855Y-89836802D01*
X113708576Y-89646562D01*
X113725114Y-89445094D01*
X113761192Y-89240309D01*
X113815529Y-89040122D01*
X113886846Y-88852446D01*
X113902675Y-88818376D01*
X113925141Y-88781035D01*
X113949461Y-88760319D01*
X113983056Y-88748183D01*
X113986619Y-88747271D01*
X114017358Y-88739484D01*
X114075964Y-88724680D01*
X114160607Y-88703322D01*
X114269459Y-88675869D01*
X114400687Y-88642784D01*
X114552463Y-88604528D01*
X114722957Y-88561561D01*
X114910337Y-88514345D01*
X115112775Y-88463341D01*
X115328440Y-88409011D01*
X115555503Y-88351815D01*
X115792132Y-88292215D01*
X116036498Y-88230673D01*
X116111786Y-88211713D01*
X116391132Y-88141388D01*
X116642281Y-88078219D01*
X116866876Y-88021821D01*
X117066560Y-87971810D01*
X117242976Y-87927802D01*
X117397766Y-87889410D01*
X117532574Y-87856251D01*
X117649042Y-87827941D01*
X117748812Y-87804093D01*
X117833528Y-87784324D01*
X117904832Y-87768248D01*
X117964366Y-87755482D01*
X118013775Y-87745641D01*
X118054700Y-87738338D01*
X118088785Y-87733191D01*
X118117671Y-87729815D01*
X118143002Y-87727823D01*
X118166421Y-87726833D01*
X118189570Y-87726459D01*
X118228563Y-87726329D01*
X118293410Y-87728019D01*
G37*
G36*
X119358953Y-109425246D02*
G01*
X119440064Y-109441469D01*
X119523919Y-109469400D01*
X119646899Y-109535444D01*
X119751292Y-109626086D01*
X119836705Y-109740755D01*
X119902747Y-109878880D01*
X119949027Y-110039887D01*
X119975153Y-110223207D01*
X119976980Y-110247023D01*
X119981035Y-110316822D01*
X119982818Y-110377557D01*
X119981944Y-110418231D01*
X119981466Y-110423881D01*
X119977853Y-110470148D01*
X119973215Y-110533414D01*
X119968432Y-110601716D01*
X119950019Y-110768834D01*
X119897203Y-111012332D01*
X119814288Y-111249283D01*
X119701628Y-111479160D01*
X119559572Y-111701431D01*
X119388473Y-111915569D01*
X119188683Y-112121044D01*
X118960553Y-112317327D01*
X118704434Y-112503889D01*
X118688956Y-112514227D01*
X118544189Y-112605799D01*
X118373119Y-112706160D01*
X118178558Y-112813948D01*
X117963318Y-112927803D01*
X117730208Y-113046363D01*
X117482039Y-113168267D01*
X117221624Y-113292154D01*
X116951772Y-113416664D01*
X116675295Y-113540434D01*
X116395003Y-113662103D01*
X116113708Y-113780312D01*
X115834220Y-113893698D01*
X115709123Y-113942903D01*
X115593595Y-113986334D01*
X115499311Y-114018489D01*
X115422419Y-114040054D01*
X115359068Y-114051715D01*
X115305405Y-114054159D01*
X115257579Y-114048071D01*
X115211737Y-114034136D01*
X115164029Y-114013041D01*
X115069496Y-113952601D01*
X114989008Y-113868336D01*
X114925497Y-113760870D01*
X114878493Y-113629176D01*
X114847525Y-113472226D01*
X114832121Y-113288993D01*
X114830566Y-113199370D01*
X114842131Y-112995737D01*
X114874128Y-112803013D01*
X114925564Y-112626184D01*
X114995444Y-112470237D01*
X115010636Y-112443482D01*
X115029429Y-112416932D01*
X115052918Y-112395445D01*
X115087148Y-112374800D01*
X115138167Y-112350782D01*
X115212021Y-112319171D01*
X115404310Y-112240730D01*
X115686489Y-112133477D01*
X115986249Y-112027603D01*
X116295842Y-111925725D01*
X116607521Y-111830459D01*
X116913536Y-111744423D01*
X116997102Y-111717340D01*
X117066675Y-111681095D01*
X117107459Y-111638982D01*
X117120596Y-111590152D01*
X117119921Y-111567941D01*
X117114181Y-111540554D01*
X117098372Y-111526225D01*
X117067517Y-111523860D01*
X117016643Y-111532369D01*
X116940773Y-111550657D01*
X116811911Y-111583996D01*
X116626021Y-111634987D01*
X116443139Y-111689075D01*
X116252740Y-111749413D01*
X116044299Y-111819154D01*
X115693255Y-111939087D01*
X115490429Y-111939178D01*
X115464783Y-111939154D01*
X115384625Y-111938166D01*
X115326423Y-111935058D01*
X115282867Y-111928906D01*
X115246647Y-111918786D01*
X115210453Y-111903774D01*
X115184575Y-111891380D01*
X115093271Y-111836149D01*
X115021979Y-111769223D01*
X114964925Y-111684140D01*
X114916338Y-111574433D01*
X114910138Y-111557058D01*
X114902714Y-111532110D01*
X114896738Y-111503735D01*
X114892012Y-111468461D01*
X114888338Y-111422815D01*
X114885517Y-111363326D01*
X114883351Y-111286521D01*
X114881641Y-111188929D01*
X114880189Y-111067078D01*
X114878797Y-110917494D01*
X114873855Y-110348023D01*
X114978794Y-110266903D01*
X115041741Y-110221676D01*
X115155048Y-110151495D01*
X115278645Y-110085599D01*
X115401538Y-110029699D01*
X115512733Y-109989507D01*
X115572720Y-109972536D01*
X115752030Y-109935289D01*
X115917959Y-109923097D01*
X116074356Y-109935874D01*
X116225072Y-109973532D01*
X116235249Y-109976931D01*
X116295379Y-109995202D01*
X116342417Y-110003601D01*
X116390350Y-110003527D01*
X116453162Y-109996381D01*
X116533108Y-109987624D01*
X116641765Y-109979716D01*
X116763902Y-109973887D01*
X116892092Y-109970271D01*
X117018913Y-109969004D01*
X117136938Y-109970221D01*
X117238743Y-109974058D01*
X117316903Y-109980650D01*
X117338760Y-109983489D01*
X117518771Y-110014560D01*
X117683992Y-110056863D01*
X117830447Y-110109009D01*
X117954166Y-110169609D01*
X118051175Y-110237275D01*
X118079917Y-110262742D01*
X118116353Y-110299294D01*
X118146766Y-110337955D01*
X118172798Y-110382811D01*
X118196094Y-110437950D01*
X118218297Y-110507460D01*
X118241050Y-110595426D01*
X118265997Y-110705937D01*
X118294782Y-110843080D01*
X118376980Y-111242398D01*
X118428177Y-111220872D01*
X118464860Y-111197912D01*
X118502467Y-111144075D01*
X118509770Y-111124376D01*
X118514932Y-111101794D01*
X118516909Y-111074141D01*
X118515270Y-111037772D01*
X118509582Y-110989044D01*
X118499413Y-110924312D01*
X118484333Y-110839933D01*
X118463908Y-110732261D01*
X118437707Y-110597654D01*
X118432078Y-110568664D01*
X118398950Y-110384268D01*
X118376076Y-110227712D01*
X118363412Y-110097584D01*
X118360916Y-109992474D01*
X118368545Y-109910971D01*
X118386257Y-109851664D01*
X118414008Y-109813141D01*
X118438349Y-109792331D01*
X118586381Y-109681594D01*
X118746185Y-109585818D01*
X118909532Y-109509485D01*
X119068189Y-109457074D01*
X119080304Y-109454035D01*
X119188148Y-109431148D01*
X119278006Y-109421679D01*
X119358953Y-109425246D01*
G37*
G36*
X118302104Y-101522315D02*
G01*
X118346326Y-101528936D01*
X118385018Y-101542178D01*
X118428576Y-101564085D01*
X118472673Y-101591472D01*
X118564233Y-101671390D01*
X118644261Y-101773036D01*
X118708302Y-101890176D01*
X118751900Y-102016573D01*
X118762233Y-102067767D01*
X118773790Y-102194530D01*
X118771638Y-102337817D01*
X118756890Y-102490351D01*
X118730658Y-102644860D01*
X118694055Y-102794069D01*
X118648195Y-102930702D01*
X118594190Y-103047487D01*
X118553450Y-103118050D01*
X118511518Y-103185002D01*
X118473121Y-103241107D01*
X118442047Y-103280839D01*
X118422080Y-103298676D01*
X118404759Y-103300125D01*
X118363596Y-103296415D01*
X118311437Y-103287413D01*
X118246348Y-103277472D01*
X118139054Y-103270671D01*
X118021248Y-103271602D01*
X117904285Y-103280078D01*
X117799520Y-103295909D01*
X117733938Y-103310544D01*
X117616221Y-103340654D01*
X117485109Y-103377764D01*
X117349984Y-103419074D01*
X117220231Y-103461783D01*
X117105233Y-103503092D01*
X117053895Y-103521940D01*
X117002053Y-103539115D01*
X116947446Y-103554758D01*
X116885396Y-103569927D01*
X116811227Y-103585680D01*
X116720261Y-103603076D01*
X116607820Y-103623174D01*
X116469227Y-103647032D01*
X116443819Y-103651462D01*
X116396588Y-103662004D01*
X116369827Y-103675438D01*
X116356022Y-103697013D01*
X116347660Y-103731980D01*
X116344586Y-103796543D01*
X116364728Y-103842876D01*
X116409694Y-103873689D01*
X116416254Y-103876335D01*
X116445229Y-103884529D01*
X116478310Y-103885780D01*
X116524178Y-103879720D01*
X116591514Y-103865979D01*
X116598307Y-103864471D01*
X116676886Y-103844653D01*
X116757745Y-103820803D01*
X116824398Y-103797751D01*
X116848436Y-103788492D01*
X116921428Y-103761003D01*
X117010723Y-103727958D01*
X117107222Y-103692674D01*
X117201828Y-103658466D01*
X117285441Y-103628652D01*
X117348961Y-103606548D01*
X117376766Y-103597405D01*
X117474456Y-103568658D01*
X117584684Y-103540173D01*
X117699004Y-103513822D01*
X117808972Y-103491475D01*
X117906144Y-103475003D01*
X117982075Y-103466278D01*
X118114978Y-103465776D01*
X118263602Y-103488711D01*
X118395907Y-103536913D01*
X118510591Y-103609709D01*
X118606348Y-103706429D01*
X118681874Y-103826401D01*
X118689650Y-103842698D01*
X118736393Y-103976017D01*
X118763717Y-104126198D01*
X118771641Y-104286590D01*
X118760184Y-104450541D01*
X118729364Y-104611401D01*
X118679202Y-104762519D01*
X118615669Y-104890163D01*
X118514416Y-105038920D01*
X118392030Y-105174900D01*
X118254006Y-105292140D01*
X118105839Y-105384678D01*
X118100839Y-105387235D01*
X118040521Y-105415458D01*
X117967292Y-105446230D01*
X117888067Y-105477040D01*
X117809761Y-105505375D01*
X117739291Y-105528725D01*
X117683571Y-105544576D01*
X117649518Y-105550418D01*
X117637772Y-105545693D01*
X117606602Y-105526296D01*
X117566009Y-105497016D01*
X117492194Y-105453254D01*
X117410180Y-105424397D01*
X117375949Y-105417982D01*
X117330925Y-105413580D01*
X117280257Y-105413628D01*
X117220906Y-105418665D01*
X117149836Y-105429231D01*
X117064007Y-105445865D01*
X116960383Y-105469108D01*
X116835926Y-105499499D01*
X116687597Y-105537577D01*
X116512358Y-105583882D01*
X116394853Y-105614679D01*
X116240205Y-105652821D01*
X116107972Y-105681775D01*
X115993909Y-105702151D01*
X115893769Y-105714558D01*
X115803308Y-105719607D01*
X115718280Y-105717908D01*
X115634439Y-105710072D01*
X115509323Y-105689418D01*
X115379150Y-105652772D01*
X115266339Y-105600362D01*
X115164176Y-105528943D01*
X115065945Y-105435270D01*
X114980899Y-105327586D01*
X114899993Y-105179192D01*
X114840732Y-105008358D01*
X114834329Y-104982045D01*
X114816529Y-104877350D01*
X114804431Y-104753593D01*
X114798299Y-104619764D01*
X114798397Y-104484848D01*
X114804991Y-104357835D01*
X114818344Y-104247710D01*
X114863492Y-104057406D01*
X114938738Y-103853974D01*
X115038671Y-103657236D01*
X115160140Y-103473334D01*
X115299996Y-103308410D01*
X115326147Y-103281028D01*
X115367259Y-103235303D01*
X115390713Y-103203023D01*
X115400014Y-103178821D01*
X115398667Y-103157331D01*
X115380038Y-103124347D01*
X115339425Y-103104952D01*
X115283457Y-103108357D01*
X115274340Y-103111933D01*
X115239231Y-103134872D01*
X115193668Y-103172716D01*
X115145150Y-103219444D01*
X115047743Y-103320266D01*
X114993631Y-103266155D01*
X114991512Y-103264027D01*
X114957105Y-103225854D01*
X114930027Y-103185870D01*
X114909433Y-103139882D01*
X114894479Y-103083694D01*
X114884318Y-103013112D01*
X114878107Y-102923942D01*
X114875000Y-102811989D01*
X114874152Y-102673058D01*
X114874152Y-102308785D01*
X114995067Y-102219688D01*
X115110502Y-102142174D01*
X115273441Y-102054068D01*
X115443868Y-101983340D01*
X115617176Y-101931064D01*
X115788757Y-101898314D01*
X115954005Y-101886164D01*
X116108310Y-101895686D01*
X116247067Y-101927955D01*
X116331374Y-101956612D01*
X117198064Y-101738901D01*
X117335720Y-101704365D01*
X117502064Y-101662824D01*
X117642839Y-101628006D01*
X117760751Y-101599323D01*
X117858505Y-101576190D01*
X117938807Y-101558018D01*
X118004363Y-101544221D01*
X118057878Y-101534212D01*
X118102059Y-101527404D01*
X118139610Y-101523209D01*
X118173238Y-101521042D01*
X118205649Y-101520314D01*
X118241952Y-101520274D01*
X118302104Y-101522315D01*
G37*
G36*
X117539631Y-91842222D02*
G01*
X117717104Y-91818065D01*
X117887826Y-91813800D01*
X118046959Y-91830408D01*
X118189665Y-91868870D01*
X118208708Y-91876537D01*
X118286166Y-91915789D01*
X118367685Y-91967074D01*
X118442106Y-92022910D01*
X118498271Y-92075814D01*
X118564808Y-92161525D01*
X118646180Y-92303875D01*
X118708749Y-92463983D01*
X118749881Y-92635981D01*
X118753384Y-92658085D01*
X118768271Y-92804003D01*
X118772592Y-92963113D01*
X118766684Y-93124665D01*
X118750883Y-93277907D01*
X118725528Y-93412089D01*
X118714878Y-93449340D01*
X118695355Y-93505613D01*
X118672707Y-93562556D01*
X118650180Y-93612602D01*
X118631022Y-93648179D01*
X118618476Y-93661720D01*
X118609596Y-93659599D01*
X118577874Y-93647921D01*
X118534026Y-93629446D01*
X118519945Y-93623527D01*
X118449030Y-93606131D01*
X118387959Y-93616113D01*
X118331220Y-93654143D01*
X118303893Y-93686423D01*
X118290227Y-93726965D01*
X118302187Y-93759683D01*
X118339415Y-93779092D01*
X118357541Y-93783414D01*
X118470583Y-93827925D01*
X118567600Y-93898423D01*
X118647417Y-93993556D01*
X118708863Y-94111977D01*
X118750765Y-94252334D01*
X118763851Y-94324496D01*
X118773158Y-94430834D01*
X118768524Y-94539159D01*
X118749920Y-94662423D01*
X118744411Y-94689814D01*
X118689817Y-94873909D01*
X118608120Y-95044230D01*
X118500840Y-95199144D01*
X118369500Y-95337019D01*
X118215620Y-95456222D01*
X118040722Y-95555121D01*
X117846326Y-95632083D01*
X117769374Y-95656333D01*
X117706826Y-95674055D01*
X117663553Y-95682505D01*
X117634191Y-95682231D01*
X117613377Y-95673781D01*
X117595747Y-95657703D01*
X117592496Y-95654155D01*
X117539345Y-95608814D01*
X117475706Y-95579191D01*
X117395163Y-95563201D01*
X117291302Y-95558759D01*
X117261369Y-95559249D01*
X117186691Y-95562949D01*
X117119990Y-95569394D01*
X117072874Y-95577582D01*
X116968804Y-95604403D01*
X116842618Y-95636221D01*
X116712104Y-95668502D01*
X116582197Y-95700070D01*
X116457832Y-95729748D01*
X116343945Y-95756359D01*
X116245471Y-95778727D01*
X116167347Y-95795675D01*
X116114508Y-95806028D01*
X115946413Y-95826549D01*
X115756638Y-95826629D01*
X115581639Y-95800052D01*
X115422127Y-95747138D01*
X115278813Y-95668212D01*
X115152406Y-95563595D01*
X115043618Y-95433611D01*
X114953158Y-95278582D01*
X114948883Y-95269533D01*
X114914795Y-95183211D01*
X114881658Y-95076968D01*
X114852043Y-94960757D01*
X114828519Y-94844535D01*
X114813657Y-94738256D01*
X114802438Y-94621193D01*
X114793972Y-94521083D01*
X114788721Y-94437266D01*
X114786464Y-94362204D01*
X114786982Y-94288361D01*
X114790054Y-94208197D01*
X114795462Y-94114177D01*
X114810298Y-93936615D01*
X114854144Y-93628782D01*
X114921927Y-93318603D01*
X115015012Y-92999147D01*
X115020286Y-92982945D01*
X115045084Y-92908140D01*
X115064177Y-92856264D01*
X115080819Y-92821563D01*
X115098266Y-92798281D01*
X115119772Y-92780664D01*
X115148590Y-92762960D01*
X115159064Y-92757040D01*
X115236678Y-92721171D01*
X115336528Y-92685126D01*
X115451084Y-92651400D01*
X115572816Y-92622486D01*
X115603485Y-92616843D01*
X115688650Y-92606326D01*
X115785472Y-92599717D01*
X115885445Y-92597137D01*
X115980062Y-92598706D01*
X116060817Y-92604544D01*
X116119201Y-92614771D01*
X116135797Y-92619688D01*
X116166965Y-92633782D01*
X116178039Y-92654142D01*
X116170460Y-92687653D01*
X116145671Y-92741204D01*
X116144007Y-92744596D01*
X116120503Y-92802784D01*
X116094294Y-92882965D01*
X116067571Y-92976979D01*
X116042524Y-93076668D01*
X116021345Y-93173876D01*
X116006225Y-93260442D01*
X116000740Y-93301668D01*
X115989499Y-93421102D01*
X115983861Y-93544228D01*
X115983550Y-93666093D01*
X115988289Y-93781741D01*
X115997800Y-93886219D01*
X116011808Y-93974572D01*
X116030034Y-94041847D01*
X116052203Y-94083087D01*
X116078596Y-94103559D01*
X116126806Y-94112824D01*
X116175458Y-94093770D01*
X116192102Y-94076943D01*
X116195401Y-94053248D01*
X116186002Y-94011860D01*
X116178496Y-93978098D01*
X116168225Y-93905012D01*
X116163567Y-93853334D01*
X117136524Y-93853334D01*
X117136638Y-93875314D01*
X117139361Y-93934603D01*
X117146303Y-93968952D01*
X117158260Y-93983113D01*
X117161774Y-93984129D01*
X117196016Y-93979854D01*
X117242526Y-93960108D01*
X117292336Y-93930170D01*
X117336479Y-93895320D01*
X117365985Y-93860836D01*
X117378106Y-93837594D01*
X117400763Y-93766850D01*
X117407630Y-93693609D01*
X117398466Y-93627528D01*
X117373031Y-93578267D01*
X117365444Y-93570700D01*
X117334698Y-93556279D01*
X117287431Y-93557443D01*
X117273467Y-93559675D01*
X117219625Y-93578448D01*
X117180739Y-93613810D01*
X117155080Y-93669151D01*
X117140918Y-93747863D01*
X117136524Y-93853334D01*
X116163567Y-93853334D01*
X116160008Y-93813844D01*
X116154256Y-93712563D01*
X116151380Y-93609132D01*
X116151790Y-93511519D01*
X116155897Y-93427688D01*
X116171241Y-93290785D01*
X116218728Y-93055216D01*
X116291131Y-92836121D01*
X116387863Y-92634635D01*
X116508337Y-92451891D01*
X116651967Y-92289025D01*
X116818165Y-92147171D01*
X116858990Y-92118125D01*
X117015087Y-92024221D01*
X117183785Y-91946281D01*
X117334698Y-91894119D01*
X117360246Y-91885288D01*
X117539631Y-91842222D01*
G37*
G36*
X116001092Y-96025035D02*
G01*
X116122989Y-96039376D01*
X116225445Y-96066024D01*
X116236392Y-96070009D01*
X116286049Y-96086847D01*
X116327199Y-96096590D01*
X116369730Y-96100213D01*
X116423528Y-96098694D01*
X116498480Y-96093011D01*
X116529751Y-96090697D01*
X116625575Y-96085906D01*
X116741821Y-96082490D01*
X116872039Y-96080434D01*
X117009779Y-96079720D01*
X117148590Y-96080334D01*
X117282024Y-96082257D01*
X117403628Y-96085476D01*
X117506954Y-96089972D01*
X117585551Y-96095731D01*
X117846755Y-96129475D01*
X118090084Y-96177952D01*
X118317578Y-96242262D01*
X118535597Y-96323932D01*
X118566785Y-96337286D01*
X118605770Y-96357263D01*
X118630553Y-96379924D01*
X118649414Y-96414152D01*
X118670632Y-96468832D01*
X118678268Y-96490993D01*
X118698918Y-96563200D01*
X118718591Y-96646953D01*
X118733885Y-96728298D01*
X118740499Y-96769840D01*
X118751265Y-96836782D01*
X118760060Y-96890635D01*
X118765444Y-96922531D01*
X118765590Y-96923370D01*
X118769218Y-96965474D01*
X118770877Y-97032596D01*
X118770768Y-97118810D01*
X118769090Y-97218191D01*
X118766043Y-97324812D01*
X118761826Y-97432748D01*
X118756640Y-97536071D01*
X118750683Y-97628856D01*
X118744155Y-97705176D01*
X118737257Y-97759106D01*
X118728608Y-97808496D01*
X118712663Y-97888948D01*
X118695855Y-97948669D01*
X118674583Y-97994455D01*
X118645243Y-98033099D01*
X118604233Y-98071396D01*
X118547950Y-98116141D01*
X118422670Y-98212782D01*
X118337324Y-98200675D01*
X118226528Y-98188553D01*
X118139803Y-98187679D01*
X118076604Y-98198562D01*
X118034145Y-98221395D01*
X118002383Y-98259608D01*
X117980231Y-98305555D01*
X117966466Y-98354611D01*
X118070217Y-98365364D01*
X118131057Y-98373336D01*
X118209590Y-98386231D01*
X118297524Y-98402485D01*
X118388159Y-98420699D01*
X118474796Y-98439473D01*
X118550737Y-98457409D01*
X118609281Y-98473106D01*
X118643729Y-98485166D01*
X118650155Y-98488594D01*
X118671746Y-98506843D01*
X118689839Y-98536397D01*
X118705604Y-98581218D01*
X118720213Y-98645269D01*
X118734837Y-98732510D01*
X118750647Y-98846905D01*
X118762949Y-98959813D01*
X118773563Y-99156002D01*
X118770947Y-99347916D01*
X118755602Y-99530550D01*
X118728027Y-99698897D01*
X118688722Y-99847954D01*
X118638188Y-99972715D01*
X118613523Y-100018481D01*
X118554060Y-100110359D01*
X118480274Y-100202684D01*
X118390546Y-100296717D01*
X118283259Y-100393720D01*
X118156793Y-100494953D01*
X118009531Y-100601678D01*
X117839854Y-100715154D01*
X117646143Y-100836643D01*
X117426781Y-100967406D01*
X117180148Y-101108704D01*
X117022509Y-101196432D01*
X116759998Y-101337152D01*
X116514534Y-101461671D01*
X116287340Y-101569443D01*
X116079636Y-101659922D01*
X115892643Y-101732560D01*
X115727585Y-101786811D01*
X115585681Y-101822129D01*
X115462496Y-101833156D01*
X115333913Y-101817172D01*
X115212460Y-101774821D01*
X115102835Y-101708353D01*
X115009736Y-101620016D01*
X114937860Y-101512058D01*
X114911913Y-101451710D01*
X114879176Y-101330730D01*
X114860410Y-101191189D01*
X114855442Y-101038872D01*
X114864103Y-100879567D01*
X114886221Y-100719061D01*
X114921627Y-100563141D01*
X114970149Y-100417594D01*
X114996569Y-100352814D01*
X115026878Y-100287020D01*
X115054816Y-100241651D01*
X115084683Y-100211424D01*
X115120779Y-100191056D01*
X115167406Y-100175262D01*
X115289519Y-100139404D01*
X115464691Y-100085326D01*
X115647569Y-100026199D01*
X115834391Y-99963409D01*
X116021389Y-99898336D01*
X116204800Y-99832364D01*
X116380859Y-99766877D01*
X116545800Y-99703256D01*
X116695858Y-99642886D01*
X116827269Y-99587149D01*
X116936267Y-99537427D01*
X117019087Y-99495104D01*
X117053859Y-99475435D01*
X117121160Y-99434330D01*
X117166862Y-99400128D01*
X117195900Y-99368792D01*
X117213213Y-99336280D01*
X117218645Y-99316014D01*
X117220481Y-99277088D01*
X117213531Y-99244978D01*
X117199374Y-99231622D01*
X117197053Y-99232143D01*
X117172589Y-99241819D01*
X117127012Y-99261845D01*
X117065809Y-99289770D01*
X116994467Y-99323144D01*
X116941202Y-99347930D01*
X116769801Y-99423430D01*
X116577683Y-99502747D01*
X116371968Y-99583209D01*
X116159780Y-99662143D01*
X115948241Y-99736876D01*
X115744474Y-99804736D01*
X115555602Y-99863051D01*
X115531077Y-99870227D01*
X115457677Y-99890772D01*
X115404723Y-99903073D01*
X115364952Y-99908193D01*
X115331099Y-99907198D01*
X115295902Y-99901156D01*
X115242786Y-99886342D01*
X115136344Y-99833842D01*
X115042621Y-99755387D01*
X114964579Y-99653774D01*
X114905177Y-99531801D01*
X114889965Y-99483390D01*
X114868973Y-99373521D01*
X114857976Y-99245800D01*
X114856906Y-99107855D01*
X114865695Y-98967315D01*
X114884274Y-98831806D01*
X114912575Y-98708956D01*
X114932683Y-98645491D01*
X114962522Y-98563733D01*
X114995504Y-98483349D01*
X115029023Y-98409983D01*
X115060473Y-98349280D01*
X115087247Y-98306884D01*
X115106739Y-98288439D01*
X115119960Y-98284815D01*
X115160975Y-98274075D01*
X115224528Y-98257665D01*
X115306180Y-98236726D01*
X115401494Y-98212399D01*
X115506031Y-98185824D01*
X115529607Y-98179820D01*
X115666129Y-98144388D01*
X115819045Y-98103795D01*
X115977012Y-98061102D01*
X116128687Y-98019370D01*
X116262727Y-97981660D01*
X116298029Y-97971594D01*
X116485140Y-97918782D01*
X116650103Y-97873185D01*
X116791640Y-97835136D01*
X116908473Y-97804965D01*
X116999325Y-97783004D01*
X117062918Y-97769584D01*
X117097972Y-97765037D01*
X117124089Y-97757939D01*
X117143908Y-97731812D01*
X117148499Y-97694412D01*
X117138779Y-97654220D01*
X117115665Y-97619716D01*
X117080072Y-97599381D01*
X117071133Y-97597494D01*
X117049058Y-97595475D01*
X117020374Y-97596578D01*
X116982477Y-97601386D01*
X116932761Y-97610486D01*
X116868620Y-97624463D01*
X116787449Y-97643901D01*
X116686644Y-97669385D01*
X116563599Y-97701502D01*
X116415709Y-97740835D01*
X116240368Y-97787971D01*
X116091499Y-97828083D01*
X115945444Y-97867214D01*
X115823733Y-97899366D01*
X115723279Y-97925182D01*
X115640993Y-97945304D01*
X115573788Y-97960375D01*
X115518575Y-97971038D01*
X115472267Y-97977935D01*
X115431775Y-97981710D01*
X115394011Y-97983005D01*
X115355887Y-97982463D01*
X115314315Y-97980726D01*
X115302133Y-97980072D01*
X115193400Y-97965545D01*
X115107174Y-97934813D01*
X115038276Y-97885287D01*
X114981527Y-97814377D01*
X114981031Y-97813593D01*
X114951373Y-97760692D01*
X114926683Y-97701820D01*
X114906557Y-97633831D01*
X114890592Y-97553575D01*
X114878385Y-97457905D01*
X114869533Y-97343673D01*
X114863633Y-97207729D01*
X114860282Y-97046927D01*
X114859075Y-96858118D01*
X114858550Y-96458263D01*
X114940460Y-96388783D01*
X114943419Y-96386282D01*
X115078934Y-96287348D01*
X115237414Y-96197678D01*
X115411269Y-96121080D01*
X115592911Y-96061364D01*
X115611383Y-96056540D01*
X115736026Y-96033549D01*
X115869017Y-96023070D01*
X116001092Y-96025035D01*
G37*
G36*
X115414482Y-84106757D02*
G01*
X115493511Y-84108512D01*
X115553295Y-84112421D01*
X115601442Y-84119384D01*
X115645560Y-84130302D01*
X115693255Y-84146076D01*
X115802469Y-84184919D01*
X115806628Y-84593774D01*
X115808061Y-84697593D01*
X115810207Y-84796523D01*
X115812853Y-84880570D01*
X115815843Y-84945654D01*
X115819020Y-84987694D01*
X115822230Y-85002611D01*
X115822232Y-85002611D01*
X115838883Y-84998880D01*
X115883403Y-84988107D01*
X115953411Y-84970885D01*
X116046525Y-84947808D01*
X116160362Y-84919470D01*
X116292539Y-84886465D01*
X116440676Y-84849388D01*
X116602388Y-84808832D01*
X116775295Y-84765392D01*
X116957014Y-84719660D01*
X117038111Y-84699242D01*
X117241526Y-84648125D01*
X117417823Y-84604026D01*
X117569286Y-84566432D01*
X117698201Y-84534826D01*
X117806852Y-84508695D01*
X117897525Y-84487523D01*
X117972505Y-84470795D01*
X118034076Y-84457998D01*
X118084523Y-84448616D01*
X118126131Y-84442134D01*
X118161186Y-84438038D01*
X118191972Y-84435812D01*
X118220773Y-84434943D01*
X118275550Y-84434970D01*
X118335815Y-84438540D01*
X118379663Y-84447425D01*
X118415798Y-84462871D01*
X118502665Y-84518942D01*
X118586392Y-84598012D01*
X118654648Y-84695964D01*
X118709994Y-84816576D01*
X118754987Y-84963625D01*
X118761677Y-85005773D01*
X118767090Y-85074288D01*
X118770610Y-85159490D01*
X118772196Y-85253882D01*
X118771807Y-85349967D01*
X118769399Y-85440246D01*
X118764933Y-85517223D01*
X118758367Y-85573400D01*
X118742007Y-85663975D01*
X118725835Y-85745161D01*
X118709956Y-85811796D01*
X118692042Y-85872544D01*
X118669766Y-85936067D01*
X118640802Y-86011027D01*
X118616882Y-86069711D01*
X118570820Y-86173525D01*
X118526441Y-86262221D01*
X118485764Y-86332170D01*
X118450810Y-86379741D01*
X118423599Y-86401305D01*
X118414856Y-86403937D01*
X118374654Y-86414918D01*
X118309411Y-86431978D01*
X118221892Y-86454435D01*
X118114861Y-86481605D01*
X117991086Y-86512805D01*
X117853331Y-86547352D01*
X117704362Y-86584562D01*
X117546944Y-86623753D01*
X117383842Y-86664240D01*
X117217823Y-86705341D01*
X117051652Y-86746373D01*
X116888094Y-86786652D01*
X116729914Y-86825495D01*
X116579879Y-86862219D01*
X116440753Y-86896140D01*
X116315302Y-86926576D01*
X116206292Y-86952843D01*
X116116488Y-86974257D01*
X116048656Y-86990137D01*
X116005560Y-86999797D01*
X115989967Y-87002556D01*
X115988932Y-86999713D01*
X115986152Y-86972672D01*
X115983898Y-86922270D01*
X115982379Y-86854349D01*
X115981804Y-86774753D01*
X115981392Y-86711387D01*
X115978169Y-86611948D01*
X115971111Y-86536919D01*
X115959459Y-86481917D01*
X115942453Y-86442562D01*
X115919333Y-86414471D01*
X115913460Y-86409350D01*
X115884372Y-86394781D01*
X115850207Y-86403543D01*
X115812261Y-86420832D01*
X115806689Y-87026196D01*
X115805336Y-87165296D01*
X115803795Y-87295277D01*
X115802064Y-87400355D01*
X115799962Y-87483866D01*
X115797312Y-87549148D01*
X115793934Y-87599536D01*
X115789650Y-87638367D01*
X115784282Y-87668977D01*
X115777649Y-87694701D01*
X115769574Y-87718878D01*
X115735140Y-87802835D01*
X115662320Y-87929693D01*
X115569244Y-88038007D01*
X115452599Y-88131335D01*
X115309074Y-88213232D01*
X115305083Y-88215181D01*
X115171697Y-88274964D01*
X115048611Y-88317457D01*
X114925722Y-88344938D01*
X114792927Y-88359683D01*
X114640122Y-88363968D01*
X114606574Y-88363779D01*
X114466029Y-88358737D01*
X114353799Y-88346656D01*
X114268105Y-88327274D01*
X114207168Y-88300330D01*
X114172063Y-88278323D01*
X114172063Y-84679475D01*
X114228399Y-84605695D01*
X114245798Y-84584001D01*
X114334169Y-84494276D01*
X114445489Y-84405725D01*
X114573303Y-84322273D01*
X114711156Y-84247847D01*
X114852596Y-84186371D01*
X114991167Y-84141772D01*
X115052305Y-84127240D01*
X115113697Y-84116472D01*
X115179030Y-84109989D01*
X115257378Y-84106915D01*
X115357813Y-84106375D01*
X115414482Y-84106757D01*
G37*
%TD*%
%LPC*%
D13*
%TO.C,C1*%
X157480000Y-119380000D03*
X162480000Y-119380000D03*
%TD*%
%TO.C,C2*%
X157480000Y-114300000D03*
X162480000Y-114300000D03*
%TD*%
D14*
%TO.C,C3*%
X162560000Y-109220000D03*
D13*
X162560000Y-106720000D03*
%TD*%
%TO.C,C4*%
X154305000Y-76835000D03*
X154305000Y-71835000D03*
%TD*%
%TO.C,C5*%
X157480000Y-106680000D03*
X157480000Y-111680000D03*
%TD*%
%TO.C,C6*%
X131445000Y-104775000D03*
X136445000Y-104775000D03*
%TD*%
%TO.C,C7*%
X136525000Y-118110000D03*
X131525000Y-118110000D03*
%TD*%
%TO.C,C8*%
X136525000Y-112395000D03*
X131525000Y-112395000D03*
%TD*%
D15*
%TO.C,C9*%
X139065000Y-122555000D03*
D13*
X136565000Y-122555000D03*
%TD*%
%TO.C,C10*%
X149047200Y-109131100D03*
X144047200Y-109131100D03*
%TD*%
D14*
%TO.C,C11*%
X137160000Y-60960000D03*
D13*
X137160000Y-57460000D03*
%TD*%
D14*
%TO.C,C12*%
X168910000Y-99060000D03*
D13*
X168910000Y-95560000D03*
%TD*%
D14*
%TO.C,C13*%
X115570000Y-60960000D03*
D13*
X115570000Y-57460000D03*
%TD*%
D16*
%TO.C,C14*%
X137795000Y-83820000D03*
D13*
X137795000Y-87320000D03*
%TD*%
%TO.C,C15*%
X143510000Y-82550000D03*
X148510000Y-82550000D03*
%TD*%
D14*
%TO.C,C16*%
X178435000Y-115570000D03*
D13*
X178435000Y-113070000D03*
%TD*%
D17*
%TO.C,CONN1*%
X144780000Y-67945000D03*
D18*
X142240000Y-67945000D03*
X139700000Y-67945000D03*
X137160000Y-67945000D03*
D19*
X134620000Y-67945000D03*
X132080000Y-67945000D03*
X129540000Y-67945000D03*
X127000000Y-67945000D03*
X124460000Y-67945000D03*
X121920000Y-67945000D03*
%TD*%
D17*
%TO.C,CONN2*%
X147320000Y-67945000D03*
D18*
X149860000Y-67945000D03*
D19*
X152400000Y-67945000D03*
X154940000Y-67945000D03*
X157480000Y-67945000D03*
X160020000Y-67945000D03*
X162560000Y-67945000D03*
X165100000Y-67945000D03*
X167640000Y-67945000D03*
X170180000Y-67945000D03*
%TD*%
D20*
%TO.C,CONN3*%
X121920000Y-65405000D03*
D19*
X124460000Y-65405000D03*
X127000000Y-65405000D03*
X129540000Y-65405000D03*
X132080000Y-65405000D03*
X134620000Y-65405000D03*
D18*
X137160000Y-65405000D03*
X139700000Y-65405000D03*
D19*
X142240000Y-65405000D03*
X144780000Y-65405000D03*
%TD*%
D20*
%TO.C,CONN4*%
X147320000Y-65405000D03*
D19*
X149860000Y-65405000D03*
X152400000Y-65405000D03*
X154940000Y-65405000D03*
X157480000Y-65405000D03*
X160020000Y-65405000D03*
X162560000Y-65405000D03*
X165100000Y-65405000D03*
X167640000Y-65405000D03*
X170180000Y-65405000D03*
%TD*%
D21*
%TO.C,D3*%
X145135600Y-103797100D03*
D22*
X147675600Y-103797100D03*
%TD*%
D23*
%TO.C,GND*%
X119380000Y-118110000D03*
%TD*%
%TO.C,+1V6*%
X177165000Y-118745000D03*
%TD*%
%TO.C,+5v*%
X178308000Y-92964000D03*
%TD*%
%TO.C,+3v3*%
X141224000Y-93484700D03*
%TD*%
D24*
%TO.C,U1*%
X142468600Y-112331500D03*
D25*
X142468600Y-114871500D03*
X142468600Y-117411500D03*
X142468600Y-119951500D03*
X150088600Y-119951500D03*
X150088600Y-117411500D03*
X150088600Y-114871500D03*
X150088600Y-112331500D03*
%TD*%
D26*
%TO.C,U2*%
X149860000Y-79375000D03*
D25*
X149860000Y-76835000D03*
X149860000Y-74295000D03*
X149860000Y-71755000D03*
X142240000Y-71755000D03*
X142240000Y-74295000D03*
X142240000Y-76835000D03*
X142240000Y-79375000D03*
%TD*%
D27*
%TO.C,J1*%
X164147000Y-123766500D03*
X170497000Y-123766500D03*
X176847000Y-123766500D03*
X164147000Y-140266500D03*
X170497000Y-140266500D03*
X176847000Y-140266500D03*
%TD*%
%TO.C,J2*%
X129286500Y-140266500D03*
X122936500Y-140266500D03*
X116586500Y-140266500D03*
X129286500Y-123766500D03*
X122936500Y-123766500D03*
X116586500Y-123766500D03*
%TD*%
D13*
%TO.C,R0*%
X166370000Y-119380000D03*
D28*
X173990000Y-119380000D03*
%TD*%
D13*
%TO.C,R1*%
X166370000Y-116840000D03*
D28*
X173990000Y-116840000D03*
%TD*%
D13*
%TO.C,R2*%
X163830000Y-116840000D03*
D28*
X156210000Y-116840000D03*
%TD*%
D13*
%TO.C,R3*%
X166370000Y-110490000D03*
D28*
X166370000Y-102870000D03*
%TD*%
D13*
%TO.C,R4*%
X153670000Y-116205000D03*
D28*
X153670000Y-108585000D03*
%TD*%
D13*
%TO.C,R6*%
X128270000Y-94615000D03*
D28*
X128270000Y-102235000D03*
%TD*%
D13*
%TO.C,R7*%
X131445000Y-94615000D03*
D28*
X131445000Y-102235000D03*
%TD*%
D13*
%TO.C,R9*%
X128270000Y-104775000D03*
D28*
X128270000Y-112395000D03*
%TD*%
D13*
%TO.C,R10*%
X130175000Y-115570000D03*
D28*
X137795000Y-115570000D03*
%TD*%
D13*
%TO.C,R11*%
X173990000Y-103505000D03*
D28*
X173990000Y-111125000D03*
%TD*%
D13*
%TO.C,R12*%
X173990000Y-113665000D03*
D28*
X166370000Y-113665000D03*
%TD*%
D13*
%TO.C,R13*%
X154940000Y-60960000D03*
D28*
X162560000Y-60960000D03*
%TD*%
D13*
%TO.C,R14*%
X124460000Y-71120000D03*
D29*
X129848154Y-76508154D03*
%TD*%
D13*
%TO.C,R15*%
X161290000Y-88265000D03*
D28*
X153670000Y-88265000D03*
%TD*%
D30*
%TO.C,SW2*%
X171450000Y-77645000D03*
X171450000Y-80645000D03*
%TD*%
%TO.C,SW3*%
X121920000Y-77645000D03*
X121920000Y-80645000D03*
%TD*%
D31*
%TO.C,SW4*%
X146177000Y-88138000D03*
X146177000Y-93218000D03*
X146177000Y-98298000D03*
%TD*%
D32*
%TO.C,RV1*%
X179705000Y-109855000D03*
X177205000Y-107355000D03*
X179705000Y-104855000D03*
%TD*%
D33*
%TO.C,SW1*%
X140970000Y-129540000D03*
X140970000Y-134620000D03*
X140970000Y-139700000D03*
X146050000Y-129540000D03*
X146050000Y-134620000D03*
X146050000Y-139700000D03*
X151130000Y-129540000D03*
X151130000Y-134620000D03*
X151130000Y-139700000D03*
%TD*%
M02*
